<?xml version="1.0" standalone="no"?>
<!DOCTYPE svg PUBLIC "-//W3C//DTD SVG 1.1//EN" "http://www.w3.org/Graphics/SVG/1.1/DTD/svg11.dtd" >
<svg xmlns="http://www.w3.org/2000/svg" xmlns:xlink="http://www.w3.org/1999/xlink" version="1.1">
<metadata>
Created by FontForge 20161013 at Tue Jul  7 08:10:48 2015
 By ,,,
(c) 2015 Connary Fagen
</metadata>
<defs>
<font id="VisbyCF-Thin" horiz-adv-x="588" >
  <font-face 
    font-family="Visby CF Thin"
    font-weight="250"
    font-stretch="normal"
    units-per-em="1000"
    panose-1="0 0 3 0 0 0 0 0 0 0"
    ascent="800"
    descent="-200"
    x-height="520"
    cap-height="700"
    bbox="-190 -216 1116 952"
    underline-thickness="50"
    underline-position="-150"
    unicode-range="U+0020-FB02"
  />
<missing-glyph horiz-adv-x="495" 
d="M406 -190h-314v990h314v-990zM166 734v-33h65v-37h-66v-32h165v32h-66v37h66v33h-164zM165 606v-103h165v34h-66v69h-99zM231 537h-33v35h33v-35zM165 476v-32h66v-37h-66v-33h99v70h66v32h-165zM297 417v-65h-132v-34h165v99h-33zM231 296v-55h33v22h33v-46h-99v79h-33
v-112h165v112h-99zM165 125v-112h165v112h-165zM297 46h-99v46h99v-46zM165 -10v-32h70l-70 -47v-33h165v33h-101l69 47h32v32h-165z" />
    <glyph glyph-name="fi" unicode="fi" horiz-adv-x="501" 
d="M208 709q35 0 60.5 -6.5t38.5 -13t35 -20.5l-16 -24q-22 16 -47 26.5t-73 10.5q-50 0 -80 -27t-30 -99v-36h179v-27h-179v-493h-29v493h-47v27h47v36q0 153 141 153zM422 520v-520h-29v520h29z" />
    <glyph glyph-name="fl" unicode="fl" horiz-adv-x="525" 
d="M442 700v-700h-30v622q-35 28 -74.5 43t-92.5 15q-66 0 -106 -28.5t-40 -101.5v-30h170v-27h-170v-493h-29v493h-50v27h50v30q0 86 49 121.5t126 35.5q53 0 91 -13.5t76 -40.5v47h30z" />
    <glyph glyph-name="f_f" unicode="ff" horiz-adv-x="677" 
d="M458.5 655.5q-29.5 -26.5 -29.5 -98.5v-37h175v-27h-175v-493h-29v493h-26h-278v-493h-29v493h-47v27h47v36q0 153 141 153q26 0 50.5 -7.5t42.5 -19.5l-15 -24q-34 24 -80 24q-50 0 -80 -27t-30 -99v-36h304v36q0 153 141 153q53 0 94 -27l-16 -24q-13 10 -34.5 17
t-45.5 7q-51 0 -80.5 -26.5z" />
    <glyph glyph-name=".notdef" horiz-adv-x="495" 
d="M406 -190h-314v990h314v-990zM166 734v-33h65v-37h-66v-32h165v32h-66v37h66v33h-164zM165 606v-103h165v34h-66v69h-99zM231 537h-33v35h33v-35zM165 476v-32h66v-37h-66v-33h99v70h66v32h-165zM297 417v-65h-132v-34h165v99h-33zM231 296v-55h33v22h33v-46h-99v79h-33
v-112h165v112h-99zM165 125v-112h165v112h-165zM297 46h-99v46h99v-46zM165 -10v-32h70l-70 -47v-33h165v33h-101l69 47h32v32h-165z" />
    <glyph glyph-name=".null" horiz-adv-x="0" 
 />
    <glyph glyph-name="nonmarkingreturn" horiz-adv-x="333" 
 />
    <glyph glyph-name="space" unicode=" " horiz-adv-x="300" 
 />
    <glyph glyph-name="exclam" unicode="!" horiz-adv-x="163" 
d="M96 170h-29v530h29v-530zM102 0h-40v43h40v-43z" />
    <glyph glyph-name="quotedbl" unicode="&#x22;" horiz-adv-x="195" 
d="M150 525h-29v175h29v-175zM74 525h-29v175h29v-175z" />
    <glyph glyph-name="numbersign" unicode="#" horiz-adv-x="550" 
d="M403 493l-21 -285h123v-28h-125l-12 -180h-29l12 180h-183l-12 -180h-29l12 180h-94v28h96l21 285h-117v27h119l13 180h29l-13 -180h183l13 180h29l-13 -180h100v-27h-102zM374 493h-183l-21 -285h183z" />
    <glyph glyph-name="dollar" unicode="$" horiz-adv-x="562" 
d="M494.5 86q-27.5 -39 -74 -63t-103.5 -29v-84h-27v83q-57 0 -109 21.5t-89 58.5t-52 84l26 10q24 -67 83 -107.5t141 -40.5q55 0 101.5 18.5t74.5 53.5t28 81q0 66 -42.5 99.5t-115.5 58.5l-111 39q-76 25 -114.5 63t-38.5 102q0 48 28 87.5t77 62.5t108 23h5v83h27v-85
q71 -8 123.5 -48.5t74.5 -96.5l-24 -11q-24 56 -77.5 94t-130.5 38q-81 0 -132 -40.5t-51 -106.5q0 -58 32.5 -87.5t96.5 -52.5l107 -37q57 -19 95.5 -39.5t64.5 -56t26 -89.5q0 -47 -27.5 -86z" />
    <glyph glyph-name="percent" unicode="%" horiz-adv-x="698" 
d="M246.5 669q36.5 -36 36.5 -87t-36.5 -87t-87.5 -36t-87.5 36t-36.5 87t36.5 87t87.5 36t87.5 -36zM589 685l-459 -685l-21 16l460 685zM90.5 650q-28.5 -27 -28.5 -68t28.5 -68t68.5 -27t68.5 27t28.5 68t-28.5 68t-68.5 27t-68.5 -27zM626.5 205q36.5 -36 36.5 -87
t-36.5 -87t-87.5 -36t-87.5 36t-36.5 87t36.5 87t87.5 36t87.5 -36zM470.5 186q-28.5 -27 -28.5 -68t28.5 -68t68.5 -27t68.5 27t28.5 68t-28.5 68t-68.5 27t-68.5 -27z" />
    <glyph glyph-name="ampersand" unicode="&#x26;" horiz-adv-x="682" 
d="M607 27.5q15 5.5 31 17.5v-28q-30 -23 -63 -23q-75 0 -75 83v50q-26 -65 -83 -101t-125 -36q-66 0 -120 26.5t-85.5 74t-31.5 108.5q0 89 56 145.5t156 65.5l-197 290h436v-27h-384l200 -292q-23 2 -52 2q-48 0 -90.5 -21.5t-69 -63t-26.5 -99.5q0 -57 28 -98t74.5 -62
t102.5 -21q64 0 112 30.5t73.5 78t25.5 97.5v164h117v-28h-88v-283q0 -31 10 -43t32 -12q21 0 36 5.5z" />
    <glyph glyph-name="quotesingle" unicode="'" horiz-adv-x="119" 
d="M74 525h-29v175h29v-175z" />
    <glyph glyph-name="parenleft" unicode="(" horiz-adv-x="208" 
d="M100.5 549.5q-25.5 -104.5 -25.5 -229.5q0 -256 101 -450h-25q-53 95 -79.5 205.5t-26.5 244.5q0 127 26.5 231.5t79.5 193.5h25q-50 -91 -75.5 -195.5z" />
    <glyph glyph-name="parenright" unicode=")" horiz-adv-x="208" 
d="M70 745q53 -89 79.5 -193.5t26.5 -231.5q0 -134 -26.5 -244.5t-79.5 -205.5h-25q101 194 101 450q0 125 -25.5 229.5t-75.5 195.5h25z" />
    <glyph glyph-name="asterisk" unicode="*" horiz-adv-x="422" 
d="M224 591h-25l-3 99h30zM182 575l-6 -21l-101 27l7 25zM347 581l-101 -27l-5 21l99 31zM200 515l-58 -83l-22 16l62 82zM302 448l-22 -16l-57 83l17 15z" />
    <glyph glyph-name="plus" unicode="+" horiz-adv-x="425" 
d="M380 273h-154v-159h-22v159h-159v22h159v154h22v-154h154v-22z" />
    <glyph glyph-name="comma" unicode="," horiz-adv-x="162" 
d="M95 20h42l-102 -155h-22z" />
    <glyph glyph-name="hyphen" unicode="-" horiz-adv-x="400" 
d="M355 273h-310v22h310v-22z" />
    <glyph glyph-name="period" unicode="." horiz-adv-x="139" 
d="M90 0h-41v43h41v-43z" />
    <glyph glyph-name="slash" unicode="/" horiz-adv-x="457" 
d="M72 -130h-27l340 875h27z" />
    <glyph glyph-name="zero" unicode="0" horiz-adv-x="620" 
d="M448 665q60 -42 93.5 -120t33.5 -182v-26q0 -104 -33.5 -182t-93.5 -120t-138 -42t-138 42t-93.5 120t-33.5 182v26q0 104 33.5 182t93.5 120t138 42t138 -42zM190.5 643.5q-53.5 -36.5 -85 -108t-31.5 -172.5v-26q0 -101 31.5 -172.5t85 -107.5t119.5 -36t119.5 36
t85 107.5t31.5 172.5v26q0 101 -31.5 172.5t-85 108t-119.5 36.5t-119.5 -36.5z" />
    <glyph glyph-name="one" unicode="1" horiz-adv-x="256" 
d="M174 0h-29v673h-83v27h112v-700z" />
    <glyph glyph-name="two" unicode="2" horiz-adv-x="502" 
d="M352.5 681.5q47.5 -25.5 76 -70.5t28.5 -100q0 -38 -18 -76.5t-47.5 -76t-85.5 -100.5q-10 -12 -20.5 -24t-20.5 -24l-161 -183h353v-27h-398v13l188 216l40 45q55 62 82 96.5t43 69t16 71.5q0 48 -23 86.5t-63.5 60.5t-90.5 22q-48 0 -89 -22.5t-65 -64.5t-24 -96v-15
h-28v15q0 62 28 109.5t75.5 74t102.5 26.5q54 0 101.5 -25.5z" />
    <glyph glyph-name="three" unicode="3" horiz-adv-x="537" 
d="M274 405q59 4 110.5 -18.5t83 -69t31.5 -112.5q0 -64 -31 -113t-83.5 -75.5t-115.5 -26.5q-64 0 -115 28t-80 75.5t-29 104.5l29 2q0 -48 25 -90t70 -67t100 -25q57 0 102.5 22.5t72 65t26.5 99.5q0 86 -55.5 129.5t-143.5 43.5q-16 0 -48 -2l200 297h-358v27h412z" />
    <glyph glyph-name="four" unicode="4" horiz-adv-x="525" 
d="M415 251h75v-28h-75v-223h-29v223h-344v16l360 461h13v-449zM82 251h304v385z" />
    <glyph glyph-name="five" unicode="5" horiz-adv-x="559" 
d="M445 673h-307l-38 -279q36 40 85 58.5t102 18.5q58 0 110.5 -30.5t84.5 -85.5t32 -124t-32.5 -124t-88 -86t-121.5 -31q-50 0 -95.5 19.5t-78.5 52.5t-48 71l26 17q17 -56 73 -94t123 -38q60 0 108.5 28t76.5 76.5t28 108.5q0 58 -26.5 107t-72 77.5t-99.5 28.5
q-55 0 -106 -25t-85 -69l-28 6l44 344h333v-27z" />
    <glyph glyph-name="six" unicode="6" horiz-adv-x="528" 
d="M117 377q38 28 76.5 37.5t69.5 9.5q60 0 111.5 -27.5t82.5 -76.5t31 -111t-30.5 -112t-81.5 -78.5t-112 -28.5t-112.5 28.5t-81.5 78.5t-30 112q0 55 19 105t43 85.5t59 79.5l170 221h35zM124 348q-53 -48 -53 -139q0 -56 27.5 -100t72.5 -68t94 -24q48 0 92.5 24
t72.5 68t28 100q0 60 -28 102t-72.5 63.5t-92.5 21.5q-88 0 -141 -48z" />
    <glyph glyph-name="seven" unicode="7" horiz-adv-x="469" 
d="M164 0h-29l261 673h-371v27h409z" />
    <glyph glyph-name="eight" unicode="8" horiz-adv-x="511" 
d="M434.5 312q36.5 -50 36.5 -117q0 -59 -29 -105t-78.5 -71.5t-108.5 -25.5q-58 0 -107.5 25.5t-78.5 71.5t-29 105q0 67 36.5 117t98.5 75q-49 21 -74.5 62.5t-25.5 87.5t22 84.5t63 62t95 23.5t95.5 -23.5t63.5 -62.5t22 -84q0 -46 -26 -87t-74 -63q62 -25 98.5 -75z
M124 468.5q20 -32.5 55 -51.5t76 -19q42 0 76.5 19t54.5 51.5t20 70.5q0 36 -18 68t-52 52.5t-81 20.5t-81 -20.5t-52 -52.5t-18 -68q0 -38 20 -70.5zM349 40.5q43 21.5 69 61.5t26 93q0 50 -24.5 90.5t-68 63t-96.5 22.5t-96 -22.5t-67.5 -63t-24.5 -90.5q0 -52 25.5 -92
t69 -62t93.5 -22q51 0 94 21.5z" />
    <glyph glyph-name="nine" unicode="9" horiz-adv-x="528" 
d="M411 322q-38 -28 -76.5 -37.5t-69.5 -9.5q-59 0 -111 27.5t-83 76.5t-31 111t30.5 112t81.5 78.5t112 28.5t112.5 -28.5t81.5 -78.5t30 -112q0 -55 -19 -105t-43 -85.5t-59 -79.5l-170 -221h-35zM404 351q53 48 53 139q0 56 -27.5 100t-72 68t-93.5 24t-93.5 -24
t-72.5 -68t-28 -100q0 -60 28.5 -102t73 -63.5t92.5 -21.5q87 0 140 48z" />
    <glyph glyph-name="colon" unicode=":" horiz-adv-x="142" 
d="M95 0h-41v43h41v-43zM95 475h-41v43h41v-43z" />
    <glyph glyph-name="semicolon" unicode=";" horiz-adv-x="197" 
d="M141 454h-41v43h41v-43zM92 20h42l-102 -155h-22z" />
    <glyph glyph-name="less" unicode="&#x3c;" horiz-adv-x="497" 
d="M462 450l-380 -210l380 -208v-32l-417 231v19l417 231v-31z" />
    <glyph glyph-name="equal" unicode="=" horiz-adv-x="426" 
d="M381 353h-335v22h335v-22zM381 193h-335v22h335v-22z" />
    <glyph glyph-name="greater" unicode="&#x3e;" horiz-adv-x="497" 
d="M452 250v-19l-417 -231v32l380 208l-380 210v31z" />
    <glyph glyph-name="question" unicode="?" horiz-adv-x="482" 
d="M344 683q46 -24 72 -67t26 -100q0 -45 -24.5 -79.5t-72.5 -79.5q-47 -43 -70.5 -76t-23.5 -75v-35h-29v35q0 49 25.5 85t75.5 82q45 42 67.5 73t22.5 70q0 81 -50 122.5t-124 41.5q-72 0 -121 -45.5t-49 -141.5h-29q0 66 25.5 114.5t70.5 74t103 25.5q59 0 105 -24z
M261 0h-40v43h40v-43z" />
    <glyph glyph-name="at" unicode="@" horiz-adv-x="791" 
d="M563 661q80 -46 129 -128.5t49 -185.5q0 -62 -17.5 -105t-45 -64.5t-58.5 -21.5q-50 0 -75.5 30t-23.5 91q-22 -65 -62 -94t-84 -29q-40 0 -77.5 21.5t-61.5 65.5t-24 106q0 58 24.5 99.5t62 62.5t76.5 21q40 0 77 -21.5t62 -63.5v76h28v-223q0 -62 19.5 -90t59.5 -28
t66 41t26 126q0 98 -44.5 174t-118 117.5t-156.5 41.5q-76 0 -149 -42t-119.5 -118t-46.5 -173q0 -94 46.5 -168.5t120 -116t150.5 -41.5q53 0 100.5 15t84.5 44l29 -14q-96 -73 -216 -73q-86 0 -165 46t-128.5 127t-49.5 181q0 103 49.5 185.5t128.5 128.5t165 46
q89 0 169 -46zM314.5 484.5q-30.5 -16.5 -51.5 -51.5t-21 -86q0 -57 21 -94.5t51.5 -55t60.5 -17.5q32 0 63 19t51.5 56.5t20.5 91.5q0 50 -20.5 85t-51.5 52t-63 17q-30 0 -60.5 -16.5z" />
    <glyph glyph-name="A" unicode="A" horiz-adv-x="681" 
d="M514 255h-348l-111 -255h-30l308 700h15l308 -700h-30zM502 282l-162 369l-161 -369h323z" />
    <glyph glyph-name="B" unicode="B" horiz-adv-x="572" 
d="M488.5 314q38.5 -48 38.5 -115q0 -101 -62 -150t-187 -49h-206v700h209q108 0 159 -46t51 -122q0 -57 -29.5 -96.5t-89.5 -54.5q78 -19 116.5 -67zM281 396q96 0 138.5 32.5t42.5 104.5q0 140 -181 140h-180v-277h180zM443.5 67q54.5 40 54.5 131q0 79 -57 125t-166 46
h-174v-342h174q114 0 168.5 40z" />
    <glyph glyph-name="C" unicode="C" horiz-adv-x="644" 
d="M507 684.5q57 -22.5 102 -64.5l-19 -20q-38 39 -91 59.5t-110 20.5q-78 0 -152 -42.5t-121 -118t-47 -169.5t47 -169.5t121 -118t152 -42.5q58 0 110 20t90 59l20 -20q-45 -41 -102 -63.5t-118 -22.5q-88 0 -168.5 46t-130.5 127.5t-50 183.5t50 183.5t130.5 127.5
t168.5 46q61 0 118 -22.5z" />
    <glyph glyph-name="D" unicode="D" horiz-adv-x="642" 
d="M425 653.5q79 -46.5 123 -127t44 -179.5q0 -96 -44 -175t-123 -125.5t-180 -46.5h-170v700h170q101 0 180 -46.5zM412.5 69q72.5 42 112 115t39.5 163q0 93 -39.5 167.5t-111.5 116.5t-168 42h-141v-646h141q95 0 167.5 42z" />
    <glyph glyph-name="E" unicode="E" horiz-adv-x="515" 
d="M470 27v-27h-415v700h405v-27h-375v-305h275v-28h-275v-313h385z" />
    <glyph glyph-name="F" unicode="F" horiz-adv-x="506" 
d="M85 673v-307h312v-27h-312v-339h-30v700h406v-27h-376z" />
    <glyph glyph-name="G" unicode="G" horiz-adv-x="737" 
d="M662.5 157q-39.5 -78 -110.5 -121t-165 -43q-87 0 -167.5 46t-130 127.5t-49.5 183.5t48.5 183.5t128.5 127.5t170 46q79 0 144.5 -30t105.5 -76l-18 -18q-36 42 -96 69.5t-136 27.5q-82 0 -156 -42t-119 -117t-45 -171q0 -95 46 -170.5t120.5 -117.5t153.5 -42
q82 0 145 35.5t100 100t43 149.5h-231v30h259q-1 -100 -40.5 -178z" />
    <glyph glyph-name="H" unicode="H" horiz-adv-x="626" 
d="M556 700v-700h-29v326h-428v-326h-29v700h29v-347h428v347h29z" />
    <glyph glyph-name="I" unicode="I" horiz-adv-x="182" 
d="M105 0h-28v700h28v-700z" />
    <glyph glyph-name="J" unicode="J" horiz-adv-x="509" 
d="M444 257q0 -135 -57.5 -199.5t-154.5 -64.5q-116 0 -187 83l20 21q31 -38 70.5 -58t98.5 -20q83 0 132 58t49 181v442h29v-443z" />
    <glyph glyph-name="K" unicode="K" horiz-adv-x="558" 
d="M212 327l316 -327h-38l-295 306l-95 -111v-195h-30v700h30v-455l376 455h39z" />
    <glyph glyph-name="L" unicode="L" horiz-adv-x="551" 
d="M494 28v-28h-417v700h29v-672h388z" />
    <glyph glyph-name="M" unicode="M" horiz-adv-x="849" 
d="M779 0h-30v639l-315 -639h-19l-316 640v-640h-29v700h29l325 -656l325 656h30v-700z" />
    <glyph glyph-name="N" unicode="N" horiz-adv-x="670" 
d="M600 0h-31l-470 665v-665h-29v700h31l470 -667v667h29v-700z" />
    <glyph glyph-name="O" unicode="O" horiz-adv-x="804" 
d="M571 661q80 -46 129 -127.5t49 -183.5t-49 -183.5t-129 -127.5t-169 -46q-87 0 -167 46t-130 127.5t-50 183.5t50 183.5t130 127.5t167 46q89 0 169 -46zM250 637.5q-74 -42.5 -120.5 -118t-46.5 -169.5t46.5 -169.5t120.5 -118t152 -42.5q82 0 155.5 42t118 117.5
t44.5 170.5t-44.5 170.5t-118 117.5t-155.5 42q-78 0 -152 -42.5z" />
    <glyph glyph-name="P" unicode="P" horiz-adv-x="574" 
d="M411.5 673.5q52.5 -26.5 82.5 -74.5t30 -110t-30 -110t-82.5 -74.5t-118.5 -26.5h-194v-278h-29v700h223q66 0 118.5 -26.5zM438 354.5q57 50.5 57 134.5t-57 134.5t-155 50.5h-184v-370h184q98 0 155 50.5z" />
    <glyph glyph-name="Q" unicode="Q" horiz-adv-x="808" 
d="M714 192q-35 -72 -96 -121l69 -71h-35l-55 56q-43 -31 -93 -47t-102 -16q-87 0 -167 46t-130 127.5t-50 183.5t50 183.5t130 127.5t167 46q89 0 169 -46t129 -127.5t49 -183.5q0 -86 -35 -158zM578 75l-174 179h35l160 -164q56 45 88.5 112t32.5 148q0 95 -44.5 170.5
t-118 117.5t-155.5 42q-78 0 -152 -42.5t-120.5 -118t-46.5 -169.5t46.5 -169.5t120.5 -118t152 -42.5q97 0 176 55z" />
    <glyph glyph-name="R" unicode="R" horiz-adv-x="585" 
d="M509 0l-224 278h-186v-278h-29v700h223q66 0 118.5 -26.5t82.5 -74.5t30 -110q0 -87 -57 -144.5t-147 -65.5l225 -279h-36zM99 304h184q98 0 155 50.5t57 134.5t-57 134.5t-155 50.5h-184v-370z" />
    <glyph glyph-name="S" unicode="S" horiz-adv-x="562" 
d="M429 665q61 -42 86 -105l-24 -11q-24 56 -77.5 94t-130.5 38q-81 0 -132 -40.5t-51 -106.5q0 -58 32.5 -87.5t96.5 -52.5l107 -37q57 -19 95.5 -39.5t64.5 -56t26 -89.5q0 -51 -31.5 -92t-85 -64t-115.5 -23q-57 0 -109 21.5t-89 58.5t-52 84l26 10q24 -67 83 -107.5
t141 -40.5q55 0 101.5 18.5t74.5 53.5t28 81q0 66 -42.5 99.5t-115.5 58.5l-111 39q-76 25 -114.5 63t-38.5 102q0 48 28 87.5t77 62.5t108 23q83 0 144 -42z" />
    <glyph glyph-name="T" unicode="T" horiz-adv-x="565" 
d="M513 674h-217v-674h-27v674h-217v26h461v-26z" />
    <glyph glyph-name="U" unicode="U" horiz-adv-x="643" 
d="M578 267q0 -85 -31.5 -146.5t-89.5 -94.5t-136 -33t-136 33t-89 94.5t-31 146.5v433h29v-431q0 -118 59 -183.5t168 -65.5t168.5 65.5t59.5 183.5v431h29v-433z" />
    <glyph glyph-name="V" unicode="V" horiz-adv-x="681" 
d="M348 0h-15l-308 700h30l285 -651l286 651h30z" />
    <glyph glyph-name="W" unicode="W" horiz-adv-x="1012" 
d="M746 0h-4l-235 629l-237 -629h-4l-226 700h30l200 -618l234 618h4l234 -618l201 618h29z" />
    <glyph glyph-name="X" unicode="X" horiz-adv-x="651" 
d="M573 0l-247 342l-247 -342h-32l263 364l-243 336h31l228 -315l228 315h31l-243 -337l263 -363h-32z" />
    <glyph glyph-name="Y" unicode="Y" horiz-adv-x="612" 
d="M320 350v-350h-29v350l-256 350h32l239 -329l239 329h32z" />
    <glyph glyph-name="Z" unicode="Z" horiz-adv-x="585" 
d="M88 28h462v-28h-515l459 673h-433v27h485z" />
    <glyph glyph-name="bracketleft" unicode="[" horiz-adv-x="212" 
d="M168 718h-94v-821h94v-27h-123v875h123v-27z" />
    <glyph glyph-name="backslash" unicode="\" horiz-adv-x="457" 
d="M72 745l340 -875h-27l-340 875h27z" />
    <glyph glyph-name="bracketright" unicode="]" horiz-adv-x="212" 
d="M167 745v-875h-122v27h94v821h-94v27h122z" />
    <glyph glyph-name="asciicircum" unicode="^" horiz-adv-x="462" 
d="M417 475h-38l-147 192l-149 -192h-38l167 225h38z" />
    <glyph glyph-name="underscore" unicode="_" horiz-adv-x="590" 
d="M545 -28h-500v28h500v-28z" />
    <glyph glyph-name="grave" unicode="`" horiz-adv-x="128" 
d="M43 767l85 -145h-24l-104 145h43z" />
    <glyph glyph-name="a" unicode="a" 
d="M412 492q58 -34 92 -103v131h29v-520h-29v128q-34 -68 -92 -101.5t-123 -33.5q-59 0 -116.5 31t-95 91t-37.5 144q0 85 37.5 145.5t95 91t116.5 30.5q65 0 123 -34zM186.5 472.5q-50.5 -26.5 -84 -81t-33.5 -132.5t33.5 -131.5t84 -80t101.5 -26.5t101 26.5t83 80.5
t33 131q0 78 -33 132t-83 81t-101 27t-101.5 -26.5z" />
    <glyph glyph-name="b" unicode="b" 
d="M415.5 495.5q57.5 -30.5 95 -91t37.5 -145.5q0 -84 -37.5 -144t-95 -91t-116.5 -31q-65 0 -123 33.5t-92 101.5v-128h-29v700h30v-308q35 67 92.5 100.5t121.5 33.5q59 0 116.5 -30.5zM402.5 46.5q50.5 26.5 83.5 80.5t33 132t-33 132.5t-83.5 81t-101.5 26.5
q-52 0 -102 -27t-83 -81t-33 -132q0 -77 33 -131t83 -81t102 -27q51 0 101.5 26.5z" />
    <glyph glyph-name="c" unicode="c" horiz-adv-x="532" 
d="M409.5 491.5q60.5 -34.5 93.5 -96.5l-30 -8q-31 54 -82.5 83t-103.5 29q-51 0 -101.5 -26.5t-83.5 -80.5t-33 -132t33 -132t83.5 -80.5t101.5 -26.5q53 0 105 29t83 84l27 -10q-32 -62 -92.5 -96.5t-122.5 -34.5q-60 0 -117 31t-93.5 91.5t-36.5 144.5t36.5 144.5
t93.5 91t117 30.5q62 0 122.5 -34.5z" />
    <glyph glyph-name="d" unicode="d" 
d="M538 700v-700h-29v128q-34 -68 -92 -101.5t-123 -33.5q-59 0 -116.5 31t-95 91t-37.5 144q0 85 37.5 145.5t95 91t116.5 30.5q64 0 122 -33.5t92 -101.5v309h30zM394 47q50 27 83 81t33 131q0 78 -33 132t-83 81t-102 27q-51 0 -101.5 -26.5t-83.5 -81t-33 -132.5
t33 -132t83.5 -80.5t101.5 -26.5q52 0 102 27z" />
    <glyph glyph-name="e" unicode="e" horiz-adv-x="572" 
d="M402 495.5q57 -30.5 93.5 -91t36.5 -144.5l-1 -14h-462q3 -73 36.5 -124t82 -76t98.5 -25t95.5 19.5t79.5 58.5l21 -18q-36 -43 -86.5 -65.5t-108.5 -22.5q-60 0 -117 31t-93.5 91.5t-36.5 144.5t37 144.5t93.5 91t115.5 30.5t116 -30.5zM188.5 474q-48.5 -25 -82 -75.5
t-37.5 -124.5h435q-4 74 -37.5 124.5t-82 75.5t-98.5 25q-49 0 -97.5 -25z" />
    <glyph glyph-name="f" unicode="f" horiz-adv-x="326" 
d="M125 655.5q-29 -26.5 -29 -98.5v-37h174v-27h-174v-493h-29v493h-47v27h47v36q0 153 141 153q26 0 50.5 -7.5t42.5 -19.5l-15 -24q-34 24 -81 24q-51 0 -80 -26.5z" />
    <glyph glyph-name="g" unicode="g" 
d="M533 520v-520q0 -73 -32 -119t-80.5 -66t-99.5 -20q-59 0 -100 14t-57 32v29q17 -19 56.5 -33t100.5 -14q48 0 89.5 18.5t67.5 58t26 100.5v128q-34 -68 -92 -101.5t-123 -33.5q-59 0 -116.5 31t-95 91t-37.5 144q0 85 37.5 145.5t95 91t116.5 30.5q65 0 123 -34t92 -103
v131h29zM389 47.5q50 26.5 83 80.5t33 131q0 78 -33 132t-83 81t-101 27t-101.5 -26.5t-84 -81t-33.5 -132.5t33.5 -131.5t84 -80t101.5 -26.5t101 26.5z" />
    <glyph glyph-name="h" unicode="h" horiz-adv-x="550" 
d="M392 502q46 -23 74.5 -72.5t28.5 -124.5v-305h-29v309q0 93 -48.5 141t-125.5 48q-49 0 -93 -25.5t-73.5 -68t-36.5 -89.5v-315h-29v700h29v-326q5 26 31.5 62t71 62.5t100.5 26.5q54 0 100 -23z" />
    <glyph glyph-name="i" unicode="i" horiz-adv-x="173" 
d="M101 668h-29v32h29v-32zM101 0h-29v520h29v-520z" />
    <glyph glyph-name="j" unicode="j" horiz-adv-x="207" 
d="M137 668h-29v32h29v-32zM137 -69q0 -75 -26 -105.5t-74 -30.5q-22 0 -46.5 8t-37.5 18v25q17 -12 41 -20.5t47 -8.5q33 0 50 26t17 78v599h29v-589z" />
    <glyph glyph-name="k" unicode="k" horiz-adv-x="547" 
d="M203 253l-99 -103v-150h-29v700h29v-509l97 101v2l1 -1l219 227h40l-238 -247l287 -273h-39z" />
    <glyph glyph-name="l" unicode="l" horiz-adv-x="180" 
d="M105 0h-30v700h30v-700z" />
    <glyph glyph-name="m" unicode="m" horiz-adv-x="884" 
d="M724.5 505.5q41.5 -19.5 69.5 -65.5t28 -119v-321h-29v327q0 88 -43 127.5t-109 39.5q-71 0 -119 -49t-62 -122v-323h-29v327q0 87 -45 127t-110 40q-51 0 -89 -26t-60.5 -65.5t-28.5 -79.5v-323h-29v520h29v-145q3 31 24 66t60 59.5t94 24.5q57 0 108.5 -34t69.5 -107
q9 35 35 67.5t65 53t86 20.5q43 0 84.5 -19.5z" />
    <glyph glyph-name="n" unicode="n" horiz-adv-x="550" 
d="M392 502q46 -23 74.5 -72.5t28.5 -124.5v-305h-29v309q0 93 -48.5 141t-125.5 48q-49 0 -93 -25.5t-73.5 -68t-36.5 -89.5v-315h-29v520h29v-146q5 26 31.5 62t71 62.5t100.5 26.5q54 0 100 -23z" />
    <glyph glyph-name="o" unicode="o" horiz-adv-x="573" 
d="M403 495.5q57 -30.5 93.5 -91t36.5 -144.5t-36.5 -144.5t-93.5 -91.5t-116 -31q-60 0 -117 31t-93.5 91.5t-36.5 144.5t36.5 144.5t93.5 91t117 30.5q59 0 116 -30.5zM185.5 472q-50.5 -27 -83.5 -81t-33 -131q0 -78 33 -132t83.5 -80.5t101.5 -26.5t101 26.5t83 80.5
t33 132q0 77 -33 131t-83 81t-101 27t-101.5 -27z" />
    <glyph glyph-name="p" unicode="p" 
d="M415.5 495.5q57.5 -30.5 95 -91t37.5 -145.5q0 -84 -37.5 -144t-95 -91t-116.5 -31q-65 0 -123 33.5t-92 101.5v-318h-29v710h29v-131q34 69 92 103t123 34q59 0 116.5 -30.5zM402.5 46.5q50.5 26.5 83.5 80.5t33 132t-33 132.5t-83.5 81t-101.5 26.5q-52 0 -102 -27
t-83 -81t-33 -132q0 -77 33 -131t83 -81t102 -27q51 0 101.5 26.5z" />
    <glyph glyph-name="q" unicode="q" horiz-adv-x="600" 
d="M540 520v-710h-29v318q-34 -68 -92 -101.5t-123 -33.5q-59 0 -116.5 31t-95 91t-37.5 144q0 85 37.5 145.5t95 91t116.5 30.5q65 0 123 -34t92 -103v131h29zM396 47q50 27 83 81t33 131q0 78 -33 132t-83 81t-102 27q-51 0 -101.5 -26.5t-83.5 -81t-33 -132.5t33 -132
t83.5 -80.5t101.5 -26.5q52 0 102 27z" />
    <glyph glyph-name="r" unicode="r" horiz-adv-x="344" 
d="M319 523v-25q-11 1 -31 1q-81 -1 -134 -53t-69 -151v-295h-30v520h30v-154q6 40 33 76.5t71.5 59.5t99.5 23q6 0 30 -2z" />
    <glyph glyph-name="s" unicode="s" horiz-adv-x="420" 
d="M290.5 479.5q-31.5 19.5 -81.5 19.5q-53 0 -86 -28t-33 -66q0 -36 22 -60.5t81 -44.5l41 -14q80 -28 118 -61.5t38 -91.5q0 -42 -25.5 -73.5t-66 -49t-83.5 -17.5q-62 0 -115.5 37t-69.5 96l30 5q12 -49 56.5 -80t99.5 -31q35 0 69 13.5t55.5 39t21.5 60.5q0 46 -32 74
t-94 50l-55 19q-68 23 -94 53.5t-26 74.5q0 32 20 60t54 45t75 17q55 0 95 -25.5t64 -69.5l-27 -8q-20 37 -51.5 56.5z" />
    <glyph glyph-name="t" unicode="t" horiz-adv-x="276" 
d="M205.5 25q15.5 5 35.5 15v-28q-36 -18 -78 -18q-26 0 -43.5 14.5t-17.5 45.5v439h-74v27h74v90h29v-90h109v-27h-109v-427q0 -27 10 -36.5t31 -9.5q18 0 33.5 5z" />
    <glyph glyph-name="u" unicode="u" horiz-adv-x="536" 
d="M481 520v-520h-29v142q-6 -27 -31 -62t-68.5 -61t-101.5 -26q-83 0 -137 53t-54 163v311h29v-314q0 -95 43 -140t121 -45q73 0 126 52.5t73 129.5v317h29z" />
    <glyph glyph-name="v" unicode="v" horiz-adv-x="502" 
d="M255 0h-7l-216 520h29l190 -452l190 452h30z" />
    <glyph glyph-name="w" unicode="w" horiz-adv-x="860" 
d="M630 0h-6l-195 465l-193 -465h-6l-191 520h29l165 -457l194 457h5l195 -457l165 457h29z" />
    <glyph glyph-name="x" unicode="x" horiz-adv-x="481" 
d="M241 241l-177 -241h-34l196 263l-193 257h35l173 -233l172 233h36l-194 -257l196 -263h-33z" />
    <glyph glyph-name="y" unicode="y" horiz-adv-x="517" 
d="M485 520l-288 -710h-30l84 206l-219 504h30l203 -468l189 468h31z" />
    <glyph glyph-name="z" unicode="z" horiz-adv-x="520" 
d="M96 28h382v-28h-443l378 493h-367v27h428z" />
    <glyph glyph-name="braceleft" unicode="{" horiz-adv-x="234" 
d="M189 718h-35q-16 0 -25.5 -10.5t-9.5 -26.5v-307l-36 -68l36 -66v-306q0 -16 9.5 -26.5t25.5 -10.5h35v-27h-35q-29 0 -46.5 20t-17.5 47v298l-45 71l45 73v299q0 27 17.5 47t46.5 20h35v-27z" />
    <glyph glyph-name="bar" unicode="|" horiz-adv-x="177" 
d="M103 -190h-28v990h28v-990z" />
    <glyph glyph-name="braceright" unicode="}" horiz-adv-x="234" 
d="M80 745q29 0 46.5 -20t17.5 -47v-299l45 -73l-45 -71v-298q0 -27 -17.5 -47t-46.5 -20h-35v27h35q16 0 25.5 10.5t9.5 26.5v306l37 66l-37 68v307q0 16 -9.5 26.5t-25.5 10.5h-35v27h35z" />
    <glyph glyph-name="asciitilde" unicode="~" horiz-adv-x="447" 
d="M192 324.5q21 -9.5 46 -28.5q20 -14 33.5 -21t32.5 -7q39 0 56 16t17 37h25q0 -41 -26.5 -60.5t-66.5 -19.5q-31 0 -50.5 9.5t-42.5 27.5q-20 16 -36 24t-39 8q-40 0 -56.5 -18.5t-15.5 -39.5h-24q0 41 28.5 61.5t64.5 20.5q33 0 54 -9.5z" />
    <glyph glyph-name="exclamdown" unicode="&#xa1;" horiz-adv-x="132" 
d="M62 477v43h40v-43h-40zM67 -180v531h29v-531h-29z" />
    <glyph glyph-name="cent" unicode="&#xa2;" horiz-adv-x="541" 
d="M398.5 127.5q48.5 28.5 76.5 78.5l27 -9q-31 -58 -87 -91.5t-116 -37.5v-108h-29v109q-58 4 -110.5 35.5t-86 89t-33.5 136.5q0 78 33.5 135t86 88.5t110.5 35.5v111h29v-110q60 -4 116 -37.5t88 -90.5l-30 -8q-29 49 -76.5 77.5t-97.5 32.5v-469q51 4 99.5 32.5z
M99 206.5q30 -51.5 76 -79t95 -31.5v467q-49 -4 -95 -31.5t-76 -79t-30 -122.5q0 -72 30 -123.5z" />
    <glyph glyph-name="sterling" unicode="&#xa3;" horiz-adv-x="532" 
d="M458 480v18q0 62 -25.5 102.5t-65.5 60t-85 19.5q-46 0 -86.5 -18t-65 -53.5t-24.5 -86.5q0 -30 9.5 -61t28.5 -81q10 -25 17 -46h165v-27h-156q16 -50 16 -83q0 -104 -92 -198h383v-28h-432v10q66 65 90 116t24 106q0 36 -13 77h-78v27h67l-11 25q-22 49 -33.5 84.5
t-11.5 78.5q0 53 26.5 95t73 66t103.5 24q59 0 105.5 -25.5t73 -73t26.5 -110.5v-18h-29z" />
    <glyph glyph-name="currency" unicode="&#xa4;" horiz-adv-x="569" 
d="M504.5 398.5q-13.5 -36.5 -38.5 -65.5l48 -48l-33 -33l-48 48q-61 -48 -139 -48q-39 0 -75 12.5t-65 36.5l-48 -49l-33 33l48 48q-24 30 -37.5 66.5t-13.5 76.5t13.5 76.5t37.5 66.5l-48 48l33 33l48 -49q29 24 65 36.5t75 12.5q78 0 139 -48l48 48l33 -33l-48 -48
q25 -29 38.5 -65.5t13.5 -77.5t-13.5 -77.5zM130 379q27 -44 71.5 -69t92.5 -25q49 0 93 25t71.5 69t27.5 97t-27.5 96.5t-72 69t-92.5 25.5t-92.5 -25.5t-71.5 -69t-27 -96.5t27 -97z" />
    <glyph glyph-name="yen" unicode="&#xa5;" horiz-adv-x="642" 
d="M320 299h118v-24h-118v-74h118v-25h-118v-176h-29v176h-107v25h107v74h-107v24h107v51l-256 350h32l239 -329l239 329h32l-257 -350v-51z" />
    <glyph glyph-name="brokenbar" unicode="&#xa6;" horiz-adv-x="177" 
d="M103 520h-28v280h28v-280zM103 -190h-28v280h28v-280z" />
    <glyph glyph-name="section" unicode="&#xa7;" horiz-adv-x="544" 
d="M406 707q56 -37 85 -96l-20 -5q-23 50 -74 83t-121 33q-76 0 -126 -39t-50 -104q0 -58 34.5 -92.5t97.5 -55.5l83 -26q85 -28 134.5 -74t49.5 -121q0 -62 -48 -110q48 -50 48 -122q0 -51 -33 -90.5t-85 -61t-108 -21.5q-76 0 -134.5 40t-86.5 110l19 5q25 -60 79 -96.5
t123 -36.5q51 0 98 18t76.5 52t29.5 81q0 118 -149 168l-99 33q-73 25 -112.5 64.5t-39.5 104.5q0 67 50 114q-50 44 -50 117q0 46 27 84t72.5 59.5t99.5 21.5q74 0 130 -37zM100 348q0 -58 34 -92t98 -56l83 -26q74 -24 120 -60q42 40 42 96q0 67 -42 105.5t-107 61.5
l-99 33q-47 15 -85 39q-44 -41 -44 -101z" />
    <glyph glyph-name="dieresis" unicode="&#xa8;" horiz-adv-x="260" 
d="M42 716h-42v42h42v-42zM260 716h-42v42h42v-42z" />
    <glyph glyph-name="copyright" unicode="&#xa9;" horiz-adv-x="799" 
d="M568 661q79 -46 127.5 -127.5t48.5 -183.5t-48.5 -183.5t-127.5 -127.5t-168 -46q-87 0 -166.5 46t-129 127.5t-49.5 183.5t49.5 183.5t129 127.5t166.5 46q89 0 168 -46zM248.5 636.5q-73.5 -42.5 -120 -117.5t-46.5 -169t46.5 -169t120 -117.5t150.5 -42.5
q82 0 155.5 42t118 117.5t44.5 169.5t-44.5 169.5t-118 117.5t-155.5 42q-77 0 -150.5 -42.5zM489 563.5q40 -16.5 71 -44.5l-21 -23q-26 29 -59.5 44t-71.5 15q-47 0 -92 -26.5t-73.5 -73.5t-28.5 -105t28.5 -105t73.5 -74t92 -27q38 0 71.5 15t59.5 44l21 -21
q-30 -29 -70 -45.5t-82 -16.5q-55 0 -107.5 30t-85 82.5t-32.5 117.5t32.5 117.5t84.5 82.5t108 30q41 0 81 -16.5z" />
    <glyph glyph-name="ordfeminine" unicode="&#xaa;" horiz-adv-x="392" 
d="M276.5 669q26.5 -34 28.5 -111v-96q0 -31 4 -43.5t16 -29.5h-38q-6 11 -11 25.5t-3 27.5q-18 -23 -46.5 -39t-60.5 -16q-51 0 -81.5 24.5t-30.5 70.5q0 78 112 89l108 10q-1 44 -23.5 67t-64.5 23q-76 0 -99 -48l-25 26q19 25 51.5 39.5t72.5 14.5q64 0 90.5 -34z
M211 545l-42 -5q-37 -3 -60.5 -17t-23.5 -41q0 -31 21.5 -47t59.5 -16q26 0 49 12t38.5 28t20.5 27v67q-23 -5 -63 -8z" />
    <glyph glyph-name="guillemotleft" unicode="&#xab;" horiz-adv-x="349" 
d="M177 444v-26l-123 -109l123 -110v-26l-147 116v39zM311 444v-26l-123 -109l123 -110v-26l-147 116v39z" />
    <glyph glyph-name="logicalnot" unicode="&#xac;" horiz-adv-x="464" 
d="M420 155h-29v125h-346v22h375v-147z" />
    <glyph glyph-name="uni00AD" unicode="&#xad;" horiz-adv-x="400" 
d="M355 273h-310v22h310v-22z" />
    <glyph glyph-name="registered" unicode="&#xae;" horiz-adv-x="799" 
d="M568 661q79 -46 127.5 -127.5t48.5 -183.5t-48.5 -183.5t-127.5 -127.5t-168 -46q-87 0 -166.5 46t-129 127.5t-49.5 183.5t49.5 183.5t129 127.5t166.5 46q89 0 168 -46zM248.5 636.5q-73.5 -42.5 -120 -117.5t-46.5 -169t46.5 -169t120 -117.5t150.5 -42.5
q82 0 155.5 42t118 117.5t44.5 169.5t-44.5 169.5t-118 117.5t-155.5 42q-77 0 -150.5 -42.5zM513 521q42 -36 42 -91q0 -50 -33.5 -84.5t-86.5 -40.5l141 -154h-45l-135 153h-93v-153h-40v406h141q67 0 109 -36zM303 525v-191h100q59 0 87 24t28 72q0 44 -29 69.5t-86 25.5
h-100z" />
    <glyph glyph-name="macron" unicode="&#xaf;" horiz-adv-x="359" 
d="M359 673h-359v27h359v-27z" />
    <glyph glyph-name="degree" unicode="&#xb0;" horiz-adv-x="381" 
d="M263.5 699.5q33.5 -19.5 53 -53t19.5 -72.5q0 -40 -19.5 -73.5t-53 -53t-73.5 -19.5t-73 19.5t-52.5 53t-19.5 73.5q0 39 19.5 72.5t52.5 53t73 19.5t73.5 -19.5zM107.5 659.5q-34.5 -32.5 -34.5 -85.5q0 -52 34.5 -85t82.5 -33t83 33t35 85q0 53 -35 85.5t-83 32.5
t-82.5 -32.5z" />
    <glyph glyph-name="plusminus" unicode="&#xb1;" horiz-adv-x="425" 
d="M380 269h-154v-159h-22v159h-159v22h159v154h22v-154h154v-22zM380 1h-335v22h335v-22z" />
    <glyph glyph-name="uni00B2" unicode="&#xb2;" horiz-adv-x="261" 
d="M188 681.5q25 -22.5 25 -52.5q0 -26 -14.5 -47t-53.5 -61l-47 -49h118v-32h-168v32l68 69q38 40 48.5 54.5t10.5 33.5q0 18 -14 31t-32 13q-19 0 -33 -13t-14 -37v-14h-37v14q0 35 24.5 58t59.5 23q34 0 59 -22.5z" />
    <glyph glyph-name="uni00B3" unicode="&#xb3;" horiz-adv-x="273" 
d="M192 682.5q24 -20.5 24 -47.5q0 -32 -30 -53q19 -8 30.5 -25t11.5 -41q0 -34 -27.5 -57t-64.5 -23q-40 0 -66 27t-25 64h38q2 -25 15.5 -42t37.5 -17q22 0 38 13.5t16 34.5q0 27 -18.5 37t-55.5 12v28q32 0 47.5 11.5t15.5 30.5q0 16 -12.5 26.5t-30.5 10.5
q-21 0 -33.5 -13.5t-13.5 -40.5h-37q0 38 23.5 61.5t60.5 23.5q32 0 56 -20.5z" />
    <glyph glyph-name="acute" unicode="&#xb4;" horiz-adv-x="128" 
d="M24 622h-24l85 145h43z" />
    <glyph glyph-name="uni00B5" unicode="&#xb5;" horiz-adv-x="554" 
d="M481 520v-520h-29v142q-6 -27 -31 -62t-68.5 -61t-101.5 -26q-52 0 -95 21.5t-67 65.5v-270h-29v710h29v-314q0 -95 43 -140t121 -45q73 0 126 52.5t73 129.5v317h29z" />
    <glyph glyph-name="paragraph" unicode="&#xb6;" horiz-adv-x="666" 
d="M513 700v-700h-29v278h-194q-66 0 -118.5 26.5t-82.5 74.5t-30 110t30 110t82.5 74.5t118.5 26.5h223zM596 0h-29v700h29v-700zM484 304v370h-184q-98 0 -155 -50.5t-57 -134.5t57 -134.5t155 -50.5h184z" />
    <glyph glyph-name="periodcentered" unicode="&#xb7;" horiz-adv-x="132" 
d="M90 260h-41v43h41v-43z" />
    <glyph glyph-name="cedilla" unicode="&#xb8;" horiz-adv-x="142" 
d="M71 -45q29 0 50 -21t21 -55q0 -36 -27.5 -60t-67.5 -24q-15 0 -35 5l9 20q13 -3 25 -3q30 0 47 19t17 43q0 23 -13.5 39t-34.5 16q-11 0 -28 -7l-9 13l43 61h38l-46 -47z" />
    <glyph glyph-name="uni00B9" unicode="&#xb9;" horiz-adv-x="209" 
d="M134 440h-37v221l-17 -11l-18 31l35 20h37v-261z" />
    <glyph glyph-name="ordmasculine" unicode="&#xba;" horiz-adv-x="405" 
d="M271.5 686q33.5 -19 55.5 -55t22 -85t-22 -86t-56 -56t-68 -19t-68 19t-56 56t-22 86t22 85t55.5 55t68.5 19t68.5 -19zM124.5 642.5q-33.5 -34.5 -33.5 -97.5q0 -42 16 -72t42 -45t54 -15t54 15t42 45t16 72q0 63 -33.5 97.5t-78.5 34.5t-78.5 -34.5z" />
    <glyph glyph-name="guillemotright" unicode="&#xbb;" horiz-adv-x="349" 
d="M185 289l-147 -116v26l123 110l-123 109v26l147 -116v-39zM319 289l-147 -116v26l123 110l-123 109v26l147 -116v-39z" />
    <glyph glyph-name="onequarter" unicode="&#xbc;" horiz-adv-x="569" 
d="M100 440h-37v221l-17 -11l-18 31l35 20h37v-261zM73 0h-48l436 700h42zM517 107h27v-31h-27v-76h-37v76h-132l132 185h37v-154zM415 107h65v95z" />
    <glyph glyph-name="onehalf" unicode="&#xbd;" horiz-adv-x="544" 
d="M100 440h-37v221l-17 -11l-18 31l35 20h37v-261zM73 0h-48l436 700h42zM491 241.5q25 -22.5 25 -52.5q0 -26 -14.5 -47t-53.5 -61l-47 -49h118v-32h-168v32l68 69q38 40 48.5 54.5t10.5 33.5q0 18 -14 31t-32 13q-19 0 -33 -13t-14 -37v-14h-37v14q0 35 24.5 58t59.5 23
q34 0 59 -22.5z" />
    <glyph glyph-name="threequarters" unicode="&#xbe;" horiz-adv-x="587" 
d="M172 682.5q24 -20.5 24 -47.5q0 -32 -30 -53q19 -8 30.5 -25t11.5 -41q0 -34 -27.5 -57t-64.5 -23q-40 0 -66 27t-25 64h38q2 -25 15.5 -42t37.5 -17q22 0 38 13.5t16 34.5q0 27 -18.5 37t-55.5 12v28q32 0 47.5 11.5t15.5 30.5q0 16 -12.5 26.5t-30.5 10.5
q-21 0 -33.5 -13.5t-13.5 -40.5h-37q0 38 23.5 61.5t60.5 23.5q32 0 56 -20.5zM101 0h-48l436 700h42zM535 107h27v-31h-27v-76h-37v76h-132l132 185h37v-154zM433 107h65v95z" />
    <glyph glyph-name="questiondown" unicode="&#xbf;" horiz-adv-x="482" 
d="M221 520h40v-43h-40v43zM137.5 -163q-45.5 24 -71.5 67t-26 100q0 45 24.5 79.5t72.5 79.5q47 43 70.5 76t23.5 75v35h29v-35q0 -49 -25.5 -85t-75.5 -82q-45 -42 -67.5 -73t-22.5 -70q0 -81 50 -122.5t124 -41.5q71 0 120.5 46t49.5 141h29q0 -66 -25.5 -114.5
t-70.5 -74t-104 -25.5t-104.5 24z" />
    <glyph glyph-name="Agrave" unicode="&#xc0;" horiz-adv-x="681" 
d="M514 255h-348l-111 -255h-30l308 700h15l308 -700h-30zM502 282l-162 369l-161 -369h323zM272 947l85 -145h-24l-104 145h43z" />
    <glyph glyph-name="Aacute" unicode="&#xc1;" horiz-adv-x="681" 
d="M514 255h-348l-111 -255h-30l308 700h15l308 -700h-30zM502 282l-162 369l-161 -369h323zM358 802h-24l85 145h43z" />
    <glyph glyph-name="Acircumflex" unicode="&#xc2;" horiz-adv-x="681" 
d="M514 255h-348l-111 -255h-30l308 700h15l308 -700h-30zM502 282l-162 369l-161 -369h323zM478 796h-26l-109 123l-110 -123h-26l116 147h39z" />
    <glyph glyph-name="Atilde" unicode="&#xc3;" horiz-adv-x="681" 
d="M514 255h-348l-111 -255h-30l308 700h15l308 -700h-30zM502 282l-162 369l-161 -369h323zM318 884q19 -10 41 -29q16 -14 28 -21t28 -7q33 0 48 16t15 37h25q0 -41 -25 -60t-58 -19q-27 0 -44 9t-39 28q-17 16 -31 24t-34 8q-33 0 -48 -19t-14 -39h-24q0 40 27 61t56 21
q30 0 49 -10z" />
    <glyph glyph-name="Adieresis" unicode="&#xc4;" horiz-adv-x="681" 
d="M514 255h-348l-111 -255h-30l308 700h15l308 -700h-30zM502 282l-162 369l-161 -369h323zM255 896h-42v42h42v-42zM473 896h-42v42h42v-42z" />
    <glyph glyph-name="Aring" unicode="&#xc5;" horiz-adv-x="681" 
d="M514 255h-348l-111 -255h-30l308 700h15l308 -700h-30zM502 282l-162 369l-161 -369h323zM394.5 930.5q21.5 -21.5 21.5 -50.5t-21.5 -50t-50.5 -21q-31 0 -52 21t-21 50q0 30 21.5 51t51.5 21q29 0 50.5 -21.5zM311.5 912.5q-13.5 -13.5 -13.5 -32.5t13.5 -32.5
t32.5 -13.5t32 13.5t13 32.5t-13 32.5t-32 13.5t-32.5 -13.5z" />
    <glyph glyph-name="AE" unicode="&#xc6;" horiz-adv-x="1006" 
d="M911 27v-27h-415v242h-259l-165 -242h-35l459 671v29h405v-27h-369l-7 -10v-295h276v-28h-276v-71h14v-27h-14v-215h386zM496 269v352l-240 -352h240z" />
    <glyph glyph-name="Ccedilla" unicode="&#xc7;" horiz-adv-x="644" 
d="M515 19q-52 -22 -108 -26l-39 -40q4 1 12 1q29 0 49.5 -20.5t20.5 -54.5q0 -36 -27.5 -60t-67.5 -24q-15 0 -35 5l9 20q13 -3 25 -3q30 0 47 19t17 43q0 23 -13.5 39t-34.5 16q-10 0 -28 -7l-9 13l38 54q-85 5 -161 51.5t-123 126.5t-47 178q0 102 50 183.5t130.5 127.5
t168.5 46q61 0 118 -22.5t102 -64.5l-19 -20q-38 39 -91 59.5t-110 20.5q-78 0 -152 -42.5t-121 -118t-47 -169.5t47 -169.5t121 -118t152 -42.5q58 0 110 20t90 59l20 -20q-42 -38 -94 -60z" />
    <glyph glyph-name="Egrave" unicode="&#xc8;" horiz-adv-x="515" 
d="M470 27v-27h-415v700h405v-27h-375v-305h275v-28h-275v-313h385zM201 947l85 -145h-24l-104 145h43z" />
    <glyph glyph-name="Eacute" unicode="&#xc9;" horiz-adv-x="515" 
d="M470 27v-27h-415v700h405v-27h-375v-305h275v-28h-275v-313h385zM287 802h-24l85 145h43z" />
    <glyph glyph-name="Ecircumflex" unicode="&#xca;" horiz-adv-x="515" 
d="M470 27v-27h-415v700h405v-27h-375v-305h275v-28h-275v-313h385zM407 796h-26l-109 123l-110 -123h-26l116 147h39z" />
    <glyph glyph-name="Edieresis" unicode="&#xcb;" horiz-adv-x="515" 
d="M470 27v-27h-415v700h405v-27h-375v-305h275v-28h-275v-313h385zM184 896h-42v42h42v-42zM402 896h-42v42h42v-42z" />
    <glyph glyph-name="Igrave" unicode="&#xcc;" horiz-adv-x="182" 
d="M105 0h-28v700h28v-700zM21 947l85 -145h-24l-104 145h43z" />
    <glyph glyph-name="Iacute" unicode="&#xcd;" horiz-adv-x="182" 
d="M105 0h-28v700h28v-700zM107 802h-24l85 145h43z" />
    <glyph glyph-name="Icircumflex" unicode="&#xce;" horiz-adv-x="182" 
d="M105 0h-28v700h28v-700zM227 796h-26l-109 123l-110 -123h-26l116 147h39z" />
    <glyph glyph-name="Idieresis" unicode="&#xcf;" horiz-adv-x="182" 
d="M105 0h-28v700h28v-700zM4 896h-42v42h42v-42zM222 896h-42v42h42v-42z" />
    <glyph glyph-name="Eth" unicode="&#xd0;" horiz-adv-x="725" 
d="M498 653.5q79 -46.5 123 -127t44 -179.5q0 -96 -44 -175t-123 -125.5t-180 -46.5h-170v341h-73v22h73v337h170q101 0 180 -46.5zM485.5 69q72.5 42 112 115t39.5 163q0 93 -39.5 167.5t-111.5 116.5t-168 42h-141v-310h208v-22h-208v-314h141q95 0 167.5 42z" />
    <glyph glyph-name="Ntilde" unicode="&#xd1;" horiz-adv-x="670" 
d="M600 0h-31l-470 665v-665h-29v700h31l470 -667v667h29v-700zM311 884q19 -10 41 -29q16 -14 28 -21t28 -7q33 0 48 16t15 37h25q0 -41 -25 -60t-58 -19q-27 0 -44 9t-39 28q-17 16 -31 24t-34 8q-33 0 -48 -19t-14 -39h-24q0 40 27 61t56 21q30 0 49 -10z" />
    <glyph glyph-name="Ograve" unicode="&#xd2;" horiz-adv-x="804" 
d="M571 661q80 -46 129 -127.5t49 -183.5t-49 -183.5t-129 -127.5t-169 -46q-87 0 -167 46t-130 127.5t-50 183.5t50 183.5t130 127.5t167 46q89 0 169 -46zM250 637.5q-74 -42.5 -120.5 -118t-46.5 -169.5t46.5 -169.5t120.5 -118t152 -42.5q82 0 155.5 42t118 117.5
t44.5 170.5t-44.5 170.5t-118 117.5t-155.5 42q-78 0 -152 -42.5zM331 947l85 -145h-24l-104 145h43z" />
    <glyph glyph-name="Oacute" unicode="&#xd3;" horiz-adv-x="804" 
d="M571 661q80 -46 129 -127.5t49 -183.5t-49 -183.5t-129 -127.5t-169 -46q-87 0 -167 46t-130 127.5t-50 183.5t50 183.5t130 127.5t167 46q89 0 169 -46zM250 637.5q-74 -42.5 -120.5 -118t-46.5 -169.5t46.5 -169.5t120.5 -118t152 -42.5q82 0 155.5 42t118 117.5
t44.5 170.5t-44.5 170.5t-118 117.5t-155.5 42q-78 0 -152 -42.5zM417 802h-24l85 145h43z" />
    <glyph glyph-name="Ocircumflex" unicode="&#xd4;" horiz-adv-x="804" 
d="M571 661q80 -46 129 -127.5t49 -183.5t-49 -183.5t-129 -127.5t-169 -46q-87 0 -167 46t-130 127.5t-50 183.5t50 183.5t130 127.5t167 46q89 0 169 -46zM250 637.5q-74 -42.5 -120.5 -118t-46.5 -169.5t46.5 -169.5t120.5 -118t152 -42.5q82 0 155.5 42t118 117.5
t44.5 170.5t-44.5 170.5t-118 117.5t-155.5 42q-78 0 -152 -42.5zM537 796h-26l-109 123l-110 -123h-26l116 147h39z" />
    <glyph glyph-name="Otilde" unicode="&#xd5;" horiz-adv-x="804" 
d="M571 661q80 -46 129 -127.5t49 -183.5t-49 -183.5t-129 -127.5t-169 -46q-87 0 -167 46t-130 127.5t-50 183.5t50 183.5t130 127.5t167 46q89 0 169 -46zM250 637.5q-74 -42.5 -120.5 -118t-46.5 -169.5t46.5 -169.5t120.5 -118t152 -42.5q82 0 155.5 42t118 117.5
t44.5 170.5t-44.5 170.5t-118 117.5t-155.5 42q-78 0 -152 -42.5zM377 884q19 -10 41 -29q16 -14 28 -21t28 -7q33 0 48 16t15 37h25q0 -41 -25 -60t-58 -19q-27 0 -44 9t-39 28q-17 16 -31 24t-34 8q-33 0 -48 -19t-14 -39h-24q0 40 27 61t56 21q30 0 49 -10z" />
    <glyph glyph-name="Odieresis" unicode="&#xd6;" horiz-adv-x="804" 
d="M571 661q80 -46 129 -127.5t49 -183.5t-49 -183.5t-129 -127.5t-169 -46q-87 0 -167 46t-130 127.5t-50 183.5t50 183.5t130 127.5t167 46q89 0 169 -46zM250 637.5q-74 -42.5 -120.5 -118t-46.5 -169.5t46.5 -169.5t120.5 -118t152 -42.5q82 0 155.5 42t118 117.5
t44.5 170.5t-44.5 170.5t-118 117.5t-155.5 42q-78 0 -152 -42.5zM314 896h-42v42h42v-42zM532 896h-42v42h42v-42z" />
    <glyph glyph-name="multiply" unicode="&#xd7;" horiz-adv-x="342" 
d="M189 282l109 -109l-16 -16l-109 109l-112 -112l-16 16l112 112l-112 112l16 16l112 -112l109 109l16 -16z" />
    <glyph glyph-name="Oslash" unicode="&#xd8;" horiz-adv-x="794" 
d="M694 543q55 -85 55 -193q0 -102 -49 -183.5t-129 -127.5t-169 -46q-82 0 -156 40l-40 -83h-27l45 95q-76 48 -122.5 127.5t-46.5 177.5q0 102 50 183.5t130 127.5t167 46q64 0 126 -25l31 63h27l-35 -73q88 -44 143 -129zM125 188q42 -73 111 -117l281 587
q-54 22 -115 22q-78 0 -152 -42.5t-120.5 -118t-46.5 -169.5q0 -89 42 -162zM557.5 62q73.5 42 118 117.5t44.5 170.5q0 101 -50 179.5t-130 118.5l-282 -590q68 -38 144 -38q82 0 155.5 42z" />
    <glyph glyph-name="Ugrave" unicode="&#xd9;" horiz-adv-x="643" 
d="M578 267q0 -85 -31.5 -146.5t-89.5 -94.5t-136 -33t-136 33t-89 94.5t-31 146.5v433h29v-431q0 -118 59 -183.5t168 -65.5t168.5 65.5t59.5 183.5v431h29v-433zM251 947l85 -145h-24l-104 145h43z" />
    <glyph glyph-name="Uacute" unicode="&#xda;" horiz-adv-x="643" 
d="M578 267q0 -85 -31.5 -146.5t-89.5 -94.5t-136 -33t-136 33t-89 94.5t-31 146.5v433h29v-431q0 -118 59 -183.5t168 -65.5t168.5 65.5t59.5 183.5v431h29v-433zM337 802h-24l85 145h43z" />
    <glyph glyph-name="Ucircumflex" unicode="&#xdb;" horiz-adv-x="643" 
d="M578 267q0 -85 -31.5 -146.5t-89.5 -94.5t-136 -33t-136 33t-89 94.5t-31 146.5v433h29v-431q0 -118 59 -183.5t168 -65.5t168.5 65.5t59.5 183.5v431h29v-433zM457 796h-26l-109 123l-110 -123h-26l116 147h39z" />
    <glyph glyph-name="Udieresis" unicode="&#xdc;" horiz-adv-x="643" 
d="M578 267q0 -85 -31.5 -146.5t-89.5 -94.5t-136 -33t-136 33t-89 94.5t-31 146.5v433h29v-431q0 -118 59 -183.5t168 -65.5t168.5 65.5t59.5 183.5v431h29v-433zM234 896h-42v42h42v-42zM452 896h-42v42h42v-42z" />
    <glyph glyph-name="Yacute" unicode="&#xdd;" horiz-adv-x="612" 
d="M320 350v-350h-29v350l-256 350h32l239 -329l239 329h32zM321 802h-24l85 145h43z" />
    <glyph glyph-name="Thorn" unicode="&#xde;" horiz-adv-x="605" 
d="M425.5 538q55.5 -27 85 -75t29.5 -111q0 -101 -65 -157t-180 -56h-191v-139h-29v700h29v-135h191q75 0 130.5 -27zM456.5 216q54.5 49 54.5 136q0 82 -55.5 134t-158.5 52h-193v-371h193q105 0 159.5 49z" />
    <glyph glyph-name="germandbls" unicode="&#xdf;" 
d="M439.5 656.5q56.5 -43.5 56.5 -119.5q0 -60 -24.5 -97t-84.5 -56q149 -39 149 -184q0 -101 -67 -150.5t-196 -49.5h-92v28h94q119 0 175.5 42t56.5 130q0 80 -57 125.5t-172 45.5h-97v27h97q93 0 141 32t48 107q0 65 -47.5 100.5t-138.5 35.5q-89 0 -134.5 -37.5
t-45.5 -103.5v-532h-29v532q0 77 52 122.5t157 45.5q102 0 158.5 -43.5z" />
    <glyph glyph-name="agrave" unicode="&#xe0;" 
d="M412 492q58 -34 92 -103v131h29v-520h-29v128q-34 -68 -92 -101.5t-123 -33.5q-59 0 -116.5 31t-95 91t-37.5 144q0 85 37.5 145.5t95 91t116.5 30.5q65 0 123 -34zM186.5 472.5q-50.5 -26.5 -84 -81t-33.5 -132.5t33.5 -131.5t84 -80t101.5 -26.5t101 26.5t83 80.5
t33 131q0 78 -33 132t-83 81t-101 27t-101.5 -26.5zM239 767l85 -145h-24l-104 145h43z" />
    <glyph glyph-name="aacute" unicode="&#xe1;" 
d="M412 492q58 -34 92 -103v131h29v-520h-29v128q-34 -68 -92 -101.5t-123 -33.5q-59 0 -116.5 31t-95 91t-37.5 144q0 85 37.5 145.5t95 91t116.5 30.5q65 0 123 -34zM186.5 472.5q-50.5 -26.5 -84 -81t-33.5 -132.5t33.5 -131.5t84 -80t101.5 -26.5t101 26.5t83 80.5
t33 131q0 78 -33 132t-83 81t-101 27t-101.5 -26.5zM325 622h-24l85 145h43z" />
    <glyph glyph-name="acircumflex" unicode="&#xe2;" 
d="M412 492q58 -34 92 -103v131h29v-520h-29v128q-34 -68 -92 -101.5t-123 -33.5q-59 0 -116.5 31t-95 91t-37.5 144q0 85 37.5 145.5t95 91t116.5 30.5q65 0 123 -34zM186.5 472.5q-50.5 -26.5 -84 -81t-33.5 -132.5t33.5 -131.5t84 -80t101.5 -26.5t101 26.5t83 80.5
t33 131q0 78 -33 132t-83 81t-101 27t-101.5 -26.5zM445 616h-26l-109 123l-110 -123h-26l116 147h39z" />
    <glyph glyph-name="atilde" unicode="&#xe3;" 
d="M412 492q58 -34 92 -103v131h29v-520h-29v128q-34 -68 -92 -101.5t-123 -33.5q-59 0 -116.5 31t-95 91t-37.5 144q0 85 37.5 145.5t95 91t116.5 30.5q65 0 123 -34zM186.5 472.5q-50.5 -26.5 -84 -81t-33.5 -132.5t33.5 -131.5t84 -80t101.5 -26.5t101 26.5t83 80.5
t33 131q0 78 -33 132t-83 81t-101 27t-101.5 -26.5zM285 704q19 -10 41 -29q16 -14 28 -21t28 -7q33 0 48 16t15 37h25q0 -41 -25 -60t-58 -19q-27 0 -44 9t-39 28q-17 16 -31 24t-34 8q-33 0 -48 -19t-14 -39h-24q0 40 27 61t56 21q30 0 49 -10z" />
    <glyph glyph-name="adieresis" unicode="&#xe4;" 
d="M412 492q58 -34 92 -103v131h29v-520h-29v128q-34 -68 -92 -101.5t-123 -33.5q-59 0 -116.5 31t-95 91t-37.5 144q0 85 37.5 145.5t95 91t116.5 30.5q65 0 123 -34zM186.5 472.5q-50.5 -26.5 -84 -81t-33.5 -132.5t33.5 -131.5t84 -80t101.5 -26.5t101 26.5t83 80.5
t33 131q0 78 -33 132t-83 81t-101 27t-101.5 -26.5zM222 716h-42v42h42v-42zM440 716h-42v42h42v-42z" />
    <glyph glyph-name="aring" unicode="&#xe5;" 
d="M412 492q58 -34 92 -103v131h29v-520h-29v128q-34 -68 -92 -101.5t-123 -33.5q-59 0 -116.5 31t-95 91t-37.5 144q0 85 37.5 145.5t95 91t116.5 30.5q65 0 123 -34zM186.5 472.5q-50.5 -26.5 -84 -81t-33.5 -132.5t33.5 -131.5t84 -80t101.5 -26.5t101 26.5t83 80.5
t33 131q0 78 -33 132t-83 81t-101 27t-101.5 -26.5zM361.5 750.5q21.5 -21.5 21.5 -50.5t-21.5 -50t-50.5 -21q-31 0 -52 21t-21 50q0 30 21.5 51t51.5 21q29 0 50.5 -21.5zM278.5 732.5q-13.5 -13.5 -13.5 -32.5t13.5 -32.5t32.5 -13.5t32 13.5t13 32.5t-13 32.5t-32 13.5
t-32.5 -13.5z" />
    <glyph glyph-name="ae" unicode="&#xe6;" horiz-adv-x="1053" 
d="M533 246v-17q6 -67 39.5 -114.5t81 -71t95.5 -23.5q50 0 95 20t79 59l21 -18q-36 -43 -86.5 -65.5t-108.5 -22.5q-63 0 -123 34.5t-93 98.5v-126h-29v128q-34 -68 -92 -101.5t-123 -33.5q-59 0 -116.5 31t-95 91t-37.5 144q0 85 37.5 145.5t95 91t116.5 30.5
q65 0 123 -34t92 -103v131h29v-126q34 63 93.5 97.5t121.5 34.5q60 0 117 -30.5t93.5 -91t36.5 -144.5q0 -6 -2 -14h-460zM655.5 476.5q-46.5 -22.5 -80 -68t-42.5 -112.5v-22h433q-4 74 -37 124.5t-81.5 75.5t-99.5 25q-46 0 -92.5 -22.5zM383 44q47 23 80.5 69.5
t40.5 114.5q-2 20 -2 32q0 21 1 31q-7 67 -40 114t-80 70.5t-95 23.5q-51 0 -101.5 -26.5t-84 -81t-33.5 -132.5t33.5 -131.5t84 -80t101.5 -26.5q48 0 95 23z" />
    <glyph glyph-name="ccedilla" unicode="&#xe7;" horiz-adv-x="532" 
d="M392 50q52 29 83 84l27 -10q-29 -55 -79.5 -88.5t-107.5 -40.5l-40 -42q4 1 12 1q29 0 49.5 -20.5t20.5 -54.5q0 -36 -27.5 -60t-67.5 -24q-15 0 -35 5l9 20q14 -3 25 -3q30 0 47 19t17 43q0 23 -13.5 39t-34.5 16q-10 0 -28 -7l-9 13l38 53q-59 3 -113.5 34.5t-89.5 91
t-35 141.5q0 84 36.5 144.5t93.5 91t117 30.5q62 0 122.5 -34.5t93.5 -96.5l-30 -8q-31 54 -82.5 83t-103.5 29q-51 0 -101.5 -26.5t-83.5 -80.5t-33 -132t33 -132t83.5 -80.5t101.5 -26.5q53 0 105 29z" />
    <glyph glyph-name="egrave" unicode="&#xe8;" horiz-adv-x="572" 
d="M402 495.5q57 -30.5 93.5 -91t36.5 -144.5l-1 -14h-462q3 -73 36.5 -124t82 -76t98.5 -25t95.5 19.5t79.5 58.5l21 -18q-36 -43 -86.5 -65.5t-108.5 -22.5q-60 0 -117 31t-93.5 91.5t-36.5 144.5t37 144.5t93.5 91t115.5 30.5t116 -30.5zM188.5 474q-48.5 -25 -82 -75.5
t-37.5 -124.5h435q-4 74 -37.5 124.5t-82 75.5t-98.5 25q-49 0 -97.5 -25zM207 767l85 -145h-24l-104 145h43z" />
    <glyph glyph-name="eacute" unicode="&#xe9;" horiz-adv-x="572" 
d="M402 495.5q57 -30.5 93.5 -91t36.5 -144.5l-1 -14h-462q3 -73 36.5 -124t82 -76t98.5 -25t95.5 19.5t79.5 58.5l21 -18q-36 -43 -86.5 -65.5t-108.5 -22.5q-60 0 -117 31t-93.5 91.5t-36.5 144.5t37 144.5t93.5 91t115.5 30.5t116 -30.5zM188.5 474q-48.5 -25 -82 -75.5
t-37.5 -124.5h435q-4 74 -37.5 124.5t-82 75.5t-98.5 25q-49 0 -97.5 -25zM293 622h-24l85 145h43z" />
    <glyph glyph-name="ecircumflex" unicode="&#xea;" horiz-adv-x="572" 
d="M402 495.5q57 -30.5 93.5 -91t36.5 -144.5l-1 -14h-462q3 -73 36.5 -124t82 -76t98.5 -25t95.5 19.5t79.5 58.5l21 -18q-36 -43 -86.5 -65.5t-108.5 -22.5q-60 0 -117 31t-93.5 91.5t-36.5 144.5t37 144.5t93.5 91t115.5 30.5t116 -30.5zM188.5 474q-48.5 -25 -82 -75.5
t-37.5 -124.5h435q-4 74 -37.5 124.5t-82 75.5t-98.5 25q-49 0 -97.5 -25zM413 616h-26l-109 123l-110 -123h-26l116 147h39z" />
    <glyph glyph-name="edieresis" unicode="&#xeb;" horiz-adv-x="572" 
d="M402 495.5q57 -30.5 93.5 -91t36.5 -144.5l-1 -14h-462q3 -73 36.5 -124t82 -76t98.5 -25t95.5 19.5t79.5 58.5l21 -18q-36 -43 -86.5 -65.5t-108.5 -22.5q-60 0 -117 31t-93.5 91.5t-36.5 144.5t37 144.5t93.5 91t115.5 30.5t116 -30.5zM188.5 474q-48.5 -25 -82 -75.5
t-37.5 -124.5h435q-4 74 -37.5 124.5t-82 75.5t-98.5 25q-49 0 -97.5 -25zM190 716h-42v42h42v-42zM408 716h-42v42h42v-42z" />
    <glyph glyph-name="igrave" unicode="&#xec;" horiz-adv-x="179" 
d="M104 0h-29v520h29v-520zM18 767l85 -145h-24l-104 145h43z" />
    <glyph glyph-name="iacute" unicode="&#xed;" horiz-adv-x="179" 
d="M104 0h-29v520h29v-520zM104 622h-24l85 145h43z" />
    <glyph glyph-name="icircumflex" unicode="&#xee;" horiz-adv-x="179" 
d="M104 0h-29v520h29v-520zM224 616h-26l-109 123l-110 -123h-26l116 147h39z" />
    <glyph glyph-name="idieresis" unicode="&#xef;" horiz-adv-x="179" 
d="M104 0h-29v520h29v-520zM1 716h-42v42h42v-42zM219 716h-42v42h42v-42z" />
    <glyph glyph-name="eth" unicode="&#xf0;" horiz-adv-x="572" 
d="M458.5 424q35.5 -79 35.5 -172q0 -82 -30 -141t-83 -90t-122 -31q-64 0 -114.5 31t-80 90.5t-29.5 140.5q0 127 58 197.5t166 70.5q54 0 92 -13.5t68 -45.5l-97 127l-110 -15v26l91 13l-67 88h33l66 -84l98 14v-26l-79 -11q69 -90 104.5 -169zM408.5 78q56.5 60 56.5 174
q0 123 -51 181.5t-155 58.5q-98 0 -146.5 -58.5t-48.5 -181.5q0 -76 25.5 -129t70 -79t99.5 -26q93 0 149.5 60z" />
    <glyph glyph-name="ntilde" unicode="&#xf1;" horiz-adv-x="550" 
d="M392 502q46 -23 74.5 -72.5t28.5 -124.5v-305h-29v309q0 93 -48.5 141t-125.5 48q-49 0 -93 -25.5t-73.5 -68t-36.5 -89.5v-315h-29v520h29v-146q5 26 31.5 62t71 62.5t100.5 26.5q54 0 100 -23zM243 704q19 -10 41 -29q16 -14 28 -21t28 -7q33 0 48 16t15 37h25
q0 -41 -25 -60t-58 -19q-27 0 -44 9t-39 28q-17 16 -31 24t-34 8q-33 0 -48 -19t-14 -39h-24q0 40 27 61t56 21q30 0 49 -10z" />
    <glyph glyph-name="ograve" unicode="&#xf2;" horiz-adv-x="573" 
d="M403 495.5q57 -30.5 93.5 -91t36.5 -144.5t-36.5 -144.5t-93.5 -91.5t-116 -31q-60 0 -117 31t-93.5 91.5t-36.5 144.5t36.5 144.5t93.5 91t117 30.5q59 0 116 -30.5zM185.5 472q-50.5 -27 -83.5 -81t-33 -131q0 -78 33 -132t83.5 -80.5t101.5 -26.5t101 26.5t83 80.5
t33 132q0 77 -33 131t-83 81t-101 27t-101.5 -27zM215 767l85 -145h-24l-104 145h43z" />
    <glyph glyph-name="oacute" unicode="&#xf3;" horiz-adv-x="573" 
d="M403 495.5q57 -30.5 93.5 -91t36.5 -144.5t-36.5 -144.5t-93.5 -91.5t-116 -31q-60 0 -117 31t-93.5 91.5t-36.5 144.5t36.5 144.5t93.5 91t117 30.5q59 0 116 -30.5zM185.5 472q-50.5 -27 -83.5 -81t-33 -131q0 -78 33 -132t83.5 -80.5t101.5 -26.5t101 26.5t83 80.5
t33 132q0 77 -33 131t-83 81t-101 27t-101.5 -27zM301 622h-24l85 145h43z" />
    <glyph glyph-name="ocircumflex" unicode="&#xf4;" horiz-adv-x="573" 
d="M403 495.5q57 -30.5 93.5 -91t36.5 -144.5t-36.5 -144.5t-93.5 -91.5t-116 -31q-60 0 -117 31t-93.5 91.5t-36.5 144.5t36.5 144.5t93.5 91t117 30.5q59 0 116 -30.5zM185.5 472q-50.5 -27 -83.5 -81t-33 -131q0 -78 33 -132t83.5 -80.5t101.5 -26.5t101 26.5t83 80.5
t33 132q0 77 -33 131t-83 81t-101 27t-101.5 -27zM422 616h-26l-109 123l-110 -123h-26l116 147h39z" />
    <glyph glyph-name="otilde" unicode="&#xf5;" horiz-adv-x="573" 
d="M403 495.5q57 -30.5 93.5 -91t36.5 -144.5t-36.5 -144.5t-93.5 -91.5t-116 -31q-60 0 -117 31t-93.5 91.5t-36.5 144.5t36.5 144.5t93.5 91t117 30.5q59 0 116 -30.5zM185.5 472q-50.5 -27 -83.5 -81t-33 -131q0 -78 33 -132t83.5 -80.5t101.5 -26.5t101 26.5t83 80.5
t33 132q0 77 -33 131t-83 81t-101 27t-101.5 -27zM262 704q19 -10 41 -29q16 -14 28 -21t28 -7q33 0 48 16t15 37h25q0 -41 -25 -60t-58 -19q-27 0 -44 9t-39 28q-17 16 -31 24t-34 8q-33 0 -48 -19t-14 -39h-24q0 40 27 61t56 21q30 0 49 -10z" />
    <glyph glyph-name="odieresis" unicode="&#xf6;" horiz-adv-x="573" 
d="M403 495.5q57 -30.5 93.5 -91t36.5 -144.5t-36.5 -144.5t-93.5 -91.5t-116 -31q-60 0 -117 31t-93.5 91.5t-36.5 144.5t36.5 144.5t93.5 91t117 30.5q59 0 116 -30.5zM185.5 472q-50.5 -27 -83.5 -81t-33 -131q0 -78 33 -132t83.5 -80.5t101.5 -26.5t101 26.5t83 80.5
t33 132q0 77 -33 131t-83 81t-101 27t-101.5 -27zM199 716h-42v42h42v-42zM417 716h-42v42h42v-42z" />
    <glyph glyph-name="divide" unicode="&#xf7;" horiz-adv-x="425" 
d="M232 399h-40v43h40v-43zM380 273h-335v22h335v-22zM232 120h-40v44h40v-44z" />
    <glyph glyph-name="oslash" unicode="&#xf8;" horiz-adv-x="576" 
d="M496.5 404q36.5 -60 36.5 -144t-36.5 -144.5t-93.5 -91.5t-116 -31q-58 0 -113 29l-34 -72h-31l41 86q-50 35 -80 91.5t-30 132.5q0 84 36.5 144.5t93.5 91t117 30.5q45 0 90 -18l33 70h31l-39 -82q58 -32 94.5 -92zM94.5 143q25.5 -50 68.5 -82l202 422q-42 16 -78 16
q-51 0 -101.5 -27t-83.5 -81t-33 -131q0 -67 25.5 -117zM388 47.5q50 26.5 83 80.5t33 132q0 76 -31.5 129t-82.5 82l-204 -424q48 -26 101 -26q51 0 101 26.5z" />
    <glyph glyph-name="ugrave" unicode="&#xf9;" horiz-adv-x="536" 
d="M481 520v-520h-29v142q-6 -27 -31 -62t-68.5 -61t-101.5 -26q-83 0 -137 53t-54 163v311h29v-314q0 -95 43 -140t121 -45q73 0 126 52.5t73 129.5v317h29zM202 767l85 -145h-24l-104 145h43z" />
    <glyph glyph-name="uacute" unicode="&#xfa;" horiz-adv-x="536" 
d="M481 520v-520h-29v142q-6 -27 -31 -62t-68.5 -61t-101.5 -26q-83 0 -137 53t-54 163v311h29v-314q0 -95 43 -140t121 -45q73 0 126 52.5t73 129.5v317h29zM288 622h-24l85 145h43z" />
    <glyph glyph-name="ucircumflex" unicode="&#xfb;" horiz-adv-x="536" 
d="M481 520v-520h-29v142q-6 -27 -31 -62t-68.5 -61t-101.5 -26q-83 0 -137 53t-54 163v311h29v-314q0 -95 43 -140t121 -45q73 0 126 52.5t73 129.5v317h29zM408 616h-26l-109 123l-110 -123h-26l116 147h39z" />
    <glyph glyph-name="udieresis" unicode="&#xfc;" horiz-adv-x="536" 
d="M481 520v-520h-29v142q-6 -27 -31 -62t-68.5 -61t-101.5 -26q-83 0 -137 53t-54 163v311h29v-314q0 -95 43 -140t121 -45q73 0 126 52.5t73 129.5v317h29zM185 716h-42v42h42v-42zM403 716h-42v42h42v-42z" />
    <glyph glyph-name="yacute" unicode="&#xfd;" horiz-adv-x="517" 
d="M485 520l-288 -710h-30l84 206l-219 504h30l203 -468l189 468h31zM282 622h-24l85 145h43z" />
    <glyph glyph-name="thorn" unicode="&#xfe;" horiz-adv-x="574" 
d="M415.5 495.5q57.5 -30.5 95 -91t37.5 -145.5q0 -84 -37.5 -144t-95 -91t-116.5 -31h-2h-2q-63 0 -119.5 31.5t-91.5 95.5v-310h-29v190h-4v700h30v-180h3v-123q35 64 91.5 96.5t119.5 32.5h2h2q59 0 116.5 -30.5zM115.5 128q32.5 -54 82 -80.5t101.5 -27.5q51 1 101 27.5
t82.5 80.5t32.5 131q0 78 -32.5 132t-82.5 80.5t-101 27.5q-52 -1 -101.5 -27.5t-82 -81t-32.5 -131.5t32.5 -131z" />
    <glyph glyph-name="ydieresis" unicode="&#xff;" horiz-adv-x="517" 
d="M485 520l-288 -710h-30l84 206l-219 504h30l203 -468l189 468h31zM179 716h-42v42h42v-42zM397 716h-42v42h42v-42z" />
    <glyph glyph-name="Amacron" unicode="&#x100;" horiz-adv-x="681" 
d="M514 255h-348l-111 -255h-30l308 700h15l308 -700h-30zM502 282l-162 369l-161 -369h323zM523 853h-359v27h359v-27z" />
    <glyph glyph-name="amacron" unicode="&#x101;" 
d="M412 492q58 -34 92 -103v131h29v-520h-29v128q-34 -68 -92 -101.5t-123 -33.5q-59 0 -116.5 31t-95 91t-37.5 144q0 85 37.5 145.5t95 91t116.5 30.5q65 0 123 -34zM186.5 472.5q-50.5 -26.5 -84 -81t-33.5 -132.5t33.5 -131.5t84 -80t101.5 -26.5t101 26.5t83 80.5
t33 131q0 78 -33 132t-83 81t-101 27t-101.5 -26.5zM490 673h-359v27h359v-27z" />
    <glyph glyph-name="Abreve" unicode="&#x102;" horiz-adv-x="681" 
d="M514 255h-348l-111 -255h-30l308 700h15l308 -700h-30zM502 282l-162 369l-161 -369h323zM458.5 885q-17.5 -30 -48 -48.5t-67.5 -18.5q-39 0 -69.5 18.5t-47 48.5t-17.5 62h22q6 -43 35 -72t78 -29t77 29t34 72h22q-1 -32 -18.5 -62z" />
    <glyph glyph-name="abreve" unicode="&#x103;" 
d="M412 492q58 -34 92 -103v131h29v-520h-29v128q-34 -68 -92 -101.5t-123 -33.5q-59 0 -116.5 31t-95 91t-37.5 144q0 85 37.5 145.5t95 91t116.5 30.5q65 0 123 -34zM186.5 472.5q-50.5 -26.5 -84 -81t-33.5 -132.5t33.5 -131.5t84 -80t101.5 -26.5t101 26.5t83 80.5
t33 131q0 78 -33 132t-83 81t-101 27t-101.5 -26.5zM425.5 705q-17.5 -30 -48 -48.5t-67.5 -18.5q-39 0 -69.5 18.5t-47 48.5t-17.5 62h22q6 -43 35 -72t78 -29t77 29t34 72h22q-1 -32 -18.5 -62z" />
    <glyph glyph-name="Aogonek" unicode="&#x104;" horiz-adv-x="681" 
d="M549.5 -61q-27.5 -29 -27.5 -68q0 -27 17.5 -42.5t44.5 -15.5q12 0 24 3l8 -14q-18 -8 -40 -8q-33 0 -56.5 19.5t-23.5 59.5q0 39 34.5 73t90.5 54h5l-112 255h-348l-111 -255h-30l308 700h15l308 -700h-6q-73 -32 -100.5 -61zM502 282l-162 369l-161 -369h323z" />
    <glyph glyph-name="aogonek" unicode="&#x105;" horiz-adv-x="613" 
d="M429 -171.5q18 -15.5 45 -15.5q12 0 24 3l8 -14q-18 -8 -40 -8q-33 0 -56.5 19.5t-23.5 59.5q0 39 34.5 73t90.5 54h-7v128q-34 -68 -92 -101.5t-123 -33.5q-59 0 -116.5 31t-95 91t-37.5 144q0 85 37.5 145.5t95 91t116.5 30.5q65 0 123 -34t92 -103v131h29v-520h7
q-74 -32 -101.5 -61t-27.5 -68q0 -27 18 -42.5zM389 47.5q50 26.5 83 80.5t33 131q0 78 -33 132t-83 81t-101 27t-101.5 -26.5t-84 -81t-33.5 -132.5t33.5 -131.5t84 -80t101.5 -26.5t101 26.5z" />
    <glyph glyph-name="Cacute" unicode="&#x106;" horiz-adv-x="644" 
d="M507 684.5q57 -22.5 102 -64.5l-19 -20q-38 39 -91 59.5t-110 20.5q-78 0 -152 -42.5t-121 -118t-47 -169.5t47 -169.5t121 -118t152 -42.5q58 0 110 20t90 59l20 -20q-45 -41 -102 -63.5t-118 -22.5q-88 0 -168.5 46t-130.5 127.5t-50 183.5t50 183.5t130.5 127.5
t168.5 46q61 0 118 -22.5zM368 802h-24l85 145h43z" />
    <glyph glyph-name="cacute" unicode="&#x107;" horiz-adv-x="532" 
d="M409.5 491.5q60.5 -34.5 93.5 -96.5l-30 -8q-31 54 -82.5 83t-103.5 29q-51 0 -101.5 -26.5t-83.5 -80.5t-33 -132t33 -132t83.5 -80.5t101.5 -26.5q53 0 105 29t83 84l27 -10q-32 -62 -92.5 -96.5t-122.5 -34.5q-60 0 -117 31t-93.5 91.5t-36.5 144.5t36.5 144.5
t93.5 91t117 30.5q62 0 122.5 -34.5zM286 622h-24l85 145h43z" />
    <glyph glyph-name="Cdotaccent" unicode="&#x10a;" horiz-adv-x="644" 
d="M507 684.5q57 -22.5 102 -64.5l-19 -20q-38 39 -91 59.5t-110 20.5q-78 0 -152 -42.5t-121 -118t-47 -169.5t47 -169.5t121 -118t152 -42.5q58 0 110 20t90 59l20 -20q-45 -41 -102 -63.5t-118 -22.5q-88 0 -168.5 46t-130.5 127.5t-50 183.5t50 183.5t130.5 127.5
t168.5 46q61 0 118 -22.5zM367 899h-30v31h30v-31z" />
    <glyph glyph-name="cdotaccent" unicode="&#x10b;" horiz-adv-x="532" 
d="M409.5 491.5q60.5 -34.5 93.5 -96.5l-30 -8q-31 54 -82.5 83t-103.5 29q-51 0 -101.5 -26.5t-83.5 -80.5t-33 -132t33 -132t83.5 -80.5t101.5 -26.5q53 0 105 29t83 84l27 -10q-32 -62 -92.5 -96.5t-122.5 -34.5q-60 0 -117 31t-93.5 91.5t-36.5 144.5t36.5 144.5
t93.5 91t117 30.5q62 0 122.5 -34.5zM286 719h-30v31h30v-31z" />
    <glyph glyph-name="Ccaron" unicode="&#x10c;" horiz-adv-x="644" 
d="M507 684.5q57 -22.5 102 -64.5l-19 -20q-38 39 -91 59.5t-110 20.5q-78 0 -152 -42.5t-121 -118t-47 -169.5t47 -169.5t121 -118t152 -42.5q58 0 110 20t90 59l20 -20q-45 -41 -102 -63.5t-118 -22.5q-88 0 -168.5 46t-130.5 127.5t-50 183.5t50 183.5t130.5 127.5
t168.5 46q61 0 118 -22.5zM333 803l-116 147h26l110 -123l109 123h26l-116 -147h-39z" />
    <glyph glyph-name="ccaron" unicode="&#x10d;" horiz-adv-x="532" 
d="M409.5 491.5q60.5 -34.5 93.5 -96.5l-30 -8q-31 54 -82.5 83t-103.5 29q-51 0 -101.5 -26.5t-83.5 -80.5t-33 -132t33 -132t83.5 -80.5t101.5 -26.5q53 0 105 29t83 84l27 -10q-32 -62 -92.5 -96.5t-122.5 -34.5q-60 0 -117 31t-93.5 91.5t-36.5 144.5t36.5 144.5
t93.5 91t117 30.5q62 0 122.5 -34.5zM252 623l-116 147h26l110 -123l109 123h26l-116 -147h-39z" />
    <glyph glyph-name="Dcaron" unicode="&#x10e;" horiz-adv-x="642" 
d="M425 653.5q79 -46.5 123 -127t44 -179.5q0 -96 -44 -175t-123 -125.5t-180 -46.5h-170v700h170q101 0 180 -46.5zM412.5 69q72.5 42 112 115t39.5 163q0 93 -39.5 167.5t-111.5 116.5t-168 42h-141v-646h141q95 0 167.5 42zM308 803l-116 147h26l110 -123l109 123h26
l-116 -147h-39z" />
    <glyph glyph-name="dcaron" unicode="&#x10f;" horiz-adv-x="739" 
d="M538 700v-700h-29v128q-34 -68 -92 -101.5t-123 -33.5q-59 0 -116.5 31t-95 91t-37.5 144q0 85 37.5 145.5t95 91t116.5 30.5q64 0 122 -33.5t92 -101.5v309h30zM666 700l-105 -145h-23l85 145h43zM394 47q50 27 83 81t33 131q0 78 -33 132t-83 81t-102 27
q-51 0 -101.5 -26.5t-83.5 -81t-33 -132.5t33 -132t83.5 -80.5t101.5 -26.5q52 0 102 27z" />
    <glyph glyph-name="Dcroat" unicode="&#x110;" horiz-adv-x="725" 
d="M498 653.5q79 -46.5 123 -127t44 -179.5q0 -96 -44 -175t-123 -125.5t-180 -46.5h-170v341h-73v22h73v337h170q101 0 180 -46.5zM485.5 69q72.5 42 112 115t39.5 163q0 93 -39.5 167.5t-111.5 116.5t-168 42h-141v-310h208v-22h-208v-314h141q95 0 167.5 42z" />
    <glyph glyph-name="dcroat" unicode="&#x111;" horiz-adv-x="652" 
d="M586 609h-48v-609h-29v128q-34 -68 -92 -101.5t-123 -33.5q-59 0 -116.5 31t-95 91t-37.5 144q0 85 37.5 145.5t95 91t116.5 30.5q64 0 122 -33.5t92 -101.5v218h-281v27h281v64h30v-64h48v-27zM394 47q50 27 83 81t33 131q0 78 -33 132t-83 81t-102 27
q-51 0 -101.5 -26.5t-83.5 -81t-33 -132.5t33 -132t83.5 -80.5t101.5 -26.5q52 0 102 27z" />
    <glyph glyph-name="Emacron" unicode="&#x112;" horiz-adv-x="515" 
d="M470 27v-27h-415v700h405v-27h-375v-305h275v-28h-275v-313h385zM452 853h-359v27h359v-27z" />
    <glyph glyph-name="emacron" unicode="&#x113;" horiz-adv-x="572" 
d="M402 495.5q57 -30.5 93.5 -91t36.5 -144.5l-1 -14h-462q3 -73 36.5 -124t82 -76t98.5 -25t95.5 19.5t79.5 58.5l21 -18q-36 -43 -86.5 -65.5t-108.5 -22.5q-60 0 -117 31t-93.5 91.5t-36.5 144.5t37 144.5t93.5 91t115.5 30.5t116 -30.5zM188.5 474q-48.5 -25 -82 -75.5
t-37.5 -124.5h435q-4 74 -37.5 124.5t-82 75.5t-98.5 25q-49 0 -97.5 -25zM458 673h-359v27h359v-27z" />
    <glyph glyph-name="Edotaccent" unicode="&#x116;" horiz-adv-x="515" 
d="M470 27v-27h-415v700h405v-27h-375v-305h275v-28h-275v-313h385zM286 899h-30v31h30v-31z" />
    <glyph glyph-name="edotaccent" unicode="&#x117;" horiz-adv-x="572" 
d="M402 495.5q57 -30.5 93.5 -91t36.5 -144.5l-1 -14h-462q3 -73 36.5 -124t82 -76t98.5 -25t95.5 19.5t79.5 58.5l21 -18q-36 -43 -86.5 -65.5t-108.5 -22.5q-60 0 -117 31t-93.5 91.5t-36.5 144.5t37 144.5t93.5 91t115.5 30.5t116 -30.5zM188.5 474q-48.5 -25 -82 -75.5
t-37.5 -124.5h435q-4 74 -37.5 124.5t-82 75.5t-98.5 25q-49 0 -97.5 -25zM292 719h-30v31h30v-31z" />
    <glyph glyph-name="Eogonek" unicode="&#x118;" horiz-adv-x="515" 
d="M470 27v-27h-415v700h405v-27h-375v-305h275v-28h-275v-313h385zM383.5 -61q-27.5 -29 -27.5 -68q0 -27 17.5 -42.5t44.5 -15.5q12 0 24 3l8 -14q-18 -8 -40 -8q-33 0 -56.5 19.5t-23.5 59.5q0 39 34.5 73t90.5 54h29q-73 -32 -100.5 -61z" />
    <glyph glyph-name="eogonek" unicode="&#x119;" horiz-adv-x="582" 
d="M531 246h-462q3 -73 36.5 -124t82 -76t98.5 -25t95.5 19.5t79.5 58.5l21 -18q-22 -27 -47 -43h4q-53 -36 -79 -65t-33.5 -51t-7.5 -46q0 -28 16.5 -44t42.5 -16q11 0 25 3l8 -17q-18 -8 -40 -8q-34 0 -58 20t-24 62q0 69 73 127q-34 -10 -75 -10q-60 0 -117 31
t-93.5 91.5t-36.5 144.5t37 144.5t93.5 91t115.5 30.5t116 -30.5t93.5 -91t36.5 -144.5zM504 274q-4 74 -37.5 124.5t-82 75.5t-98.5 25q-49 0 -97.5 -25t-82 -75.5t-37.5 -124.5h435z" />
    <glyph glyph-name="Ecaron" unicode="&#x11a;" horiz-adv-x="515" 
d="M470 27v-27h-415v700h405v-27h-375v-305h275v-28h-275v-313h385zM252 803l-116 147h26l110 -123l109 123h26l-116 -147h-39z" />
    <glyph glyph-name="ecaron" unicode="&#x11b;" horiz-adv-x="572" 
d="M402 495.5q57 -30.5 93.5 -91t36.5 -144.5l-1 -14h-462q3 -73 36.5 -124t82 -76t98.5 -25t95.5 19.5t79.5 58.5l21 -18q-36 -43 -86.5 -65.5t-108.5 -22.5q-60 0 -117 31t-93.5 91.5t-36.5 144.5t37 144.5t93.5 91t115.5 30.5t116 -30.5zM188.5 474q-48.5 -25 -82 -75.5
t-37.5 -124.5h435q-4 74 -37.5 124.5t-82 75.5t-98.5 25q-49 0 -97.5 -25zM258 623l-116 147h26l110 -123l109 123h26l-116 -147h-39z" />
    <glyph glyph-name="Gbreve" unicode="&#x11e;" horiz-adv-x="737" 
d="M662.5 157q-39.5 -78 -110.5 -121t-165 -43q-87 0 -167.5 46t-130 127.5t-49.5 183.5t48.5 183.5t128.5 127.5t170 46q79 0 144.5 -30t105.5 -76l-18 -18q-36 42 -96 69.5t-136 27.5q-82 0 -156 -42t-119 -117t-45 -171q0 -95 46 -170.5t120.5 -117.5t153.5 -42
q82 0 145 35.5t100 100t43 149.5h-231v30h259q-1 -100 -40.5 -178zM500.5 885q-17.5 -30 -48 -48.5t-67.5 -18.5q-39 0 -69.5 18.5t-47 48.5t-17.5 62h22q6 -43 35 -72t78 -29t77 29t34 72h22q-1 -32 -18.5 -62z" />
    <glyph glyph-name="gbreve" unicode="&#x11f;" 
d="M533 520v-520q0 -73 -32 -119t-80.5 -66t-99.5 -20q-59 0 -100 14t-57 32v29q17 -19 56.5 -33t100.5 -14q48 0 89.5 18.5t67.5 58t26 100.5v128q-34 -68 -92 -101.5t-123 -33.5q-59 0 -116.5 31t-95 91t-37.5 144q0 85 37.5 145.5t95 91t116.5 30.5q65 0 123 -34t92 -103
v131h29zM389 47.5q50 26.5 83 80.5t33 131q0 78 -33 132t-83 81t-101 27t-101.5 -26.5t-84 -81t-33.5 -132.5t33.5 -131.5t84 -80t101.5 -26.5t101 26.5zM427.5 705q-17.5 -30 -48 -48.5t-67.5 -18.5q-39 0 -69.5 18.5t-47 48.5t-17.5 62h22q6 -43 35 -72t78 -29t77 29
t34 72h22q-1 -32 -18.5 -62z" />
    <glyph glyph-name="Gdotaccent" unicode="&#x120;" horiz-adv-x="737" 
d="M662.5 157q-39.5 -78 -110.5 -121t-165 -43q-87 0 -167.5 46t-130 127.5t-49.5 183.5t48.5 183.5t128.5 127.5t170 46q79 0 144.5 -30t105.5 -76l-18 -18q-36 42 -96 69.5t-136 27.5q-82 0 -156 -42t-119 -117t-45 -171q0 -95 46 -170.5t120.5 -117.5t153.5 -42
q82 0 145 35.5t100 100t43 149.5h-231v30h259q-1 -100 -40.5 -178zM400 899h-30v31h30v-31z" />
    <glyph glyph-name="gdotaccent" unicode="&#x121;" 
d="M533 520v-520q0 -73 -32 -119t-80.5 -66t-99.5 -20q-59 0 -100 14t-57 32v29q17 -19 56.5 -33t100.5 -14q48 0 89.5 18.5t67.5 58t26 100.5v128q-34 -68 -92 -101.5t-123 -33.5q-59 0 -116.5 31t-95 91t-37.5 144q0 85 37.5 145.5t95 91t116.5 30.5q65 0 123 -34t92 -103
v131h29zM389 47.5q50 26.5 83 80.5t33 131q0 78 -33 132t-83 81t-101 27t-101.5 -26.5t-84 -81t-33.5 -132.5t33.5 -131.5t84 -80t101.5 -26.5t101 26.5zM327 719h-30v31h30v-31z" />
    <glyph glyph-name="Gcommaaccent" unicode="&#x122;" horiz-adv-x="737" 
d="M662.5 157q-39.5 -78 -110.5 -121t-165 -43q-87 0 -167.5 46t-130 127.5t-49.5 183.5t48.5 183.5t128.5 127.5t170 46q79 0 144.5 -30t105.5 -76l-18 -18q-36 42 -96 69.5t-136 27.5q-82 0 -156 -42t-119 -117t-45 -171q0 -95 46 -170.5t120.5 -117.5t153.5 -42
q82 0 145 35.5t100 100t43 149.5h-231v30h259q-1 -100 -40.5 -178zM332 -60h41l-102 -155h-22z" />
    <glyph glyph-name="gcommaaccent" unicode="&#x123;" horiz-adv-x="542" 
d="M314 578h-41l102 155h22zM533 520v-520q0 -73 -32 -119t-80.5 -66t-99.5 -20q-59 0 -100 14t-57 32v29q17 -19 56.5 -33t100.5 -14q48 0 89.5 18.5t67.5 58t26 100.5v128q-34 -68 -92 -101.5t-123 -33.5q-59 0 -116.5 31t-95 91t-37.5 144q0 85 37.5 145.5t95 91
t116.5 30.5q65 0 123 -34t92 -103v131h29zM389 47.5q50 26.5 83 80.5t33 131q0 78 -33 132t-83 81t-101 27t-101.5 -26.5t-84 -81t-33.5 -132.5t33.5 -131.5t84 -80t101.5 -26.5t101 26.5z" />
    <glyph glyph-name="Hbar" unicode="&#x126;" horiz-adv-x="637" 
d="M556 700v-700h-29v326h-428v-326h-29v700h29v-194h428v194h29zM527 353v131h-428v-131h428z" />
    <glyph glyph-name="hbar" unicode="&#x127;" horiz-adv-x="612" 
d="M438 502q46 -23 74.5 -72.5t28.5 -124.5v-305h-29v309q0 93 -48.5 141t-125.5 48q-49 0 -93 -25.5t-73.5 -68t-36.5 -89.5v-315h-29v592h-61v22h61v86h29v-86h113v-22h-113v-218q5 26 31.5 62t71 62.5t100.5 26.5q54 0 100 -23z" />
    <glyph glyph-name="Imacron" unicode="&#x12a;" horiz-adv-x="182" 
d="M105 0h-28v700h28v-700zM272 853h-359v27h359v-27z" />
    <glyph glyph-name="imacron" unicode="&#x12b;" horiz-adv-x="179" 
d="M104 0h-29v520h29v-520zM269 673h-359v27h359v-27z" />
    <glyph glyph-name="Iogonek" unicode="&#x12e;" horiz-adv-x="182" 
d="M-10 -171.5q18 -15.5 45 -15.5q12 0 24 3l8 -14q-18 -8 -40 -8q-33 0 -56.5 19.5t-23.5 59.5t34.5 73.5t92.5 53.5h-1v700h28v-700h2q-75 -32 -103 -61t-28 -68q0 -27 18 -42.5z" />
    <glyph glyph-name="iogonek" unicode="&#x12f;" horiz-adv-x="179" 
d="M104 0h-29v520h29v-520zM104 719h-30v31h30v-31zM-2.5 -61q-27.5 -29 -27.5 -68q0 -27 17.5 -42.5t44.5 -15.5q12 0 24 3l8 -14q-18 -8 -40 -8q-33 0 -56.5 19.5t-23.5 59.5q0 39 34.5 73t90.5 54h29q-73 -32 -100.5 -61z" />
    <glyph glyph-name="Idotaccent" unicode="&#x130;" horiz-adv-x="182" 
d="M105 0h-28v700h28v-700zM107 899h-30v31h30v-31z" />
    <glyph glyph-name="dotlessi" unicode="&#x131;" horiz-adv-x="179" 
d="M104 0h-29v520h29v-520z" />
    <glyph glyph-name="IJ" unicode="&#x132;" horiz-adv-x="691" 
d="M105 0h-28v700h28v-700zM626 257q0 -135 -57.5 -199.5t-154.5 -64.5q-116 0 -187 83l20 21q31 -38 70.5 -58t98.5 -20q83 0 132 58t49 181v442h29v-443z" />
    <glyph glyph-name="ij" unicode="&#x133;" horiz-adv-x="380" 
d="M101 668h-29v32h29v-32zM101 0h-29v520h29v-520zM310 668h-29v32h29v-32zM310 -69q0 -75 -26 -105.5t-74 -30.5q-22 0 -46.5 8t-37.5 18v25q17 -12 41 -20.5t47 -8.5q33 0 50 26t17 78v599h29v-589z" />
    <glyph glyph-name="Kcommaaccent" unicode="&#x136;" horiz-adv-x="558" 
d="M212 327l316 -327h-38l-295 306l-95 -111v-195h-30v700h30v-455l376 455h39zM239 -60h41l-102 -155h-22z" />
    <glyph glyph-name="kcommaaccent" unicode="&#x137;" horiz-adv-x="547" 
d="M203 253l-99 -103v-150h-29v700h29v-509l97 101v2l1 -1l219 227h40l-238 -247l287 -273h-39zM225 -60h41l-102 -155h-22z" />
    <glyph glyph-name="Lacute" unicode="&#x139;" horiz-adv-x="576" 
d="M494 28v-28h-417v700h29v-672h388zM107 800h-24l85 145h43z" />
    <glyph glyph-name="lacute" unicode="&#x13a;" horiz-adv-x="180" 
d="M105 0h-30v700h30v-700zM104 802h-24l85 145h43z" />
    <glyph glyph-name="Lcommaaccent" unicode="&#x13b;" horiz-adv-x="551" 
d="M494 28v-28h-417v700h29v-672h388zM250 -60h41l-102 -155h-22z" />
    <glyph glyph-name="lcommaaccent" unicode="&#x13c;" horiz-adv-x="180" 
d="M105 0h-30v700h30v-700zM46 -60h41l-102 -155h-22z" />
    <glyph glyph-name="Lcaron" unicode="&#x13d;" horiz-adv-x="576" 
d="M494 28v-28h-417v700h29v-672h388zM339 700h42l-102 -155h-22z" />
    <glyph glyph-name="lcaron" unicode="&#x13e;" horiz-adv-x="309" 
d="M105 0h-30v700h30v-700zM258 700h41l-102 -155h-22z" />
    <glyph glyph-name="Ldot" unicode="&#x13f;" horiz-adv-x="551" 
d="M494 28v-28h-417v700h29v-672h388zM300 347h-41v43h41v-43z" />
    <glyph glyph-name="ldot" unicode="&#x140;" horiz-adv-x="288" 
d="M105 0h-30v700h30v-700zM215 345h-41v43h41v-43z" />
    <glyph glyph-name="Lslash" unicode="&#x141;" horiz-adv-x="632" 
d="M550 28v-28h-417v273l-78 -82v48l78 82v379h29v-348l147 155h1v-48l-148 -156v-275h388z" />
    <glyph glyph-name="lslash" unicode="&#x142;" horiz-adv-x="365" 
d="M313 462l-112 -118v-344h-29v314l-120 -127v49l120 126v338h29v-307l111 117h1v-48z" />
    <glyph glyph-name="Nacute" unicode="&#x143;" horiz-adv-x="670" 
d="M600 0h-31l-470 665v-665h-29v700h31l470 -667v667h29v-700zM350 802h-24l85 145h43z" />
    <glyph glyph-name="nacute" unicode="&#x144;" horiz-adv-x="550" 
d="M392 502q46 -23 74.5 -72.5t28.5 -124.5v-305h-29v309q0 93 -48.5 141t-125.5 48q-49 0 -93 -25.5t-73.5 -68t-36.5 -89.5v-315h-29v520h29v-146q5 26 31.5 62t71 62.5t100.5 26.5q54 0 100 -23zM283 622h-24l85 145h43z" />
    <glyph glyph-name="Ncommaaccent" unicode="&#x145;" horiz-adv-x="670" 
d="M600 0h-31l-470 665v-665h-29v700h31l470 -667v667h29v-700zM292 -60h41l-102 -155h-22z" />
    <glyph glyph-name="ncommaaccent" unicode="&#x146;" horiz-adv-x="550" 
d="M392 502q46 -23 74.5 -72.5t28.5 -124.5v-305h-29v309q0 93 -48.5 141t-125.5 48q-49 0 -93 -25.5t-73.5 -68t-36.5 -89.5v-315h-29v520h29v-146q5 26 31.5 62t71 62.5t100.5 26.5q54 0 100 -23zM225 -60h41l-102 -155h-22z" />
    <glyph glyph-name="Ncaron" unicode="&#x147;" horiz-adv-x="670" 
d="M600 0h-31l-470 665v-665h-29v700h31l470 -667v667h29v-700zM316 803l-116 147h26l110 -123l109 123h26l-116 -147h-39z" />
    <glyph glyph-name="ncaron" unicode="&#x148;" horiz-adv-x="550" 
d="M392 502q46 -23 74.5 -72.5t28.5 -124.5v-305h-29v309q0 93 -48.5 141t-125.5 48q-49 0 -93 -25.5t-73.5 -68t-36.5 -89.5v-315h-29v520h29v-146q5 26 31.5 62t71 62.5t100.5 26.5q54 0 100 -23zM248 623l-116 147h26l110 -123l109 123h26l-116 -147h-39z" />
    <glyph glyph-name="Eng" unicode="&#x14a;" horiz-adv-x="713" 
d="M578.5 -140.5q-57.5 -64.5 -155.5 -64.5q-115 0 -186 83l20 21q31 -38 70.5 -58t97.5 -20q77 0 125.5 50t55.5 155l-499 601v-627h-30v700h8l521 -630v630h30v-641q0 -135 -57.5 -199.5z" />
    <glyph glyph-name="eng" unicode="&#x14b;" horiz-adv-x="565" 
d="M503 181v-250q0 -75 -26 -105.5t-74 -30.5q-22 0 -46 8t-37 18v25q16 -12 40.5 -20.5t47.5 -8.5q32 0 49 26t17 78v79h-8v309q0 93 -48.5 141t-125.5 48q-49 0 -93 -25.5t-73.5 -68t-36.5 -89.5v-315h-29v520h29v-146q5 26 31.5 62t71 62.5t100.5 26.5q54 0 100 -23
t74.5 -72.5t28.5 -124.5v-124h8z" />
    <glyph glyph-name="Omacron" unicode="&#x14c;" horiz-adv-x="804" 
d="M571 661q80 -46 129 -127.5t49 -183.5t-49 -183.5t-129 -127.5t-169 -46q-87 0 -167 46t-130 127.5t-50 183.5t50 183.5t130 127.5t167 46q89 0 169 -46zM250 637.5q-74 -42.5 -120.5 -118t-46.5 -169.5t46.5 -169.5t120.5 -118t152 -42.5q82 0 155.5 42t118 117.5
t44.5 170.5t-44.5 170.5t-118 117.5t-155.5 42q-78 0 -152 -42.5zM582 853h-359v27h359v-27z" />
    <glyph glyph-name="omacron" unicode="&#x14d;" horiz-adv-x="573" 
d="M403 495.5q57 -30.5 93.5 -91t36.5 -144.5t-36.5 -144.5t-93.5 -91.5t-116 -31q-60 0 -117 31t-93.5 91.5t-36.5 144.5t36.5 144.5t93.5 91t117 30.5q59 0 116 -30.5zM185.5 472q-50.5 -27 -83.5 -81t-33 -131q0 -78 33 -132t83.5 -80.5t101.5 -26.5t101 26.5t83 80.5
t33 132q0 77 -33 131t-83 81t-101 27t-101.5 -27zM466 673h-359v27h359v-27z" />
    <glyph glyph-name="Ohungarumlaut" unicode="&#x150;" horiz-adv-x="804" 
d="M417 802h-24l85 145h43zM571 661q80 -46 129 -127.5t49 -183.5t-49 -183.5t-129 -127.5t-169 -46q-87 0 -167 46t-130 127.5t-50 183.5t50 183.5t130 127.5t167 46q89 0 169 -46zM557.5 62q73.5 42 118 117.5t44.5 170.5t-44.5 170.5t-118 117.5t-155.5 42
q-78 0 -152 -42.5t-120.5 -118t-46.5 -169.5t46.5 -169.5t120.5 -118t152 -42.5q82 0 155.5 42z" />
    <glyph glyph-name="ohungarumlaut" unicode="&#x151;" horiz-adv-x="573" 
d="M301 622h-24l85 145h43zM403 495.5q57 -30.5 93.5 -91t36.5 -144.5t-36.5 -144.5t-93.5 -91.5t-116 -31q-60 0 -117 31t-93.5 91.5t-36.5 144.5t36.5 144.5t93.5 91t117 30.5q59 0 116 -30.5zM388 47.5q50 26.5 83 80.5t33 132q0 77 -33 131t-83 81t-101 27t-101.5 -27
t-83.5 -81t-33 -131q0 -78 33 -132t83.5 -80.5t101.5 -26.5t101 26.5z" />
    <glyph glyph-name="OE" unicode="&#x152;" horiz-adv-x="1211" 
d="M1116 27v-27h-415v168q-47 -81 -128 -128t-171 -47q-87 0 -167 46t-130 127.5t-50 183.5t50 183.5t130 127.5t167 46q90 0 171 -47t128 -128v168h405v-27h-376v-205q17 -52 18 -100h258v-28h-257q-1 -54 -19 -108v-205h386zM526.5 46.5q60.5 26.5 106 75t68.5 112.5v232
q-23 64 -68.5 112.5t-106 75t-124.5 26.5q-78 0 -152 -42.5t-120.5 -118t-46.5 -169.5t46.5 -169.5t120.5 -118t152 -42.5q64 0 124.5 26.5z" />
    <glyph glyph-name="oe" unicode="&#x153;" horiz-adv-x="1055" 
d="M995 246h-462q3 -73 36.5 -124t82 -76.5t98.5 -25.5t95.5 20t79.5 59l21 -18q-36 -43 -86.5 -65.5t-108.5 -22.5q-47 0 -93.5 19.5t-84 58.5t-55.5 94q-18 -55 -55 -94t-83 -58.5t-93 -19.5q-60 0 -117 31t-93.5 91.5t-36.5 144.5t36.5 144.5t93.5 91t117 30.5
q46 0 92.5 -19.5t84 -58t55.5 -93.5q18 55 55 93.5t83.5 58t92.5 19.5q59 0 116 -30.5t93.5 -91t36.5 -144.5zM968 274q-4 74 -37.5 124.5t-82 75.5t-98.5 25q-49 0 -97.5 -25t-82 -75.5t-37.5 -124.5h435zM388 47.5q50 26.5 83 80.5t33 132q0 77 -33 131t-83 81t-101 27
t-101.5 -27t-83.5 -81t-33 -131q0 -78 33 -132t83.5 -80.5t101.5 -26.5t101 26.5z" />
    <glyph glyph-name="Racute" unicode="&#x154;" horiz-adv-x="585" 
d="M509 0l-224 278h-186v-278h-29v700h223q66 0 118.5 -26.5t82.5 -74.5t30 -110q0 -87 -57 -144.5t-147 -65.5l225 -279h-36zM99 304h184q98 0 155 50.5t57 134.5t-57 134.5t-155 50.5h-184v-370zM308 802h-24l85 145h43z" />
    <glyph glyph-name="racute" unicode="&#x155;" horiz-adv-x="344" 
d="M319 523v-25q-11 1 -31 1q-81 -1 -134 -53t-69 -151v-295h-30v520h30v-154q6 40 33 76.5t71.5 59.5t99.5 23q6 0 30 -2zM180 622h-24l85 145h43z" />
    <glyph glyph-name="Rcommaaccent" unicode="&#x156;" horiz-adv-x="585" 
d="M509 0l-224 278h-186v-278h-29v700h223q66 0 118.5 -26.5t82.5 -74.5t30 -110q0 -87 -57 -144.5t-147 -65.5l225 -279h-36zM99 304h184q98 0 155 50.5t57 134.5t-57 134.5t-155 50.5h-184v-370zM245 -60h41l-102 -155h-22z" />
    <glyph glyph-name="rcommaaccent" unicode="&#x157;" horiz-adv-x="344" 
d="M319 523v-25q-11 1 -31 1q-81 -1 -134 -53t-69 -151v-295h-30v520h30v-154q6 40 33 76.5t71.5 59.5t99.5 23q6 0 30 -2zM29 -60h41l-102 -155h-22z" />
    <glyph glyph-name="Rcaron" unicode="&#x158;" horiz-adv-x="585" 
d="M509 0l-224 278h-186v-278h-29v700h223q66 0 118.5 -26.5t82.5 -74.5t30 -110q0 -87 -57 -144.5t-147 -65.5l225 -279h-36zM99 304h184q98 0 155 50.5t57 134.5t-57 134.5t-155 50.5h-184v-370zM273 803l-116 147h26l110 -123l109 123h26l-116 -147h-39z" />
    <glyph glyph-name="rcaron" unicode="&#x159;" horiz-adv-x="344" 
d="M319 523v-25q-11 1 -31 1q-81 -1 -134 -53t-69 -151v-295h-30v520h30v-154q6 40 33 76.5t71.5 59.5t99.5 23q6 0 30 -2zM145 623l-116 147h26l110 -123l109 123h26l-116 -147h-39z" />
    <glyph glyph-name="Sacute" unicode="&#x15a;" horiz-adv-x="562" 
d="M429 665q61 -42 86 -105l-24 -11q-24 56 -77.5 94t-130.5 38q-81 0 -132 -40.5t-51 -106.5q0 -58 32.5 -87.5t96.5 -52.5l107 -37q57 -19 95.5 -39.5t64.5 -56t26 -89.5q0 -51 -31.5 -92t-85 -64t-115.5 -23q-57 0 -109 21.5t-89 58.5t-52 84l26 10q24 -67 83 -107.5
t141 -40.5q55 0 101.5 18.5t74.5 53.5t28 81q0 66 -42.5 99.5t-115.5 58.5l-111 39q-76 25 -114.5 63t-38.5 102q0 48 28 87.5t77 62.5t108 23q83 0 144 -42zM292 802h-24l85 145h43z" />
    <glyph glyph-name="sacute" unicode="&#x15b;" horiz-adv-x="420" 
d="M290.5 479.5q-31.5 19.5 -81.5 19.5q-53 0 -86 -28t-33 -66q0 -36 22 -60.5t81 -44.5l41 -14q80 -28 118 -61.5t38 -91.5q0 -42 -25.5 -73.5t-66 -49t-83.5 -17.5q-62 0 -115.5 37t-69.5 96l30 5q12 -49 56.5 -80t99.5 -31q35 0 69 13.5t55.5 39t21.5 60.5q0 46 -32 74
t-94 50l-55 19q-68 23 -94 53.5t-26 74.5q0 32 20 60t54 45t75 17q55 0 95 -25.5t64 -69.5l-27 -8q-20 37 -51.5 56.5zM227 622h-24l85 145h43z" />
    <glyph glyph-name="Scedilla" unicode="&#x15e;" horiz-adv-x="562" 
d="M491 80.5q-31 -40.5 -83.5 -64t-114.5 -23.5l-38 -40q4 1 12 1q29 0 49.5 -20.5t20.5 -54.5q0 -36 -27.5 -60t-67.5 -24q-15 0 -35 5l9 20q14 -3 25 -3q30 0 47 19t17 43q0 23 -13.5 39t-34.5 16q-10 0 -28 -7l-9 13l39 55q-78 8 -138 53t-81 109l26 10q24 -67 83 -107.5
t141 -40.5q55 0 101.5 18.5t74.5 53.5t28 81q0 66 -42.5 99.5t-115.5 58.5l-111 39q-76 25 -114.5 63t-38.5 102q0 48 28 87.5t77 62.5t108 23q83 0 144 -42t86 -105l-24 -11q-24 56 -77.5 94t-130.5 38q-81 0 -132 -40.5t-51 -106.5q0 -58 32.5 -87.5t96.5 -52.5l107 -37
q57 -19 95.5 -39.5t64.5 -56t26 -89.5q0 -51 -31 -91.5z" />
    <glyph glyph-name="scedilla" unicode="&#x15f;" horiz-adv-x="420" 
d="M366.5 62q-23.5 -31 -62 -49t-79.5 -20l-38 -40q4 1 12 1q29 0 49.5 -20.5t20.5 -54.5q0 -36 -27.5 -60t-67.5 -24q-15 0 -35 5l9 20q14 -3 25 -3q30 0 47 19t17 43q0 23 -13.5 39t-34.5 16q-10 0 -28 -7l-9 13l38 55q-56 7 -101 42.5t-59 88.5l30 5q12 -49 56.5 -80
t99.5 -31q35 0 69 13.5t55.5 39t21.5 60.5q0 46 -32 74t-94 50l-55 19q-68 23 -94 53.5t-26 74.5q0 32 20 60t54 45t75 17q55 0 95 -25.5t64 -69.5l-27 -8q-20 37 -51.5 56.5t-81.5 19.5q-53 0 -86 -28t-33 -66q0 -36 22 -60.5t81 -44.5l41 -14q80 -28 118 -61.5t38 -91.5
q0 -40 -23.5 -71z" />
    <glyph glyph-name="Scaron" unicode="&#x160;" horiz-adv-x="562" 
d="M429 665q61 -42 86 -105l-24 -11q-24 56 -77.5 94t-130.5 38q-81 0 -132 -40.5t-51 -106.5q0 -58 32.5 -87.5t96.5 -52.5l107 -37q57 -19 95.5 -39.5t64.5 -56t26 -89.5q0 -51 -31.5 -92t-85 -64t-115.5 -23q-57 0 -109 21.5t-89 58.5t-52 84l26 10q24 -67 83 -107.5
t141 -40.5q55 0 101.5 18.5t74.5 53.5t28 81q0 66 -42.5 99.5t-115.5 58.5l-111 39q-76 25 -114.5 63t-38.5 102q0 48 28 87.5t77 62.5t108 23q83 0 144 -42zM257 803l-116 147h26l110 -123l109 123h26l-116 -147h-39z" />
    <glyph glyph-name="scaron" unicode="&#x161;" horiz-adv-x="420" 
d="M290.5 479.5q-31.5 19.5 -81.5 19.5q-53 0 -86 -28t-33 -66q0 -36 22 -60.5t81 -44.5l41 -14q80 -28 118 -61.5t38 -91.5q0 -42 -25.5 -73.5t-66 -49t-83.5 -17.5q-62 0 -115.5 37t-69.5 96l30 5q12 -49 56.5 -80t99.5 -31q35 0 69 13.5t55.5 39t21.5 60.5q0 46 -32 74
t-94 50l-55 19q-68 23 -94 53.5t-26 74.5q0 32 20 60t54 45t75 17q55 0 95 -25.5t64 -69.5l-27 -8q-20 37 -51.5 56.5zM192 623l-116 147h26l110 -123l109 123h26l-116 -147h-39z" />
    <glyph glyph-name="uni0162" unicode="&#x162;" horiz-adv-x="594" 
d="M296 674v-674h15l-43 -46q33 4 57.5 -17.5t24.5 -58.5q0 -36 -27.5 -60t-67.5 -24q-15 0 -35 5l9 20q14 -3 25 -3q30 0 47 19t17 43q0 23 -14 39t-35 16q-9 0 -27 -7l-9 13l51 61h-15v674h-217v26h461v-26h-217z" />
    <glyph glyph-name="uni0163" unicode="&#x163;" horiz-adv-x="276" 
d="M190 -4l-41 -43q4 1 12 1q29 0 49.5 -20.5t20.5 -54.5q0 -36 -27.5 -60t-67.5 -24q-15 0 -35 5l9 20q14 -3 25 -3q30 0 47 19t17 43q0 23 -13.5 39t-34.5 16q-10 0 -28 -7l-9 13l38 55q-21 3 -35.5 17t-14.5 42v439h-74v27h74v90h29v-90h109v-27h-109v-427
q0 -27 10 -36.5t31 -9.5q18 0 33.5 5t35.5 15v-28q-25 -13 -51 -16z" />
    <glyph glyph-name="Tcaron" unicode="&#x164;" horiz-adv-x="565" 
d="M513 674h-217v-674h-27v674h-217v26h461v-26zM262 803l-116 147h26l110 -123l109 123h26l-116 -147h-39z" />
    <glyph glyph-name="tcaron" unicode="&#x165;" horiz-adv-x="338" 
d="M205.5 25q15.5 5 35.5 15v-28q-36 -18 -78 -18q-26 0 -43.5 14.5t-17.5 45.5v439h-74v27h74v90h29v-90h109v-27h-109v-427q0 -27 10 -36.5t31 -9.5q18 0 33.5 5zM204 555h-24l85 145h43z" />
    <glyph glyph-name="Tbar" unicode="&#x166;" horiz-adv-x="594" 
d="M296 674v-150h174v-28h-174v-496h-27v496h-158v28h158v150h-217v26h461v-26h-217z" />
    <glyph glyph-name="tbar" unicode="&#x167;" horiz-adv-x="276" 
d="M205.5 25q15.5 5 35.5 15v-28q-36 -18 -78 -18q-26 0 -43.5 14.5t-17.5 45.5v327h-74v27h74v85h-74v27h74v90h29v-90h109v-27h-109v-85h106v-27h-106v-315q0 -27 10 -36.5t31 -9.5q18 0 33.5 5z" />
    <glyph glyph-name="Umacron" unicode="&#x16a;" horiz-adv-x="643" 
d="M578 267q0 -85 -31.5 -146.5t-89.5 -94.5t-136 -33t-136 33t-89 94.5t-31 146.5v433h29v-431q0 -118 59 -183.5t168 -65.5t168.5 65.5t59.5 183.5v431h29v-433zM502 853h-359v27h359v-27z" />
    <glyph glyph-name="umacron" unicode="&#x16b;" horiz-adv-x="536" 
d="M481 520v-520h-29v142q-6 -27 -31 -62t-68.5 -61t-101.5 -26q-83 0 -137 53t-54 163v311h29v-314q0 -95 43 -140t121 -45q73 0 126 52.5t73 129.5v317h29zM452 673h-359v27h359v-27z" />
    <glyph glyph-name="Ubreve" unicode="&#x16c;" horiz-adv-x="643" 
d="M578 267q0 -85 -31.5 -146.5t-89.5 -94.5t-136 -33t-136 33t-89 94.5t-31 146.5v433h29v-431q0 -118 59 -183.5t168 -65.5t168.5 65.5t59.5 183.5v431h29v-433zM437.5 885q-17.5 -30 -48 -48.5t-67.5 -18.5q-39 0 -69.5 18.5t-47 48.5t-17.5 62h22q6 -43 35 -72t78 -29
t77 29t34 72h22q-1 -32 -18.5 -62z" />
    <glyph glyph-name="ubreve" unicode="&#x16d;" horiz-adv-x="536" 
d="M481 520v-520h-29v142q-6 -27 -31 -62t-68.5 -61t-101.5 -26q-83 0 -137 53t-54 163v311h29v-314q0 -95 43 -140t121 -45q73 0 126 52.5t73 129.5v317h29zM387.5 705q-17.5 -30 -48 -48.5t-67.5 -18.5q-39 0 -69.5 18.5t-47 48.5t-17.5 62h22q6 -43 35 -72t78 -29t77 29
t34 72h22q-1 -32 -18.5 -62z" />
    <glyph glyph-name="Uring" unicode="&#x16e;" horiz-adv-x="643" 
d="M578 267q0 -85 -31.5 -146.5t-89.5 -94.5t-136 -33t-136 33t-89 94.5t-31 146.5v433h29v-431q0 -118 59 -183.5t168 -65.5t168.5 65.5t59.5 183.5v431h29v-433zM373.5 930.5q21.5 -21.5 21.5 -50.5t-21.5 -50t-50.5 -21q-31 0 -52 21t-21 50q0 30 21.5 51t51.5 21
q29 0 50.5 -21.5zM290.5 912.5q-13.5 -13.5 -13.5 -32.5t13.5 -32.5t32.5 -13.5t32 13.5t13 32.5t-13 32.5t-32 13.5t-32.5 -13.5z" />
    <glyph glyph-name="uring" unicode="&#x16f;" horiz-adv-x="536" 
d="M481 520v-520h-29v142q-6 -27 -31 -62t-68.5 -61t-101.5 -26q-83 0 -137 53t-54 163v311h29v-314q0 -95 43 -140t121 -45q73 0 126 52.5t73 129.5v317h29zM323.5 750.5q21.5 -21.5 21.5 -50.5t-21.5 -50t-50.5 -21q-31 0 -52 21t-21 50q0 30 21.5 51t51.5 21
q29 0 50.5 -21.5zM240.5 732.5q-13.5 -13.5 -13.5 -32.5t13.5 -32.5t32.5 -13.5t32 13.5t13 32.5t-13 32.5t-32 13.5t-32.5 -13.5z" />
    <glyph glyph-name="Uhungarumlaut" unicode="&#x170;" horiz-adv-x="643" 
d="M337 802h-24l85 145h43zM578 700v-433q0 -85 -31.5 -146.5t-89.5 -94.5t-136 -33t-136 33t-89 94.5t-31 146.5v433h29v-431q0 -118 59 -183.5t168 -65.5t168.5 65.5t59.5 183.5v431h29z" />
    <glyph glyph-name="uhungarumlaut" unicode="&#x171;" horiz-adv-x="536" 
d="M288 622h-24l85 145h43zM481 520v-520h-29v142q-6 -27 -31 -62t-68.5 -61t-101.5 -26q-83 0 -137 53t-54 163v311h29v-314q0 -95 43 -140t121 -45q73 0 126 52.5t73 129.5v317h29z" />
    <glyph glyph-name="Uogonek" unicode="&#x172;" horiz-adv-x="643" 
d="M578 700v-433q0 -108 -50.5 -177.5t-139.5 -89.5q-73 -32 -100.5 -61t-27.5 -68q0 -27 17.5 -42.5t44.5 -15.5q12 0 24 3l8 -14q-18 -8 -40 -8q-33 0 -56.5 19.5t-23.5 59.5q0 37 29.5 68.5t79.5 52.5q-8 -1 -22 -1q-78 0 -136 33t-89 94.5t-31 146.5v433h29v-431
q0 -118 59 -183.5t168 -65.5t168.5 65.5t59.5 183.5v431h29z" />
    <glyph glyph-name="uogonek" unicode="&#x173;" horiz-adv-x="557" 
d="M379 -61q-28 -29 -28 -68q0 -27 17.5 -42.5t44.5 -15.5q12 0 24 3l8 -14q-18 -8 -40 -8q-33 0 -56.5 19.5t-23.5 59.5t34.5 73.5t92.5 53.5v142q-6 -27 -31 -62t-68.5 -61t-101.5 -26q-83 0 -137 53t-54 163v311h29v-314q0 -95 43 -140t121 -45q73 0 126 52.5t73 129.5
v317h29v-520q-74 -32 -102 -61z" />
    <glyph glyph-name="Wcircumflex" unicode="&#x174;" horiz-adv-x="1012" 
d="M746 0h-4l-235 629l-237 -629h-4l-226 700h30l200 -618l234 618h4l234 -618l201 618h29zM642 796h-26l-109 123l-110 -123h-26l116 147h39z" />
    <glyph glyph-name="wcircumflex" unicode="&#x175;" horiz-adv-x="860" 
d="M630 0h-6l-195 465l-193 -465h-6l-191 520h29l165 -457l194 457h5l195 -457l165 457h29zM566 616h-26l-109 123l-110 -123h-26l116 147h39z" />
    <glyph glyph-name="Ycircumflex" unicode="&#x176;" horiz-adv-x="612" 
d="M320 350v-350h-29v350l-256 350h32l239 -329l239 329h32zM441 796h-26l-109 123l-110 -123h-26l116 147h39z" />
    <glyph glyph-name="ycircumflex" unicode="&#x177;" horiz-adv-x="517" 
d="M485 520l-288 -710h-30l84 206l-219 504h30l203 -468l189 468h31zM402 616h-26l-109 123l-110 -123h-26l116 147h39z" />
    <glyph glyph-name="Ydieresis" unicode="&#x178;" horiz-adv-x="612" 
d="M320 350v-350h-29v350l-256 350h32l239 -329l239 329h32zM218 896h-42v42h42v-42zM436 896h-42v42h42v-42z" />
    <glyph glyph-name="Zacute" unicode="&#x179;" horiz-adv-x="585" 
d="M88 28h462v-28h-515l459 673h-433v27h485zM307 802h-24l85 145h43z" />
    <glyph glyph-name="zacute" unicode="&#x17a;" horiz-adv-x="520" 
d="M96 28h382v-28h-443l378 493h-367v27h428zM274 622h-24l85 145h43z" />
    <glyph glyph-name="Zdotaccent" unicode="&#x17b;" horiz-adv-x="585" 
d="M88 28h462v-28h-515l459 673h-433v27h485zM307 899h-30v31h30v-31z" />
    <glyph glyph-name="zdotaccent" unicode="&#x17c;" horiz-adv-x="520" 
d="M96 28h382v-28h-443l378 493h-367v27h428zM274 719h-30v31h30v-31z" />
    <glyph glyph-name="Zcaron" unicode="&#x17d;" horiz-adv-x="585" 
d="M88 28h462v-28h-515l459 673h-433v27h485zM273 803l-116 147h26l110 -123l109 123h26l-116 -147h-39z" />
    <glyph glyph-name="zcaron" unicode="&#x17e;" horiz-adv-x="520" 
d="M96 28h382v-28h-443l378 493h-367v27h428zM239 623l-116 147h26l110 -123l109 123h26l-116 -147h-39z" />
    <glyph glyph-name="florin" unicode="&#x192;" horiz-adv-x="268" 
d="M179 657.5q-28 -24.5 -28 -89.5v-48h102v-27h-102v-535q0 -148 -131 -148v27q47 0 74.5 24.5t27.5 89.5v542h-77v27h77v41q0 148 131 148v-27q-46 0 -74 -24.5z" />
    <glyph glyph-name="uni01CD" unicode="&#x1cd;" horiz-adv-x="681" 
d="M514 255h-348l-111 -255h-30l308 700h15l308 -700h-30zM502 282l-162 369l-161 -369h323zM323 803l-116 147h26l110 -123l109 123h26l-116 -147h-39z" />
    <glyph glyph-name="uni01CE" unicode="&#x1ce;" 
d="M412 492q58 -34 92 -103v131h29v-520h-29v128q-34 -68 -92 -101.5t-123 -33.5q-59 0 -116.5 31t-95 91t-37.5 144q0 85 37.5 145.5t95 91t116.5 30.5q65 0 123 -34zM186.5 472.5q-50.5 -26.5 -84 -81t-33.5 -132.5t33.5 -131.5t84 -80t101.5 -26.5t101 26.5t83 80.5
t33 131q0 78 -33 132t-83 81t-101 27t-101.5 -26.5zM290 623l-116 147h26l110 -123l109 123h26l-116 -147h-39z" />
    <glyph glyph-name="uni01CF" unicode="&#x1cf;" horiz-adv-x="182" 
d="M105 0h-28v700h28v-700zM72 803l-116 147h26l110 -123l109 123h26l-116 -147h-39z" />
    <glyph glyph-name="uni01D0" unicode="&#x1d0;" horiz-adv-x="179" 
d="M104 0h-29v520h29v-520zM69 623l-116 147h26l110 -123l109 123h26l-116 -147h-39z" />
    <glyph glyph-name="uni01D1" unicode="&#x1d1;" horiz-adv-x="804" 
d="M571 661q80 -46 129 -127.5t49 -183.5t-49 -183.5t-129 -127.5t-169 -46q-87 0 -167 46t-130 127.5t-50 183.5t50 183.5t130 127.5t167 46q89 0 169 -46zM250 637.5q-74 -42.5 -120.5 -118t-46.5 -169.5t46.5 -169.5t120.5 -118t152 -42.5q82 0 155.5 42t118 117.5
t44.5 170.5t-44.5 170.5t-118 117.5t-155.5 42q-78 0 -152 -42.5zM382 803l-116 147h26l110 -123l109 123h26l-116 -147h-39z" />
    <glyph glyph-name="uni01D2" unicode="&#x1d2;" horiz-adv-x="573" 
d="M403 495.5q57 -30.5 93.5 -91t36.5 -144.5t-36.5 -144.5t-93.5 -91.5t-116 -31q-60 0 -117 31t-93.5 91.5t-36.5 144.5t36.5 144.5t93.5 91t117 30.5q59 0 116 -30.5zM185.5 472q-50.5 -27 -83.5 -81t-33 -131q0 -78 33 -132t83.5 -80.5t101.5 -26.5t101 26.5t83 80.5
t33 132q0 77 -33 131t-83 81t-101 27t-101.5 -27zM267 623l-116 147h26l110 -123l109 123h26l-116 -147h-39z" />
    <glyph glyph-name="uni01D3" unicode="&#x1d3;" horiz-adv-x="643" 
d="M578 267q0 -85 -31.5 -146.5t-89.5 -94.5t-136 -33t-136 33t-89 94.5t-31 146.5v433h29v-431q0 -118 59 -183.5t168 -65.5t168.5 65.5t59.5 183.5v431h29v-433zM302 803l-116 147h26l110 -123l109 123h26l-116 -147h-39z" />
    <glyph glyph-name="uni01D4" unicode="&#x1d4;" horiz-adv-x="536" 
d="M481 520v-520h-29v142q-6 -27 -31 -62t-68.5 -61t-101.5 -26q-83 0 -137 53t-54 163v311h29v-314q0 -95 43 -140t121 -45q73 0 126 52.5t73 129.5v317h29zM253 623l-116 147h26l110 -123l109 123h26l-116 -147h-39z" />
    <glyph glyph-name="uni01EA" unicode="&#x1ea;" horiz-adv-x="808" 
d="M711 187q-38 -74 -102 -122.5t-140 -64.5h2q-74 -32 -101.5 -61t-27.5 -68q0 -27 18 -42.5t45 -15.5q12 0 24 3l8 -14q-18 -8 -40 -8q-33 0 -56.5 19.5t-23.5 59.5q0 36 29.5 68t79.5 53q-8 -1 -24 -1q-87 0 -167 46t-130 127.5t-50 183.5t50 183.5t130 127.5t167 46
q89 0 169 -46t129 -127.5t49 -183.5q0 -89 -38 -163zM557.5 62q73.5 42 118 117.5t44.5 170.5t-44.5 170.5t-118 117.5t-155.5 42q-78 0 -152 -42.5t-120.5 -118t-46.5 -169.5t46.5 -169.5t120.5 -118t152 -42.5q82 0 155.5 42z" />
    <glyph glyph-name="uni01EB" unicode="&#x1eb;" horiz-adv-x="595" 
d="M506.5 134.5q-26.5 -54.5 -70 -88t-94.5 -46.5h11q-73 -32 -100.5 -61t-27.5 -68q0 -27 18 -42.5t45 -15.5q11 0 23 3l8 -14q-18 -8 -40 -8q-33 0 -56.5 19.5t-23.5 59.5q0 37 30 68.5t81 52.5q-8 -1 -23 -1q-60 0 -117 31t-93.5 91.5t-36.5 144.5t36.5 144.5t93.5 91
t117 30.5q59 0 116 -30.5t93.5 -91t36.5 -144.5q0 -71 -26.5 -125.5zM388 47.5q50 26.5 83 80.5t33 132q0 77 -33 131t-83 81t-101 27t-101.5 -27t-83.5 -81t-33 -131q0 -78 33 -132t83.5 -80.5t101.5 -26.5t101 26.5z" />
    <glyph glyph-name="Scommaaccent" unicode="&#x218;" horiz-adv-x="562" 
d="M429 665q61 -42 86 -105l-24 -11q-24 56 -77.5 94t-130.5 38q-81 0 -132 -40.5t-51 -106.5q0 -58 32.5 -87.5t96.5 -52.5l107 -37q57 -19 95.5 -39.5t64.5 -56t26 -89.5q0 -51 -31.5 -92t-85 -64t-115.5 -23q-57 0 -109 21.5t-89 58.5t-52 84l26 10q24 -67 83 -107.5
t141 -40.5q55 0 101.5 18.5t74.5 53.5t28 81q0 66 -42.5 99.5t-115.5 58.5l-111 39q-76 25 -114.5 63t-38.5 102q0 48 28 87.5t77 62.5t108 23q83 0 144 -42zM234 -60h41l-102 -155h-22z" />
    <glyph glyph-name="scommaaccent" unicode="&#x219;" horiz-adv-x="420" 
d="M290.5 479.5q-31.5 19.5 -81.5 19.5q-53 0 -86 -28t-33 -66q0 -36 22 -60.5t81 -44.5l41 -14q80 -28 118 -61.5t38 -91.5q0 -42 -25.5 -73.5t-66 -49t-83.5 -17.5q-62 0 -115.5 37t-69.5 96l30 5q12 -49 56.5 -80t99.5 -31q35 0 69 13.5t55.5 39t21.5 60.5q0 46 -32 74
t-94 50l-55 19q-68 23 -94 53.5t-26 74.5q0 32 20 60t54 45t75 17q55 0 95 -25.5t64 -69.5l-27 -8q-20 37 -51.5 56.5zM166 -60h41l-102 -155h-22z" />
    <glyph glyph-name="uni021A" unicode="&#x21a;" horiz-adv-x="565" 
d="M513 674h-217v-674h-27v674h-217v26h461v-26zM232 -61h41l-102 -155h-22z" />
    <glyph glyph-name="uni021B" unicode="&#x21b;" horiz-adv-x="276" 
d="M205.5 25q15.5 5 35.5 15v-28q-36 -18 -78 -18q-26 0 -43.5 14.5t-17.5 45.5v439h-74v27h74v90h29v-90h109v-27h-109v-427q0 -27 10 -36.5t31 -9.5q18 0 33.5 5zM128 -60h41l-102 -155h-22z" />
    <glyph glyph-name="uni0237" unicode="&#x237;" horiz-adv-x="219" 
d="M139 -69q0 -75 -26.5 -105.5t-74.5 -30.5q-22 0 -46.5 8t-36.5 18v25q16 -12 40.5 -20.5t47.5 -8.5q32 0 49.5 26t17.5 78v599h29v-589z" />
    <glyph glyph-name="circumflex" unicode="&#x2c6;" horiz-adv-x="271" 
d="M271 616h-26l-109 123l-110 -123h-26l116 147h39z" />
    <glyph glyph-name="caron" unicode="&#x2c7;" horiz-adv-x="271" 
d="M116 623l-116 147h26l110 -123l109 123h26l-116 -147h-39z" />
    <glyph glyph-name="breve" unicode="&#x2d8;" horiz-adv-x="268" 
d="M249.5 705q-17.5 -30 -48 -48.5t-67.5 -18.5q-39 0 -69.5 18.5t-47 48.5t-17.5 62h22q6 -43 35 -72t78 -29t77 29t34 72h22q-1 -32 -18.5 -62z" />
    <glyph glyph-name="dotaccent" unicode="&#x2d9;" horiz-adv-x="48" 
d="M39 719h-30v31h30v-31z" />
    <glyph glyph-name="ring" unicode="&#x2da;" horiz-adv-x="145" 
d="M123.5 750.5q21.5 -21.5 21.5 -50.5t-21.5 -50t-50.5 -21q-31 0 -52 21t-21 50q0 30 21.5 51t51.5 21q29 0 50.5 -21.5zM40.5 732.5q-13.5 -13.5 -13.5 -32.5t13.5 -32.5t32.5 -13.5t32 13.5t13 32.5t-13 32.5t-32 13.5t-32.5 -13.5z" />
    <glyph glyph-name="ogonek" unicode="&#x2db;" horiz-adv-x="154" 
d="M53.5 -61q-27.5 -29 -27.5 -68q0 -27 17.5 -42.5t44.5 -15.5q12 0 24 3l8 -14q-18 -8 -40 -8q-33 0 -56.5 19.5t-23.5 59.5q0 39 34.5 73t90.5 54h29q-73 -32 -100.5 -61z" />
    <glyph glyph-name="tilde" unicode="&#x2dc;" horiz-adv-x="317" 
d="M132 704q19 -10 41 -29q16 -14 28 -21t28 -7q33 0 48 16t15 37h25q0 -41 -25 -60t-58 -19q-27 0 -44 9t-39 28q-17 16 -31 24t-34 8q-33 0 -48 -19t-14 -39h-24q0 40 27 61t56 21q30 0 49 -10z" />
    <glyph glyph-name="hungarumlaut" unicode="&#x2dd;" horiz-adv-x="259" 
d="M155 622h-24l85 145h43zM24 622h-24l85 145h43z" />
    <glyph glyph-name="uni0326" unicode="&#x326;" horiz-adv-x="0" 
d="M-66 -60h41l-102 -155h-22z" />
    <glyph glyph-name="uni0394" unicode="&#x394;" horiz-adv-x="733" 
d="M683 0h-633l308 700h17zM96 28h541l-270 614z" />
    <glyph glyph-name="uni03A9" unicode="&#x3a9;" horiz-adv-x="767" 
d="M552 661.5q80 -45.5 129.5 -125.5t49.5 -179q0 -93 -46.5 -164.5t-131.5 -127.5v-37h153v-28h-184v74l48 36q62 46 97 108.5t35 138.5q0 91 -46 166t-120 117.5t-152 42.5q-79 0 -153 -42.5t-120.5 -117.5t-46.5 -166q0 -76 35.5 -138t97.5 -109l48 -36v-74h-183v28h152
v37q-84 56 -130.5 127.5t-46.5 164.5q0 99 49 179t129 125.5t169 45.5q88 0 168 -45.5z" />
    <glyph glyph-name="uni03BC" unicode="&#x3bc;" horiz-adv-x="554" 
d="M481 520v-520h-29v142q-6 -27 -31 -62t-68.5 -61t-101.5 -26q-52 0 -95 21.5t-67 65.5v-270h-29v710h29v-314q0 -95 43 -140t121 -45q73 0 126 52.5t73 129.5v317h29z" />
    <glyph glyph-name="pi" unicode="&#x3c0;" horiz-adv-x="622" 
d="M543.5 26.5q15.5 4.5 33.5 13.5v-28q-21 -11 -31.5 -14.5t-25.5 -3.5q-42 0 -62 22.5t-20 77.5v399h-259v-493h-29v493h-100v27h516v-27h-99v-416q0 -33 9.5 -44t32.5 -11q19 0 34.5 4.5z" />
    <glyph glyph-name="uni0401" unicode="&#x401;" horiz-adv-x="515" 
d="M470 27v-27h-415v700h405v-27h-375v-305h275v-28h-275v-313h385zM184 896h-42v42h42v-42zM402 896h-42v42h42v-42z" />
    <glyph glyph-name="uni0403" unicode="&#x403;" horiz-adv-x="534" 
d="M482 673h-381v-673h-29v700h410v-27zM282 802h-24l85 145h43z" />
    <glyph glyph-name="uni0404" unicode="&#x404;" horiz-adv-x="648" 
d="M499 40q52 20 90 59l20 -20q-45 -41 -102 -63.5t-118 -22.5q-88 0 -168.5 46t-130.5 127.5t-50 183.5t50 183.5t130.5 127.5t168.5 46q61 0 118 -22.5t102 -64.5l-19 -20q-38 39 -91 59.5t-110 20.5q-76 0 -149 -40.5t-120.5 -112.5t-50.5 -163h249v-27h-249
q3 -91 50.5 -163.5t120.5 -113t149 -40.5q58 0 110 20z" />
    <glyph glyph-name="uni0406" unicode="&#x406;" horiz-adv-x="182" 
d="M105 0h-28v700h28v-700z" />
    <glyph glyph-name="uni0407" unicode="&#x407;" horiz-adv-x="182" 
d="M105 0h-28v700h28v-700zM4 896h-42v42h42v-42zM222 896h-42v42h42v-42z" />
    <glyph glyph-name="uni0410" unicode="&#x410;" horiz-adv-x="681" 
d="M514 255h-348l-111 -255h-30l308 700h15l308 -700h-30zM502 282l-162 369l-161 -369h323z" />
    <glyph glyph-name="uni0411" unicode="&#x411;" horiz-adv-x="572" 
d="M413.5 395.5q52.5 -26.5 82.5 -74.5t30 -110t-30 -110t-82.5 -74.5t-118.5 -26.5h-223v700h421v-27h-392v-251h194q66 0 118.5 -26.5zM439 76.5q57 50.5 57 134.5t-57 134.5t-154 50.5h-184v-370h184q97 0 154 50.5z" />
    <glyph glyph-name="uni0412" unicode="&#x412;" horiz-adv-x="572" 
d="M488.5 314q38.5 -48 38.5 -115q0 -101 -62 -150t-187 -49h-206v700h209q108 0 159 -46t51 -122q0 -57 -29.5 -96.5t-89.5 -54.5q78 -19 116.5 -67zM281 396q96 0 138.5 32.5t42.5 104.5q0 140 -181 140h-180v-277h180zM443.5 67q54.5 40 54.5 131q0 79 -57 125t-166 46
h-174v-342h174q114 0 168.5 40z" />
    <glyph glyph-name="uni0413" unicode="&#x413;" horiz-adv-x="534" 
d="M482 673h-381v-673h-29v700h410v-27z" />
    <glyph glyph-name="uni0414" unicode="&#x414;" horiz-adv-x="744" 
d="M699 -69h-29v69h-586v-69h-29v97h33q25 42 36.5 109.5t14 158.5t2.5 264v140h494v-672h64v-97zM606 28v645h-436v-113q0 -173 -3 -264t-15 -158.5t-38 -109.5h492z" />
    <glyph glyph-name="uni0415" unicode="&#x415;" horiz-adv-x="515" 
d="M470 27v-27h-415v700h405v-27h-375v-305h275v-28h-275v-313h385z" />
    <glyph glyph-name="uni0416" unicode="&#x416;" horiz-adv-x="1139" 
d="M1007 0h-39l-294 306l-83 -97v-209h-43v210l-82 96l-294 -306h-39l316 327l-303 373h39l363 -439v439h43v-440l364 440h38l-303 -373z" />
    <glyph glyph-name="uni0417" unicode="&#x417;" horiz-adv-x="563" 
d="M380.5 683.5q47.5 -23.5 75.5 -62.5t28 -83q0 -52 -35 -94t-112 -62q84 -18 132.5 -66t48.5 -123q0 -58 -32.5 -104.5t-87.5 -72.5t-121 -26q-68 0 -122.5 28t-84.5 76.5t-30 106.5l31 1q0 -48 26 -90.5t73 -68t107 -25.5t108 22.5t75.5 62.5t27.5 90q0 82 -68 126.5
t-170 46.5v25q61 2 107 24t71 55t25 68q0 40 -22 72.5t-62 51t-92 18.5q-54 0 -96 -23t-65 -64t-23 -94l-31 1q0 62 28 109t77 72.5t110 25.5q56 0 103.5 -23.5z" />
    <glyph glyph-name="uni0418" unicode="&#x418;" horiz-adv-x="713" 
d="M142 700v-667l470 667h31v-700h-30v665l-469 -665h-31v700h29z" />
    <glyph glyph-name="uni0419" unicode="&#x419;" horiz-adv-x="713" 
d="M473.5 885q-17.5 -30 -47.5 -48.5t-68 -18.5q-39 0 -69 18.5t-46.5 48.5t-17.5 62h21q7 -44 35.5 -72.5t77.5 -28.5t77.5 29t34.5 72h22q-2 -32 -19.5 -62zM142 700v-667l470 667h31v-700h-30v665l-469 -665h-31v700h29z" />
    <glyph glyph-name="uni041A" unicode="&#x41a;" horiz-adv-x="558" 
d="M212 327l316 -327h-38l-295 306l-95 -111v-195h-30v700h30v-455l376 455h39z" />
    <glyph glyph-name="uni041B" unicode="&#x41b;" horiz-adv-x="718" 
d="M631 0h-29v673h-429v-620q0 -29 -19.5 -44t-41.5 -15q-42 0 -78 18v28q21 -10 35.5 -15t32.5 -5q23 0 32.5 8t9.5 37v635h487v-700z" />
    <glyph glyph-name="uni041C" unicode="&#x41c;" horiz-adv-x="849" 
d="M779 0h-30v639l-315 -639h-19l-316 640v-640h-29v700h29l325 -656l325 656h30v-700z" />
    <glyph glyph-name="uni041D" unicode="&#x41d;" horiz-adv-x="626" 
d="M556 700v-700h-29v326h-428v-326h-29v700h29v-347h428v347h29z" />
    <glyph glyph-name="uni041E" unicode="&#x41e;" horiz-adv-x="804" 
d="M571 661q80 -46 129 -127.5t49 -183.5t-49 -183.5t-129 -127.5t-169 -46q-87 0 -167 46t-130 127.5t-50 183.5t50 183.5t130 127.5t167 46q89 0 169 -46zM250 637.5q-74 -42.5 -120.5 -118t-46.5 -169.5t46.5 -169.5t120.5 -118t152 -42.5q82 0 155.5 42t118 117.5
t44.5 170.5t-44.5 170.5t-118 117.5t-155.5 42q-78 0 -152 -42.5z" />
    <glyph glyph-name="uni041F" unicode="&#x41f;" horiz-adv-x="641" 
d="M564 0h-29v673h-429v-673h-29v700h487v-700z" />
    <glyph glyph-name="uni0420" unicode="&#x420;" horiz-adv-x="574" 
d="M411.5 673.5q52.5 -26.5 82.5 -74.5t30 -110t-30 -110t-82.5 -74.5t-118.5 -26.5h-194v-278h-29v700h223q66 0 118.5 -26.5zM438 354.5q57 50.5 57 134.5t-57 134.5t-155 50.5h-184v-370h184q98 0 155 50.5z" />
    <glyph glyph-name="uni0421" unicode="&#x421;" horiz-adv-x="644" 
d="M507 684.5q57 -22.5 102 -64.5l-19 -20q-38 39 -91 59.5t-110 20.5q-78 0 -152 -42.5t-121 -118t-47 -169.5t47 -169.5t121 -118t152 -42.5q58 0 110 20t90 59l20 -20q-45 -41 -102 -63.5t-118 -22.5q-88 0 -168.5 46t-130.5 127.5t-50 183.5t50 183.5t130.5 127.5
t168.5 46q61 0 118 -22.5z" />
    <glyph glyph-name="uni0422" unicode="&#x422;" horiz-adv-x="565" 
d="M513 674h-217v-674h-27v674h-217v26h461v-26z" />
    <glyph glyph-name="uni0423" unicode="&#x423;" horiz-adv-x="616" 
d="M586 700l-387 -700h-28l128 233l-259 467h29l245 -441l243 441h29z" />
    <glyph glyph-name="uni0424" unicode="&#x424;" horiz-adv-x="863" 
d="M650.5 598.5q76.5 -36.5 117 -101t40.5 -147.5t-40.5 -147.5t-117 -101t-180.5 -36.5h-27v-65h-29v65h-24q-104 0 -180.5 36.5t-117 101t-40.5 147.5t40.5 147.5t117 101t180.5 36.5h24v65h29v-65h27q104 0 180.5 -36.5zM414 93v515h-24q-95 0 -164.5 -31t-107 -89
t-37.5 -138q0 -79 37.5 -137t107 -89t164.5 -31h24zM634.5 124q69.5 31 107 89t37.5 137q0 80 -37.5 138t-107 89t-164.5 31h-27v-515h27q95 0 164.5 31z" />
    <glyph glyph-name="uni0425" unicode="&#x425;" horiz-adv-x="651" 
d="M573 0l-247 342l-247 -342h-32l263 364l-243 336h31l228 -315l228 315h31l-243 -337l263 -363h-32z" />
    <glyph glyph-name="uni0426" unicode="&#x426;" horiz-adv-x="704" 
d="M644 -69h-28v69h-539v700h29v-672h429v672h29v-672h80v-97z" />
    <glyph glyph-name="uni0427" unicode="&#x427;" horiz-adv-x="594" 
d="M522 700v-700h-29v387q-8 -21 -34 -48.5t-70 -48t-102 -20.5q-53 0 -102 18t-81 59.5t-32 107.5v245h29v-245q0 -74 49 -116t132 -42q52 0 97 21.5t75 54.5t39 66v261h29z" />
    <glyph glyph-name="uni0428" unicode="&#x428;" horiz-adv-x="1099" 
d="M1022 700v-700h-945v700h29v-672h429v672h29v-672h429v672h29z" />
    <glyph glyph-name="uni0429" unicode="&#x429;" horiz-adv-x="1161" 
d="M1101 -69h-28v69h-996v700h29v-672h429v672h29v-672h429v672h29v-672h79v-97z" />
    <glyph glyph-name="uni042A" unicode="&#x42a;" horiz-adv-x="739" 
d="M542.5 395.5q52.5 -26.5 82.5 -74.5t30 -110t-30 -110t-82.5 -74.5t-118.5 -26.5h-223v673h-151v27h180v-278h194q66 0 118.5 -26.5zM569 76.5q57 50.5 57 134.5t-57 134.5t-155 50.5h-184v-370h184q98 0 155 50.5z" />
    <glyph glyph-name="uni042B" unicode="&#x42b;" horiz-adv-x="749" 
d="M77 0v700h29v-278h194q66 0 118.5 -26.5t82.5 -74.5t30 -110t-30 -110t-82.5 -74.5t-118.5 -26.5h-223zM106 396v-370h184q98 0 155 50.5t57 134.5t-57 134.5t-155 50.5h-184zM672 0h-28v700h28v-700z" />
    <glyph glyph-name="uni042C" unicode="&#x42c;" horiz-adv-x="595" 
d="M70 0v700h29v-278h194q66 0 118.5 -26.5t82.5 -74.5t30 -110t-30 -110t-82.5 -74.5t-118.5 -26.5h-223zM99 396v-370h184q98 0 155 50.5t57 134.5t-57 134.5t-155 50.5h-184z" />
    <glyph glyph-name="uni042D" unicode="&#x42d;" horiz-adv-x="648" 
d="M427.5 661q80.5 -46 130.5 -127.5t50 -183.5t-50 -183.5t-130.5 -127.5t-168.5 -46q-61 0 -117.5 22.5t-101.5 63.5l19 20q38 -39 90 -59t110 -20q76 0 149 40.5t120.5 113t51.5 163.5h-250v27h250q-4 90 -51.5 162.5t-120.5 113t-149 40.5q-57 0 -110 -20.5t-91 -59.5
l-19 20q45 42 102 64.5t118 22.5q88 0 168.5 -46z" />
    <glyph glyph-name="uni042E" unicode="&#x42e;" horiz-adv-x="1003" 
d="M767 661q80 -46 129 -127.5t49 -183.5t-49 -183.5t-129 -127.5t-169 -46q-85 0 -163.5 44t-129.5 123t-54 177h-146v-337h-28v700h28v-336h146q4 98 54.5 176.5t129 122.5t163.5 44q89 0 169 -46zM753.5 62q73.5 42 118 117.5t44.5 170.5t-44.5 170.5t-118 117.5
t-155.5 42q-78 0 -152 -42.5t-120.5 -118t-46.5 -169.5t46.5 -169.5t120.5 -118t152 -42.5q82 0 155.5 42z" />
    <glyph glyph-name="uni042F" unicode="&#x42f;" horiz-adv-x="585" 
d="M515 700v-700h-29v278h-186l-224 -278h-36l225 279q-90 8 -147 65.5t-57 144.5q0 62 30 110t82.5 74.5t118.5 26.5h223zM486 674h-184q-98 0 -155 -50.5t-57 -134.5t57 -134.5t155 -50.5h184v370z" />
    <glyph glyph-name="uni0430" unicode="&#x430;" 
d="M412 492q58 -34 92 -103v131h29v-520h-29v128q-34 -68 -92 -101.5t-123 -33.5q-59 0 -116.5 31t-95 91t-37.5 144q0 85 37.5 145.5t95 91t116.5 30.5q65 0 123 -34zM186.5 472.5q-50.5 -26.5 -84 -81t-33.5 -132.5t33.5 -131.5t84 -80t101.5 -26.5t101 26.5t83 80.5
t33 131q0 78 -33 132t-83 81t-101 27t-101.5 -26.5z" />
    <glyph glyph-name="uni0431" unicode="&#x431;" horiz-adv-x="571" 
d="M413.5 495.5q57.5 -30.5 95 -91t37.5 -145.5q0 -84 -37.5 -144t-95 -91t-116.5 -31q-66 0 -124 33.5t-91 101.5v-128h-29v380h-7v140q0 93 43.5 136.5t145.5 43.5h119q31 0 48 5.5t29 14.5h24q-12 -21 -24.5 -30.5t-33.5 -13t-60 -3.5h-102q-79 0 -119.5 -35t-40.5 -118
h7v-131q33 68 91.5 102.5t123.5 34.5q59 0 116.5 -30.5zM399.5 46.5q50.5 26.5 84 80.5t33.5 132t-33.5 132.5t-84 81t-101.5 26.5t-101 -27t-83 -81t-33 -132q0 -77 33 -131t83 -81t101 -27t101.5 26.5z" />
    <glyph glyph-name="uni0432" unicode="&#x432;" horiz-adv-x="542" 
d="M463.5 233.5q26.5 -37.5 26.5 -86.5q0 -70 -47 -108.5t-157 -38.5h-214v520h214q83 0 124.5 -34t41.5 -93q0 -37 -18.5 -68t-52.5 -40q56 -14 82.5 -51.5zM101 298h185q71 0 104.5 21.5t33.5 75.5q0 46 -34.5 71t-103.5 25h-185v-193zM422.5 60q40.5 31 40.5 87
q0 123 -177 123h-185v-241h185q96 0 136.5 31z" />
    <glyph glyph-name="uni0433" unicode="&#x433;" horiz-adv-x="509" 
d="M454 493h-348v-493h-29v520h377v-27z" />
    <glyph glyph-name="uni0434" unicode="&#x434;" horiz-adv-x="634" 
d="M572 28v-101h-29v73h-452v-73h-29v101h26q20 29 29 78t11 115t2 199v100h397v-492h45zM498 28v465h-339v-73q0 -133 -2 -199t-11.5 -115t-30.5 -78h383z" />
    <glyph glyph-name="uni0435" unicode="&#x435;" horiz-adv-x="572" 
d="M402 495.5q57 -30.5 93.5 -91t36.5 -144.5l-1 -14h-462q3 -73 36.5 -124t82 -76t98.5 -25t95.5 19.5t79.5 58.5l21 -18q-36 -43 -86.5 -65.5t-108.5 -22.5q-60 0 -117 31t-93.5 91.5t-36.5 144.5t37 144.5t93.5 91t115.5 30.5t116 -30.5zM188.5 474q-48.5 -25 -82 -75.5
t-37.5 -124.5h435q-4 74 -37.5 124.5t-82 75.5t-98.5 25q-49 0 -97.5 -25z" />
    <glyph glyph-name="uni0436" unicode="&#x436;" horiz-adv-x="890" 
d="M804 0l-273 273l-72 -72v-201h-29v201l-72 72l-272 -273h-39l292 291l-232 229h36l213 -212l74 -74v286h29v-286l74 73v1l214 212h35l-232 -229l293 -291h-39z" />
    <glyph glyph-name="uni0437" unicode="&#x437;" horiz-adv-x="490" 
d="M324 506q39 -19 62 -49.5t23 -63.5q0 -90 -111 -115q66 -10 105.5 -45.5t39.5 -89.5q0 -44 -28 -78.5t-74.5 -53t-100.5 -18.5t-99 22t-71 61t-26 87h29q0 -41 23 -73.5t61 -50.5t83 -18q44 0 84 14.5t65 42t25 64.5q0 57 -56.5 89t-138.5 31v26q78 2 120 29t42 78
q0 43 -41 72.5t-101 29.5q-38 0 -71.5 -16t-53.5 -43t-20 -58h-29q0 38 23.5 71.5t63.5 53.5t87 20q46 0 85 -19z" />
    <glyph glyph-name="uni0438" unicode="&#x438;" horiz-adv-x="569" 
d="M492 0h-29v444l-381 -444h-5v520h29v-444l381 444h5v-520z" />
    <glyph glyph-name="uni0439" unicode="&#x439;" horiz-adv-x="569" 
d="M492 0h-29v444l-381 -444h-5v520h29v-444l381 444h5v-520zM400.5 705q-17.5 -30 -48 -48.5t-67.5 -18.5q-39 0 -69.5 18.5t-47 48.5t-17.5 62h22q6 -43 35 -72t78 -29t77 29t34 72h22q-1 -32 -18.5 -62z" />
    <glyph glyph-name="uni043A" unicode="&#x43a;" horiz-adv-x="524" 
d="M450 0l-272 272l-72 -71v-201h-29v520h29v-286l73 74h1l213 212h36l-232 -229l292 -291h-39z" />
    <glyph glyph-name="uni043B" unicode="&#x43b;" horiz-adv-x="634" 
d="M557 0h-29v493h-355v-440q0 -29 -19.5 -44t-41.5 -15q-42 0 -78 18v28q21 -10 35.5 -15t32.5 -5q23 0 32.5 8t9.5 37v455h413v-520z" />
    <glyph glyph-name="uni043C" unicode="&#x43c;" horiz-adv-x="708" 
d="M620 0h-29v411l-235 -411h-4l-234 411v-411h-29v520h7l258 -468l258 468h8v-520z" />
    <glyph glyph-name="uni043D" unicode="&#x43d;" horiz-adv-x="581" 
d="M504 520v-520h-29v247h-369v-247h-29v520h29v-246h369v246h29z" />
    <glyph glyph-name="uni043E" unicode="&#x43e;" horiz-adv-x="573" 
d="M403 495.5q57 -30.5 93.5 -91t36.5 -144.5t-36.5 -144.5t-93.5 -91.5t-116 -31q-60 0 -117 31t-93.5 91.5t-36.5 144.5t36.5 144.5t93.5 91t117 30.5q59 0 116 -30.5zM185.5 472q-50.5 -27 -83.5 -81t-33 -131q0 -78 33 -132t83.5 -80.5t101.5 -26.5t101 26.5t83 80.5
t33 132q0 77 -33 131t-83 81t-101 27t-101.5 -27z" />
    <glyph glyph-name="uni043F" unicode="&#x43f;" horiz-adv-x="551" 
d="M474 0h-29v493h-339v-493h-29v520h397v-520z" />
    <glyph glyph-name="uni0440" unicode="&#x440;" 
d="M415.5 495.5q57.5 -30.5 95 -91t37.5 -145.5q0 -84 -37.5 -144t-95 -91t-116.5 -31q-65 0 -123 33.5t-92 101.5v-318h-29v710h29v-131q34 69 92 103t123 34q59 0 116.5 -30.5zM402.5 46.5q50.5 26.5 83.5 80.5t33 132t-33 132.5t-83.5 81t-101.5 26.5q-52 0 -102 -27
t-83 -81t-33 -132q0 -77 33 -131t83 -81t102 -27q51 0 101.5 26.5z" />
    <glyph glyph-name="uni0441" unicode="&#x441;" horiz-adv-x="532" 
d="M409.5 491.5q60.5 -34.5 93.5 -96.5l-30 -8q-31 54 -82.5 83t-103.5 29q-51 0 -101.5 -26.5t-83.5 -80.5t-33 -132t33 -132t83.5 -80.5t101.5 -26.5q53 0 105 29t83 84l27 -10q-32 -62 -92.5 -96.5t-122.5 -34.5q-60 0 -117 31t-93.5 91.5t-36.5 144.5t36.5 144.5
t93.5 91t117 30.5q62 0 122.5 -34.5z" />
    <glyph glyph-name="uni0442" unicode="&#x442;" horiz-adv-x="491" 
d="M436 493h-176v-493h-29v493h-176v27h381v-27z" />
    <glyph glyph-name="uni0443" unicode="&#x443;" horiz-adv-x="507" 
d="M463 520l-288 -710h-30l84 206l-219 504h30l203 -468l189 468h31z" />
    <glyph glyph-name="uni0444" unicode="&#x444;" horiz-adv-x="1029" 
d="M854.5 495.5q57.5 -30.5 95 -91t37.5 -145.5q0 -84 -37.5 -144t-95 -91t-116.5 -31q-61 0 -115.5 29t-89.5 88v-110h-10v-190h-29v303q-35 -59 -90 -89t-115 -30q-59 0 -116.5 30.5t-95 91t-37.5 145.5q0 84 37.5 144t95 91t116.5 31q61 0 115.5 -29t89.5 -88v110h10v190
h29v-303q35 59 90 89t115 30q59 0 116.5 -30.5zM370 38.5q42 17.5 75.5 53.5t48.5 88v161q-15 52 -48.5 88t-75.5 53.5t-83 17.5q-51 0 -101.5 -26.5t-83.5 -80.5t-33 -132t33 -132.5t83.5 -81t101.5 -26.5q41 0 83 17.5zM841.5 46.5q50.5 26.5 83.5 80.5t33 132t-33 132.5
t-83.5 81t-101.5 26.5q-41 0 -83 -17.5t-75.5 -53.5t-48.5 -88v-161q15 -52 48.5 -88t75.5 -53.5t83 -17.5q51 0 101.5 26.5z" />
    <glyph glyph-name="uni0445" unicode="&#x445;" horiz-adv-x="481" 
d="M241 241l-177 -241h-34l196 263l-193 257h35l173 -233l172 233h36l-194 -257l196 -263h-33z" />
    <glyph glyph-name="uni0446" unicode="&#x446;" horiz-adv-x="597" 
d="M537 -69h-28v69h-432v520h29v-492h339v492h29v-492h63v-97z" />
    <glyph glyph-name="uni0447" unicode="&#x447;" horiz-adv-x="532" 
d="M467 520v-520h-29v301q-6 -20 -31.5 -46.5t-66 -46t-89.5 -19.5q-79 0 -129 35.5t-50 131.5v164h29v-165q0 -74 38.5 -107t112.5 -33q42 0 82 22.5t68 54.5t36 58v170h29z" />
    <glyph glyph-name="uni0448" unicode="&#x448;" horiz-adv-x="771" 
d="M694 0h-617v520h29v-492h265v492h29v-492h265v492h29v-520z" />
    <glyph glyph-name="uni0449" unicode="&#x449;" horiz-adv-x="818" 
d="M758 28v-97h-28v69h-653v520h29v-492h265v492h29v-492h265v492h29v-492h64z" />
    <glyph glyph-name="uni044A" unicode="&#x44a;" horiz-adv-x="648" 
d="M521.5 264.5q51.5 -41.5 51.5 -115.5q0 -72 -51 -110.5t-156 -38.5h-210v493h-96v27h125v-214h181q104 0 155.5 -41.5zM504.5 59q39.5 31 39.5 90q0 130 -176 130h-183v-251h183q97 0 136.5 31z" />
    <glyph glyph-name="uni044B" unicode="&#x44b;" horiz-adv-x="685" 
d="M437.5 264.5q51.5 -41.5 51.5 -115.5q0 -72 -51 -110.5t-156 -38.5h-210v520h29v-214h181q104 0 155.5 -41.5zM609 520v-520h-29v520h29zM420.5 59q39.5 31 39.5 90q0 130 -176 130h-183v-251h183q97 0 136.5 31z" />
    <glyph glyph-name="uni044C" unicode="&#x44c;" horiz-adv-x="541" 
d="M437.5 264.5q51.5 -41.5 51.5 -115.5q0 -72 -51 -110.5t-156 -38.5h-210v520h29v-214h181q104 0 155.5 -41.5zM420.5 59q39.5 31 39.5 90q0 130 -176 130h-183v-251h183q97 0 136.5 31z" />
    <glyph glyph-name="uni044D" unicode="&#x44d;" horiz-adv-x="528" 
d="M360 495q57 -31 94 -91t37 -144t-37 -144.5t-94 -91.5t-116 -31q-62 0 -122.5 34.5t-92.5 96.5l27 10q31 -55 83.5 -84.5t104.5 -29.5q51 0 101.5 26.5t83.5 81t33 132.5t-33 132t-83.5 80.5t-101.5 26.5q-52 0 -104 -29t-83 -83l-29 8q33 62 93.5 96.5t122.5 34.5
q59 0 116 -31zM456 248h-183v25h183v-25z" />
    <glyph glyph-name="uni044E" unicode="&#x44e;" horiz-adv-x="749" 
d="M592 495.5q57 -30.5 93.5 -91t36.5 -144.5t-36.5 -144.5t-93.5 -91.5t-116 -31q-58 0 -114 29.5t-93 87t-40 138.5h-123v-248h-29v520h29v-247h123q3 80 40.5 137.5t93 86.5t113.5 29q59 0 116 -30.5zM577 47q50 27 83 81t33 132q0 77 -33 131t-83 81t-101 27
q-49 0 -98.5 -25.5t-83 -76.5t-36.5 -124h6v-25h-6q3 -74 36.5 -125.5t82.5 -77t99 -25.5q51 0 101 27z" />
    <glyph glyph-name="uni044F" unicode="&#x44f;" horiz-adv-x="550" 
d="M480 0h-29v230h-150l-215 -230h-39l221 230h-1q-99 0 -145 39.5t-46 108.5q0 66 46.5 104t144.5 38h213v-520zM451 493h-187q-90 0 -124.5 -31.5t-34.5 -83.5q0 -121 159 -121h187v236z" />
    <glyph glyph-name="uni0451" unicode="&#x451;" horiz-adv-x="572" 
d="M402 495.5q57 -30.5 93.5 -91t36.5 -144.5l-1 -14h-462q3 -73 36.5 -124t82 -76t98.5 -25t95.5 19.5t79.5 58.5l21 -18q-36 -43 -86.5 -65.5t-108.5 -22.5q-60 0 -117 31t-93.5 91.5t-36.5 144.5t37 144.5t93.5 91t115.5 30.5t116 -30.5zM188.5 474q-48.5 -25 -82 -75.5
t-37.5 -124.5h435q-4 74 -37.5 124.5t-82 75.5t-98.5 25q-49 0 -97.5 -25zM210 716h-42v42h42v-42zM428 716h-42v42h42v-42z" />
    <glyph glyph-name="uni0453" unicode="&#x453;" horiz-adv-x="509" 
d="M454 493h-348v-493h-29v520h377v-27zM269 622h-24l85 145h43z" />
    <glyph glyph-name="uni0454" unicode="&#x454;" horiz-adv-x="521" 
d="M409.5 491.5q60.5 -34.5 93.5 -96.5l-30 -8q-31 54 -82.5 83t-103.5 29q-51 0 -101.5 -26.5t-83.5 -80.5t-33 -132t33 -132t83.5 -80.5t101.5 -26.5q53 0 105 29t83 84l27 -10q-32 -62 -92.5 -96.5t-122.5 -34.5q-60 0 -117 31t-93.5 91.5t-36.5 144.5t36.5 144.5
t93.5 91t117 30.5q62 0 122.5 -34.5zM257 273v-25h-182v25h182z" />
    <glyph glyph-name="uni0457" unicode="&#x457;" horiz-adv-x="179" 
d="M104 0h-29v520h29v-520zM1 716h-42v42h42v-42zM219 716h-42v42h42v-42z" />
    <glyph glyph-name="uni0490" unicode="&#x490;" horiz-adv-x="534" 
d="M482 673h-381v-673h-29v700h388v47h22v-74z" />
    <glyph glyph-name="uni0491" unicode="&#x491;" horiz-adv-x="511" 
d="M456 566v-91h-23v18h-327v-493h-29v520h356v46h23z" />
    <glyph glyph-name="Wgrave" unicode="&#x1e80;" horiz-adv-x="1012" 
d="M746 0h-4l-235 629l-237 -629h-4l-226 700h30l200 -618l234 618h4l234 -618l201 618h29zM436 947l85 -145h-24l-104 145h43z" />
    <glyph glyph-name="wgrave" unicode="&#x1e81;" horiz-adv-x="860" 
d="M630 0h-6l-195 465l-193 -465h-6l-191 520h29l165 -457l194 457h5l195 -457l165 457h29zM359 767l85 -145h-24l-104 145h43z" />
    <glyph glyph-name="Wacute" unicode="&#x1e82;" horiz-adv-x="1012" 
d="M746 0h-4l-235 629l-237 -629h-4l-226 700h30l200 -618l234 618h4l234 -618l201 618h29zM522 802h-24l85 145h43z" />
    <glyph glyph-name="wacute" unicode="&#x1e83;" horiz-adv-x="860" 
d="M630 0h-6l-195 465l-193 -465h-6l-191 520h29l165 -457l194 457h5l195 -457l165 457h29zM445 622h-24l85 145h43z" />
    <glyph glyph-name="Wdieresis" unicode="&#x1e84;" horiz-adv-x="1012" 
d="M746 0h-4l-235 629l-237 -629h-4l-226 700h30l200 -618l234 618h4l234 -618l201 618h29zM419 896h-42v42h42v-42zM637 896h-42v42h42v-42z" />
    <glyph glyph-name="wdieresis" unicode="&#x1e85;" horiz-adv-x="860" 
d="M630 0h-6l-195 465l-193 -465h-6l-191 520h29l165 -457l194 457h5l195 -457l165 457h29zM343 716h-42v42h42v-42zM561 716h-42v42h42v-42z" />
    <glyph glyph-name="Ygrave" unicode="&#x1ef2;" horiz-adv-x="612" 
d="M320 350v-350h-29v350l-256 350h32l239 -329l239 329h32zM235 947l85 -145h-24l-104 145h43z" />
    <glyph glyph-name="ygrave" unicode="&#x1ef3;" horiz-adv-x="517" 
d="M485 520l-288 -710h-30l84 206l-219 504h30l203 -468l189 468h31zM196 767l85 -145h-24l-104 145h43z" />
    <glyph glyph-name="endash" unicode="&#x2013;" horiz-adv-x="600" 
d="M555 273h-510v22h510v-22z" />
    <glyph glyph-name="emdash" unicode="&#x2014;" horiz-adv-x="660" 
d="M615 273h-570v22h570v-22z" />
    <glyph glyph-name="quoteleft" unicode="&#x2018;" horiz-adv-x="204" 
d="M76 545h-41l102 155h22z" />
    <glyph glyph-name="quoteright" unicode="&#x2019;" horiz-adv-x="182" 
d="M111 700h41l-102 -155h-22z" />
    <glyph glyph-name="quotesinglbase" unicode="&#x201a;" horiz-adv-x="207" 
d="M95 20h42l-102 -155h-22z" />
    <glyph glyph-name="quotedblleft" unicode="&#x201c;" horiz-adv-x="308" 
d="M180 545h-41l102 155h22zM76 545h-41l102 155h22z" />
    <glyph glyph-name="quotedblright" unicode="&#x201d;" horiz-adv-x="280" 
d="M214 700h41l-102 -155h-22zM111 700h41l-102 -155h-22z" />
    <glyph glyph-name="quotedblbase" unicode="&#x201e;" horiz-adv-x="292" 
d="M181 20h42l-102 -155h-22zM95 20h42l-102 -155h-22z" />
    <glyph glyph-name="dagger" unicode="&#x2020;" horiz-adv-x="268" 
d="M223 538h-73l-3 -226h-24l-4 226h-74v27h73l-2 135h37l-2 -135h72v-27z" />
    <glyph glyph-name="daggerdbl" unicode="&#x2021;" horiz-adv-x="258" 
d="M119 538h-79v27h78l-7 135h37l-7 -135h77v-27h-78l-9 -164h-3zM150 129l-14 -176h-12l-15 176h-109l15 53h90l-14 178h77l-14 -178h89l15 -53h-108z" />
    <glyph glyph-name="bullet" unicode="&#x2022;" horiz-adv-x="186" 
d="M141 229h-96v96h96v-96z" />
    <glyph glyph-name="ellipsis" unicode="&#x2026;" horiz-adv-x="626" 
d="M337 0h-41v43h41v-43zM584 0h-41v43h41v-43zM90 0h-41v43h41v-43z" />
    <glyph glyph-name="perthousand" unicode="&#x2030;" horiz-adv-x="1023" 
d="M246.5 669q36.5 -36 36.5 -87t-36.5 -87t-87.5 -36t-87.5 36t-36.5 87t36.5 87t87.5 36t87.5 -36zM589 685l-459 -685l-21 16l460 685zM90.5 650q-28.5 -27 -28.5 -68t28.5 -68t68.5 -27t68.5 27t28.5 68t-28.5 68t-68.5 27t-68.5 -27zM626.5 205q36.5 -36 36.5 -87
t-36.5 -87t-87.5 -36t-87.5 36t-36.5 87t36.5 87t87.5 36t87.5 -36zM951.5 205q36.5 -36 36.5 -87t-36.5 -87t-87.5 -36t-87.5 36t-36.5 87t36.5 87t87.5 36t87.5 -36zM470.5 186q-28.5 -27 -28.5 -68t28.5 -68t68.5 -27t68.5 27t28.5 68t-28.5 68t-68.5 27t-68.5 -27z
M795.5 186q-28.5 -27 -28.5 -68t28.5 -68t68.5 -27t68.5 27t28.5 68t-28.5 68t-68.5 27t-68.5 -27z" />
    <glyph glyph-name="guilsinglleft" unicode="&#x2039;" horiz-adv-x="215" 
d="M176 444v-26l-123 -109l123 -109v-27l-147 116v40z" />
    <glyph glyph-name="guilsinglright" unicode="&#x203a;" horiz-adv-x="219" 
d="M186 275l-147 -116v26l123 110l-123 109v26l147 -116v-39z" />
    <glyph glyph-name="fraction" unicode="&#x2044;" horiz-adv-x="108" 
d="M-142 0h-48l436 700h42z" />
    <glyph glyph-name="Euro" unicode="&#x20ac;" horiz-adv-x="693" 
d="M544 40q52 20 90 59l20 -20q-45 -41 -102 -63.5t-118 -22.5q-78 0 -151.5 37t-125 103.5t-66.5 151.5h-56v25h52q-2 26 -2 40q0 18 1 27h-51v25h54q12 88 63.5 158t126.5 108.5t155 38.5q61 0 118 -22.5t102 -64.5l-19 -20q-38 39 -91 59.5t-110 20.5q-71 0 -139 -35
t-116 -98.5t-61 -144.5h185v-25h-188q-1 -9 -1 -27q0 -14 2 -40h187v-25h-183q15 -77 63.5 -137.5t115.5 -94t135 -33.5q58 0 110 20z" />
    <glyph glyph-name="uni20B4" unicode="&#x20b4;" horiz-adv-x="591" 
d="M538 157q-15 -47 -52 -84t-89 -58.5t-109 -21.5q-62 0 -115.5 23t-85 64t-31.5 92q0 69 46 113h-48v25h80q40 25 108 47l58 20h-246v25h315q53 20 81 49.5t28 82.5q0 66 -51 106.5t-132 40.5q-77 0 -130.5 -38t-77.5 -94l-24 11q26 63 87 105t144 42q59 0 107.5 -23
t76.5 -62.5t28 -87.5q0 -46 -20 -77.5t-58 -54.5h110v-25h-163l-22 -8l-111 -39q-39 -14 -53 -20h349v-25h-393q-61 -41 -61 -113q0 -46 28 -81t74.5 -53.5t101.5 -18.5q82 0 141 40.5t84 107.5z" />
    <glyph glyph-name="trademark" unicode="&#x2122;" horiz-adv-x="539" 
d="M236 674h-71v-154h-29v154h-71v26h171v-26zM474 520h-29v105l-71 -105h-4l-70 105v-105h-29v180h7l94 -134l94 134h8v-180z" />
    <glyph glyph-name="oneeighth" unicode="&#x215b;" horiz-adv-x="556" 
d="M100 440h-37v221l-17 -11l-18 31l35 20h37v-261zM73 0h-48l436 700h42zM496.5 243q21.5 -20 21.5 -47q0 -34 -30 -53q43 -21 43 -66q0 -34 -27 -56.5t-65 -22.5q-37 0 -64 22.5t-27 56.5q0 22 11.5 39t31.5 27q-15 10 -22.5 24t-7.5 29q0 26 21.5 46.5t56.5 20.5
q36 0 57.5 -20zM408.5 221.5q-10.5 -10.5 -10.5 -25.5t12.5 -27t28.5 -12q18 0 29.5 12t11.5 27t-9.5 25.5t-31.5 10.5q-20 0 -30.5 -10.5zM401 112q-16 -14 -16 -35q0 -20 16 -34t38 -14q24 0 39 13t15 35t-15 35.5t-39 13.5q-22 0 -38 -14z" />
    <glyph glyph-name="threeeighths" unicode="&#x215c;" horiz-adv-x="574" 
d="M172 682.5q24 -20.5 24 -47.5q0 -32 -30 -53q19 -8 30.5 -25t11.5 -41q0 -34 -27.5 -57t-64.5 -23q-40 0 -66 27t-25 64h38q2 -25 15.5 -42t37.5 -17q22 0 38 13.5t16 34.5q0 27 -18.5 37t-55.5 12v28q32 0 47.5 11.5t15.5 30.5q0 16 -12.5 26.5t-30.5 10.5
q-21 0 -33.5 -13.5t-13.5 -40.5h-37q0 38 23.5 61.5t60.5 23.5q32 0 56 -20.5zM93 0h-48l436 700h42zM514.5 243q21.5 -20 21.5 -47q0 -34 -30 -53q43 -21 43 -66q0 -34 -27 -56.5t-65 -22.5q-37 0 -64 22.5t-27 56.5q0 22 11.5 39t31.5 27q-15 10 -22.5 24t-7.5 29
q0 26 21.5 46.5t56.5 20.5q36 0 57.5 -20zM426.5 221.5q-10.5 -10.5 -10.5 -25.5t12.5 -27t28.5 -12q18 0 29.5 12t11.5 27t-9.5 25.5t-31.5 10.5q-20 0 -30.5 -10.5zM419 112q-16 -14 -16 -35q0 -20 16 -34t38 -14q24 0 39 13t15 35t-15 35.5t-39 13.5q-22 0 -38 -14z" />
    <glyph glyph-name="fiveeighths" unicode="&#x215d;" horiz-adv-x="576" 
d="M186 669h-104l-8 -58q22 10 45 10q35 0 63 -26.5t28 -65.5t-28 -66t-67 -27q-33 0 -58.5 18.5t-31.5 43.5l33 19q2 -20 17.5 -34.5t39.5 -14.5q23 0 40 17.5t17 43.5q0 25 -16.5 42.5t-36.5 17.5q-35 0 -57 -29l-32 8l18 133h138v-32zM93 0h-48l436 700h42zM516.5 243
q21.5 -20 21.5 -47q0 -34 -30 -53q43 -21 43 -66q0 -34 -27 -56.5t-65 -22.5q-37 0 -64 22.5t-27 56.5q0 22 11.5 39t31.5 27q-15 10 -22.5 24t-7.5 29q0 26 21.5 46.5t56.5 20.5q36 0 57.5 -20zM428.5 221.5q-10.5 -10.5 -10.5 -25.5t12.5 -27t28.5 -12q18 0 29.5 12
t11.5 27t-9.5 25.5t-31.5 10.5q-20 0 -30.5 -10.5zM421 112q-16 -14 -16 -35q0 -20 16 -34t38 -14q24 0 39 13t15 35t-15 35.5t-39 13.5q-22 0 -38 -14z" />
    <glyph glyph-name="seveneighths" unicode="&#x215e;" horiz-adv-x="556" 
d="M98 440h-39l89 229h-121v32h173zM73 0h-48l436 700h42zM496.5 243q21.5 -20 21.5 -47q0 -34 -30 -53q43 -21 43 -66q0 -34 -27 -56.5t-65 -22.5q-37 0 -64 22.5t-27 56.5q0 22 11.5 39t31.5 27q-15 10 -22.5 24t-7.5 29q0 26 21.5 46.5t56.5 20.5q36 0 57.5 -20z
M408.5 221.5q-10.5 -10.5 -10.5 -25.5t12.5 -27t28.5 -12q18 0 29.5 12t11.5 27t-9.5 25.5t-31.5 10.5q-20 0 -30.5 -10.5zM401 112q-16 -14 -16 -35q0 -20 16 -34t38 -14q24 0 39 13t15 35t-15 35.5t-39 13.5q-22 0 -38 -14z" />
    <glyph glyph-name="partialdiff" unicode="&#x2202;" horiz-adv-x="521" 
d="M191 700l170 -221q37 -48 59.5 -82t42 -83.5t19.5 -104.5q0 -62 -30.5 -112t-82 -78.5t-112.5 -28.5t-112 28.5t-81.5 78.5t-30.5 112t31 111t83 76.5t112 27.5q30 0 68.5 -9.5t76.5 -37.5l-249 323h36zM164.5 374.5q-44.5 -21.5 -72.5 -63.5t-28 -102q0 -56 27.5 -100
t72 -68t93.5 -24t93.5 24t72.5 68t28 100q0 91 -53 139t-141 48q-48 0 -92.5 -21.5z" />
    <glyph glyph-name="product" unicode="&#x220f;" horiz-adv-x="627" 
d="M582 800v-990h-24v958h-489v-958h-24v990h537z" />
    <glyph glyph-name="summation" unicode="&#x2211;" horiz-adv-x="638" 
d="M593 766h-493l259 -461l-259 -461h493v-34h-548l275 495l-275 495h548v-34z" />
    <glyph glyph-name="minus" unicode="&#x2212;" horiz-adv-x="425" 
d="M380 273h-335v22h335v-22z" />
    <glyph glyph-name="radical" unicode="&#x221a;" horiz-adv-x="614" 
d="M327 -190h-25l-155 483h-102v25h123l146 -459l228 941h27z" />
    <glyph glyph-name="infinity" unicode="&#x221e;" horiz-adv-x="794" 
d="M666 401.5q36 -21.5 57 -58.5t21 -81q0 -45 -21 -82.5t-57 -59.5t-79 -22q-54 0 -99.5 35.5t-90.5 100.5q-45 -66 -90 -101t-99 -35q-43 0 -79.5 22t-57.5 59.5t-21 82.5q0 44 21 81t57.5 58.5t79.5 21.5q54 0 98.5 -34.5t90.5 -99.5q46 64 91 99t99 35q43 0 79 -21.5z
M298.5 168.5q44.5 38.5 79.5 93.5q-35 53 -79.5 90.5t-88.5 37.5q-55 0 -93 -37t-38 -91q0 -55 38 -93.5t93 -38.5q44 0 88.5 38.5zM677 168.5q38 38.5 38 93.5q0 54 -38 91t-93 37q-44 0 -88 -37.5t-79 -90.5q35 -55 79 -93.5t88 -38.5q55 0 93 38.5z" />
    <glyph glyph-name="integral" unicode="&#x222b;" horiz-adv-x="268" 
d="M253 773q-46 0 -74 -24.5t-28 -89.5v-701q0 -148 -131 -148v27q47 0 74.5 24.5t27.5 89.5v701q0 148 131 148v-27z" />
    <glyph glyph-name="approxequal" unicode="&#x2248;" horiz-adv-x="448" 
d="M193 232.5q21 -9.5 46 -28.5q20 -14 33.5 -21t32.5 -7q39 0 56 16t17 37h25q0 -41 -26.5 -60.5t-66.5 -19.5q-31 0 -50.5 9.5t-42.5 27.5q-20 16 -36 24t-39 8q-40 0 -56.5 -18.5t-15.5 -39.5h-24q0 41 28.5 61.5t64.5 20.5q33 0 54 -9.5zM193 392.5q21 -9.5 46 -28.5
q20 -14 33.5 -21t32.5 -7q39 0 56 16t17 37h25q0 -41 -26.5 -60.5t-66.5 -19.5q-31 0 -50.5 9.5t-42.5 27.5q-20 16 -36 24t-39 8q-40 0 -56.5 -18.5t-15.5 -39.5h-24q0 41 28.5 61.5t64.5 20.5q33 0 54 -9.5z" />
    <glyph glyph-name="notequal" unicode="&#x2260;" horiz-adv-x="425" 
d="M253 353l-53 -138h180v-22h-189l-75 -193h-25l75 193h-121v22h129l54 138h-183v22h191l73 186h25l-72 -186h118v-22h-127z" />
    <glyph glyph-name="lessequal" unicode="&#x2264;" horiz-adv-x="438" 
d="M390 565l-313 -190l313 -189v-29l-344 210v16l344 210v-28zM389 0h-335v22h335v-22z" />
    <glyph glyph-name="greaterequal" unicode="&#x2265;" horiz-adv-x="434" 
d="M389 383v-16l-343 -210v29l313 189l-313 190v28zM381 22v-23h-335v23h335z" />
    <glyph glyph-name="lozenge" unicode="&#x25ca;" horiz-adv-x="431" 
d="M231 1v-1h-31v1l-155 349l155 349v1h31v-1l155 -349zM215 36l140 314l-140 314l-139 -314z" />
    <glyph glyph-name="i.loclTRK" horiz-adv-x="179" 
d="M104 0h-29v520h29v-520zM104 719h-30v31h30v-31z" />
    <glyph glyph-name="f_t" horiz-adv-x="623" 
d="M542 25q14 5 34 15v-28q-36 -18 -75 -18q-25 0 -44.5 15t-19.5 44v440h-341v-493h-29v493h-47v27h47v36q0 153 141 153q26 0 50.5 -7.5t42.5 -19.5l-15 -24q-34 24 -81 24q-51 0 -80 -26.5t-29 -98.5v-37h341v90h29v-90h109v-27h-109v-428q0 -29 10 -37t36 -8q16 0 30 5z
" />
    <glyph glyph-name="t_t" horiz-adv-x="583" 
d="M514 25q14 5 34 15v-28q-36 -18 -75 -18q-25 0 -44.5 15t-19.5 44v440h-278v-427q0 -27 10 -36.5t31 -9.5q18 0 33.5 5t35.5 15v-28q-36 -18 -78 -18q-26 0 -43.5 14.5t-17.5 45.5v439h-74v27h74v90h29v-90h278v90h29v-90h109v-27h-109v-428q0 -29 10 -37t36 -8
q16 0 30 5z" />
    <glyph glyph-name="zero.tf" horiz-adv-x="700" 
d="M486 665q60 -42 93.5 -120t33.5 -182v-26q0 -104 -33.5 -182t-93.5 -120t-138 -42t-138 42t-93.5 120t-33.5 182v26q0 104 33.5 182t93.5 120t138 42t138 -42zM228.5 643.5q-53.5 -36.5 -85 -108t-31.5 -172.5v-26q0 -101 31.5 -172.5t85 -107.5t119.5 -36t119.5 36
t85 107.5t31.5 172.5v26q0 101 -31.5 172.5t-85 108t-119.5 36.5t-119.5 -36.5z" />
    <glyph glyph-name="one.tf" horiz-adv-x="700" 
d="M372 0h-29v673h-83v27h112v-700z" />
    <glyph glyph-name="two.tf" horiz-adv-x="700" 
d="M445.5 681.5q47.5 -25.5 76 -70.5t28.5 -100q0 -38 -18 -76.5t-47.5 -76t-85.5 -100.5q-10 -12 -20.5 -24t-20.5 -24l-161 -183h353v-27h-398v13l188 216l40 45q55 62 82 96.5t43 69t16 71.5q0 48 -23 86.5t-63.5 60.5t-90.5 22q-48 0 -89 -22.5t-65 -64.5t-24 -96v-15
h-28v15q0 62 28 109.5t75.5 74t102.5 26.5q54 0 101.5 -25.5z" />
    <glyph glyph-name="three.tf" horiz-adv-x="700" 
d="M352 405q59 4 110.5 -18.5t83 -69t31.5 -112.5q0 -64 -31 -113t-83.5 -75.5t-115.5 -26.5q-64 0 -115 28t-80 75.5t-29 104.5l29 2q0 -48 25 -90t70 -67t100 -25q57 0 102.5 22.5t72 65t26.5 99.5q0 86 -55.5 129.5t-143.5 43.5q-16 0 -48 -2l200 297h-358v27h412z" />
    <glyph glyph-name="four.tf" horiz-adv-x="700" 
d="M465 251h75v-28h-75v-223h-29v223h-344v16l360 461h13v-449zM132 251h304v385z" />
    <glyph glyph-name="five.tf" horiz-adv-x="700" 
d="M508 673h-307l-38 -279q36 40 85 58.5t102 18.5q58 0 110.5 -30.5t84.5 -85.5t32 -124t-32.5 -124t-88 -86t-121.5 -31q-50 0 -95.5 19.5t-78.5 52.5t-48 71l26 17q17 -56 73 -94t123 -38q60 0 108.5 28t76.5 76.5t28 108.5q0 58 -26.5 107t-72 77.5t-99.5 28.5
q-55 0 -106 -25t-85 -69l-28 6l44 344h333v-27z" />
    <glyph glyph-name="six.tf" horiz-adv-x="700" 
d="M202 377q38 28 76.5 37.5t69.5 9.5q60 0 111.5 -27.5t82.5 -76.5t31 -111t-30.5 -112t-81.5 -78.5t-112 -28.5t-112.5 28.5t-81.5 78.5t-30 112q0 55 19 105t43 85.5t59 79.5l170 221h35zM209 348q-53 -48 -53 -139q0 -56 27.5 -100t72.5 -68t94 -24q48 0 92.5 24
t72.5 68t28 100q0 60 -28 102t-72.5 63.5t-92.5 21.5q-88 0 -141 -48z" />
    <glyph glyph-name="seven.tf" horiz-adv-x="700" 
d="M267 0h-29l261 673h-371v27h409z" />
    <glyph glyph-name="eight.tf" horiz-adv-x="700" 
d="M526.5 312q36.5 -50 36.5 -117q0 -59 -29 -105t-78.5 -71.5t-108.5 -25.5q-58 0 -107.5 25.5t-78.5 71.5t-29 105q0 67 36.5 117t98.5 75q-49 21 -74.5 62.5t-25.5 87.5t22 84.5t63 62t95 23.5t95.5 -23.5t63.5 -62.5t22 -84q0 -46 -26 -87t-74 -63q62 -25 98.5 -75z
M216 468.5q20 -32.5 55 -51.5t76 -19q42 0 76.5 19t54.5 51.5t20 70.5q0 36 -18 68t-52 52.5t-81 20.5t-81 -20.5t-52 -52.5t-18 -68q0 -38 20 -70.5zM441 40.5q43 21.5 69 61.5t26 93q0 50 -24.5 90.5t-68 63t-96.5 22.5t-96 -22.5t-67.5 -63t-24.5 -90.5q0 -52 25.5 -92
t69 -62t93.5 -22q51 0 94 21.5z" />
    <glyph glyph-name="nine.tf" horiz-adv-x="700" 
d="M500 322q-38 -28 -76.5 -37.5t-69.5 -9.5q-59 0 -111 27.5t-83 76.5t-31 111t30.5 112t81.5 78.5t112 28.5t112.5 -28.5t81.5 -78.5t30 -112q0 -55 -19 -105t-43 -85.5t-59 -79.5l-170 -221h-35zM493 351q53 48 53 139q0 56 -27.5 100t-72 68t-93.5 24t-93.5 -24
t-72.5 -68t-28 -100q0 -60 28.5 -102t73 -63.5t92.5 -21.5q87 0 140 48z" />
    <glyph glyph-name="zero.dnom" horiz-adv-x="260" 
d="M206 228q29 -35 29 -91v-13q0 -56 -29 -91t-76 -35q-45 0 -75 35t-30 91v13q0 56 30 91t75 35q47 0 76 -35zM81.5 206.5q-19.5 -25.5 -19.5 -69.5v-13q0 -44 19.5 -69.5t48.5 -25.5q31 0 49.5 25t18.5 70v13q0 45 -18.5 70t-49.5 25q-29 0 -48.5 -25.5z" />
    <glyph glyph-name="one.dnom" horiz-adv-x="122" 
d="M97 0h-37v221l-17 -11l-18 31l35 20h37v-261z" />
    <glyph glyph-name="two.dnom" horiz-adv-x="221" 
d="M168 241.5q25 -22.5 25 -52.5q0 -26 -14.5 -47t-53.5 -61l-47 -49h118v-32h-168v32l68 69q38 40 48.5 54.5t10.5 33.5q0 18 -14 31t-32 13q-19 0 -33 -13t-14 -37v-14h-37v14q0 35 24.5 58t59.5 23q34 0 59 -22.5z" />
    <glyph glyph-name="three.dnom" horiz-adv-x="233" 
d="M172 242.5q24 -20.5 24 -47.5q0 -32 -30 -53q19 -8 30.5 -25t11.5 -41q0 -34 -27.5 -57t-64.5 -23q-40 0 -66 27t-25 64h38q2 -25 15.5 -42t37.5 -17q22 0 38 13.5t16 34.5q0 27 -18.5 37t-55.5 12v28q32 0 47.5 11.5t15.5 30.5q0 16 -12.5 26.5t-30.5 10.5
q-21 0 -33.5 -13.5t-13.5 -40.5h-37q0 38 23.5 61.5t60.5 23.5q32 0 56 -20.5z" />
    <glyph glyph-name="four.dnom" horiz-adv-x="246" 
d="M194 107h27v-31h-27v-76h-37v76h-132l132 185h37v-154zM92 107h65v95z" />
    <glyph glyph-name="five.dnom" horiz-adv-x="235" 
d="M186 229h-104l-8 -58q22 10 45 10q35 0 63 -26.5t28 -65.5t-28 -66t-67 -27q-33 0 -58.5 18.5t-31.5 43.5l33 19q2 -20 17.5 -34.5t39.5 -14.5q23 0 40 17.5t17 43.5q0 25 -16.5 42.5t-36.5 17.5q-35 0 -57 -29l-32 8l18 133h138v-32z" />
    <glyph glyph-name="six.dnom" horiz-adv-x="223" 
d="M106 165h6q34 0 60 -25t26 -59q0 -35 -26 -60t-60 -25t-60.5 25t-26.5 60q0 24 9 41.5t28 41.5l13 18l57 79h42zM76 119q-14 -14 -14 -38q0 -23 15.5 -38t34.5 -15q18 0 33.5 15t15.5 38t-15 37.5t-34 14.5q-22 0 -36 -14z" />
    <glyph glyph-name="seven.dnom" horiz-adv-x="223" 
d="M96 0h-39l89 229h-121v32h173z" />
    <glyph glyph-name="eight.dnom" horiz-adv-x="233" 
d="M173.5 243q21.5 -20 21.5 -47q0 -34 -30 -53q43 -21 43 -66q0 -34 -27 -56.5t-65 -22.5q-37 0 -64 22.5t-27 56.5q0 22 11.5 39t31.5 27q-15 10 -22.5 24t-7.5 29q0 26 21.5 46.5t56.5 20.5q36 0 57.5 -20zM85.5 221.5q-10.5 -10.5 -10.5 -25.5t12.5 -27t28.5 -12
q18 0 29.5 12t11.5 27t-9.5 25.5t-31.5 10.5q-20 0 -30.5 -10.5zM78 112q-16 -14 -16 -35q0 -20 16 -34t38 -14q24 0 39 13t15 35t-15 35.5t-39 13.5q-22 0 -38 -14z" />
    <glyph glyph-name="nine.dnom" horiz-adv-x="224" 
d="M172.5 239.5q26.5 -24.5 26.5 -59.5q0 -25 -9.5 -43.5t-22.5 -34.5t-19 -24l-56 -78h-43l68 95h-5q-35 0 -61 25.5t-26 59.5q0 35 26.5 59.5t60.5 24.5t60.5 -24.5zM77.5 217q-15.5 -15 -15.5 -37q0 -23 15.5 -38t34.5 -15q22 0 35.5 14.5t13.5 38.5q0 22 -15.5 37
t-33.5 15q-19 0 -34.5 -15z" />
    <glyph glyph-name="zero.numr" horiz-adv-x="260" 
d="M206 668q29 -35 29 -91v-13q0 -56 -29 -91t-76 -35q-45 0 -75 35t-30 91v13q0 56 30 91t75 35q47 0 76 -35zM81.5 646.5q-19.5 -25.5 -19.5 -69.5v-13q0 -44 19.5 -69.5t48.5 -25.5q31 0 49.5 25t18.5 70v13q0 45 -18.5 70t-49.5 25q-29 0 -48.5 -25.5z" />
    <glyph glyph-name="one.numr" horiz-adv-x="122" 
d="M97 440h-37v221l-17 -11l-18 31l35 20h37v-261z" />
    <glyph glyph-name="two.numr" horiz-adv-x="221" 
d="M168 681.5q25 -22.5 25 -52.5q0 -26 -14.5 -47t-53.5 -61l-47 -49h118v-32h-168v32l68 69q38 40 48.5 54.5t10.5 33.5q0 18 -14 31t-32 13q-19 0 -33 -13t-14 -37v-14h-37v14q0 35 24.5 58t59.5 23q34 0 59 -22.5z" />
    <glyph glyph-name="three.numr" horiz-adv-x="233" 
d="M172 682.5q24 -20.5 24 -47.5q0 -32 -30 -53q19 -8 30.5 -25t11.5 -41q0 -34 -27.5 -57t-64.5 -23q-40 0 -66 27t-25 64h38q2 -25 15.5 -42t37.5 -17q22 0 38 13.5t16 34.5q0 27 -18.5 37t-55.5 12v28q32 0 47.5 11.5t15.5 30.5q0 16 -12.5 26.5t-30.5 10.5
q-21 0 -33.5 -13.5t-13.5 -40.5h-37q0 38 23.5 61.5t60.5 23.5q32 0 56 -20.5z" />
    <glyph glyph-name="four.numr" horiz-adv-x="246" 
d="M194 547h27v-31h-27v-76h-37v76h-132l132 185h37v-154zM92 547h65v95z" />
    <glyph glyph-name="five.numr" horiz-adv-x="235" 
d="M186 669h-104l-8 -58q22 10 45 10q35 0 63 -26.5t28 -65.5t-28 -66t-67 -27q-33 0 -58.5 18.5t-31.5 43.5l33 19q2 -20 17.5 -34.5t39.5 -14.5q23 0 40 17.5t17 43.5q0 25 -16.5 42.5t-36.5 17.5q-35 0 -57 -29l-32 8l18 133h138v-32z" />
    <glyph glyph-name="six.numr" horiz-adv-x="223" 
d="M106 605h6q34 0 60 -25t26 -59q0 -35 -26 -60t-60 -25t-60.5 25t-26.5 60q0 24 9 41.5t28 41.5l13 18l57 79h42zM76 559q-14 -14 -14 -38q0 -23 15.5 -38t34.5 -15q18 0 33.5 15t15.5 38t-15 37.5t-34 14.5q-22 0 -36 -14z" />
    <glyph glyph-name="seven.numr" horiz-adv-x="223" 
d="M96 440h-39l89 229h-121v32h173z" />
    <glyph glyph-name="eight.numr" horiz-adv-x="233" 
d="M173.5 683q21.5 -20 21.5 -47q0 -34 -30 -53q43 -21 43 -66q0 -34 -27 -56.5t-65 -22.5q-37 0 -64 22.5t-27 56.5q0 22 11.5 39t31.5 27q-15 10 -22.5 24t-7.5 29q0 26 21.5 46.5t56.5 20.5q36 0 57.5 -20zM85.5 661.5q-10.5 -10.5 -10.5 -25.5t12.5 -27t28.5 -12
q18 0 29.5 12t11.5 27t-9.5 25.5t-31.5 10.5q-20 0 -30.5 -10.5zM78 552q-16 -14 -16 -35q0 -20 16 -34t38 -14q24 0 39 13t15 35t-15 35.5t-39 13.5q-22 0 -38 -14z" />
    <glyph glyph-name="nine.numr" horiz-adv-x="224" 
d="M172.5 679.5q26.5 -24.5 26.5 -59.5q0 -25 -9.5 -43.5t-22.5 -34.5t-19 -24l-56 -78h-43l68 95h-5q-35 0 -61 25.5t-26 59.5q0 35 26.5 59.5t60.5 24.5t60.5 -24.5zM77.5 657q-15.5 -15 -15.5 -37q0 -23 15.5 -38t34.5 -15q22 0 35.5 14.5t13.5 38.5q0 22 -15.5 37
t-33.5 15q-19 0 -34.5 -15z" />
    </font>
</defs>
</svg>
