<?xml version="1.0" standalone="no"?>
<!DOCTYPE svg PUBLIC "-//W3C//DTD SVG 1.1//EN" "http://www.w3.org/Graphics/SVG/1.1/DTD/svg11.dtd" >
<svg xmlns="http://www.w3.org/2000/svg" xmlns:xlink="http://www.w3.org/1999/xlink" version="1.1">
<metadata>
Created by FontForge 20161013 at Tue Jul  7 08:10:48 2015
 By ,,,
(c) 2015 Connary Fagen
</metadata>
<defs>
<font id="VisbyCF-Light" horiz-adv-x="593" >
  <font-face 
    font-family="Visby CF Light"
    font-weight="300"
    font-stretch="normal"
    units-per-em="1000"
    panose-1="0 0 4 0 0 0 0 0 0 0"
    ascent="800"
    descent="-200"
    x-height="520"
    cap-height="700"
    bbox="-190 -216 1128 959"
    underline-thickness="50"
    underline-position="-150"
    unicode-range="U+0020-FB02"
  />
<missing-glyph horiz-adv-x="495" 
d="M406 -190h-314v990h314v-990zM166 734v-33h65v-37h-66v-32h165v32h-66v37h66v33h-164zM165 606v-103h165v34h-66v69h-99zM231 537h-33v35h33v-35zM165 476v-32h66v-37h-66v-33h99v70h66v32h-165zM297 417v-65h-132v-34h165v99h-33zM231 296v-55h33v22h33v-46h-99v79h-33
v-112h165v112h-99zM165 125v-112h165v112h-165zM297 46h-99v46h99v-46zM165 -10v-32h70l-70 -47v-33h165v33h-101l69 47h32v32h-165z" />
    <glyph glyph-name="fi" unicode="fi" horiz-adv-x="529" 
d="M112 674q42 35 106 35q45 0 74 -10.5t57 -27.5l-21 -38q-24 15 -46.5 23.5t-63.5 8.5q-46 0 -72 -25.5t-26 -87.5v-32h164v-45h-164v-475h-50v475h-50v45h50v32q0 87 42 122zM454 520v-520h-50v520h50z" />
    <glyph glyph-name="fl" unicode="fl" horiz-adv-x="548" 
d="M467 700v-700h-51v608q-34 27 -71 40.5t-88 13.5q-137 0 -137 -117v-25h159v-45h-159v-475h-50v475h-50v45h50v25q0 88 54 125t133 37q48 0 86 -12t73 -35v40h51z" />
    <glyph glyph-name="f_f" unicode="ff" horiz-adv-x="708" 
d="M494.5 639.5q-25.5 -25.5 -25.5 -87.5v-32h164v-45h-164v-475h-50v475h-299v-475h-50v475h-50v45h50v32q0 87 42 122t106 35q56 0 101 -28l-21 -38q-35 22 -80 22q-46 0 -72 -25.5t-26 -87.5v-32h299v32q0 87 42 122t106 35q56 0 101 -28l-21 -38q-35 22 -80 22
q-47 0 -72.5 -25.5z" />
    <glyph glyph-name=".notdef" horiz-adv-x="495" 
d="M406 -190h-314v990h314v-990zM166 734v-33h65v-37h-66v-32h165v32h-66v37h66v33h-164zM165 606v-103h165v34h-66v69h-99zM231 537h-33v35h33v-35zM165 476v-32h66v-37h-66v-33h99v70h66v32h-165zM297 417v-65h-132v-34h165v99h-33zM231 296v-55h33v22h33v-46h-99v79h-33
v-112h165v112h-99zM165 125v-112h165v112h-165zM297 46h-99v46h99v-46zM165 -10v-32h70l-70 -47v-33h165v33h-101l69 47h32v32h-165z" />
    <glyph glyph-name=".null" horiz-adv-x="0" 
 />
    <glyph glyph-name="nonmarkingreturn" horiz-adv-x="333" 
 />
    <glyph glyph-name="space" unicode=" " horiz-adv-x="300" 
 />
    <glyph glyph-name="exclam" unicode="!" horiz-adv-x="192" 
d="M123 180h-54v520h54v-520zM127 0h-62v64h62v-64z" />
    <glyph glyph-name="quotedbl" unicode="&#x22;" horiz-adv-x="250" 
d="M205 525h-50v175h50v-175zM95 525h-50v175h50v-175z" />
    <glyph glyph-name="numbersign" unicode="#" horiz-adv-x="550" 
d="M412 475l-18 -250h111v-45h-114l-13 -180h-50l13 180h-162l-13 -180h-50l13 180h-84v45h87l18 250h-105v45h108l13 180h50l-13 -180h162l13 180h50l-13 -180h90v-45h-93zM362 475h-162l-18 -250h162z" />
    <glyph glyph-name="dollar" unicode="$" horiz-adv-x="568" 
d="M500.5 88.5q-27.5 -39.5 -73.5 -63.5t-101 -30v-85h-45v83q-85 3 -151.5 48.5t-89.5 115.5l43 18q22 -61 77.5 -99t131.5 -38q49 0 92 16.5t68.5 48.5t25.5 74q0 61 -39 92t-110 56l-96 33q-79 27 -119.5 67t-40.5 107q0 48 27.5 87.5t75 63t105.5 24.5v83h45v-86
q69 -9 120 -48.5t73 -93.5l-43 -17q-22 51 -70.5 84t-117.5 33q-73 0 -119 -36t-46 -94q0 -52 30 -80t91 -49l92 -32q92 -31 142 -74t50 -120q0 -49 -27.5 -88.5z" />
    <glyph glyph-name="percent" unicode="%" horiz-adv-x="698" 
d="M246.5 669q36.5 -36 36.5 -87t-36.5 -87t-87.5 -36t-87.5 36t-36.5 87t36.5 87t87.5 36t87.5 -36zM593 675l-453 -675l-38 26l454 675zM101 640q-24 -23 -24 -58t24 -58t58 -23t58 23t24 58t-24 58t-58 23t-58 -23zM626.5 205q36.5 -36 36.5 -87t-36.5 -87t-87.5 -36
t-87.5 36t-36.5 87t36.5 87t87.5 36t87.5 -36zM481 176q-24 -23 -24 -58t24 -58t58 -23t58 23t24 58t-24 58t-58 23t-58 -23z" />
    <glyph glyph-name="ampersand" unicode="&#x26;" horiz-adv-x="691" 
d="M619.5 44.5q15.5 5.5 31.5 17.5v-45q-16 -12 -31.5 -17.5t-35.5 -5.5q-82 0 -82 89v40q-27 -64 -83 -98.5t-126 -34.5q-65 0 -119.5 26.5t-86.5 74.5t-32 111q0 89 54 144.5t147 65.5l-182 288h439v-45h-362l181 -284q-21 2 -49 2q-49 0 -89.5 -20.5t-64.5 -59.5t-24 -91
q0 -51 25 -89t68 -58t95 -20q58 0 103.5 27.5t70.5 71.5t25 93v168h129v-45h-79v-256q0 -31 10 -43t32 -12q20 0 35.5 5.5z" />
    <glyph glyph-name="quotesingle" unicode="'" horiz-adv-x="140" 
d="M95 525h-50v175h50v-175z" />
    <glyph glyph-name="parenleft" unicode="(" horiz-adv-x="232" 
d="M121.5 549.5q-25.5 -104.5 -25.5 -229.5q0 -256 101 -450h-46q-53 95 -79.5 205.5t-26.5 244.5q0 127 26.5 231.5t79.5 193.5h46q-50 -91 -75.5 -195.5z" />
    <glyph glyph-name="parenright" unicode=")" horiz-adv-x="232" 
d="M91 745q53 -89 79.5 -193.5t26.5 -231.5q0 -134 -26.5 -244.5t-79.5 -205.5h-46q101 194 101 450q0 125 -25.5 229.5t-75.5 195.5h46z" />
    <glyph glyph-name="asterisk" unicode="*" horiz-adv-x="442" 
d="M241 581h-40l-3 119h45zM201 581l-10 -38l-116 31l11 42zM367 574l-116 -31l-10 38l115 35zM221 517l-67 -97l-37 25l74 98zM325 445l-37 -25l-67 97l30 26z" />
    <glyph glyph-name="plus" unicode="+" horiz-adv-x="425" 
d="M380 262h-147v-148h-40v148h-148v40h148v147h40v-147h147v-40z" />
    <glyph glyph-name="comma" unicode="," horiz-adv-x="184" 
d="M90 20h69l-97 -155h-42z" />
    <glyph glyph-name="hyphen" unicode="-" horiz-adv-x="400" 
d="M355 262h-310v40h310v-40z" />
    <glyph glyph-name="period" unicode="." horiz-adv-x="156" 
d="M109 0h-62v64h62v-64z" />
    <glyph glyph-name="slash" unicode="/" horiz-adv-x="479" 
d="M94 -130h-49l340 875h49z" />
    <glyph glyph-name="zero" unicode="0" horiz-adv-x="634" 
d="M457.5 665.5q61.5 -41.5 96.5 -119.5t35 -183v-26q0 -105 -35 -183t-96.5 -119.5t-140.5 -41.5t-140.5 41.5t-96.5 119.5t-35 183v26q0 105 35 183t96.5 119.5t140.5 41.5t140.5 -41.5zM202 626q-50 -36 -78.5 -103.5t-28.5 -159.5v-26q0 -92 28.5 -159.5t78.5 -103.5
t115 -36t115 36t78.5 103.5t28.5 159.5v26q0 92 -28.5 159.5t-78.5 103.5t-115 36t-115 -36z" />
    <glyph glyph-name="one" unicode="1" horiz-adv-x="280" 
d="M200 0h-50v655h-90v45h140v-700z" />
    <glyph glyph-name="two" unicode="2" horiz-adv-x="514" 
d="M363 680q49 -27 77.5 -73t28.5 -101q0 -41 -19 -81t-50 -79.5t-95 -112.5l-23 -26l-143 -162h330v-45h-414v18l184 212l42 48q56 63 82 96t41 65t15 67q0 46 -22 81.5t-59 55t-81 19.5q-43 0 -80 -20t-59.5 -58t-22.5 -88v-16h-50v16q0 60 28.5 108t77 75.5t106.5 27.5
q57 0 106 -27z" />
    <glyph glyph-name="three" unicode="3" horiz-adv-x="550" 
d="M301 410q55 2 103 -21.5t77 -69.5t29 -109q0 -66 -32 -116t-86 -77t-118 -27q-65 0 -117.5 28t-82 76.5t-29.5 106.5l50 1q0 -46 24 -84t65 -60.5t90 -22.5q51 0 93 20.5t67.5 60t25.5 94.5q0 79 -52.5 121t-136.5 42q-24 0 -48 -3l187 285h-344v45h429z" />
    <glyph glyph-name="four" unicode="4" horiz-adv-x="538" 
d="M428 261h75v-45h-75v-216h-50v216h-338v17l368 467h20v-439zM119 261h259v332z" />
    <glyph glyph-name="five" unicode="5" horiz-adv-x="564" 
d="M451 655h-296l-33 -247q63 63 166 63q59 0 112.5 -30.5t86 -85t32.5 -124.5q0 -68 -32.5 -123.5t-88 -86.5t-121.5 -31q-79 0 -140.5 41t-86.5 102l42 24q18 -50 68.5 -86t116.5 -36q52 0 96 25t70 69.5t26 101.5q0 55 -25 100t-66.5 70t-89.5 25q-51 0 -95.5 -20.5
t-78.5 -59.5l-46 10l44 344h339v-45z" />
    <glyph glyph-name="six" unicode="6" horiz-adv-x="535" 
d="M152 392q52 36 116 36q58 0 110.5 -28.5t84 -78.5t31.5 -111q0 -62 -31 -112.5t-83 -79t-112 -28.5q-61 0 -113 28.5t-83 79t-31 112.5q0 55 19 104t40.5 80.5t60.5 83.5l168 222h58zM139.5 336q-48.5 -45 -48.5 -126q0 -51 25 -91t66 -62t86 -22t85.5 22t65.5 62t25 91
q0 53 -25.5 92t-66 59t-84.5 20q-80 0 -128.5 -45z" />
    <glyph glyph-name="seven" unicode="7" horiz-adv-x="484" 
d="M179 0h-52l254 655h-356v45h424z" />
    <glyph glyph-name="eight" unicode="8" horiz-adv-x="524" 
d="M448.5 314.5q35.5 -49.5 35.5 -114.5q0 -61 -30.5 -108t-81.5 -73t-110 -26t-110 26t-81.5 73t-30.5 108q0 65 35.5 114.5t94.5 74.5q-44 22 -68.5 62t-24.5 84q0 46 23 85.5t65 63t97 23.5t97 -23.5t65 -63t23 -85.5q0 -44 -24.5 -84t-68.5 -62q59 -25 94.5 -74.5z
M145 471q18 -29 49 -46.5t68 -17.5t68 17.5t49 46.5t18 64q0 32 -16 61.5t-47 47.5t-72 18t-72 -18t-47 -47.5t-16 -61.5q0 -35 18 -64zM347.5 58q39.5 20 63 57t23.5 85q0 47 -23 84t-62 58t-87 21t-87 -21t-62 -58t-23 -84q0 -48 23.5 -85t63 -57t85.5 -20t85.5 20z" />
    <glyph glyph-name="nine" unicode="9" horiz-adv-x="535" 
d="M383 307q-52 -36 -116 -36q-58 0 -110.5 28.5t-84 78.5t-31.5 111q0 62 31 112.5t83 79t112 28.5q61 0 113 -28.5t83 -79t31 -112.5q0 -55 -19 -104t-40.5 -80.5t-60.5 -83.5l-168 -222h-58zM395.5 363q48.5 45 48.5 126q0 51 -25 91t-66 62t-86 22t-85.5 -22t-65.5 -62
t-25 -91q0 -53 25.5 -92t66 -59t84.5 -20q80 0 128.5 45z" />
    <glyph glyph-name="colon" unicode=":" horiz-adv-x="166" 
d="M114 0h-62v64h62v-64zM114 454h-62v64h62v-64z" />
    <glyph glyph-name="semicolon" unicode=";" horiz-adv-x="215" 
d="M153 454h-62v64h62v-64zM80 20h69l-97 -155h-42z" />
    <glyph glyph-name="less" unicode="&#x3c;" horiz-adv-x="497" 
d="M462 431l-350 -191l350 -189v-51l-417 229v23l417 229v-50z" />
    <glyph glyph-name="equal" unicode="=" horiz-adv-x="426" 
d="M381 342h-335v40h335v-40zM381 182h-335v40h335v-40z" />
    <glyph glyph-name="greater" unicode="&#x3e;" horiz-adv-x="497" 
d="M452 252v-23l-417 -229v51l350 189l-350 191v50z" />
    <glyph glyph-name="question" unicode="?" horiz-adv-x="495" 
d="M353.5 682.5q47.5 -24.5 74.5 -68.5t27 -102q0 -47 -23.5 -81t-69.5 -76q-44 -41 -65.5 -71.5t-21.5 -73.5v-30h-51v30q0 51 24.5 86.5t72.5 80.5q43 40 63.5 68.5t20.5 66.5q0 72 -44 111t-114 39q-68 0 -112.5 -43t-44.5 -128h-50q0 66 27 115t74 75t106 26
t106.5 -24.5zM284 0h-62v64h62v-64z" />
    <glyph glyph-name="at" unicode="@" horiz-adv-x="794" 
d="M566 661q80 -46 129 -128.5t49 -185.5q0 -61 -18 -104t-47 -64t-63 -21q-48 0 -74 27t-26 79q-19 -55 -56.5 -81.5t-80.5 -26.5q-40 0 -78 21.5t-62 64.5t-24 105q0 58 24.5 99.5t62 62.5t77.5 21q41 0 76 -22t49 -63v75h43v-217q0 -54 17 -78t52 -24q36 0 58 36t22 110
q0 92 -42 163.5t-110.5 111t-146.5 39.5q-73 0 -142.5 -39.5t-113 -111.5t-43.5 -163q0 -88 43.5 -158.5t113 -110t142.5 -39.5q50 0 95 14.5t80 42.5l46 -21q-96 -82 -221 -82q-87 0 -167 46t-130 127t-50 181q0 103 50 185.5t130 128.5t167 46q89 0 169 -46zM324 470.5
q-27 -15.5 -45 -47t-18 -76.5q0 -48 18 -81t45 -49.5t55 -16.5q30 0 57.5 17.5t45 50.5t17.5 79q0 44 -17.5 75.5t-45 47.5t-57.5 16q-28 0 -55 -15.5z" />
    <glyph glyph-name="A" unicode="A" horiz-adv-x="694" 
d="M514 230h-334l-101 -230h-54l314 700h16l314 -700h-54zM494 275l-147 333l-147 -333h294z" />
    <glyph glyph-name="B" unicode="B" horiz-adv-x="586" 
d="M503.5 313.5q37.5 -47.5 37.5 -112.5q0 -100 -63.5 -150.5t-187.5 -50.5h-220v700h220q105 0 158 -46t53 -126q0 -54 -27.5 -92t-83.5 -54q76 -21 113.5 -68.5zM290 403q85 0 123 30t38 95q0 127 -161 127h-169v-252h169zM441.5 82.5q49.5 37.5 49.5 118.5
q0 72 -51.5 114.5t-149.5 42.5h-169v-313h169q102 0 151.5 37.5z" />
    <glyph glyph-name="C" unicode="C" horiz-adv-x="647" 
d="M509 684.5q57 -22.5 103 -64.5l-32 -36q-36 36 -85.5 55.5t-104.5 19.5q-73 0 -142 -40t-112 -110.5t-43 -158.5t43 -158.5t112 -110.5t142 -40q55 0 104.5 19.5t85.5 55.5l32 -36q-46 -42 -103 -64.5t-119 -22.5q-88 0 -168.5 46t-131 127.5t-50.5 183.5t50.5 183.5
t131 127.5t168.5 46q62 0 119 -22.5z" />
    <glyph glyph-name="D" unicode="D" horiz-adv-x="659" 
d="M440.5 653.5q79.5 -46.5 124 -127t44.5 -178.5q0 -96 -44.5 -175.5t-124 -126t-179.5 -46.5h-186v700h186q100 0 179.5 -46.5zM418 84.5q68 39.5 104.5 108.5t36.5 155q0 87 -36.5 157t-104 110t-157.5 40h-135v-610h135q89 0 157 39.5z" />
    <glyph glyph-name="E" unicode="E" horiz-adv-x="524" 
d="M479 46v-46h-424v700h414v-46h-362v-279h262v-46h-262v-283h372z" />
    <glyph glyph-name="F" unicode="F" horiz-adv-x="514" 
d="M107 654v-280h302v-46h-302v-328h-52v700h414v-46h-362z" />
    <glyph glyph-name="G" unicode="G" horiz-adv-x="738" 
d="M666 159q-39 -79 -111 -122.5t-166 -43.5q-88 0 -168.5 46t-130.5 127.5t-50 183.5t49 183.5t129.5 127.5t170.5 46q78 0 143 -30t105 -75l-32 -33q-33 39 -89.5 64.5t-126.5 25.5q-76 0 -144.5 -39.5t-110.5 -110t-42 -159.5t42.5 -159.5t111.5 -110t143 -39.5
q75 0 132.5 31t92 89t40.5 136h-209v45h258q2 -104 -37 -183z" />
    <glyph glyph-name="H" unicode="H" horiz-adv-x="642" 
d="M572 700v-700h-51v319h-400v-319h-51v700h51v-336h400v336h51z" />
    <glyph glyph-name="I" unicode="I" horiz-adv-x="201" 
d="M126 0h-51v700h51v-700z" />
    <glyph glyph-name="J" unicode="J" horiz-adv-x="518" 
d="M453 253q0 -133 -60.5 -196.5t-156.5 -63.5q-120 0 -191 83l34 35q28 -35 65.5 -54t91.5 -19q75 0 121 52t46 164v446h50v-447z" />
    <glyph glyph-name="K" unicode="K" horiz-adv-x="599" 
d="M253 334l316 -334h-62l-283 298l-102 -120v-178h-52v700h52v-447l369 447h62z" />
    <glyph glyph-name="L" unicode="L" horiz-adv-x="558" 
d="M503 45v-45h-428v700h51v-655h377z" />
    <glyph glyph-name="M" unicode="M" horiz-adv-x="852" 
d="M782 0h-51v589l-286 -589h-38l-286 589v-589h-51v700h50l306 -626l306 626h50v-700z" />
    <glyph glyph-name="N" unicode="N" horiz-adv-x="677" 
d="M607 0h-51l-435 624v-624h-51v700h51l435 -625v625h51v-700z" />
    <glyph glyph-name="O" unicode="O" horiz-adv-x="806" 
d="M572.5 661q80.5 -46 129.5 -127.5t49 -183.5t-49 -183.5t-129.5 -127.5t-169.5 -46q-87 0 -167.5 46t-130.5 127.5t-50 183.5t50 183.5t130.5 127.5t167.5 46q89 0 169.5 -46zM262 619.5q-68 -39.5 -111 -110.5t-43 -159t43 -159t111 -110.5t141 -39.5q77 0 145 39.5
t109 110t41 159.5t-41 159.5t-109 110t-145 39.5q-73 0 -141 -39.5z" />
    <glyph glyph-name="P" unicode="P" horiz-adv-x="583" 
d="M419.5 673q53.5 -27 83.5 -75.5t30 -110.5t-30 -110.5t-83.5 -75.5t-122.5 -27h-176v-274h-51v700h227q69 0 122.5 -27zM430 364.5q52 45.5 52 122.5t-52 122.5t-142 45.5h-167v-336h167q90 0 142 45.5z" />
    <glyph glyph-name="Q" unicode="Q" horiz-adv-x="804" 
d="M717.5 196q-33.5 -70 -91.5 -119l75 -77h-60l-50 51q-88 -58 -188 -58q-87 0 -167.5 46t-130.5 127.5t-50 183.5t50 183.5t130.5 127.5t167.5 46q89 0 169.5 -46t129.5 -127.5t49 -183.5q0 -84 -33.5 -154zM557 86l-164 168h60l139 -142q50 42 78 103t28 135
q0 89 -41 159.5t-109 110t-145 39.5q-73 0 -141 -39.5t-111 -110.5t-43 -159t43 -159t111 -110.5t141 -39.5q83 0 154 45z" />
    <glyph glyph-name="R" unicode="R" horiz-adv-x="595" 
d="M496 0l-211 274h-164v-274h-51v700h227q69 0 122.5 -27t83.5 -75.5t30 -110.5q0 -84 -52.5 -141t-139.5 -69l214 -277h-59zM121 319h167q90 0 142 45.5t52 122.5t-52 122.5t-142 45.5h-167v-336z" />
    <glyph glyph-name="S" unicode="S" horiz-adv-x="568" 
d="M432 665.5q61 -41.5 87 -103.5l-43 -17q-22 51 -70.5 84t-117.5 33q-73 0 -119 -36t-46 -94q0 -52 30 -80t91 -49l92 -32q92 -31 142 -74t50 -120q0 -54 -33 -96t-87 -65t-116 -23q-88 0 -158 46t-94 118l43 18q22 -61 77.5 -99t131.5 -38q49 0 92 16.5t68.5 48.5
t25.5 74q0 61 -39 92t-110 56l-96 33q-79 27 -119.5 67t-40.5 107q0 49 28.5 89t78 63t108.5 23q83 0 144 -41.5z" />
    <glyph glyph-name="T" unicode="T" horiz-adv-x="568" 
d="M518 655h-208v-655h-51v655h-209v45h468v-45z" />
    <glyph glyph-name="U" unicode="U" horiz-adv-x="653" 
d="M588 265q0 -84 -33 -145.5t-92.5 -94t-136.5 -32.5t-136.5 32.5t-92 94t-32.5 145.5v435h50v-434q0 -109 56 -168.5t155 -59.5t155.5 59.5t56.5 168.5v434h50v-435z" />
    <glyph glyph-name="V" unicode="V" horiz-adv-x="694" 
d="M355 0h-16l-314 700h54l268 -608l268 608h54z" />
    <glyph glyph-name="W" unicode="W" horiz-adv-x="1025" 
d="M751 0h-10l-228 591l-229 -591h-10l-234 700h53l190 -576l224 576h11l224 -576l190 576h53z" />
    <glyph glyph-name="X" unicode="X" horiz-adv-x="666" 
d="M564 0l-231 322l-231 -322h-57l260 362l-243 338h57l214 -298l214 298h57l-242 -338l259 -362h-57z" />
    <glyph glyph-name="Y" unicode="Y" horiz-adv-x="636" 
d="M343 343v-343h-50v343l-258 357h56l227 -316l227 316h56z" />
    <glyph glyph-name="Z" unicode="Z" horiz-adv-x="606" 
d="M126 45h445v-45h-536l441 655h-415v45h506z" />
    <glyph glyph-name="bracketleft" unicode="[" horiz-adv-x="230" 
d="M185 700h-90v-785h90v-45h-140v875h140v-45z" />
    <glyph glyph-name="backslash" unicode="\" horiz-adv-x="479" 
d="M94 745l340 -875h-49l-340 875h49z" />
    <glyph glyph-name="bracketright" unicode="]" horiz-adv-x="230" 
d="M185 745v-875h-140v45h90v785h-90v45h140z" />
    <glyph glyph-name="asciicircum" unicode="^" horiz-adv-x="469" 
d="M424 475h-49l-140 174l-141 -174h-49l167 225h45z" />
    <glyph glyph-name="underscore" unicode="_" horiz-adv-x="590" 
d="M545 -45h-500v45h500v-45z" />
    <glyph glyph-name="grave" unicode="`" horiz-adv-x="149" 
d="M72 767l77 -145h-43l-106 145h72z" />
    <glyph glyph-name="a" unicode="a" 
d="M405.5 494q54.5 -32 82.5 -92v118h50v-520h-50v117q-28 -60 -82.5 -92t-117.5 -32q-59 0 -116.5 30.5t-94.5 91t-37 144.5q0 85 37.5 145.5t94.5 91t116 30.5q63 0 117.5 -32zM197.5 456q-46.5 -25 -77 -75t-30.5 -122q0 -71 30.5 -121t77 -75t93.5 -25q48 0 94 24.5
t75.5 74.5t29.5 122q0 73 -29.5 123t-75.5 74.5t-94 24.5q-47 0 -93.5 -25z" />
    <glyph glyph-name="b" unicode="b" 
d="M421 495.5q57 -30.5 94.5 -91t37.5 -145.5q0 -84 -37 -144.5t-94.5 -91t-116.5 -30.5q-63 0 -117.5 32t-82.5 92v-117h-50v700h51v-296q28 59 82.5 90.5t116.5 31.5q59 0 116 -30.5zM395.5 63q46.5 25 77 75t30.5 121q0 72 -30.5 122t-77 75t-93.5 25q-48 0 -94 -24.5
t-75.5 -74.5t-29.5 -123q0 -72 29.5 -122t75.5 -74.5t94 -24.5q47 0 93.5 25z" />
    <glyph glyph-name="c" unicode="c" horiz-adv-x="536" 
d="M412 492.5q60 -33.5 94 -95.5l-47 -15q-28 48 -74.5 73.5t-94.5 25.5q-47 0 -93.5 -25t-76.5 -75t-30 -121q0 -72 30 -122t76.5 -75t93.5 -25q48 0 95 26t75 74l46 -16q-34 -62 -94 -95.5t-122 -33.5q-59 0 -117 30.5t-95.5 91t-37.5 145.5q0 84 37.5 144.5t95.5 91
t117 30.5q62 0 122 -33.5z" />
    <glyph glyph-name="d" unicode="d" 
d="M543 700v-700h-50v117q-28 -60 -82.5 -92t-117.5 -32q-59 0 -116.5 30.5t-94.5 91t-37 144.5q0 85 37.5 145.5t94.5 91t116 30.5q62 0 116.5 -31.5t82.5 -90.5v296h51zM390 62.5q46 24.5 75.5 74.5t29.5 122q0 73 -29.5 123t-75.5 74.5t-94 24.5q-47 0 -93.5 -25t-77 -75
t-30.5 -122q0 -71 30.5 -121t77 -75t93.5 -25q48 0 94 24.5z" />
    <glyph glyph-name="e" unicode="e" horiz-adv-x="578" 
d="M406.5 495.5q57.5 -30.5 94.5 -91t37 -144.5q0 -9 -2 -21h-445q4 -65 34.5 -110.5t75 -68t89.5 -22.5q47 0 88 17.5t71 52.5l39 -26q-37 -44 -88.5 -66.5t-109.5 -22.5q-59 0 -117 30.5t-95.5 91t-37.5 145.5q0 84 37.5 144.5t95 91t116.5 30.5q60 0 117.5 -30.5z
M200.5 459q-43.5 -22 -74 -67.5t-35.5 -110.5h397q-5 65 -35.5 110.5t-74 67.5t-89.5 22q-45 0 -88.5 -22z" />
    <glyph glyph-name="f" unicode="f" horiz-adv-x="344" 
d="M145.5 639.5q-25.5 -25.5 -25.5 -87.5v-32h164v-45h-164v-475h-50v475h-50v45h50v32q0 87 42 122t106 35q56 0 101 -28l-21 -38q-35 22 -80 22q-47 0 -72.5 -25.5z" />
    <glyph glyph-name="g" unicode="g" 
d="M538 520v-520q0 -73 -34 -119t-84 -66t-101 -20q-59 0 -98.5 13.5t-58.5 31.5v46q19 -18 59 -32t98 -14q71 0 120 40.5t49 119.5v117q-28 -60 -82.5 -92t-117.5 -32q-59 0 -116.5 30.5t-94.5 91t-37 144.5q0 85 37.5 145.5t94.5 91t116 30.5q63 0 117.5 -32t82.5 -92v118
h50zM385 62.5q46 24.5 75.5 74.5t29.5 122q0 73 -29.5 123t-75.5 74.5t-94 24.5q-47 0 -93.5 -25t-77 -75t-30.5 -122q0 -71 30.5 -121t77 -75t93.5 -25q48 0 94 24.5z" />
    <glyph glyph-name="h" unicode="h" horiz-adv-x="563" 
d="M405.5 502q45.5 -23 74 -72.5t28.5 -125.5v-304h-50v305q0 87 -43.5 131t-113.5 44q-47 0 -88.5 -25t-68.5 -64.5t-34 -80.5v-310h-50v700h50v-317q4 25 29.5 58.5t69 58.5t98.5 25q53 0 98.5 -23z" />
    <glyph glyph-name="i" unicode="i" horiz-adv-x="191" 
d="M121 650h-51v50h51v-50zM121 0h-51v520h51v-520z" />
    <glyph glyph-name="j" unicode="j" horiz-adv-x="219" 
d="M149 650h-50v50h50v-50zM149 -65q0 -75 -29 -107.5t-82 -32.5q-23 0 -47 7.5t-41 18.5v46q46 -27 88 -27q30 0 45.5 24.5t15.5 70.5v585h50v-585z" />
    <glyph glyph-name="k" unicode="k" horiz-adv-x="558" 
d="M207 243l-87 -90v-153h-50v700h50v-483l86 90v1l203 212h65l-235 -244l284 -276h-64z" />
    <glyph glyph-name="l" unicode="l" horiz-adv-x="191" 
d="M121 0h-51v700h51v-700z" />
    <glyph glyph-name="m" unicode="m" horiz-adv-x="905" 
d="M746 504q43 -21 71 -68.5t28 -122.5v-313h-50v318q0 82 -40.5 121t-102.5 39q-67 0 -112 -46t-59 -115v-317h-50v318q0 82 -42.5 121t-103.5 39q-48 0 -84 -24t-56.5 -61t-27.5 -76v-317h-50v520h50v-137q3 29 23 62t58.5 56.5t91.5 23.5q58 0 110 -33t71 -103
q10 33 35 64.5t64 51.5t87 20q46 0 89 -21z" />
    <glyph glyph-name="n" unicode="n" horiz-adv-x="563" 
d="M405.5 502q45.5 -23 74 -72.5t28.5 -125.5v-304h-50v305q0 87 -43.5 131t-113.5 44q-47 0 -88.5 -25t-68.5 -64.5t-34 -80.5v-310h-50v520h50v-137q4 25 29.5 58.5t69 58.5t98.5 25q53 0 98.5 -23z" />
    <glyph glyph-name="o" unicode="o" horiz-adv-x="580" 
d="M407 495.5q58 -30.5 95.5 -91t37.5 -144.5q0 -85 -37.5 -145.5t-95.5 -91t-117 -30.5t-117 30.5t-95.5 91t-37.5 145.5q0 84 37.5 144.5t95.5 91t117 30.5t117 -30.5zM196.5 456q-46.5 -25 -76.5 -75t-30 -121q0 -72 30 -122t76.5 -75t93.5 -25t93.5 25t76.5 75t30 122
q0 71 -30 121t-76.5 75t-93.5 25t-93.5 -25z" />
    <glyph glyph-name="p" unicode="p" 
d="M421 495.5q57 -30.5 94.5 -91t37.5 -145.5q0 -84 -37 -144.5t-94.5 -91t-116.5 -30.5q-63 0 -117.5 32t-82.5 92v-307h-50v710h50v-118q28 60 82.5 92t117.5 32q59 0 116 -30.5zM395.5 63q46.5 25 77 75t30.5 121q0 72 -30.5 122t-77 75t-93.5 25q-48 0 -94 -24.5
t-75.5 -74.5t-29.5 -123q0 -72 29.5 -122t75.5 -74.5t94 -24.5q47 0 93.5 25z" />
    <glyph glyph-name="q" unicode="q" horiz-adv-x="603" 
d="M543 520v-710h-50v307q-28 -60 -82.5 -92t-117.5 -32q-59 0 -116.5 30.5t-94.5 91t-37 144.5q0 85 37.5 145.5t94.5 91t116 30.5q63 0 117.5 -32t82.5 -92v118h50zM390 62.5q46 24.5 75.5 74.5t29.5 122q0 73 -29.5 123t-75.5 74.5t-94 24.5q-47 0 -93.5 -25t-77 -75
t-30.5 -122q0 -71 30.5 -121t77 -75t93.5 -25q48 0 94 24.5z" />
    <glyph glyph-name="r" unicode="r" horiz-adv-x="361" 
d="M336 523v-45q-12 1 -34 1q-78 -1 -130 -51.5t-66 -145.5v-282h-51v520h51v-156q6 41 31 78t68 60t98 23q9 0 33 -2z" />
    <glyph glyph-name="s" unicode="s" horiz-adv-x="433" 
d="M289 464q-29 18 -73 18q-47 0 -76 -24.5t-29 -58.5q0 -32 19.5 -53.5t71.5 -39.5l46 -16q79 -27 117 -60t38 -93q0 -43 -27 -76t-69 -50.5t-86 -17.5q-65 0 -120 37t-71 97l46 11q13 -45 54.5 -73t91.5 -28t90 27.5t40 72.5q0 40 -27.5 64.5t-81.5 43.5l-57 20
q-69 24 -97.5 55.5t-28.5 77.5q0 35 21 64.5t57 46.5t78 17q59 0 101 -27t66 -75l-46 -12q-19 34 -48 52z" />
    <glyph glyph-name="t" unicode="t" horiz-adv-x="295" 
d="M260 56v-44q-36 -18 -83 -18q-34 0 -55.5 18.5t-21.5 62.5v402h-70v43h70v90h50v-90h109v-43h-109v-392q0 -26 9.5 -36.5t31.5 -10.5q29 0 69 18z" />
    <glyph glyph-name="u" unicode="u" horiz-adv-x="552" 
d="M497 520v-520h-50v135q-6 -26 -30.5 -59.5t-66.5 -58t-98 -24.5q-83 0 -137.5 53.5t-54.5 164.5v309h50v-310q0 -89 39.5 -130.5t108.5 -41.5q47 0 86 24.5t65.5 64.5t37.5 84v309h50z" />
    <glyph glyph-name="v" unicode="v" horiz-adv-x="522" 
d="M266 0h-10l-226 520h52l179 -422l179 422h52z" />
    <glyph glyph-name="w" unicode="w" horiz-adv-x="851" 
d="M620 0h-9l-186 431l-185 -431h-9l-196 520h50l153 -419l183 419h9l183 -419l153 419h50z" />
    <glyph glyph-name="x" unicode="x" horiz-adv-x="507" 
d="M254 228l-167 -228h-57l197 264l-191 256h58l160 -219l159 219h58l-191 -256l197 -264h-57z" />
    <glyph glyph-name="y" unicode="y" horiz-adv-x="534" 
d="M504 520l-288 -710h-50l83 206l-219 504h51l192 -444l180 444h51z" />
    <glyph glyph-name="z" unicode="z" horiz-adv-x="527" 
d="M126 45h355v-45h-446l356 475h-345v45h436z" />
    <glyph glyph-name="braceleft" unicode="{" horiz-adv-x="255" 
d="M210 700h-35q-16 0 -25.5 -9.5t-9.5 -25.5v-291l-40 -68l40 -66v-290q0 -16 9.5 -25.5t25.5 -9.5h35v-45h-47q-32 0 -52.5 21t-20.5 54v290l-45 71l45 73v291q0 33 20.5 54t52.5 21h47v-45z" />
    <glyph glyph-name="bar" unicode="|" horiz-adv-x="195" 
d="M120 -190h-45v990h45v-990z" />
    <glyph glyph-name="braceright" unicode="}" horiz-adv-x="255" 
d="M92 745q32 0 52.5 -21t20.5 -54v-291l45 -73l-45 -71v-290q0 -33 -20.5 -54t-52.5 -21h-47v45h35q16 0 25.5 9.5t9.5 25.5v290l40 66l-40 68v291q0 16 -9.5 25.5t-25.5 9.5h-35v45h47z" />
    <glyph glyph-name="asciitilde" unicode="~" horiz-adv-x="462" 
d="M199.5 332q22.5 -10 47.5 -28q22 -15 37 -22t34 -7q36 0 52.5 14t16.5 33h30q0 -44 -27.5 -66.5t-71.5 -22.5q-31 0 -51.5 9.5t-45.5 28.5q-22 17 -39 25t-40 8q-36 0 -52.5 -17t-15.5 -36h-29q0 43 29.5 67t70.5 24q32 0 54.5 -10z" />
    <glyph glyph-name="exclamdown" unicode="&#xa1;" horiz-adv-x="156" 
d="M65 456v64h62v-64h-62zM69 -180v520h54v-520h-54z" />
    <glyph glyph-name="cent" unicode="&#xa2;" horiz-adv-x="545" 
d="M394.5 143q40.5 25 65.5 67l46 -15q-31 -56 -84.5 -88.5t-111.5 -37.5v-109h-45v109q-57 6 -108.5 38t-84 89t-32.5 134q0 76 32.5 132.5t84.5 88.5t108 38v111h45v-111q58 -5 111.5 -37.5t84.5 -87.5l-47 -15q-25 42 -65 66.5t-84 29.5v-432q44 5 84.5 30zM115.5 219
q25.5 -47 65.5 -73t84 -32v430q-44 -6 -84 -32t-65.5 -72.5t-25.5 -109.5q0 -64 25.5 -111z" />
    <glyph glyph-name="sterling" unicode="&#xa3;" horiz-adv-x="548" 
d="M453 480v18q0 79 -47 121.5t-115 42.5t-115 -39t-47 -107q0 -32 10 -62t31 -82q5 -10 13 -30h155v-42h-140q12 -39 12 -71q0 -96 -82 -186h365v-45h-448v13q68 72 92 121.5t24 103.5q0 27 -11 64h-80v42h63q-28 58 -40.5 93t-12.5 81q0 55 28.5 98.5t76.5 68t106 24.5
q59 0 107.5 -25.5t76.5 -73t28 -110.5v-18h-50z" />
    <glyph glyph-name="currency" unicode="&#xa4;" horiz-adv-x="562" 
d="M460 341l47 -47l-43 -42l-46 46q-60 -46 -137 -46t-137 46l-46 -46l-43 42l47 47q-45 61 -45 135q0 75 45 136l-47 47l43 42l47 -47q60 46 136 46t136 -46l47 47l43 -42l-47 -47q45 -61 45 -136q0 -74 -45 -135zM129 388.5q24 -40.5 64.5 -64.5t87.5 -24t87.5 24t65 64.5
t24.5 87.5t-24.5 87.5t-65 64.5t-87.5 24t-87.5 -24t-64.5 -64.5t-24 -87.5t24 -87.5z" />
    <glyph glyph-name="yen" unicode="&#xa5;" horiz-adv-x="666" 
d="M343 302h114v-40h-114v-67h114v-40h-114v-155h-50v155h-104v40h104v67h-104v40h104v41l-258 357h56l227 -316l227 316h56l-258 -357v-41z" />
    <glyph glyph-name="brokenbar" unicode="&#xa6;" horiz-adv-x="195" 
d="M120 520h-45v280h45v-280zM120 -190h-45v280h45v-280z" />
    <glyph glyph-name="section" unicode="&#xa7;" horiz-adv-x="559" 
d="M424 701.5q59 -42.5 85 -106.5l-45 -13q-16 49 -64.5 83t-115.5 34q-69 0 -114 -35t-45 -93q0 -52 31 -83t89 -50l80 -26q88 -28 138.5 -75.5t50.5 -125.5q0 -60 -44 -107q44 -49 44 -118q0 -54 -34 -95t-88 -63.5t-111 -22.5q-81 0 -143 44.5t-88 120.5l43 13
q21 -60 71.5 -96.5t116.5 -36.5q47 0 90 16t69.5 47t26.5 73q0 61 -38.5 96.5t-97.5 55.5l-97 32q-74 25 -115.5 66.5t-41.5 109.5q0 63 46 111q-46 44 -46 114q0 49 28 88.5t75.5 62t103.5 22.5q81 0 140 -42.5zM125 346q0 -52 31 -83t89 -50l80 -26q69 -22 111 -53
q31 34 31 77q0 61 -38.5 96.5t-97.5 55.5l-97 32q-44 14 -75 34q-34 -34 -34 -83z" />
    <glyph glyph-name="dieresis" unicode="&#xa8;" horiz-adv-x="288" 
d="M62 700h-62v62h62v-62zM288 700h-62v62h62v-62z" />
    <glyph glyph-name="copyright" unicode="&#xa9;" horiz-adv-x="806" 
d="M572.5 661q80.5 -46 129.5 -127.5t49 -183.5t-49 -183.5t-129.5 -127.5t-169.5 -46q-87 0 -167.5 46t-130.5 127.5t-50 183.5t50 183.5t130.5 127.5t167.5 46q89 0 169.5 -46zM261 619.5q-69 -39.5 -112.5 -110.5t-43.5 -159t43.5 -159t112.5 -110.5t142 -39.5
q77 0 146 39.5t110.5 110t41.5 159.5t-41.5 159.5t-110.5 110t-146 39.5q-73 0 -142 -39.5zM489.5 556q38.5 -16 66.5 -44l-31 -36q-23 25 -52 38t-62 13q-40 0 -79 -23t-63.5 -64t-24.5 -90q0 -50 24.5 -91t63.5 -64t79 -23q33 0 62 13t52 38l31 -34q-28 -29 -66.5 -45
t-78.5 -16q-54 0 -104 29t-81.5 79.5t-31.5 113.5q0 62 31.5 113t81.5 80t104 29q40 0 78.5 -16z" />
    <glyph glyph-name="ordfeminine" unicode="&#xaa;" horiz-adv-x="399" 
d="M281.5 669.5q29.5 -35.5 30.5 -111.5v-96q0 -31 4.5 -44t17.5 -31h-48q-6 8 -11 21.5t-4 28.5q-17 -22 -44.5 -37t-59.5 -15q-53 0 -85 24.5t-32 72.5q0 44 33 66t85 27l101 9q-1 40 -22.5 60.5t-59.5 20.5q-69 0 -98 -48l-30 31q19 27 52.5 42t75.5 15q65 0 94.5 -35.5z
M193 537q-7 0 -23 -2q-35 -3 -56 -16t-21 -37q0 -27 19.5 -42t54.5 -15q36 0 64 22t38 42v58q-21 -5 -76 -10z" />
    <glyph glyph-name="guillemotleft" unicode="&#xab;" horiz-adv-x="366" 
d="M178 458v-43l-117 -106l117 -107v-43l-148 109v81zM326 458v-43l-117 -106l117 -107v-43l-148 109v81z" />
    <glyph glyph-name="logicalnot" unicode="&#xac;" horiz-adv-x="475" 
d="M430 148h-50v114h-335v40h385v-154z" />
    <glyph glyph-name="uni00AD" unicode="&#xad;" horiz-adv-x="400" 
d="M355 262h-310v40h310v-40z" />
    <glyph glyph-name="registered" unicode="&#xae;" horiz-adv-x="806" 
d="M572.5 661q80.5 -46 129.5 -127.5t49 -183.5t-49 -183.5t-129.5 -127.5t-169.5 -46q-87 0 -167.5 46t-130.5 127.5t-50 183.5t50 183.5t130.5 127.5t167.5 46q89 0 169.5 -46zM261 619.5q-69 -39.5 -112.5 -110.5t-43.5 -159t43.5 -159t112.5 -110.5t142 -39.5
q77 0 146 39.5t110.5 110t41.5 159.5t-41.5 159.5t-110.5 110t-146 39.5q-73 0 -142 -39.5zM510.5 516q41.5 -35 41.5 -88q0 -48 -30 -80t-81 -41l130 -150h-57l-123 148h-72v-148h-50v394h135q65 0 106.5 -35zM319 509v-162h86q97 0 97 81q0 37 -25 59t-72 22h-86z" />
    <glyph glyph-name="macron" unicode="&#xaf;" horiz-adv-x="362" 
d="M362 655h-362v45h362v-45z" />
    <glyph glyph-name="degree" unicode="&#xb0;" horiz-adv-x="382" 
d="M264.5 699.5q33.5 -19.5 53 -53t19.5 -72.5q0 -40 -19.5 -74t-53 -53.5t-73.5 -19.5t-73.5 19.5t-53 53.5t-19.5 74q0 39 19.5 72.5t53 53t73.5 19.5t73.5 -19.5zM117 648.5q-30 -29.5 -30 -74.5t30 -75t74 -30t74 30t30 75t-30 74.5t-74 29.5t-74 -29.5z" />
    <glyph glyph-name="plusminus" unicode="&#xb1;" horiz-adv-x="425" 
d="M380 262h-147v-148h-40v148h-148v40h148v147h40v-147h147v-40zM380 1h-335v40h335v-40z" />
    <glyph glyph-name="uni00B2" unicode="&#xb2;" horiz-adv-x="261" 
d="M188 681.5q25 -22.5 25 -52.5q0 -26 -14.5 -47t-53.5 -61l-47 -49h118v-32h-168v32l68 69q38 40 48.5 54.5t10.5 33.5q0 18 -14 31t-32 13q-19 0 -33 -13t-14 -37v-14h-37v14q0 35 24.5 58t59.5 23q34 0 59 -22.5z" />
    <glyph glyph-name="uni00B3" unicode="&#xb3;" horiz-adv-x="273" 
d="M192 682.5q24 -20.5 24 -47.5q0 -32 -30 -53q19 -8 30.5 -25t11.5 -41q0 -34 -27.5 -57t-64.5 -23q-40 0 -66.5 27t-24.5 64h38q0 -24 14.5 -41.5t38.5 -17.5q22 0 38 13.5t16 34.5q0 27 -19 37.5t-55 10.5v29q32 0 47.5 11.5t15.5 30.5q0 16 -12.5 26.5t-30.5 10.5
q-22 0 -34.5 -14.5t-12.5 -40.5h-37q-1 38 23 62t61 24q32 0 56 -20.5z" />
    <glyph glyph-name="acute" unicode="&#xb4;" horiz-adv-x="149" 
d="M43 622h-43l77 145h72z" />
    <glyph glyph-name="uni00B5" unicode="&#xb5;" horiz-adv-x="568" 
d="M497 520v-520h-50v135q-6 -26 -30.5 -59.5t-66.5 -58t-98 -24.5q-43 0 -79.5 14t-62.5 44v-241h-50v710h50v-310q0 -89 39.5 -130.5t108.5 -41.5q47 0 86 24.5t65.5 64.5t37.5 84v309h50z" />
    <glyph glyph-name="paragraph" unicode="&#xb6;" horiz-adv-x="711" 
d="M527 700v-700h-51v274h-176q-69 0 -122.5 27t-83.5 75.5t-30 110.5t30 110.5t83.5 75.5t122.5 27h227zM641 0h-50v700h50v-700zM476 319v336h-167q-90 0 -142 -45.5t-52 -122.5t52 -122.5t142 -45.5h167z" />
    <glyph glyph-name="periodcentered" unicode="&#xb7;" horiz-adv-x="156" 
d="M109 249h-62v64h62v-64z" />
    <glyph glyph-name="cedilla" unicode="&#xb8;" horiz-adv-x="159" 
d="M134.5 -68.5q24.5 -22.5 24.5 -58.5q0 -38 -30.5 -62t-77.5 -24q-21 0 -38 4l10 24q16 -2 22 -2q32 0 50 18t18 42q0 21 -12.5 35.5t-31.5 14.5q-14 0 -30 -9l-14 22l44 65h53l-45 -47q33 0 57.5 -22.5z" />
    <glyph glyph-name="uni00B9" unicode="&#xb9;" horiz-adv-x="207" 
d="M132 440h-37v221l-17 -11l-18 31l35 20h37v-261z" />
    <glyph glyph-name="ordmasculine" unicode="&#xba;" horiz-adv-x="406" 
d="M272.5 686q34.5 -19 56.5 -55.5t22 -85.5t-22 -86t-56.5 -56t-69.5 -19t-69.5 19t-56.5 56t-22 86t22 85.5t56.5 55.5t69.5 19t69.5 -19zM130.5 633q-31.5 -32 -31.5 -88t31.5 -88.5t72.5 -32.5t72.5 32.5t31.5 88.5t-31.5 88t-72.5 32t-72.5 -32z" />
    <glyph glyph-name="guillemotright" unicode="&#xbb;" horiz-adv-x="366" 
d="M188 268l-148 -109v43l117 107l-117 106v43l148 -109v-81zM336 268l-148 -109v43l117 107l-117 106v43l148 -109v-81z" />
    <glyph glyph-name="onequarter" unicode="&#xbc;" horiz-adv-x="569" 
d="M100 440h-37v221l-17 -11l-18 31l35 20h37v-261zM73 0h-48l436 700h42zM517 107h27v-31h-27v-76h-37v76h-132l132 185h37v-154zM415 107h65v95z" />
    <glyph glyph-name="onehalf" unicode="&#xbd;" horiz-adv-x="544" 
d="M100 440h-37v221l-17 -11l-18 31l35 20h37v-261zM73 0h-48l436 700h42zM491 241.5q25 -22.5 25 -52.5q0 -26 -14.5 -47t-53.5 -61l-47 -49h118v-32h-168v32l68 69q38 40 48.5 54.5t10.5 33.5q0 18 -14 31t-32 13q-19 0 -33 -13t-14 -37v-14h-37v14q0 35 24.5 58t59.5 23
q34 0 59 -22.5z" />
    <glyph glyph-name="threequarters" unicode="&#xbe;" horiz-adv-x="587" 
d="M172 682.5q24 -20.5 24 -47.5q0 -32 -30 -53q19 -8 30.5 -25t11.5 -41q0 -34 -27.5 -57t-64.5 -23q-40 0 -66.5 27t-24.5 64h38q0 -24 14.5 -41.5t38.5 -17.5q22 0 38 13.5t16 34.5q0 27 -19 37.5t-55 10.5v29q32 0 47.5 11.5t15.5 30.5q0 16 -12.5 26.5t-30.5 10.5
q-22 0 -34.5 -14.5t-12.5 -40.5h-37q-1 38 23 62t61 24q32 0 56 -20.5zM101 0h-48l436 700h42zM535 107h27v-31h-27v-76h-37v76h-132l132 185h37v-154zM433 107h65v95z" />
    <glyph glyph-name="questiondown" unicode="&#xbf;" horiz-adv-x="495" 
d="M211 520h62v-64h-62v64zM141.5 -162.5q-47.5 24.5 -74.5 68.5t-27 102q0 47 23.5 81t69.5 76q44 41 65.5 71.5t21.5 73.5v30h51v-30q0 -51 -24.5 -86.5t-72.5 -80.5q-43 -40 -63.5 -68.5t-20.5 -66.5q0 -72 44 -111t114 -39q68 0 112.5 43t44.5 128h50q0 -66 -27 -115
t-74 -75t-106 -26t-106.5 24.5z" />
    <glyph glyph-name="Agrave" unicode="&#xc0;" horiz-adv-x="694" 
d="M514 230h-334l-101 -230h-54l314 700h16l314 -700h-54zM494 275l-147 333l-147 -333h294zM296 947l77 -145h-43l-106 145h72z" />
    <glyph glyph-name="Aacute" unicode="&#xc1;" horiz-adv-x="694" 
d="M514 230h-334l-101 -230h-54l314 700h16l314 -700h-54zM494 275l-147 333l-147 -333h294zM371 802h-43l77 145h72z" />
    <glyph glyph-name="Acircumflex" unicode="&#xc2;" horiz-adv-x="694" 
d="M514 230h-334l-101 -230h-54l314 700h16l314 -700h-54zM494 275l-147 333l-147 -333h294zM498 796h-43l-106 117l-107 -117h-43l109 148h81z" />
    <glyph glyph-name="Atilde" unicode="&#xc3;" horiz-adv-x="694" 
d="M514 230h-334l-101 -230h-54l314 700h16l314 -700h-54zM494 275l-147 333l-147 -333h294zM322 890.5q20 -9.5 45 -28.5q19 -15 31.5 -22t28.5 -7q29 0 44 14.5t15 32.5h30q0 -43 -26 -66t-63 -23q-27 0 -44.5 9t-42.5 29q-19 16 -34.5 24.5t-34.5 8.5q-30 0 -44.5 -17
t-13.5 -36h-29q0 43 28 67t62 24q28 0 48 -9.5z" />
    <glyph glyph-name="Adieresis" unicode="&#xc4;" horiz-adv-x="694" 
d="M514 230h-334l-101 -230h-54l314 700h16l314 -700h-54zM494 275l-147 333l-147 -333h294zM267 880h-62v62h62v-62zM493 880h-62v62h62v-62z" />
    <glyph glyph-name="Aring" unicode="&#xc5;" horiz-adv-x="694" 
d="M514 230h-334l-101 -230h-54l314 700h16l314 -700h-54zM494 275l-147 333l-147 -333h294zM405.5 935.5q23.5 -23.5 23.5 -55.5t-23.5 -55.5t-55.5 -23.5q-34 0 -57.5 23t-23.5 56t23.5 56t57.5 23q32 0 55.5 -23.5zM319.5 909.5q-12.5 -12.5 -12.5 -29.5t12.5 -29.5
t29.5 -12.5t29.5 12.5t12.5 29.5t-12.5 29.5t-29.5 12.5t-29.5 -12.5z" />
    <glyph glyph-name="AE" unicode="&#xc6;" horiz-adv-x="1013" 
d="M923 46v-46h-424v231h-248l-158 -231h-58l464 678v22h414v-46h-362v-279h262v-46h-262v-283h372zM499 276v319l-218 -319h218z" />
    <glyph glyph-name="Ccedilla" unicode="&#xc7;" horiz-adv-x="647" 
d="M518.5 20q-51.5 -22 -107.5 -26l-38 -40q33 0 57.5 -22.5t24.5 -58.5q0 -38 -30.5 -62t-77.5 -24q-21 0 -38 4l10 24q16 -2 22 -2q32 0 50 18t18 42q0 21 -12.5 35.5t-31.5 14.5q-13 0 -30 -9l-14 22l40 58q-83 8 -157 55.5t-119 126t-45 174.5q0 102 50.5 183.5
t131 127.5t168.5 46q62 0 119 -22.5t103 -64.5l-32 -36q-36 36 -85.5 55.5t-104.5 19.5q-73 0 -142 -40t-112 -110.5t-43 -158.5t43 -158.5t112 -110.5t142 -40q55 0 104.5 19.5t85.5 55.5l32 -36q-42 -38 -93.5 -60z" />
    <glyph glyph-name="Egrave" unicode="&#xc8;" horiz-adv-x="524" 
d="M479 46v-46h-424v700h414v-46h-362v-279h262v-46h-262v-283h372zM225 947l77 -145h-43l-106 145h72z" />
    <glyph glyph-name="Eacute" unicode="&#xc9;" horiz-adv-x="524" 
d="M479 46v-46h-424v700h414v-46h-362v-279h262v-46h-262v-283h372zM300 802h-43l77 145h72z" />
    <glyph glyph-name="Ecircumflex" unicode="&#xca;" horiz-adv-x="524" 
d="M479 46v-46h-424v700h414v-46h-362v-279h262v-46h-262v-283h372zM427 796h-43l-106 117l-107 -117h-43l109 148h81z" />
    <glyph glyph-name="Edieresis" unicode="&#xcb;" horiz-adv-x="524" 
d="M479 46v-46h-424v700h414v-46h-362v-279h262v-46h-262v-283h372zM196 880h-62v62h62v-62zM422 880h-62v62h62v-62z" />
    <glyph glyph-name="Igrave" unicode="&#xcc;" horiz-adv-x="201" 
d="M126 0h-51v700h51v-700zM48 947l77 -145h-43l-106 145h72z" />
    <glyph glyph-name="Iacute" unicode="&#xcd;" horiz-adv-x="201" 
d="M126 0h-51v700h51v-700zM123 802h-43l77 145h72z" />
    <glyph glyph-name="Icircumflex" unicode="&#xce;" horiz-adv-x="201" 
d="M126 0h-51v700h51v-700zM250 796h-43l-106 117l-107 -117h-43l109 148h81z" />
    <glyph glyph-name="Idieresis" unicode="&#xcf;" horiz-adv-x="201" 
d="M126 0h-51v700h51v-700zM19 880h-62v62h62v-62zM245 880h-62v62h62v-62z" />
    <glyph glyph-name="Eth" unicode="&#xd0;" horiz-adv-x="742" 
d="M513.5 653.5q79.5 -46.5 124 -127t44.5 -178.5q0 -96 -44.5 -175.5t-124 -126t-179.5 -46.5h-186v330h-73v40h73v330h186q100 0 179.5 -46.5zM491 84.5q68 39.5 104.5 108.5t36.5 155q0 87 -36.5 157t-104 110t-157.5 40h-135v-285h186v-40h-186v-285h135q89 0 157 39.5z
" />
    <glyph glyph-name="Ntilde" unicode="&#xd1;" horiz-adv-x="677" 
d="M607 0h-51l-435 624v-624h-51v700h51l435 -625v625h51v-700zM312 890.5q20 -9.5 45 -28.5q19 -15 31.5 -22t28.5 -7q29 0 44 14.5t15 32.5h30q0 -43 -26 -66t-63 -23q-27 0 -44.5 9t-42.5 29q-19 16 -34.5 24.5t-34.5 8.5q-30 0 -44.5 -17t-13.5 -36h-29q0 43 28 67
t62 24q28 0 48 -9.5z" />
    <glyph glyph-name="Ograve" unicode="&#xd2;" horiz-adv-x="806" 
d="M572.5 661q80.5 -46 129.5 -127.5t49 -183.5t-49 -183.5t-129.5 -127.5t-169.5 -46q-87 0 -167.5 46t-130.5 127.5t-50 183.5t50 183.5t130.5 127.5t167.5 46q89 0 169.5 -46zM262 619.5q-68 -39.5 -111 -110.5t-43 -159t43 -159t111 -110.5t141 -39.5q77 0 145 39.5
t109 110t41 159.5t-41 159.5t-109 110t-145 39.5q-73 0 -141 -39.5zM350 947l77 -145h-43l-106 145h72z" />
    <glyph glyph-name="Oacute" unicode="&#xd3;" horiz-adv-x="806" 
d="M572.5 661q80.5 -46 129.5 -127.5t49 -183.5t-49 -183.5t-129.5 -127.5t-169.5 -46q-87 0 -167.5 46t-130.5 127.5t-50 183.5t50 183.5t130.5 127.5t167.5 46q89 0 169.5 -46zM262 619.5q-68 -39.5 -111 -110.5t-43 -159t43 -159t111 -110.5t141 -39.5q77 0 145 39.5
t109 110t41 159.5t-41 159.5t-109 110t-145 39.5q-73 0 -141 -39.5zM425 802h-43l77 145h72z" />
    <glyph glyph-name="Ocircumflex" unicode="&#xd4;" horiz-adv-x="806" 
d="M572.5 661q80.5 -46 129.5 -127.5t49 -183.5t-49 -183.5t-129.5 -127.5t-169.5 -46q-87 0 -167.5 46t-130.5 127.5t-50 183.5t50 183.5t130.5 127.5t167.5 46q89 0 169.5 -46zM262 619.5q-68 -39.5 -111 -110.5t-43 -159t43 -159t111 -110.5t141 -39.5q77 0 145 39.5
t109 110t41 159.5t-41 159.5t-109 110t-145 39.5q-73 0 -141 -39.5zM552 796h-43l-106 117l-107 -117h-43l109 148h81z" />
    <glyph glyph-name="Otilde" unicode="&#xd5;" horiz-adv-x="806" 
d="M572.5 661q80.5 -46 129.5 -127.5t49 -183.5t-49 -183.5t-129.5 -127.5t-169.5 -46q-87 0 -167.5 46t-130.5 127.5t-50 183.5t50 183.5t130.5 127.5t167.5 46q89 0 169.5 -46zM262 619.5q-68 -39.5 -111 -110.5t-43 -159t43 -159t111 -110.5t141 -39.5q77 0 145 39.5
t109 110t41 159.5t-41 159.5t-109 110t-145 39.5q-73 0 -141 -39.5zM376 890.5q20 -9.5 45 -28.5q19 -15 31.5 -22t28.5 -7q29 0 44 14.5t15 32.5h30q0 -43 -26 -66t-63 -23q-27 0 -44.5 9t-42.5 29q-19 16 -34.5 24.5t-34.5 8.5q-30 0 -44.5 -17t-13.5 -36h-29q0 43 28 67
t62 24q28 0 48 -9.5z" />
    <glyph glyph-name="Odieresis" unicode="&#xd6;" horiz-adv-x="806" 
d="M572.5 661q80.5 -46 129.5 -127.5t49 -183.5t-49 -183.5t-129.5 -127.5t-169.5 -46q-87 0 -167.5 46t-130.5 127.5t-50 183.5t50 183.5t130.5 127.5t167.5 46q89 0 169.5 -46zM262 619.5q-68 -39.5 -111 -110.5t-43 -159t43 -159t111 -110.5t141 -39.5q77 0 145 39.5
t109 110t41 159.5t-41 159.5t-109 110t-145 39.5q-73 0 -141 -39.5zM321 880h-62v62h62v-62zM547 880h-62v62h62v-62z" />
    <glyph glyph-name="multiply" unicode="&#xd7;" horiz-adv-x="355" 
d="M206 282l104 -104l-28 -28l-104 104l-105 -105l-28 28l105 105l-105 105l28 28l105 -105l104 104l28 -28z" />
    <glyph glyph-name="Oslash" unicode="&#xd8;" horiz-adv-x="794" 
d="M699 538.5q52 -83.5 52 -188.5q0 -102 -49 -183.5t-129.5 -127.5t-169.5 -46q-76 0 -146 35l-37 -78h-52l48 101q-73 48 -117 126t-44 173q0 102 50 183.5t130.5 127.5t167.5 46q60 0 117 -21l28 59h52l-38 -78q85 -45 137 -128.5zM143.5 204.5q35.5 -65.5 94.5 -108.5
l261 546q-48 17 -96 17q-73 0 -141 -39.5t-111 -110.5t-43 -159q0 -80 35.5 -145.5zM548 80.5q68 39.5 109 110t41 159.5q0 91 -43 163t-113 110l-264 -551q62 -31 125 -31q77 0 145 39.5z" />
    <glyph glyph-name="Ugrave" unicode="&#xd9;" horiz-adv-x="653" 
d="M588 265q0 -84 -33 -145.5t-92.5 -94t-136.5 -32.5t-136.5 32.5t-92 94t-32.5 145.5v435h50v-434q0 -109 56 -168.5t155 -59.5t155.5 59.5t56.5 168.5v434h50v-435zM274 947l77 -145h-43l-106 145h72z" />
    <glyph glyph-name="Uacute" unicode="&#xda;" horiz-adv-x="653" 
d="M588 265q0 -84 -33 -145.5t-92.5 -94t-136.5 -32.5t-136.5 32.5t-92 94t-32.5 145.5v435h50v-434q0 -109 56 -168.5t155 -59.5t155.5 59.5t56.5 168.5v434h50v-435zM349 802h-43l77 145h72z" />
    <glyph glyph-name="Ucircumflex" unicode="&#xdb;" horiz-adv-x="653" 
d="M588 265q0 -84 -33 -145.5t-92.5 -94t-136.5 -32.5t-136.5 32.5t-92 94t-32.5 145.5v435h50v-434q0 -109 56 -168.5t155 -59.5t155.5 59.5t56.5 168.5v434h50v-435zM476 796h-43l-106 117l-107 -117h-43l109 148h81z" />
    <glyph glyph-name="Udieresis" unicode="&#xdc;" horiz-adv-x="653" 
d="M588 265q0 -84 -33 -145.5t-92.5 -94t-136.5 -32.5t-136.5 32.5t-92 94t-32.5 145.5v435h50v-434q0 -109 56 -168.5t155 -59.5t155.5 59.5t56.5 168.5v434h50v-435zM245 880h-62v62h62v-62zM471 880h-62v62h62v-62z" />
    <glyph glyph-name="Yacute" unicode="&#xdd;" horiz-adv-x="636" 
d="M343 343v-343h-50v343l-258 357h56l227 -316l227 316h56zM340 802h-43l77 145h72z" />
    <glyph glyph-name="Thorn" unicode="&#xde;" horiz-adv-x="622" 
d="M439 538q57 -27 87.5 -75t30.5 -111q0 -101 -67 -157t-185 -56h-180v-139h-50v700h50v-135h180q77 0 134 -27zM456 226.5q51 42.5 51 125.5q0 78 -52.5 123t-147.5 45h-182v-336h182q98 0 149 42.5z" />
    <glyph glyph-name="germandbls" unicode="&#xdf;" horiz-adv-x="602" 
d="M451 654.5q61 -45.5 61 -123.5q0 -117 -109 -147q75 -17 112 -65t37 -116q0 -203 -267 -203h-85v45h87q108 0 161.5 38.5t53.5 119.5q0 75 -55 116t-160 41h-87v45h87q88 0 131.5 29t43.5 97q0 60 -45.5 92t-128.5 32q-85 0 -126.5 -34.5t-41.5 -100.5v-520h-50v520
q0 82 56.5 131t161.5 49q102 0 163 -45.5z" />
    <glyph glyph-name="agrave" unicode="&#xe0;" 
d="M405.5 494q54.5 -32 82.5 -92v118h50v-520h-50v117q-28 -60 -82.5 -92t-117.5 -32q-59 0 -116.5 30.5t-94.5 91t-37 144.5q0 85 37.5 145.5t94.5 91t116 30.5q63 0 117.5 -32zM197.5 456q-46.5 -25 -77 -75t-30.5 -122q0 -71 30.5 -121t77 -75t93.5 -25q48 0 94 24.5
t75.5 74.5t29.5 122q0 73 -29.5 123t-75.5 74.5t-94 24.5q-47 0 -93.5 -25zM258 767l77 -145h-43l-106 145h72z" />
    <glyph glyph-name="aacute" unicode="&#xe1;" 
d="M405.5 494q54.5 -32 82.5 -92v118h50v-520h-50v117q-28 -60 -82.5 -92t-117.5 -32q-59 0 -116.5 30.5t-94.5 91t-37 144.5q0 85 37.5 145.5t94.5 91t116 30.5q63 0 117.5 -32zM197.5 456q-46.5 -25 -77 -75t-30.5 -122q0 -71 30.5 -121t77 -75t93.5 -25q48 0 94 24.5
t75.5 74.5t29.5 122q0 73 -29.5 123t-75.5 74.5t-94 24.5q-47 0 -93.5 -25zM333 622h-43l77 145h72z" />
    <glyph glyph-name="acircumflex" unicode="&#xe2;" 
d="M405.5 494q54.5 -32 82.5 -92v118h50v-520h-50v117q-28 -60 -82.5 -92t-117.5 -32q-59 0 -116.5 30.5t-94.5 91t-37 144.5q0 85 37.5 145.5t94.5 91t116 30.5q63 0 117.5 -32zM197.5 456q-46.5 -25 -77 -75t-30.5 -122q0 -71 30.5 -121t77 -75t93.5 -25q48 0 94 24.5
t75.5 74.5t29.5 122q0 73 -29.5 123t-75.5 74.5t-94 24.5q-47 0 -93.5 -25zM460 616h-43l-106 117l-107 -117h-43l109 148h81z" />
    <glyph glyph-name="atilde" unicode="&#xe3;" 
d="M405.5 494q54.5 -32 82.5 -92v118h50v-520h-50v117q-28 -60 -82.5 -92t-117.5 -32q-59 0 -116.5 30.5t-94.5 91t-37 144.5q0 85 37.5 145.5t94.5 91t116 30.5q63 0 117.5 -32zM197.5 456q-46.5 -25 -77 -75t-30.5 -122q0 -71 30.5 -121t77 -75t93.5 -25q48 0 94 24.5
t75.5 74.5t29.5 122q0 73 -29.5 123t-75.5 74.5t-94 24.5q-47 0 -93.5 -25zM284 710.5q20 -9.5 45 -28.5q19 -15 31.5 -22t28.5 -7q29 0 44 14.5t15 32.5h30q0 -43 -26 -66t-63 -23q-27 0 -44.5 9t-42.5 29q-19 16 -34.5 24.5t-34.5 8.5q-30 0 -44.5 -17t-13.5 -36h-29
q0 43 28 67t62 24q28 0 48 -9.5z" />
    <glyph glyph-name="adieresis" unicode="&#xe4;" 
d="M405.5 494q54.5 -32 82.5 -92v118h50v-520h-50v117q-28 -60 -82.5 -92t-117.5 -32q-59 0 -116.5 30.5t-94.5 91t-37 144.5q0 85 37.5 145.5t94.5 91t116 30.5q63 0 117.5 -32zM197.5 456q-46.5 -25 -77 -75t-30.5 -122q0 -71 30.5 -121t77 -75t93.5 -25q48 0 94 24.5
t75.5 74.5t29.5 122q0 73 -29.5 123t-75.5 74.5t-94 24.5q-47 0 -93.5 -25zM229 700h-62v62h62v-62zM455 700h-62v62h62v-62z" />
    <glyph glyph-name="aring" unicode="&#xe5;" 
d="M405.5 494q54.5 -32 82.5 -92v118h50v-520h-50v117q-28 -60 -82.5 -92t-117.5 -32q-59 0 -116.5 30.5t-94.5 91t-37 144.5q0 85 37.5 145.5t94.5 91t116 30.5q63 0 117.5 -32zM197.5 456q-46.5 -25 -77 -75t-30.5 -122q0 -71 30.5 -121t77 -75t93.5 -25q48 0 94 24.5
t75.5 74.5t29.5 122q0 73 -29.5 123t-75.5 74.5t-94 24.5q-47 0 -93.5 -25zM367.5 755.5q23.5 -23.5 23.5 -55.5t-23.5 -55.5t-55.5 -23.5q-34 0 -57.5 23t-23.5 56t23.5 56t57.5 23q32 0 55.5 -23.5zM281.5 729.5q-12.5 -12.5 -12.5 -29.5t12.5 -29.5t29.5 -12.5t29.5 12.5
t12.5 29.5t-12.5 29.5t-29.5 12.5t-29.5 -12.5z" />
    <glyph glyph-name="ae" unicode="&#xe6;" horiz-adv-x="1040" 
d="M984 239h-445q4 -65 34.5 -110.5t75 -68t89.5 -22.5q47 0 88 17.5t71 52.5l39 -26q-37 -44 -88.5 -66.5t-109.5 -22.5q-55 0 -109.5 26.5t-90.5 76.5v-96h-50v117q-28 -60 -82.5 -92t-117.5 -32q-59 0 -116.5 30.5t-94.5 91t-37 144.5q0 85 37.5 145.5t94.5 91t116 30.5
q63 0 117.5 -32t82.5 -92v118h50v-97q36 50 90.5 76.5t108.5 26.5q60 0 117.5 -30.5t94.5 -91t37 -144.5q0 -9 -2 -21zM379.5 60q43.5 22 74 66t35.5 108q-1 8 -1 26q0 17 1 25q-6 64 -36 108.5t-73.5 66t-88.5 21.5q-47 0 -93.5 -25t-77 -75t-30.5 -122q0 -71 30.5 -121
t77 -75t93.5 -25q45 0 88.5 22zM936 281q-5 65 -35.5 110.5t-74 67.5t-89.5 22q-45 0 -88.5 -22t-74 -67.5t-35.5 -110.5h397z" />
    <glyph glyph-name="ccedilla" unicode="&#xe7;" horiz-adv-x="536" 
d="M385 64q47 26 75 74l46 -16q-29 -54 -79 -86.5t-105 -40.5l-40 -41q33 0 57.5 -22.5t24.5 -58.5q0 -38 -30.5 -62t-77.5 -24q-21 0 -38 4l10 24q16 -2 22 -2q32 0 50 18t18 42q0 21 -12.5 35.5t-31.5 14.5q-13 0 -30 -9l-14 22l39 58q-57 5 -109.5 37.5t-86 90.5
t-33.5 138q0 84 37.5 144.5t95.5 91t117 30.5q62 0 122 -33.5t94 -95.5l-47 -15q-28 48 -74.5 73.5t-94.5 25.5q-47 0 -93.5 -25t-76.5 -75t-30 -121q0 -72 30 -122t76.5 -75t93.5 -25q48 0 95 26z" />
    <glyph glyph-name="egrave" unicode="&#xe8;" horiz-adv-x="578" 
d="M406.5 495.5q57.5 -30.5 94.5 -91t37 -144.5q0 -9 -2 -21h-445q4 -65 34.5 -110.5t75 -68t89.5 -22.5q47 0 88 17.5t71 52.5l39 -26q-37 -44 -88.5 -66.5t-109.5 -22.5q-59 0 -117 30.5t-95.5 91t-37.5 145.5q0 84 37.5 144.5t95 91t116.5 30.5q60 0 117.5 -30.5z
M200.5 459q-43.5 -22 -74 -67.5t-35.5 -110.5h397q-5 65 -35.5 110.5t-74 67.5t-89.5 22q-45 0 -88.5 -22zM230 767l77 -145h-43l-106 145h72z" />
    <glyph glyph-name="eacute" unicode="&#xe9;" horiz-adv-x="578" 
d="M406.5 495.5q57.5 -30.5 94.5 -91t37 -144.5q0 -9 -2 -21h-445q4 -65 34.5 -110.5t75 -68t89.5 -22.5q47 0 88 17.5t71 52.5l39 -26q-37 -44 -88.5 -66.5t-109.5 -22.5q-59 0 -117 30.5t-95.5 91t-37.5 145.5q0 84 37.5 144.5t95 91t116.5 30.5q60 0 117.5 -30.5z
M200.5 459q-43.5 -22 -74 -67.5t-35.5 -110.5h397q-5 65 -35.5 110.5t-74 67.5t-89.5 22q-45 0 -88.5 -22zM305 622h-43l77 145h72z" />
    <glyph glyph-name="ecircumflex" unicode="&#xea;" horiz-adv-x="578" 
d="M406.5 495.5q57.5 -30.5 94.5 -91t37 -144.5q0 -9 -2 -21h-445q4 -65 34.5 -110.5t75 -68t89.5 -22.5q47 0 88 17.5t71 52.5l39 -26q-37 -44 -88.5 -66.5t-109.5 -22.5q-59 0 -117 30.5t-95.5 91t-37.5 145.5q0 84 37.5 144.5t95 91t116.5 30.5q60 0 117.5 -30.5z
M200.5 459q-43.5 -22 -74 -67.5t-35.5 -110.5h397q-5 65 -35.5 110.5t-74 67.5t-89.5 22q-45 0 -88.5 -22zM432 616h-43l-106 117l-107 -117h-43l109 148h81z" />
    <glyph glyph-name="edieresis" unicode="&#xeb;" horiz-adv-x="578" 
d="M406.5 495.5q57.5 -30.5 94.5 -91t37 -144.5q0 -9 -2 -21h-445q4 -65 34.5 -110.5t75 -68t89.5 -22.5q47 0 88 17.5t71 52.5l39 -26q-37 -44 -88.5 -66.5t-109.5 -22.5q-59 0 -117 30.5t-95.5 91t-37.5 145.5q0 84 37.5 144.5t95 91t116.5 30.5q60 0 117.5 -30.5z
M200.5 459q-43.5 -22 -74 -67.5t-35.5 -110.5h397q-5 65 -35.5 110.5t-74 67.5t-89.5 22q-45 0 -88.5 -22zM201 700h-62v62h62v-62zM427 700h-62v62h62v-62z" />
    <glyph glyph-name="igrave" unicode="&#xec;" horiz-adv-x="200" 
d="M125 0h-50v520h50v-520zM47 767l77 -145h-43l-106 145h72z" />
    <glyph glyph-name="iacute" unicode="&#xed;" horiz-adv-x="200" 
d="M125 0h-50v520h50v-520zM122 622h-43l77 145h72z" />
    <glyph glyph-name="icircumflex" unicode="&#xee;" horiz-adv-x="200" 
d="M125 0h-50v520h50v-520zM249 616h-43l-106 117l-107 -117h-43l109 148h81z" />
    <glyph glyph-name="idieresis" unicode="&#xef;" horiz-adv-x="200" 
d="M125 0h-50v520h50v-520zM18 700h-62v62h62v-62zM244 700h-62v62h62v-62z" />
    <glyph glyph-name="eth" unicode="&#xf0;" horiz-adv-x="579" 
d="M471.5 423.5q32.5 -78.5 32.5 -171.5q0 -82 -31 -141.5t-85.5 -90t-123.5 -30.5q-64 0 -116 31t-82.5 90t-30.5 141q0 128 60 198t169 70q49 0 82 -11.5t59 -38.5l-84 111l-104 -15v44l74 10l-60 80h56l56 -72l95 13v-44l-64 -9q65 -86 97.5 -164.5zM400.5 90.5
q53.5 55.5 53.5 161.5q0 114 -48 168t-142 54q-88 0 -133.5 -54t-45.5 -168q0 -71 24.5 -120t65 -73t89.5 -24q83 0 136.5 55.5z" />
    <glyph glyph-name="ntilde" unicode="&#xf1;" horiz-adv-x="563" 
d="M405.5 502q45.5 -23 74 -72.5t28.5 -125.5v-304h-50v305q0 87 -43.5 131t-113.5 44q-47 0 -88.5 -25t-68.5 -64.5t-34 -80.5v-310h-50v520h50v-137q4 25 29.5 58.5t69 58.5t98.5 25q53 0 98.5 -23zM250 710.5q20 -9.5 45 -28.5q19 -15 31.5 -22t28.5 -7q29 0 44 14.5
t15 32.5h30q0 -43 -26 -66t-63 -23q-27 0 -44.5 9t-42.5 29q-19 16 -34.5 24.5t-34.5 8.5q-30 0 -44.5 -17t-13.5 -36h-29q0 43 28 67t62 24q28 0 48 -9.5z" />
    <glyph glyph-name="ograve" unicode="&#xf2;" horiz-adv-x="580" 
d="M407 495.5q58 -30.5 95.5 -91t37.5 -144.5q0 -85 -37.5 -145.5t-95.5 -91t-117 -30.5t-117 30.5t-95.5 91t-37.5 145.5q0 84 37.5 144.5t95.5 91t117 30.5t117 -30.5zM196.5 456q-46.5 -25 -76.5 -75t-30 -121q0 -72 30 -122t76.5 -75t93.5 -25t93.5 25t76.5 75t30 122
q0 71 -30 121t-76.5 75t-93.5 25t-93.5 -25zM237 767l77 -145h-43l-106 145h72z" />
    <glyph glyph-name="oacute" unicode="&#xf3;" horiz-adv-x="580" 
d="M407 495.5q58 -30.5 95.5 -91t37.5 -144.5q0 -85 -37.5 -145.5t-95.5 -91t-117 -30.5t-117 30.5t-95.5 91t-37.5 145.5q0 84 37.5 144.5t95.5 91t117 30.5t117 -30.5zM196.5 456q-46.5 -25 -76.5 -75t-30 -121q0 -72 30 -122t76.5 -75t93.5 -25t93.5 25t76.5 75t30 122
q0 71 -30 121t-76.5 75t-93.5 25t-93.5 -25zM312 622h-43l77 145h72z" />
    <glyph glyph-name="ocircumflex" unicode="&#xf4;" horiz-adv-x="580" 
d="M407 495.5q58 -30.5 95.5 -91t37.5 -144.5q0 -85 -37.5 -145.5t-95.5 -91t-117 -30.5t-117 30.5t-95.5 91t-37.5 145.5q0 84 37.5 144.5t95.5 91t117 30.5t117 -30.5zM196.5 456q-46.5 -25 -76.5 -75t-30 -121q0 -72 30 -122t76.5 -75t93.5 -25t93.5 25t76.5 75t30 122
q0 71 -30 121t-76.5 75t-93.5 25t-93.5 -25zM439 616h-43l-106 117l-107 -117h-43l109 148h81z" />
    <glyph glyph-name="otilde" unicode="&#xf5;" horiz-adv-x="580" 
d="M407 495.5q58 -30.5 95.5 -91t37.5 -144.5q0 -85 -37.5 -145.5t-95.5 -91t-117 -30.5t-117 30.5t-95.5 91t-37.5 145.5q0 84 37.5 144.5t95.5 91t117 30.5t117 -30.5zM196.5 456q-46.5 -25 -76.5 -75t-30 -121q0 -72 30 -122t76.5 -75t93.5 -25t93.5 25t76.5 75t30 122
q0 71 -30 121t-76.5 75t-93.5 25t-93.5 -25zM263 710.5q20 -9.5 45 -28.5q19 -15 31.5 -22t28.5 -7q29 0 44 14.5t15 32.5h30q0 -43 -26 -66t-63 -23q-27 0 -44.5 9t-42.5 29q-19 16 -34.5 24.5t-34.5 8.5q-30 0 -44.5 -17t-13.5 -36h-29q0 43 28 67t62 24q28 0 48 -9.5z
" />
    <glyph glyph-name="odieresis" unicode="&#xf6;" horiz-adv-x="580" 
d="M407 495.5q58 -30.5 95.5 -91t37.5 -144.5q0 -85 -37.5 -145.5t-95.5 -91t-117 -30.5t-117 30.5t-95.5 91t-37.5 145.5q0 84 37.5 144.5t95.5 91t117 30.5t117 -30.5zM196.5 456q-46.5 -25 -76.5 -75t-30 -121q0 -72 30 -122t76.5 -75t93.5 -25t93.5 25t76.5 75t30 122
q0 71 -30 121t-76.5 75t-93.5 25t-93.5 -25zM208 700h-62v62h62v-62zM434 700h-62v62h62v-62z" />
    <glyph glyph-name="divide" unicode="&#xf7;" horiz-adv-x="425" 
d="M243 392h-62v64h62v-64zM380 262h-335v40h335v-40zM243 106h-62v64h62v-64z" />
    <glyph glyph-name="oslash" unicode="&#xf8;" horiz-adv-x="582" 
d="M506 398.5q34 -58.5 34 -138.5q0 -85 -37.5 -145.5t-95.5 -91t-117 -30.5q-50 0 -101 23l-32 -66h-52l43 89q-49 35 -78.5 91t-29.5 130q0 84 37.5 144.5t95.5 91t117 30.5q43 0 84 -16l32 68h52l-42 -88q56 -33 90 -91.5zM111 156q21 -45 57 -74l186 388q-33 11 -64 11
q-47 0 -93.5 -25t-76.5 -75t-30 -121q0 -59 21 -104zM383.5 63q46.5 25 76.5 75t30 122q0 65 -25.5 113t-68.5 76l-188 -392q39 -19 82 -19q47 0 93.5 25z" />
    <glyph glyph-name="ugrave" unicode="&#xf9;" horiz-adv-x="552" 
d="M497 520v-520h-50v135q-6 -26 -30.5 -59.5t-66.5 -58t-98 -24.5q-83 0 -137.5 53.5t-54.5 164.5v309h50v-310q0 -89 39.5 -130.5t108.5 -41.5q47 0 86 24.5t65.5 64.5t37.5 84v309h50zM227 767l77 -145h-43l-106 145h72z" />
    <glyph glyph-name="uacute" unicode="&#xfa;" horiz-adv-x="552" 
d="M497 520v-520h-50v135q-6 -26 -30.5 -59.5t-66.5 -58t-98 -24.5q-83 0 -137.5 53.5t-54.5 164.5v309h50v-310q0 -89 39.5 -130.5t108.5 -41.5q47 0 86 24.5t65.5 64.5t37.5 84v309h50zM302 622h-43l77 145h72z" />
    <glyph glyph-name="ucircumflex" unicode="&#xfb;" horiz-adv-x="552" 
d="M497 520v-520h-50v135q-6 -26 -30.5 -59.5t-66.5 -58t-98 -24.5q-83 0 -137.5 53.5t-54.5 164.5v309h50v-310q0 -89 39.5 -130.5t108.5 -41.5q47 0 86 24.5t65.5 64.5t37.5 84v309h50zM429 616h-43l-106 117l-107 -117h-43l109 148h81z" />
    <glyph glyph-name="udieresis" unicode="&#xfc;" horiz-adv-x="552" 
d="M497 520v-520h-50v135q-6 -26 -30.5 -59.5t-66.5 -58t-98 -24.5q-83 0 -137.5 53.5t-54.5 164.5v309h50v-310q0 -89 39.5 -130.5t108.5 -41.5q47 0 86 24.5t65.5 64.5t37.5 84v309h50zM198 700h-62v62h62v-62zM424 700h-62v62h62v-62z" />
    <glyph glyph-name="yacute" unicode="&#xfd;" horiz-adv-x="534" 
d="M504 520l-288 -710h-50l83 206l-219 504h51l192 -444l180 444h51zM297 622h-43l77 145h72z" />
    <glyph glyph-name="thorn" unicode="&#xfe;" horiz-adv-x="581" 
d="M421 495.5q57 -30.5 94.5 -91t37.5 -145.5q0 -84 -37 -144.5t-94.5 -91t-116.5 -30.5h-1h-1q-62 0 -115.5 31t-82.5 89v-303h-50v190h-2v700h51v-180h1v-114q29 58 82.5 89t115.5 31h1h1q59 0 116 -30.5zM132.5 137.5q29.5 -49.5 75 -74t93.5 -25.5q47 1 93.5 26
t76.5 74.5t30 120.5t-30 121t-76.5 75t-93.5 26q-48 -1 -93.5 -25.5t-75 -74.5t-29.5 -122t29.5 -121.5z" />
    <glyph glyph-name="ydieresis" unicode="&#xff;" horiz-adv-x="534" 
d="M504 520l-288 -710h-50l83 206l-219 504h51l192 -444l180 444h51zM193 700h-62v62h62v-62zM419 700h-62v62h62v-62z" />
    <glyph glyph-name="Amacron" unicode="&#x100;" horiz-adv-x="694" 
d="M514 230h-334l-101 -230h-54l314 700h16l314 -700h-54zM494 275l-147 333l-147 -333h294zM530 835h-362v45h362v-45z" />
    <glyph glyph-name="amacron" unicode="&#x101;" 
d="M405.5 494q54.5 -32 82.5 -92v118h50v-520h-50v117q-28 -60 -82.5 -92t-117.5 -32q-59 0 -116.5 30.5t-94.5 91t-37 144.5q0 85 37.5 145.5t94.5 91t116 30.5q63 0 117.5 -32zM197.5 456q-46.5 -25 -77 -75t-30.5 -122q0 -71 30.5 -121t77 -75t93.5 -25q48 0 94 24.5
t75.5 74.5t29.5 122q0 73 -29.5 123t-75.5 74.5t-94 24.5q-47 0 -93.5 -25zM492 655h-362v45h362v-45z" />
    <glyph glyph-name="Abreve" unicode="&#x102;" horiz-adv-x="694" 
d="M514 230h-334l-101 -230h-54l314 700h16l314 -700h-54zM494 275l-147 333l-147 -333h294zM473.5 879q-18.5 -33 -51 -53.5t-74.5 -20.5t-74.5 20.5t-50.5 53.5t-19 68h38q6 -41 33.5 -68t73.5 -27t73 27t33 68h38q-1 -35 -19.5 -68z" />
    <glyph glyph-name="abreve" unicode="&#x103;" 
d="M405.5 494q54.5 -32 82.5 -92v118h50v-520h-50v117q-28 -60 -82.5 -92t-117.5 -32q-59 0 -116.5 30.5t-94.5 91t-37 144.5q0 85 37.5 145.5t94.5 91t116 30.5q63 0 117.5 -32zM197.5 456q-46.5 -25 -77 -75t-30.5 -122q0 -71 30.5 -121t77 -75t93.5 -25q48 0 94 24.5
t75.5 74.5t29.5 122q0 73 -29.5 123t-75.5 74.5t-94 24.5q-47 0 -93.5 -25zM435.5 699q-18.5 -33 -51 -53.5t-74.5 -20.5t-74.5 20.5t-50.5 53.5t-19 68h38q6 -41 33.5 -68t73.5 -27t73 27t33 68h38q-1 -35 -19.5 -68z" />
    <glyph glyph-name="Aogonek" unicode="&#x104;" horiz-adv-x="698" 
d="M556.5 -58q-28.5 -27 -28.5 -64q0 -26 17.5 -41t43.5 -15q12 0 24 3l12 -23q-19 -9 -47 -9q-39 0 -67.5 21t-28.5 63q0 41 35 73.5t92 49.5h6l-101 230h-334l-101 -230h-54l314 700h16l314 -700h-7q-77 -31 -105.5 -58zM494 275l-147 333l-147 -333h294z" />
    <glyph glyph-name="aogonek" unicode="&#x105;" horiz-adv-x="613" 
d="M429.5 -163q17.5 -15 43.5 -15q12 0 24 3l12 -23q-20 -9 -47 -9q-39 0 -67.5 21t-28.5 63q0 41 35 73.5t92 49.5h-5v117q-28 -60 -82.5 -92t-117.5 -32q-59 0 -116.5 30.5t-94.5 91t-37 144.5q0 85 37.5 145.5t94.5 91t116 30.5q63 0 117.5 -32t82.5 -92v118h50v-520h5
q-75 -31 -103 -58.5t-28 -63.5q0 -26 17.5 -41zM385 62.5q46 24.5 75.5 74.5t29.5 122q0 73 -29.5 123t-75.5 74.5t-94 24.5q-47 0 -93.5 -25t-77 -75t-30.5 -122q0 -71 30.5 -121t77 -75t93.5 -25q48 0 94 24.5z" />
    <glyph glyph-name="Cacute" unicode="&#x106;" horiz-adv-x="647" 
d="M509 684.5q57 -22.5 103 -64.5l-32 -36q-36 36 -85.5 55.5t-104.5 19.5q-73 0 -142 -40t-112 -110.5t-43 -158.5t43 -158.5t112 -110.5t142 -40q55 0 104.5 19.5t85.5 55.5l32 -36q-46 -42 -103 -64.5t-119 -22.5q-88 0 -168.5 46t-131 127.5t-50.5 183.5t50.5 183.5
t131 127.5t168.5 46q62 0 119 -22.5zM379 802h-43l77 145h72z" />
    <glyph glyph-name="cacute" unicode="&#x107;" horiz-adv-x="536" 
d="M412 492.5q60 -33.5 94 -95.5l-47 -15q-28 48 -74.5 73.5t-94.5 25.5q-47 0 -93.5 -25t-76.5 -75t-30 -121q0 -72 30 -122t76.5 -75t93.5 -25q48 0 95 26t75 74l46 -16q-34 -62 -94 -95.5t-122 -33.5q-59 0 -117 30.5t-95.5 91t-37.5 145.5q0 84 37.5 144.5t95.5 91
t117 30.5q62 0 122 -33.5zM295 622h-43l77 145h72z" />
    <glyph glyph-name="Cdotaccent" unicode="&#x10a;" horiz-adv-x="647" 
d="M509 684.5q57 -22.5 103 -64.5l-32 -36q-36 36 -85.5 55.5t-104.5 19.5q-73 0 -142 -40t-112 -110.5t-43 -158.5t43 -158.5t112 -110.5t142 -40q55 0 104.5 19.5t85.5 55.5l32 -36q-46 -42 -103 -64.5t-119 -22.5q-88 0 -168.5 46t-131 127.5t-50.5 183.5t50.5 183.5
t131 127.5t168.5 46q62 0 119 -22.5zM382 880h-51v52h51v-52z" />
    <glyph glyph-name="cdotaccent" unicode="&#x10b;" horiz-adv-x="536" 
d="M412 492.5q60 -33.5 94 -95.5l-47 -15q-28 48 -74.5 73.5t-94.5 25.5q-47 0 -93.5 -25t-76.5 -75t-30 -121q0 -72 30 -122t76.5 -75t93.5 -25q48 0 95 26t75 74l46 -16q-34 -62 -94 -95.5t-122 -33.5q-59 0 -117 30.5t-95.5 91t-37.5 145.5q0 84 37.5 144.5t95.5 91
t117 30.5q62 0 122 -33.5zM298 700h-51v52h51v-52z" />
    <glyph glyph-name="Ccaron" unicode="&#x10c;" horiz-adv-x="647" 
d="M509 684.5q57 -22.5 103 -64.5l-32 -36q-36 36 -85.5 55.5t-104.5 19.5q-73 0 -142 -40t-112 -110.5t-43 -158.5t43 -158.5t112 -110.5t142 -40q55 0 104.5 19.5t85.5 55.5l32 -36q-46 -42 -103 -64.5t-119 -22.5q-88 0 -168.5 46t-131 127.5t-50.5 183.5t50.5 183.5
t131 127.5t168.5 46q62 0 119 -22.5zM316 803l-109 148h43l107 -117l106 117h43l-109 -148h-81z" />
    <glyph glyph-name="ccaron" unicode="&#x10d;" horiz-adv-x="536" 
d="M412 492.5q60 -33.5 94 -95.5l-47 -15q-28 48 -74.5 73.5t-94.5 25.5q-47 0 -93.5 -25t-76.5 -75t-30 -121q0 -72 30 -122t76.5 -75t93.5 -25q48 0 95 26t75 74l46 -16q-34 -62 -94 -95.5t-122 -33.5q-59 0 -117 30.5t-95.5 91t-37.5 145.5q0 84 37.5 144.5t95.5 91
t117 30.5q62 0 122 -33.5zM232 623l-109 148h43l107 -117l106 117h43l-109 -148h-81z" />
    <glyph glyph-name="Dcaron" unicode="&#x10e;" horiz-adv-x="659" 
d="M440.5 653.5q79.5 -46.5 124 -127t44.5 -178.5q0 -96 -44.5 -175.5t-124 -126t-179.5 -46.5h-186v700h186q100 0 179.5 -46.5zM418 84.5q68 39.5 104.5 108.5t36.5 155q0 87 -36.5 157t-104 110t-157.5 40h-135v-610h135q89 0 157 39.5zM294 803l-109 148h43l107 -117
l106 117h43l-109 -148h-81z" />
    <glyph glyph-name="dcaron" unicode="&#x10f;" horiz-adv-x="774" 
d="M543 700v-700h-50v117q-28 -60 -82.5 -92t-117.5 -32q-59 0 -116.5 30.5t-94.5 91t-37 144.5q0 85 37.5 145.5t94.5 91t116 30.5q62 0 116.5 -31.5t82.5 -90.5v296h51zM390 62.5q46 24.5 75.5 74.5t29.5 122q0 73 -29.5 123t-75.5 74.5t-94 24.5q-47 0 -93.5 -25t-77 -75
t-30.5 -122q0 -71 30.5 -121t77 -75t93.5 -25q48 0 94 24.5zM598 555h-43l77 145h72z" />
    <glyph glyph-name="Dcroat" unicode="&#x110;" horiz-adv-x="742" 
d="M513.5 653.5q79.5 -46.5 124 -127t44.5 -178.5q0 -96 -44.5 -175.5t-124 -126t-179.5 -46.5h-186v330h-73v40h73v330h186q100 0 179.5 -46.5zM491 84.5q68 39.5 104.5 108.5t36.5 155q0 87 -36.5 157t-104 110t-157.5 40h-135v-285h186v-40h-186v-285h135q89 0 157 39.5z
" />
    <glyph glyph-name="dcroat" unicode="&#x111;" horiz-adv-x="660" 
d="M595 591h-52v-591h-50v117q-28 -60 -82.5 -92t-117.5 -32q-59 0 -116.5 30.5t-94.5 91t-37 144.5q0 85 37.5 145.5t94.5 91t116 30.5q62 0 116.5 -31.5t82.5 -90.5v187h-259v45h259v64h51v-64h52v-45zM390 62.5q46 24.5 75.5 74.5t29.5 122q0 73 -29.5 123t-75.5 74.5
t-94 24.5q-47 0 -93.5 -25t-77 -75t-30.5 -122q0 -71 30.5 -121t77 -75t93.5 -25q48 0 94 24.5z" />
    <glyph glyph-name="Emacron" unicode="&#x112;" horiz-adv-x="524" 
d="M479 46v-46h-424v700h414v-46h-362v-279h262v-46h-262v-283h372zM459 835h-362v45h362v-45z" />
    <glyph glyph-name="emacron" unicode="&#x113;" horiz-adv-x="578" 
d="M406.5 495.5q57.5 -30.5 94.5 -91t37 -144.5q0 -9 -2 -21h-445q4 -65 34.5 -110.5t75 -68t89.5 -22.5q47 0 88 17.5t71 52.5l39 -26q-37 -44 -88.5 -66.5t-109.5 -22.5q-59 0 -117 30.5t-95.5 91t-37.5 145.5q0 84 37.5 144.5t95 91t116.5 30.5q60 0 117.5 -30.5z
M200.5 459q-43.5 -22 -74 -67.5t-35.5 -110.5h397q-5 65 -35.5 110.5t-74 67.5t-89.5 22q-45 0 -88.5 -22zM464 655h-362v45h362v-45z" />
    <glyph glyph-name="Edotaccent" unicode="&#x116;" horiz-adv-x="524" 
d="M479 46v-46h-424v700h414v-46h-362v-279h262v-46h-262v-283h372zM303 880h-51v52h51v-52z" />
    <glyph glyph-name="edotaccent" unicode="&#x117;" horiz-adv-x="578" 
d="M406.5 495.5q57.5 -30.5 94.5 -91t37 -144.5q0 -9 -2 -21h-445q4 -65 34.5 -110.5t75 -68t89.5 -22.5q47 0 88 17.5t71 52.5l39 -26q-37 -44 -88.5 -66.5t-109.5 -22.5q-59 0 -117 30.5t-95.5 91t-37.5 145.5q0 84 37.5 144.5t95 91t116.5 30.5q60 0 117.5 -30.5z
M200.5 459q-43.5 -22 -74 -67.5t-35.5 -110.5h397q-5 65 -35.5 110.5t-74 67.5t-89.5 22q-45 0 -88.5 -22zM308 700h-51v52h51v-52z" />
    <glyph glyph-name="Eogonek" unicode="&#x118;" horiz-adv-x="524" 
d="M479 46v-46h-424v700h414v-46h-362v-279h262v-46h-262v-283h372zM392.5 -58.5q-27.5 -27.5 -27.5 -63.5q0 -26 17.5 -41t43.5 -15q12 0 24 3l12 -23q-19 -9 -47 -9q-39 0 -67.5 21t-28.5 63q0 41 35 73.5t92 49.5h48q-74 -31 -101.5 -58.5z" />
    <glyph glyph-name="eogonek" unicode="&#x119;" horiz-adv-x="588" 
d="M536 239h-445q4 -65 34.5 -110.5t75 -68t89.5 -22.5q47 0 88 17.5t71 52.5l39 -26q-17 -20 -44 -41h5q-74 -51 -97 -86.5t-23 -71.5q0 -28 16.5 -43.5t42.5 -15.5q12 0 24 3l12 -25q-19 -9 -46 -9q-40 0 -69 22t-29 67q0 64 67 117q-28 -6 -57 -6q-59 0 -117 30.5
t-95.5 91t-37.5 145.5q0 84 37.5 144.5t95 91t116.5 30.5q60 0 117.5 -30.5t94.5 -91t37 -144.5q0 -9 -2 -21zM488 281q-5 65 -35.5 110.5t-74 67.5t-89.5 22q-45 0 -88.5 -22t-74 -67.5t-35.5 -110.5h397z" />
    <glyph glyph-name="Ecaron" unicode="&#x11a;" horiz-adv-x="524" 
d="M479 46v-46h-424v700h414v-46h-362v-279h262v-46h-262v-283h372zM237 803l-109 148h43l107 -117l106 117h43l-109 -148h-81z" />
    <glyph glyph-name="ecaron" unicode="&#x11b;" horiz-adv-x="578" 
d="M406.5 495.5q57.5 -30.5 94.5 -91t37 -144.5q0 -9 -2 -21h-445q4 -65 34.5 -110.5t75 -68t89.5 -22.5q47 0 88 17.5t71 52.5l39 -26q-37 -44 -88.5 -66.5t-109.5 -22.5q-59 0 -117 30.5t-95.5 91t-37.5 145.5q0 84 37.5 144.5t95 91t116.5 30.5q60 0 117.5 -30.5z
M200.5 459q-43.5 -22 -74 -67.5t-35.5 -110.5h397q-5 65 -35.5 110.5t-74 67.5t-89.5 22q-45 0 -88.5 -22zM242 623l-109 148h43l107 -117l106 117h43l-109 -148h-81z" />
    <glyph glyph-name="Gbreve" unicode="&#x11e;" horiz-adv-x="738" 
d="M666 159q-39 -79 -111 -122.5t-166 -43.5q-88 0 -168.5 46t-130.5 127.5t-50 183.5t49 183.5t129.5 127.5t170.5 46q78 0 143 -30t105 -75l-32 -33q-33 39 -89.5 64.5t-126.5 25.5q-76 0 -144.5 -39.5t-110.5 -110t-42 -159.5t42.5 -159.5t111.5 -110t143 -39.5
q75 0 132.5 31t92 89t40.5 136h-209v45h258q2 -104 -37 -183zM513.5 879q-18.5 -33 -51 -53.5t-74.5 -20.5t-74.5 20.5t-50.5 53.5t-19 68h38q6 -41 33.5 -68t73.5 -27t73 27t33 68h38q-1 -35 -19.5 -68z" />
    <glyph glyph-name="gbreve" unicode="&#x11f;" 
d="M538 520v-520q0 -73 -34 -119t-84 -66t-101 -20q-59 0 -98.5 13.5t-58.5 31.5v46q19 -18 59 -32t98 -14q71 0 120 40.5t49 119.5v117q-28 -60 -82.5 -92t-117.5 -32q-59 0 -116.5 30.5t-94.5 91t-37 144.5q0 85 37.5 145.5t94.5 91t116 30.5q63 0 117.5 -32t82.5 -92v118
h50zM385 62.5q46 24.5 75.5 74.5t29.5 122q0 73 -29.5 123t-75.5 74.5t-94 24.5q-47 0 -93.5 -25t-77 -75t-30.5 -122q0 -71 30.5 -121t77 -75t93.5 -25q48 0 94 24.5zM433.5 699q-18.5 -33 -51 -53.5t-74.5 -20.5t-74.5 20.5t-50.5 53.5t-19 68h38q6 -41 33.5 -68t73.5 -27
t73 27t33 68h38q-1 -35 -19.5 -68z" />
    <glyph glyph-name="Gdotaccent" unicode="&#x120;" horiz-adv-x="738" 
d="M666 159q-39 -79 -111 -122.5t-166 -43.5q-88 0 -168.5 46t-130.5 127.5t-50 183.5t49 183.5t129.5 127.5t170.5 46q78 0 143 -30t105 -75l-32 -33q-33 39 -89.5 64.5t-126.5 25.5q-76 0 -144.5 -39.5t-110.5 -110t-42 -159.5t42.5 -159.5t111.5 -110t143 -39.5
q75 0 132.5 31t92 89t40.5 136h-209v45h258q2 -104 -37 -183zM414 880h-51v52h51v-52z" />
    <glyph glyph-name="gdotaccent" unicode="&#x121;" 
d="M538 520v-520q0 -73 -34 -119t-84 -66t-101 -20q-59 0 -98.5 13.5t-58.5 31.5v46q19 -18 59 -32t98 -14q71 0 120 40.5t49 119.5v117q-28 -60 -82.5 -92t-117.5 -32q-59 0 -116.5 30.5t-94.5 91t-37 144.5q0 85 37.5 145.5t94.5 91t116 30.5q63 0 117.5 -32t82.5 -92v118
h50zM385 62.5q46 24.5 75.5 74.5t29.5 122q0 73 -29.5 123t-75.5 74.5t-94 24.5q-47 0 -93.5 -25t-77 -75t-30.5 -122q0 -71 30.5 -121t77 -75t93.5 -25q48 0 94 24.5zM334 700h-51v52h51v-52z" />
    <glyph glyph-name="Gcommaaccent" unicode="&#x122;" horiz-adv-x="738" 
d="M666 159q-39 -79 -111 -122.5t-166 -43.5q-88 0 -168.5 46t-130.5 127.5t-50 183.5t49 183.5t129.5 127.5t170.5 46q78 0 143 -30t105 -75l-32 -33q-33 39 -89.5 64.5t-126.5 25.5q-76 0 -144.5 -39.5t-110.5 -110t-42 -159.5t42.5 -159.5t111.5 -110t143 -39.5
q75 0 132.5 31t92 89t40.5 136h-209v45h258q2 -104 -37 -183zM322 -60h69l-97 -155h-42z" />
    <glyph glyph-name="gcommaaccent" unicode="&#x123;" horiz-adv-x="561" 
d="M327 578h-69l97 155h42zM538 520v-520q0 -73 -34 -119t-84 -66t-101 -20q-59 0 -98.5 13.5t-58.5 31.5v46q19 -18 59 -32t98 -14q71 0 120 40.5t49 119.5v117q-28 -60 -82.5 -92t-117.5 -32q-59 0 -116.5 30.5t-94.5 91t-37 144.5q0 85 37.5 145.5t94.5 91t116 30.5
q63 0 117.5 -32t82.5 -92v118h50zM385 62.5q46 24.5 75.5 74.5t29.5 122q0 73 -29.5 123t-75.5 74.5t-94 24.5q-47 0 -93.5 -25t-77 -75t-30.5 -122q0 -71 30.5 -121t77 -75t93.5 -25q48 0 94 24.5z" />
    <glyph glyph-name="Hbar" unicode="&#x126;" horiz-adv-x="658" 
d="M572 700v-700h-51v319h-400v-319h-51v700h51v-180h400v180h51zM521 364v116h-400v-116h400z" />
    <glyph glyph-name="hbar" unicode="&#x127;" horiz-adv-x="624" 
d="M451.5 502q45.5 -23 74 -72.5t28.5 -125.5v-304h-50v305q0 87 -43.5 131t-113.5 44q-47 0 -88.5 -25t-68.5 -64.5t-34 -80.5v-310h-50v574h-61v40h61v86h50v-86h109v-40h-109v-191q4 25 29.5 58.5t69 58.5t98.5 25q53 0 98.5 -23z" />
    <glyph glyph-name="Imacron" unicode="&#x12a;" horiz-adv-x="201" 
d="M126 0h-51v700h51v-700zM282 835h-362v45h362v-45z" />
    <glyph glyph-name="imacron" unicode="&#x12b;" horiz-adv-x="200" 
d="M125 0h-50v520h50v-520zM281 655h-362v45h362v-45z" />
    <glyph glyph-name="Iogonek" unicode="&#x12e;" horiz-adv-x="198" 
d="M19 -58q-28 -27 -28 -64q0 -26 17.5 -41t43.5 -15q12 0 24 3l12 -23q-20 -9 -47 -9q-39 0 -67.5 21t-28.5 63q0 41 35 73.5t92 49.5v700h51v-700q-76 -31 -104 -58z" />
    <glyph glyph-name="iogonek" unicode="&#x12f;" horiz-adv-x="200" 
d="M125 0h-50v520h50v-520zM125 700h-51v52h51v-52zM18.5 -58.5q-27.5 -27.5 -27.5 -63.5q0 -26 17.5 -41t43.5 -15q12 0 24 3l12 -23q-19 -9 -47 -9q-39 0 -67.5 21t-28.5 63q0 41 35 73.5t92 49.5h48q-74 -31 -101.5 -58.5z" />
    <glyph glyph-name="Idotaccent" unicode="&#x130;" horiz-adv-x="201" 
d="M126 0h-51v700h51v-700zM126 880h-51v52h51v-52z" />
    <glyph glyph-name="dotlessi" unicode="&#x131;" horiz-adv-x="200" 
d="M125 0h-50v520h50v-520z" />
    <glyph glyph-name="IJ" unicode="&#x132;" horiz-adv-x="719" 
d="M126 0h-51v700h51v-700zM654 253q0 -133 -60.5 -196.5t-156.5 -63.5q-120 0 -191 83l34 35q28 -35 65.5 -54t91.5 -19q75 0 121 52t46 164v446h50v-447z" />
    <glyph glyph-name="ij" unicode="&#x133;" horiz-adv-x="410" 
d="M121 650h-51v50h51v-50zM121 0h-51v520h51v-520zM340 650h-50v50h50v-50zM340 -65q0 -75 -29 -107.5t-82 -32.5q-23 0 -47 7.5t-41 18.5v46q46 -27 88 -27q30 0 45.5 24.5t15.5 70.5v585h50v-585z" />
    <glyph glyph-name="Kcommaaccent" unicode="&#x136;" horiz-adv-x="599" 
d="M253 334l316 -334h-62l-283 298l-102 -120v-178h-52v700h52v-447l369 447h62zM247 -60h69l-97 -155h-42z" />
    <glyph glyph-name="kcommaaccent" unicode="&#x137;" horiz-adv-x="558" 
d="M207 243l-87 -90v-153h-50v700h50v-483l86 90v1l203 212h65l-235 -244l284 -276h-64zM219 -60h69l-97 -155h-42z" />
    <glyph glyph-name="Lacute" unicode="&#x139;" horiz-adv-x="588" 
d="M503 45v-45h-428v700h51v-655h377zM126 800h-43l77 145h72z" />
    <glyph glyph-name="lacute" unicode="&#x13a;" horiz-adv-x="191" 
d="M121 0h-51v700h51v-700zM117 802h-43l77 145h72z" />
    <glyph glyph-name="Lcommaaccent" unicode="&#x13b;" horiz-adv-x="558" 
d="M503 45v-45h-428v700h51v-655h377zM242 -60h69l-97 -155h-42z" />
    <glyph glyph-name="lcommaaccent" unicode="&#x13c;" horiz-adv-x="191" 
d="M121 0h-51v700h51v-700zM40 -60h69l-97 -155h-42z" />
    <glyph glyph-name="Lcaron" unicode="&#x13d;" horiz-adv-x="588" 
d="M503 45v-45h-428v700h51v-655h377zM334 700h69l-97 -155h-42z" />
    <glyph glyph-name="lcaron" unicode="&#x13e;" horiz-adv-x="340" 
d="M121 0h-51v700h51v-700zM261 700h69l-97 -155h-42z" />
    <glyph glyph-name="Ldot" unicode="&#x13f;" horiz-adv-x="558" 
d="M503 45v-45h-428v700h51v-655h377zM335 336h-62v64h62v-64z" />
    <glyph glyph-name="ldot" unicode="&#x140;" horiz-adv-x="323" 
d="M121 0h-51v700h51v-700zM253 334h-62v64h62v-64z" />
    <glyph glyph-name="Lslash" unicode="&#x141;" horiz-adv-x="644" 
d="M559 45v-45h-428v260l-76 -80v66l76 80v374h51v-320l133 140h1v-65l-134 -141v-269h377z" />
    <glyph glyph-name="lslash" unicode="&#x142;" horiz-adv-x="361" 
d="M311 455l-104 -110v-345h-51v292l-106 -112v66l106 112v342h51v-289l103 109h1v-65z" />
    <glyph glyph-name="Nacute" unicode="&#x143;" horiz-adv-x="677" 
d="M607 0h-51l-435 624v-624h-51v700h51l435 -625v625h51v-700zM361 802h-43l77 145h72z" />
    <glyph glyph-name="nacute" unicode="&#x144;" horiz-adv-x="563" 
d="M405.5 502q45.5 -23 74 -72.5t28.5 -125.5v-304h-50v305q0 87 -43.5 131t-113.5 44q-47 0 -88.5 -25t-68.5 -64.5t-34 -80.5v-310h-50v520h50v-137q4 25 29.5 58.5t69 58.5t98.5 25q53 0 98.5 -23zM299 622h-43l77 145h72z" />
    <glyph glyph-name="Ncommaaccent" unicode="&#x145;" horiz-adv-x="677" 
d="M607 0h-51l-435 624v-624h-51v700h51l435 -625v625h51v-700zM284 -60h69l-97 -155h-42z" />
    <glyph glyph-name="ncommaaccent" unicode="&#x146;" horiz-adv-x="563" 
d="M405.5 502q45.5 -23 74 -72.5t28.5 -125.5v-304h-50v305q0 87 -43.5 131t-113.5 44q-47 0 -88.5 -25t-68.5 -64.5t-34 -80.5v-310h-50v520h50v-137q4 25 29.5 58.5t69 58.5t98.5 25q53 0 98.5 -23zM222 -60h69l-97 -155h-42z" />
    <glyph glyph-name="Ncaron" unicode="&#x147;" horiz-adv-x="677" 
d="M607 0h-51l-435 624v-624h-51v700h51l435 -625v625h51v-700zM298 803l-109 148h43l107 -117l106 117h43l-109 -148h-81z" />
    <glyph glyph-name="ncaron" unicode="&#x148;" horiz-adv-x="563" 
d="M405.5 502q45.5 -23 74 -72.5t28.5 -125.5v-304h-50v305q0 87 -43.5 131t-113.5 44q-47 0 -88.5 -25t-68.5 -64.5t-34 -80.5v-310h-50v520h50v-137q4 25 29.5 58.5t69 58.5t98.5 25q53 0 98.5 -23zM236 623l-109 148h43l107 -117l106 117h43l-109 -148h-81z" />
    <glyph glyph-name="Eng" unicode="&#x14a;" horiz-adv-x="707" 
d="M632 700v-645q0 -133 -60.5 -196.5t-156.5 -63.5q-120 0 -191 83l34 35q28 -35 65.5 -54t91.5 -19q73 0 119 50t48 158l-455 529v-577h-52v700h9l496 -579v579h52z" />
    <glyph glyph-name="eng" unicode="&#x14b;" horiz-adv-x="575" 
d="M515 179v-244q0 -75 -29 -107.5t-82 -32.5q-23 0 -47 7.5t-41 18.5v46q46 -27 88 -27q30 0 45.5 24.5t15.5 70.5v65h-7v305q0 87 -43.5 131t-113.5 44q-47 0 -88.5 -25t-68.5 -64.5t-34 -80.5v-310h-50v520h50v-137q4 25 29.5 58.5t69 58.5t98.5 25q53 0 98.5 -23
t74 -72.5t28.5 -125.5v-125h7z" />
    <glyph glyph-name="Omacron" unicode="&#x14c;" horiz-adv-x="806" 
d="M572.5 661q80.5 -46 129.5 -127.5t49 -183.5t-49 -183.5t-129.5 -127.5t-169.5 -46q-87 0 -167.5 46t-130.5 127.5t-50 183.5t50 183.5t130.5 127.5t167.5 46q89 0 169.5 -46zM262 619.5q-68 -39.5 -111 -110.5t-43 -159t43 -159t111 -110.5t141 -39.5q77 0 145 39.5
t109 110t41 159.5t-41 159.5t-109 110t-145 39.5q-73 0 -141 -39.5zM584 835h-362v45h362v-45z" />
    <glyph glyph-name="omacron" unicode="&#x14d;" horiz-adv-x="580" 
d="M407 495.5q58 -30.5 95.5 -91t37.5 -144.5q0 -85 -37.5 -145.5t-95.5 -91t-117 -30.5t-117 30.5t-95.5 91t-37.5 145.5q0 84 37.5 144.5t95.5 91t117 30.5t117 -30.5zM196.5 456q-46.5 -25 -76.5 -75t-30 -121q0 -72 30 -122t76.5 -75t93.5 -25t93.5 25t76.5 75t30 122
q0 71 -30 121t-76.5 75t-93.5 25t-93.5 -25zM471 655h-362v45h362v-45z" />
    <glyph glyph-name="Ohungarumlaut" unicode="&#x150;" horiz-adv-x="806" 
d="M425 802h-43l77 145h72zM572.5 661q80.5 -46 129.5 -127.5t49 -183.5t-49 -183.5t-129.5 -127.5t-169.5 -46q-87 0 -167.5 46t-130.5 127.5t-50 183.5t50 183.5t130.5 127.5t167.5 46q89 0 169.5 -46zM548 80.5q68 39.5 109 110t41 159.5t-41 159.5t-109 110t-145 39.5
q-73 0 -141 -39.5t-111 -110.5t-43 -159t43 -159t111 -110.5t141 -39.5q77 0 145 39.5z" />
    <glyph glyph-name="ohungarumlaut" unicode="&#x151;" horiz-adv-x="580" 
d="M312 622h-43l77 145h72zM407 495.5q58 -30.5 95.5 -91t37.5 -144.5q0 -85 -37.5 -145.5t-95.5 -91t-117 -30.5t-117 30.5t-95.5 91t-37.5 145.5q0 84 37.5 144.5t95.5 91t117 30.5t117 -30.5zM383.5 63q46.5 25 76.5 75t30 122q0 71 -30 121t-76.5 75t-93.5 25t-93.5 -25
t-76.5 -75t-30 -121q0 -72 30 -122t76.5 -75t93.5 -25t93.5 25z" />
    <glyph glyph-name="OE" unicode="&#x152;" horiz-adv-x="1195" 
d="M1105 46v-46h-424v135q-49 -67 -123.5 -104.5t-154.5 -37.5q-87 0 -167.5 46t-130.5 127.5t-50 183.5t50 183.5t130.5 127.5t167.5 46q80 0 154.5 -37.5t123.5 -104.5v135h414v-46h-362v-189q14 -44 17 -90h245v-46h-245q-1 -47 -17 -94v-189h372zM573 96.5
q77 55.5 108 147.5v212q-31 92 -108 147.5t-170 55.5q-73 0 -141 -39.5t-111 -110.5t-43 -159t43 -159t111 -110.5t141 -39.5q93 0 170 55.5z" />
    <glyph glyph-name="oe" unicode="&#x153;" horiz-adv-x="1042" 
d="M986 239h-445q4 -65 34.5 -110.5t75 -68t89.5 -22.5q47 0 88 17.5t71 52.5l39 -26q-37 -44 -88.5 -66.5t-109.5 -22.5q-67 0 -130 38t-95 108q-32 -70 -95 -108t-130 -38q-59 0 -117 30.5t-95.5 91t-37.5 145.5q0 84 37.5 144.5t95.5 91t117 30.5q67 0 130 -38t95 -108
q32 70 95 108t129 38q60 0 117.5 -30.5t94.5 -91t37 -144.5q0 -9 -2 -21zM383.5 63q46.5 25 76.5 75t30 122q0 71 -30 121t-76.5 75t-93.5 25t-93.5 -25t-76.5 -75t-30 -121q0 -72 30 -122t76.5 -75t93.5 -25t93.5 25zM938 281q-5 65 -35.5 110.5t-74 67.5t-89.5 22
q-45 0 -88.5 -22t-74 -67.5t-35.5 -110.5h397z" />
    <glyph glyph-name="Racute" unicode="&#x154;" horiz-adv-x="595" 
d="M496 0l-211 274h-164v-274h-51v700h227q69 0 122.5 -27t83.5 -75.5t30 -110.5q0 -84 -52.5 -141t-139.5 -69l214 -277h-59zM121 319h167q90 0 142 45.5t52 122.5t-52 122.5t-142 45.5h-167v-336zM315 802h-43l77 145h72z" />
    <glyph glyph-name="racute" unicode="&#x155;" horiz-adv-x="361" 
d="M336 523v-45q-12 1 -34 1q-78 -1 -130 -51.5t-66 -145.5v-282h-51v520h51v-156q6 41 31 78t68 60t98 23q9 0 33 -2zM198 622h-43l77 145h72z" />
    <glyph glyph-name="Rcommaaccent" unicode="&#x156;" horiz-adv-x="595" 
d="M496 0l-211 274h-164v-274h-51v700h227q69 0 122.5 -27t83.5 -75.5t30 -110.5q0 -84 -52.5 -141t-139.5 -69l214 -277h-59zM121 319h167q90 0 142 45.5t52 122.5t-52 122.5t-142 45.5h-167v-336zM238 -60h69l-97 -155h-42z" />
    <glyph glyph-name="rcommaaccent" unicode="&#x157;" horiz-adv-x="361" 
d="M336 523v-45q-12 1 -34 1q-78 -1 -130 -51.5t-66 -145.5v-282h-51v520h51v-156q6 41 31 78t68 60t98 23q9 0 33 -2zM26 -60h69l-97 -155h-42z" />
    <glyph glyph-name="Rcaron" unicode="&#x158;" horiz-adv-x="595" 
d="M496 0l-211 274h-164v-274h-51v700h227q69 0 122.5 -27t83.5 -75.5t30 -110.5q0 -84 -52.5 -141t-139.5 -69l214 -277h-59zM121 319h167q90 0 142 45.5t52 122.5t-52 122.5t-142 45.5h-167v-336zM252 803l-109 148h43l107 -117l106 117h43l-109 -148h-81z" />
    <glyph glyph-name="rcaron" unicode="&#x159;" horiz-adv-x="361" 
d="M336 523v-45q-12 1 -34 1q-78 -1 -130 -51.5t-66 -145.5v-282h-51v520h51v-156q6 41 31 78t68 60t98 23q9 0 33 -2zM135 623l-109 148h43l107 -117l106 117h43l-109 -148h-81z" />
    <glyph glyph-name="Sacute" unicode="&#x15a;" horiz-adv-x="568" 
d="M432 665.5q61 -41.5 87 -103.5l-43 -17q-22 51 -70.5 84t-117.5 33q-73 0 -119 -36t-46 -94q0 -52 30 -80t91 -49l92 -32q92 -31 142 -74t50 -120q0 -54 -33 -96t-87 -65t-116 -23q-88 0 -158 46t-94 118l43 18q22 -61 77.5 -99t131.5 -38q49 0 92 16.5t68.5 48.5
t25.5 74q0 61 -39 92t-110 56l-96 33q-79 27 -119.5 67t-40.5 107q0 49 28.5 89t78 63t108.5 23q83 0 144 -41.5zM305 802h-43l77 145h72z" />
    <glyph glyph-name="sacute" unicode="&#x15b;" horiz-adv-x="433" 
d="M289 464q-29 18 -73 18q-47 0 -76 -24.5t-29 -58.5q0 -32 19.5 -53.5t71.5 -39.5l46 -16q79 -27 117 -60t38 -93q0 -43 -27 -76t-69 -50.5t-86 -17.5q-65 0 -120 37t-71 97l46 11q13 -45 54.5 -73t91.5 -28t90 27.5t40 72.5q0 40 -27.5 64.5t-81.5 43.5l-57 20
q-69 24 -97.5 55.5t-28.5 77.5q0 35 21 64.5t57 46.5t78 17q59 0 101 -27t66 -75l-46 -12q-19 34 -48 52zM239 622h-43l77 145h72z" />
    <glyph glyph-name="Scedilla" unicode="&#x15e;" horiz-adv-x="568" 
d="M497.5 84.5q-30.5 -40.5 -81 -64.5t-109.5 -27l-38 -39q33 0 57.5 -22.5t24.5 -58.5q0 -38 -30.5 -62t-77.5 -24q-21 0 -38 4l10 24q16 -2 22 -2q32 0 50 18t18 42q0 21 -12.5 35.5t-31.5 14.5q-13 0 -30 -9l-14 22l40 59q-77 9 -136 53t-81 109l43 18q22 -61 77.5 -99
t131.5 -38q49 0 92 16.5t68.5 48.5t25.5 74q0 61 -39 92t-110 56l-96 33q-79 27 -119.5 67t-40.5 107q0 49 28.5 89t78 63t108.5 23q83 0 144 -41.5t87 -103.5l-43 -17q-22 51 -70.5 84t-117.5 33q-73 0 -119 -36t-46 -94q0 -52 30 -80t91 -49l92 -32q92 -31 142 -74
t50 -120q0 -52 -30.5 -92.5z" />
    <glyph glyph-name="scedilla" unicode="&#x15f;" horiz-adv-x="433" 
d="M354.5 39.5q-48.5 -38.5 -113.5 -45.5l-38 -40q33 0 57.5 -22.5t24.5 -58.5q0 -38 -30.5 -62t-77.5 -24q-21 0 -38 4l10 24q16 -2 22 -2q32 0 50 18t18 42q0 21 -12.5 35.5t-31.5 14.5q-13 0 -30 -9l-14 22l40 59q-57 9 -102 44t-59 88l46 11q13 -45 54.5 -73t91.5 -28
t90 27.5t40 72.5q0 40 -27.5 64.5t-81.5 43.5l-57 20q-69 24 -97.5 55.5t-28.5 77.5q0 35 21 64.5t57 46.5t78 17q59 0 101 -27t66 -75l-46 -12q-19 34 -48 52t-73 18q-47 0 -76 -24.5t-29 -58.5q0 -32 19.5 -53.5t71.5 -39.5l46 -16q79 -27 117 -60t38 -93
q0 -59 -48.5 -97.5z" />
    <glyph glyph-name="Scaron" unicode="&#x160;" horiz-adv-x="568" 
d="M432 665.5q61 -41.5 87 -103.5l-43 -17q-22 51 -70.5 84t-117.5 33q-73 0 -119 -36t-46 -94q0 -52 30 -80t91 -49l92 -32q92 -31 142 -74t50 -120q0 -54 -33 -96t-87 -65t-116 -23q-88 0 -158 46t-94 118l43 18q22 -61 77.5 -99t131.5 -38q49 0 92 16.5t68.5 48.5
t25.5 74q0 61 -39 92t-110 56l-96 33q-79 27 -119.5 67t-40.5 107q0 49 28.5 89t78 63t108.5 23q83 0 144 -41.5zM242 803l-109 148h43l107 -117l106 117h43l-109 -148h-81z" />
    <glyph glyph-name="scaron" unicode="&#x161;" horiz-adv-x="433" 
d="M289 464q-29 18 -73 18q-47 0 -76 -24.5t-29 -58.5q0 -32 19.5 -53.5t71.5 -39.5l46 -16q79 -27 117 -60t38 -93q0 -43 -27 -76t-69 -50.5t-86 -17.5q-65 0 -120 37t-71 97l46 11q13 -45 54.5 -73t91.5 -28t90 27.5t40 72.5q0 40 -27.5 64.5t-81.5 43.5l-57 20
q-69 24 -97.5 55.5t-28.5 77.5q0 35 21 64.5t57 46.5t78 17q59 0 101 -27t66 -75l-46 -12q-19 34 -48 52zM176 623l-109 148h43l107 -117l106 117h43l-109 -148h-81z" />
    <glyph glyph-name="uni0162" unicode="&#x162;" horiz-adv-x="608" 
d="M310 655v-655h20l-45 -47q33 0 57.5 -22.5t24.5 -58.5q0 -38 -30.5 -62t-77.5 -24q-21 0 -38 4l10 24q16 -2 22 -2q32 0 50 18t18 42q0 21 -12.5 35.5t-31.5 14.5q-13 0 -30 -9l-14 22l46 65h-20v655h-209v45h468v-45h-208z" />
    <glyph glyph-name="uni0163" unicode="&#x163;" horiz-adv-x="295" 
d="M209 -4l-40 -42q33 0 57.5 -22.5t24.5 -58.5q0 -38 -30.5 -62t-77.5 -24q-21 0 -38 4l10 24q16 -2 22 -2q32 0 50 18t18 42q0 21 -12.5 35.5t-31.5 14.5q-14 0 -30 -9l-14 22l40 60q-57 9 -57 79v402h-70v43h70v90h50v-90h109v-43h-109v-392q0 -26 9.5 -36.5t31.5 -10.5
q29 0 69 18v-44q-26 -12 -51 -16z" />
    <glyph glyph-name="Tcaron" unicode="&#x164;" horiz-adv-x="568" 
d="M518 655h-208v-655h-51v655h-209v45h468v-45zM243 803l-109 148h43l107 -117l106 117h43l-109 -148h-81z" />
    <glyph glyph-name="tcaron" unicode="&#x165;" horiz-adv-x="376" 
d="M260 56v-44q-36 -18 -83 -18q-34 0 -55.5 18.5t-21.5 62.5v402h-70v43h70v90h50v-90h109v-43h-109v-392q0 -26 9.5 -36.5t31.5 -10.5q29 0 69 18zM240 555h-43l77 145h72z" />
    <glyph glyph-name="Tbar" unicode="&#x166;" horiz-adv-x="608" 
d="M310 655v-135h170v-45h-170v-475h-51v475h-141v45h141v135h-209v45h468v-45h-208z" />
    <glyph glyph-name="tbar" unicode="&#x167;" horiz-adv-x="295" 
d="M260 56v-44q-36 -18 -83 -18q-34 0 -55.5 18.5t-21.5 62.5v274h-70v45h70v83h-70v43h70v90h50v-90h109v-43h-109v-83h107v-45h-107v-264q0 -26 9.5 -36.5t31.5 -10.5q29 0 69 18z" />
    <glyph glyph-name="Umacron" unicode="&#x16a;" horiz-adv-x="653" 
d="M588 265q0 -84 -33 -145.5t-92.5 -94t-136.5 -32.5t-136.5 32.5t-92 94t-32.5 145.5v435h50v-434q0 -109 56 -168.5t155 -59.5t155.5 59.5t56.5 168.5v434h50v-435zM508 835h-362v45h362v-45z" />
    <glyph glyph-name="umacron" unicode="&#x16b;" horiz-adv-x="552" 
d="M497 520v-520h-50v135q-6 -26 -30.5 -59.5t-66.5 -58t-98 -24.5q-83 0 -137.5 53.5t-54.5 164.5v309h50v-310q0 -89 39.5 -130.5t108.5 -41.5q47 0 86 24.5t65.5 64.5t37.5 84v309h50zM461 655h-362v45h362v-45z" />
    <glyph glyph-name="Ubreve" unicode="&#x16c;" horiz-adv-x="653" 
d="M588 265q0 -84 -33 -145.5t-92.5 -94t-136.5 -32.5t-136.5 32.5t-92 94t-32.5 145.5v435h50v-434q0 -109 56 -168.5t155 -59.5t155.5 59.5t56.5 168.5v434h50v-435zM451.5 879q-18.5 -33 -51 -53.5t-74.5 -20.5t-74.5 20.5t-50.5 53.5t-19 68h38q6 -41 33.5 -68t73.5 -27
t73 27t33 68h38q-1 -35 -19.5 -68z" />
    <glyph glyph-name="ubreve" unicode="&#x16d;" horiz-adv-x="552" 
d="M497 520v-520h-50v135q-6 -26 -30.5 -59.5t-66.5 -58t-98 -24.5q-83 0 -137.5 53.5t-54.5 164.5v309h50v-310q0 -89 39.5 -130.5t108.5 -41.5q47 0 86 24.5t65.5 64.5t37.5 84v309h50zM404.5 699q-18.5 -33 -51 -53.5t-74.5 -20.5t-74.5 20.5t-50.5 53.5t-19 68h38
q6 -41 33.5 -68t73.5 -27t73 27t33 68h38q-1 -35 -19.5 -68z" />
    <glyph glyph-name="Uring" unicode="&#x16e;" horiz-adv-x="653" 
d="M588 265q0 -84 -33 -145.5t-92.5 -94t-136.5 -32.5t-136.5 32.5t-92 94t-32.5 145.5v435h50v-434q0 -109 56 -168.5t155 -59.5t155.5 59.5t56.5 168.5v434h50v-435zM383.5 935.5q23.5 -23.5 23.5 -55.5t-23.5 -55.5t-55.5 -23.5q-34 0 -57.5 23t-23.5 56t23.5 56t57.5 23
q32 0 55.5 -23.5zM297.5 909.5q-12.5 -12.5 -12.5 -29.5t12.5 -29.5t29.5 -12.5t29.5 12.5t12.5 29.5t-12.5 29.5t-29.5 12.5t-29.5 -12.5z" />
    <glyph glyph-name="uring" unicode="&#x16f;" horiz-adv-x="552" 
d="M497 520v-520h-50v135q-6 -26 -30.5 -59.5t-66.5 -58t-98 -24.5q-83 0 -137.5 53.5t-54.5 164.5v309h50v-310q0 -89 39.5 -130.5t108.5 -41.5q47 0 86 24.5t65.5 64.5t37.5 84v309h50zM336.5 755.5q23.5 -23.5 23.5 -55.5t-23.5 -55.5t-55.5 -23.5q-34 0 -57.5 23
t-23.5 56t23.5 56t57.5 23q32 0 55.5 -23.5zM250.5 729.5q-12.5 -12.5 -12.5 -29.5t12.5 -29.5t29.5 -12.5t29.5 12.5t12.5 29.5t-12.5 29.5t-29.5 12.5t-29.5 -12.5z" />
    <glyph glyph-name="Uhungarumlaut" unicode="&#x170;" horiz-adv-x="653" 
d="M349 802h-43l77 145h72zM588 700v-435q0 -84 -33 -145.5t-92.5 -94t-136.5 -32.5t-136.5 32.5t-92 94t-32.5 145.5v435h50v-434q0 -109 56 -168.5t155 -59.5t155.5 59.5t56.5 168.5v434h50z" />
    <glyph glyph-name="uhungarumlaut" unicode="&#x171;" horiz-adv-x="552" 
d="M302 622h-43l77 145h72zM497 520v-520h-50v135q-6 -26 -30.5 -59.5t-66.5 -58t-98 -24.5q-83 0 -137.5 53.5t-54.5 164.5v309h50v-310q0 -89 39.5 -130.5t108.5 -41.5q47 0 86 24.5t65.5 64.5t37.5 84v309h50z" />
    <glyph glyph-name="Uogonek" unicode="&#x172;" horiz-adv-x="653" 
d="M588 700v-435q0 -106 -52.5 -176t-142.5 -89q-74 -31 -101.5 -58.5t-27.5 -63.5q0 -26 17.5 -41t43.5 -15q12 0 24 3l12 -23q-19 -9 -47 -9q-39 0 -67.5 21t-28.5 63q0 37 28.5 67t77.5 49q-77 0 -135.5 33t-91 94.5t-32.5 144.5v435h50v-434q0 -109 56 -168.5t155 -59.5
t155.5 59.5t56.5 168.5v434h50z" />
    <glyph glyph-name="uogonek" unicode="&#x173;" horiz-adv-x="570" 
d="M394 -58.5q-28 -27.5 -28 -63.5q0 -26 17.5 -41t43.5 -15q12 0 24 3l12 -23q-19 -9 -47 -9q-39 0 -67.5 21t-28.5 63q0 41 35 73.5t92 49.5v135q-6 -26 -30.5 -59.5t-66.5 -58t-98 -24.5q-83 0 -137.5 53.5t-54.5 164.5v309h50v-310q0 -89 39.5 -130.5t108.5 -41.5
q47 0 86 24.5t65.5 64.5t37.5 84v309h50v-520q-75 -31 -103 -58.5z" />
    <glyph glyph-name="Wcircumflex" unicode="&#x174;" horiz-adv-x="1025" 
d="M751 0h-10l-228 591l-229 -591h-10l-234 700h53l190 -576l224 576h11l224 -576l190 576h53zM662 796h-43l-106 117l-107 -117h-43l109 148h81z" />
    <glyph glyph-name="wcircumflex" unicode="&#x175;" horiz-adv-x="851" 
d="M620 0h-9l-186 431l-185 -431h-9l-196 520h50l153 -419l183 419h9l183 -419l153 419h50zM575 616h-43l-106 117l-107 -117h-43l109 148h81z" />
    <glyph glyph-name="Ycircumflex" unicode="&#x176;" horiz-adv-x="636" 
d="M343 343v-343h-50v343l-258 357h56l227 -316l227 316h56zM467 796h-43l-106 117l-107 -117h-43l109 148h81z" />
    <glyph glyph-name="ycircumflex" unicode="&#x177;" horiz-adv-x="534" 
d="M504 520l-288 -710h-50l83 206l-219 504h51l192 -444l180 444h51zM424 616h-43l-106 117l-107 -117h-43l109 148h81z" />
    <glyph glyph-name="Ydieresis" unicode="&#x178;" horiz-adv-x="636" 
d="M343 343v-343h-50v343l-258 357h56l227 -316l227 316h56zM236 880h-62v62h62v-62zM462 880h-62v62h62v-62z" />
    <glyph glyph-name="Zacute" unicode="&#x179;" horiz-adv-x="606" 
d="M126 45h445v-45h-536l441 655h-415v45h506zM325 802h-43l77 145h72z" />
    <glyph glyph-name="zacute" unicode="&#x17a;" horiz-adv-x="527" 
d="M126 45h355v-45h-446l356 475h-345v45h436zM286 622h-43l77 145h72z" />
    <glyph glyph-name="Zdotaccent" unicode="&#x17b;" horiz-adv-x="606" 
d="M126 45h445v-45h-536l441 655h-415v45h506zM328 880h-51v52h51v-52z" />
    <glyph glyph-name="zdotaccent" unicode="&#x17c;" horiz-adv-x="527" 
d="M126 45h355v-45h-446l356 475h-345v45h436zM289 700h-51v52h51v-52z" />
    <glyph glyph-name="Zcaron" unicode="&#x17d;" horiz-adv-x="606" 
d="M126 45h445v-45h-536l441 655h-415v45h506zM262 803l-109 148h43l107 -117l106 117h43l-109 -148h-81z" />
    <glyph glyph-name="zcaron" unicode="&#x17e;" horiz-adv-x="527" 
d="M126 45h355v-45h-446l356 475h-345v45h436zM223 623l-109 148h43l107 -117l106 117h43l-109 -148h-81z" />
    <glyph glyph-name="florin" unicode="&#x192;" horiz-adv-x="275" 
d="M189.5 638q-24.5 -24 -24.5 -86v-32h95v-45h-95v-510q0 -155 -145 -155v45q46 0 70.5 24t24.5 86v510h-74v45h74v32q0 155 145 155v-45q-46 0 -70.5 -24z" />
    <glyph glyph-name="uni01CD" unicode="&#x1cd;" horiz-adv-x="694" 
d="M514 230h-334l-101 -230h-54l314 700h16l314 -700h-54zM494 275l-147 333l-147 -333h294zM308 803l-109 148h43l107 -117l106 117h43l-109 -148h-81z" />
    <glyph glyph-name="uni01CE" unicode="&#x1ce;" 
d="M405.5 494q54.5 -32 82.5 -92v118h50v-520h-50v117q-28 -60 -82.5 -92t-117.5 -32q-59 0 -116.5 30.5t-94.5 91t-37 144.5q0 85 37.5 145.5t94.5 91t116 30.5q63 0 117.5 -32zM197.5 456q-46.5 -25 -77 -75t-30.5 -122q0 -71 30.5 -121t77 -75t93.5 -25q48 0 94 24.5
t75.5 74.5t29.5 122q0 73 -29.5 123t-75.5 74.5t-94 24.5q-47 0 -93.5 -25zM270 623l-109 148h43l107 -117l106 117h43l-109 -148h-81z" />
    <glyph glyph-name="uni01CF" unicode="&#x1cf;" horiz-adv-x="201" 
d="M126 0h-51v700h51v-700zM60 803l-109 148h43l107 -117l106 117h43l-109 -148h-81z" />
    <glyph glyph-name="uni01D0" unicode="&#x1d0;" horiz-adv-x="200" 
d="M125 0h-50v520h50v-520zM59 623l-109 148h43l107 -117l106 117h43l-109 -148h-81z" />
    <glyph glyph-name="uni01D1" unicode="&#x1d1;" horiz-adv-x="806" 
d="M572.5 661q80.5 -46 129.5 -127.5t49 -183.5t-49 -183.5t-129.5 -127.5t-169.5 -46q-87 0 -167.5 46t-130.5 127.5t-50 183.5t50 183.5t130.5 127.5t167.5 46q89 0 169.5 -46zM262 619.5q-68 -39.5 -111 -110.5t-43 -159t43 -159t111 -110.5t141 -39.5q77 0 145 39.5
t109 110t41 159.5t-41 159.5t-109 110t-145 39.5q-73 0 -141 -39.5zM362 803l-109 148h43l107 -117l106 117h43l-109 -148h-81z" />
    <glyph glyph-name="uni01D2" unicode="&#x1d2;" horiz-adv-x="580" 
d="M407 495.5q58 -30.5 95.5 -91t37.5 -144.5q0 -85 -37.5 -145.5t-95.5 -91t-117 -30.5t-117 30.5t-95.5 91t-37.5 145.5q0 84 37.5 144.5t95.5 91t117 30.5t117 -30.5zM196.5 456q-46.5 -25 -76.5 -75t-30 -121q0 -72 30 -122t76.5 -75t93.5 -25t93.5 25t76.5 75t30 122
q0 71 -30 121t-76.5 75t-93.5 25t-93.5 -25zM249 623l-109 148h43l107 -117l106 117h43l-109 -148h-81z" />
    <glyph glyph-name="uni01D3" unicode="&#x1d3;" horiz-adv-x="653" 
d="M588 265q0 -84 -33 -145.5t-92.5 -94t-136.5 -32.5t-136.5 32.5t-92 94t-32.5 145.5v435h50v-434q0 -109 56 -168.5t155 -59.5t155.5 59.5t56.5 168.5v434h50v-435zM286 803l-109 148h43l107 -117l106 117h43l-109 -148h-81z" />
    <glyph glyph-name="uni01D4" unicode="&#x1d4;" horiz-adv-x="552" 
d="M497 520v-520h-50v135q-6 -26 -30.5 -59.5t-66.5 -58t-98 -24.5q-83 0 -137.5 53.5t-54.5 164.5v309h50v-310q0 -89 39.5 -130.5t108.5 -41.5q47 0 86 24.5t65.5 64.5t37.5 84v309h50zM239 623l-109 148h43l107 -117l106 117h43l-109 -148h-81z" />
    <glyph glyph-name="uni01EA" unicode="&#x1ea;" horiz-adv-x="804" 
d="M367.5 -59q-27.5 -27 -27.5 -63q0 -26 17.5 -41t43.5 -15q12 0 24 3l12 -23q-19 -9 -47 -9q-39 0 -67.5 21t-28.5 63q0 37 28.5 67t77.5 49q-86 1 -166 47t-129.5 127.5t-49.5 182.5q0 102 50 183.5t130.5 127.5t167.5 46q89 0 169.5 -46t129.5 -127.5t49 -183.5
q0 -90 -38.5 -164t-103 -122.5t-141.5 -64.5q-73 -31 -100.5 -58zM151 191q43 -71 111 -110.5t141 -39.5q77 0 145 39.5t109 110t41 159.5t-41 159.5t-109 110t-145 39.5q-73 0 -141 -39.5t-111 -110.5t-43 -159t43 -159z" />
    <glyph glyph-name="uni01EB" unicode="&#x1eb;" horiz-adv-x="596" 
d="M512.5 134.5q-27.5 -54.5 -71.5 -88t-95 -46.5h8q-74 -31 -101.5 -58.5t-27.5 -63.5q0 -26 17.5 -41t43.5 -15q12 0 24 3l12 -23q-19 -9 -47 -9q-39 0 -67.5 21t-28.5 63q0 37 28.5 67t77.5 49q-59 1 -115.5 32t-93 91t-36.5 144t37.5 144.5t95.5 91t117 30.5t117 -30.5
t95.5 -91t37.5 -144.5q0 -71 -27.5 -125.5zM383.5 63q46.5 25 76.5 75t30 122q0 71 -30 121t-76.5 75t-93.5 25t-93.5 -25t-76.5 -75t-30 -121q0 -72 30 -122t76.5 -75t93.5 -25t93.5 25z" />
    <glyph glyph-name="Scommaaccent" unicode="&#x218;" horiz-adv-x="568" 
d="M432 665.5q61 -41.5 87 -103.5l-43 -17q-22 51 -70.5 84t-117.5 33q-73 0 -119 -36t-46 -94q0 -52 30 -80t91 -49l92 -32q92 -31 142 -74t50 -120q0 -54 -33 -96t-87 -65t-116 -23q-88 0 -158 46t-94 118l43 18q22 -61 77.5 -99t131.5 -38q49 0 92 16.5t68.5 48.5
t25.5 74q0 61 -39 92t-110 56l-96 33q-79 27 -119.5 67t-40.5 107q0 49 28.5 89t78 63t108.5 23q83 0 144 -41.5zM228 -60h69l-97 -155h-42z" />
    <glyph glyph-name="scommaaccent" unicode="&#x219;" horiz-adv-x="433" 
d="M289 464q-29 18 -73 18q-47 0 -76 -24.5t-29 -58.5q0 -32 19.5 -53.5t71.5 -39.5l46 -16q79 -27 117 -60t38 -93q0 -43 -27 -76t-69 -50.5t-86 -17.5q-65 0 -120 37t-71 97l46 11q13 -45 54.5 -73t91.5 -28t90 27.5t40 72.5q0 40 -27.5 64.5t-81.5 43.5l-57 20
q-69 24 -97.5 55.5t-28.5 77.5q0 35 21 64.5t57 46.5t78 17q59 0 101 -27t66 -75l-46 -12q-19 34 -48 52zM162 -60h69l-97 -155h-42z" />
    <glyph glyph-name="uni021A" unicode="&#x21a;" horiz-adv-x="568" 
d="M518 655h-208v-655h-51v655h-209v45h468v-45zM224 -61h69l-97 -155h-42z" />
    <glyph glyph-name="uni021B" unicode="&#x21b;" horiz-adv-x="295" 
d="M260 56v-44q-36 -18 -83 -18q-34 0 -55.5 18.5t-21.5 62.5v402h-70v43h70v90h50v-90h109v-43h-109v-392q0 -26 9.5 -36.5t31.5 -10.5q29 0 69 18zM128 -60h69l-97 -155h-42z" />
    <glyph glyph-name="uni0237" unicode="&#x237;" horiz-adv-x="229" 
d="M149 -65q0 -75 -29 -107.5t-82 -32.5q-23 0 -47 7.5t-41 18.5v46q46 -27 88 -27q30 0 45.5 24.5t15.5 70.5v585h50v-585z" />
    <glyph glyph-name="circumflex" unicode="&#x2c6;" horiz-adv-x="299" 
d="M299 616h-43l-106 117l-107 -117h-43l109 148h81z" />
    <glyph glyph-name="caron" unicode="&#x2c7;" horiz-adv-x="299" 
d="M109 623l-109 148h43l107 -117l106 117h43l-109 -148h-81z" />
    <glyph glyph-name="breve" unicode="&#x2d8;" horiz-adv-x="289" 
d="M269.5 699q-18.5 -33 -51 -53.5t-74.5 -20.5t-74.5 20.5t-50.5 53.5t-19 68h38q6 -41 33.5 -68t73.5 -27t73 27t33 68h38q-1 -35 -19.5 -68z" />
    <glyph glyph-name="dotaccent" unicode="&#x2d9;" horiz-adv-x="67" 
d="M59 700h-51v52h51v-52z" />
    <glyph glyph-name="ring" unicode="&#x2da;" horiz-adv-x="160" 
d="M136.5 755.5q23.5 -23.5 23.5 -55.5t-23.5 -55.5t-55.5 -23.5q-34 0 -57.5 23t-23.5 56t23.5 56t57.5 23q32 0 55.5 -23.5zM50.5 729.5q-12.5 -12.5 -12.5 -29.5t12.5 -29.5t29.5 -12.5t29.5 12.5t12.5 29.5t-12.5 29.5t-29.5 12.5t-29.5 -12.5z" />
    <glyph glyph-name="ogonek" unicode="&#x2db;" horiz-adv-x="175" 
d="M73.5 -58.5q-27.5 -27.5 -27.5 -63.5q0 -26 17.5 -41t43.5 -15q12 0 24 3l12 -23q-19 -9 -47 -9q-39 0 -67.5 21t-28.5 63q0 41 35 73.5t92 49.5h48q-74 -31 -101.5 -58.5z" />
    <glyph glyph-name="tilde" unicode="&#x2dc;" horiz-adv-x="332" 
d="M138 710.5q20 -9.5 45 -28.5q19 -15 31.5 -22t28.5 -7q29 0 44 14.5t15 32.5h30q0 -43 -26 -66t-63 -23q-27 0 -44.5 9t-42.5 29q-19 16 -34.5 24.5t-34.5 8.5q-30 0 -44.5 -17t-13.5 -36h-29q0 43 28 67t62 24q28 0 48 -9.5z" />
    <glyph glyph-name="hungarumlaut" unicode="&#x2dd;" horiz-adv-x="294" 
d="M188 622h-43l77 145h72zM43 622h-43l77 145h72z" />
    <glyph glyph-name="uni0326" unicode="&#x326;" horiz-adv-x="0" 
d="M-94 -60h69l-97 -155h-42z" />
    <glyph glyph-name="uni0394" unicode="&#x394;" horiz-adv-x="733" 
d="M683 0h-633l307 700h19zM120 45h493l-246 565z" />
    <glyph glyph-name="uni03A9" unicode="&#x3a9;" horiz-adv-x="774" 
d="M555 661.5q80 -45.5 129.5 -125.5t49.5 -179q0 -176 -176 -293v-16h151v-48h-193v90l45 34q57 43 90 102.5t33 130.5q0 86 -43 155.5t-111.5 109t-142.5 39.5t-142.5 -39.5t-111.5 -109t-43 -155.5q0 -71 33 -130.5t90 -102.5l45 -34v-90h-193v48h151v16
q-176 117 -176 293q0 99 49.5 179t129.5 125.5t168 45.5t168 -45.5z" />
    <glyph glyph-name="uni03BC" unicode="&#x3bc;" horiz-adv-x="568" 
d="M497 520v-520h-50v135q-6 -26 -30.5 -59.5t-66.5 -58t-98 -24.5q-43 0 -79.5 14t-62.5 44v-241h-50v710h50v-310q0 -89 39.5 -130.5t108.5 -41.5q47 0 86 24.5t65.5 64.5t37.5 84v309h50z" />
    <glyph glyph-name="pi" unicode="&#x3c0;" horiz-adv-x="643" 
d="M564.5 43.5q15.5 4.5 33.5 13.5v-45q-18 -9 -33.5 -13.5t-34.5 -4.5q-44 0 -68 23t-24 77v381h-238v-475h-50v475h-100v45h537v-45h-99v-381q0 -33 9.5 -44t32.5 -11q19 0 34.5 4.5z" />
    <glyph glyph-name="uni0401" unicode="&#x401;" horiz-adv-x="524" 
d="M479 46v-46h-424v700h414v-46h-362v-279h262v-46h-262v-283h372zM196 880h-62v62h62v-62zM422 880h-62v62h62v-62z" />
    <glyph glyph-name="uni0403" unicode="&#x403;" horiz-adv-x="541" 
d="M491 655h-371v-655h-50v700h421v-45zM295 802h-43l77 145h72z" />
    <glyph glyph-name="uni0404" unicode="&#x404;" horiz-adv-x="648" 
d="M494.5 60.5q49.5 19.5 85.5 55.5l32 -36q-46 -42 -103 -64.5t-119 -22.5q-88 0 -168.5 46t-131 127.5t-50.5 183.5t50.5 183.5t131 127.5t168.5 46q62 0 119 -22.5t103 -64.5l-32 -36q-36 36 -85.5 55.5t-104.5 19.5q-70 0 -136 -36.5t-110 -102t-50 -147.5h224v-45h-224
q5 -82 49 -147.5t110.5 -102.5t136.5 -37q55 0 104.5 19.5z" />
    <glyph glyph-name="uni0406" unicode="&#x406;" horiz-adv-x="201" 
d="M126 0h-51v700h51v-700z" />
    <glyph glyph-name="uni0407" unicode="&#x407;" horiz-adv-x="201" 
d="M126 0h-51v700h51v-700zM19 880h-62v62h62v-62zM245 880h-62v62h62v-62z" />
    <glyph glyph-name="uni0410" unicode="&#x410;" horiz-adv-x="694" 
d="M514 230h-334l-101 -230h-54l314 700h16l314 -700h-54zM494 275l-147 333l-147 -333h294z" />
    <glyph glyph-name="uni0411" unicode="&#x411;" horiz-adv-x="582" 
d="M419.5 399q53.5 -27 83.5 -75.5t30 -110.5t-30 -110.5t-83.5 -75.5t-122.5 -27h-227v700h421v-45h-370v-229h176q69 0 122.5 -27zM430 90.5q52 45.5 52 122.5t-52 122.5t-142 45.5h-167v-336h167q90 0 142 45.5z" />
    <glyph glyph-name="uni0412" unicode="&#x412;" horiz-adv-x="586" 
d="M503.5 313.5q37.5 -47.5 37.5 -112.5q0 -100 -63.5 -150.5t-187.5 -50.5h-220v700h220q105 0 158 -46t53 -126q0 -54 -27.5 -92t-83.5 -54q76 -21 113.5 -68.5zM290 403q85 0 123 30t38 95q0 127 -161 127h-169v-252h169zM441.5 82.5q49.5 37.5 49.5 118.5
q0 72 -51.5 114.5t-149.5 42.5h-169v-313h169q102 0 151.5 37.5z" />
    <glyph glyph-name="uni0413" unicode="&#x413;" horiz-adv-x="541" 
d="M491 655h-371v-655h-50v700h421v-45z" />
    <glyph glyph-name="uni0414" unicode="&#x414;" horiz-adv-x="779" 
d="M734 -69h-50v69h-579v-69h-50v114h47q23 42 33.5 109.5t13 153.5t2.5 252v140h508v-655h75v-114zM609 45v610h-408v-95q0 -166 -2.5 -252t-13.5 -153.5t-35 -109.5h459z" />
    <glyph glyph-name="uni0415" unicode="&#x415;" horiz-adv-x="524" 
d="M479 46v-46h-424v700h414v-46h-362v-279h262v-46h-262v-283h372z" />
    <glyph glyph-name="uni0416" unicode="&#x416;" horiz-adv-x="1163" 
d="M1050 0h-62l-283 298l-93 -109v-189h-61v189l-93 109l-283 -298h-62l316 334l-300 366h62l360 -436v436h61v-436l360 436h62l-300 -366z" />
    <glyph glyph-name="uni0417" unicode="&#x417;" horiz-adv-x="573" 
d="M388 683q49 -24 77.5 -64t28.5 -86q0 -53 -35.5 -94.5t-106.5 -60.5q78 -14 127 -61.5t49 -120.5q0 -60 -33 -107t-89.5 -73t-123.5 -26q-69 0 -124.5 28t-86.5 76.5t-31 106.5l53 1q0 -46 25 -84t68 -60.5t96 -22.5t97.5 19.5t70.5 56t26 85.5q0 74 -61.5 114.5
t-159.5 42.5v42q60 3 102 22.5t63 50t21 65.5q0 36 -21 65.5t-57.5 46.5t-80.5 17q-72 0 -119.5 -44t-47.5 -119l-53 1q0 62 29 109t79 72.5t112 25.5q57 0 106 -24z" />
    <glyph glyph-name="uni0418" unicode="&#x418;" horiz-adv-x="707" 
d="M151 700v-625l435 625h51v-700h-51v624l-435 -624h-51v700h51z" />
    <glyph glyph-name="uni0419" unicode="&#x419;" horiz-adv-x="707" 
d="M484.5 879q-18.5 -33 -51 -53.5t-74.5 -20.5t-74.5 20.5t-50.5 53.5t-19 68h38q6 -41 33.5 -68t73.5 -27t73 27t33 68h38q-1 -35 -19.5 -68zM151 700v-625l435 625h51v-700h-51v624l-435 -624h-51v700h51z" />
    <glyph glyph-name="uni041A" unicode="&#x41a;" horiz-adv-x="599" 
d="M253 334l316 -334h-62l-283 298l-102 -120v-178h-52v700h52v-447l369 447h62z" />
    <glyph glyph-name="uni041B" unicode="&#x41b;" horiz-adv-x="723" 
d="M648 0h-50v655h-408v-581q0 -42 -22.5 -61t-54.5 -19q-47 0 -83 18v45q19 -10 34 -14.5t34 -4.5q22 0 32 9.5t10 36.5v616h508v-700z" />
    <glyph glyph-name="uni041C" unicode="&#x41c;" horiz-adv-x="852" 
d="M782 0h-51v589l-286 -589h-38l-286 589v-589h-51v700h50l306 -626l306 626h50v-700z" />
    <glyph glyph-name="uni041D" unicode="&#x41d;" horiz-adv-x="642" 
d="M572 700v-700h-51v319h-400v-319h-51v700h51v-336h400v336h51z" />
    <glyph glyph-name="uni041E" unicode="&#x41e;" horiz-adv-x="806" 
d="M572.5 661q80.5 -46 129.5 -127.5t49 -183.5t-49 -183.5t-129.5 -127.5t-169.5 -46q-87 0 -167.5 46t-130.5 127.5t-50 183.5t50 183.5t130.5 127.5t167.5 46q89 0 169.5 -46zM262 619.5q-68 -39.5 -111 -110.5t-43 -159t43 -159t111 -110.5t141 -39.5q77 0 145 39.5
t109 110t41 159.5t-41 159.5t-109 110t-145 39.5q-73 0 -141 -39.5z" />
    <glyph glyph-name="uni041F" unicode="&#x41f;" horiz-adv-x="658" 
d="M583 0h-50v655h-408v-655h-50v700h508v-700z" />
    <glyph glyph-name="uni0420" unicode="&#x420;" horiz-adv-x="583" 
d="M419.5 673q53.5 -27 83.5 -75.5t30 -110.5t-30 -110.5t-83.5 -75.5t-122.5 -27h-176v-274h-51v700h227q69 0 122.5 -27zM430 364.5q52 45.5 52 122.5t-52 122.5t-142 45.5h-167v-336h167q90 0 142 45.5z" />
    <glyph glyph-name="uni0421" unicode="&#x421;" horiz-adv-x="647" 
d="M509 684.5q57 -22.5 103 -64.5l-32 -36q-36 36 -85.5 55.5t-104.5 19.5q-73 0 -142 -40t-112 -110.5t-43 -158.5t43 -158.5t112 -110.5t142 -40q55 0 104.5 19.5t85.5 55.5l32 -36q-46 -42 -103 -64.5t-119 -22.5q-88 0 -168.5 46t-131 127.5t-50.5 183.5t50.5 183.5
t131 127.5t168.5 46q62 0 119 -22.5z" />
    <glyph glyph-name="uni0422" unicode="&#x422;" horiz-adv-x="568" 
d="M518 655h-208v-655h-51v655h-209v45h468v-45z" />
    <glyph glyph-name="uni0423" unicode="&#x423;" horiz-adv-x="638" 
d="M608 700l-386 -700h-52l128 233l-258 467h53l232 -419l230 419h53z" />
    <glyph glyph-name="uni0424" unicode="&#x424;" horiz-adv-x="875" 
d="M657.5 598.5q78.5 -36.5 120.5 -101.5t42 -147t-42 -147t-120.5 -101.5t-182.5 -36.5h-16v-65h-50v65h-14q-104 0 -182.5 36.5t-120.5 101.5t-42 147t42 147t120.5 101.5t182.5 36.5h14v65h50v-65h16q104 0 182.5 -36.5zM409 110v480h-14q-94 0 -160.5 -30t-100.5 -84
t-34 -126t34 -126t100.5 -84t160.5 -30h14zM635.5 140q66.5 30 100.5 84t34 126t-34 126t-100.5 84t-160.5 30h-16v-480h16q94 0 160.5 30z" />
    <glyph glyph-name="uni0425" unicode="&#x425;" horiz-adv-x="666" 
d="M564 0l-231 322l-231 -322h-57l260 362l-243 338h57l214 -298l214 298h57l-242 -338l259 -362h-57z" />
    <glyph glyph-name="uni0426" unicode="&#x426;" horiz-adv-x="731" 
d="M671 -69h-49v69h-547v700h50v-655h408v655h50v-655h88v-114z" />
    <glyph glyph-name="uni0427" unicode="&#x427;" horiz-adv-x="606" 
d="M536 700v-700h-50v369q-8 -20 -33.5 -46t-67.5 -45.5t-97 -19.5q-89 0 -153.5 46.5t-64.5 145.5v250h50v-250q0 -70 46 -108.5t123 -38.5q49 0 90.5 20.5t69 51.5t37.5 62v263h50z" />
    <glyph glyph-name="uni0428" unicode="&#x428;" horiz-adv-x="1116" 
d="M1041 700v-700h-966v700h50v-655h408v655h50v-655h408v655h50z" />
    <glyph glyph-name="uni0429" unicode="&#x429;" horiz-adv-x="1188" 
d="M1128 -69h-49v69h-1004v700h50v-655h408v655h50v-655h408v655h50v-655h87v-114z" />
    <glyph glyph-name="uni042A" unicode="&#x42a;" horiz-adv-x="753" 
d="M550.5 399q53.5 -27 83.5 -75.5t30 -110.5t-30 -110.5t-83.5 -75.5t-122.5 -27h-227v655h-151v45h202v-274h176q69 0 122.5 -27zM561 90.5q52 45.5 52 122.5t-52 122.5t-142 45.5h-167v-336h167q90 0 142 45.5z" />
    <glyph glyph-name="uni042B" unicode="&#x42b;" horiz-adv-x="784" 
d="M75 0v700h51v-274h176q69 0 122.5 -27t83.5 -75.5t30 -110.5t-30 -110.5t-83.5 -75.5t-122.5 -27h-227zM126 381v-336h167q90 0 142 45.5t52 122.5t-52 122.5t-142 45.5h-167zM709 0h-51v700h51v-700z" />
    <glyph glyph-name="uni042C" unicode="&#x42c;" horiz-adv-x="607" 
d="M70 0v700h51v-274h176q69 0 122.5 -27t83.5 -75.5t30 -110.5t-30 -110.5t-83.5 -75.5t-122.5 -27h-227zM121 381v-336h167q90 0 142 45.5t52 122.5t-52 122.5t-142 45.5h-167z" />
    <glyph glyph-name="uni042D" unicode="&#x42d;" horiz-adv-x="648" 
d="M426.5 661q80.5 -46 131 -127.5t50.5 -183.5t-50.5 -183.5t-131 -127.5t-168.5 -46q-62 0 -119 22.5t-103 64.5l32 36q36 -36 85.5 -55.5t104.5 -19.5q70 0 136.5 37t110.5 102.5t49 147.5h-224v45h224q-6 82 -50 147.5t-110 102t-136 36.5q-55 0 -104.5 -19.5
t-85.5 -55.5l-32 36q46 42 103 64.5t119 22.5q88 0 168.5 -46z" />
    <glyph glyph-name="uni042E" unicode="&#x42e;" horiz-adv-x="1000" 
d="M768.5 661q80.5 -46 129.5 -127.5t49 -183.5t-49 -183.5t-129.5 -127.5t-169.5 -46q-84 0 -162 43t-129 119.5t-56 172.5h-126v-328h-51v700h51v-327h126q6 96 57 172.5t128.5 119t161.5 42.5q89 0 169.5 -46zM744 80.5q68 39.5 109 110t41 159.5t-41 159.5t-109 110
t-145 39.5q-73 0 -141 -39.5t-111 -110.5t-43 -159t43 -159t111 -110.5t141 -39.5q77 0 145 39.5z" />
    <glyph glyph-name="uni042F" unicode="&#x42f;" horiz-adv-x="595" 
d="M525 700v-700h-51v274h-164l-211 -274h-59l214 277q-87 12 -139.5 69t-52.5 141q0 62 30 110.5t83.5 75.5t122.5 27h227zM474 655h-167q-90 0 -142 -45.5t-52 -122.5t52 -122.5t142 -45.5h167v336z" />
    <glyph glyph-name="uni0430" unicode="&#x430;" 
d="M405.5 494q54.5 -32 82.5 -92v118h50v-520h-50v117q-28 -60 -82.5 -92t-117.5 -32q-59 0 -116.5 30.5t-94.5 91t-37 144.5q0 85 37.5 145.5t94.5 91t116 30.5q63 0 117.5 -32zM197.5 456q-46.5 -25 -77 -75t-30.5 -122q0 -71 30.5 -121t77 -75t93.5 -25q48 0 94 24.5
t75.5 74.5t29.5 122q0 73 -29.5 123t-75.5 74.5t-94 24.5q-47 0 -93.5 -25z" />
    <glyph glyph-name="uni0431" unicode="&#x431;" horiz-adv-x="576" 
d="M419 495.5q57 -30.5 94.5 -91t37.5 -145.5q0 -84 -37 -144.5t-94.5 -91t-116.5 -30.5q-63 0 -117.5 32t-82.5 92v-117h-50v380h-5v140q0 93 45.5 136.5t147.5 43.5h108q31 0 48 5.5t29 14.5h45q-20 -37 -47.5 -51t-84.5 -14h-98q-72 0 -107.5 -31t-35.5 -104h5v-118
q28 60 82.5 92t117.5 32q59 0 116 -30.5zM393.5 63q46.5 25 77 75t30.5 121q0 72 -30.5 122t-77 75t-93.5 25q-48 0 -94 -24.5t-75.5 -74.5t-29.5 -123q0 -72 29.5 -122t75.5 -74.5t94 -24.5q47 0 93.5 25z" />
    <glyph glyph-name="uni0432" unicode="&#x432;" horiz-adv-x="555" 
d="M478 233.5q27 -36.5 27 -84.5q0 -149 -210 -149h-225v520h225q84 0 127.5 -34.5t43.5 -94.5q0 -36 -17.5 -65.5t-52.5 -39.5q55 -16 82 -52.5zM120 306h175q64 0 93 20t29 65q0 39 -29.5 61.5t-92.5 22.5h-175v-169zM419.5 72.5q36.5 27.5 36.5 76.5q0 112 -161 112h-175
v-216h175q88 0 124.5 27.5z" />
    <glyph glyph-name="uni0433" unicode="&#x433;" horiz-adv-x="518" 
d="M463 475h-338v-475h-50v520h388v-45z" />
    <glyph glyph-name="uni0434" unicode="&#x434;" horiz-adv-x="658" 
d="M598 45v-114h-50v69h-438v-69h-50v114h33q20 29 29 77t11 111t2 187v100h418v-475h45zM503 45v430h-318v-55q0 -124 -2 -187t-11.5 -111t-30.5 -77h362z" />
    <glyph glyph-name="uni0435" unicode="&#x435;" horiz-adv-x="578" 
d="M406.5 495.5q57.5 -30.5 94.5 -91t37 -144.5q0 -9 -2 -21h-445q4 -65 34.5 -110.5t75 -68t89.5 -22.5q47 0 88 17.5t71 52.5l39 -26q-37 -44 -88.5 -66.5t-109.5 -22.5q-59 0 -117 30.5t-95.5 91t-37.5 145.5q0 84 37.5 144.5t95 91t116.5 30.5q60 0 117.5 -30.5z
M200.5 459q-43.5 -22 -74 -67.5t-35.5 -110.5h397q-5 65 -35.5 110.5t-74 67.5t-89.5 22q-45 0 -88.5 -22z" />
    <glyph glyph-name="uni0436" unicode="&#x436;" horiz-adv-x="900" 
d="M789 0l-251 253l-63 -63v-190h-50v190l-63 63l-251 -253h-66l285 285l-235 235h63l267 -267v267h50v-267l267 267h63l-235 -235l285 -285h-66z" />
    <glyph glyph-name="uni0437" unicode="&#x437;" horiz-adv-x="501" 
d="M335 506q41 -19 65 -50t24 -65q0 -42 -27 -71t-83 -42q62 -9 102 -42.5t40 -89.5q0 -45 -29 -80t-77 -54t-103 -19q-56 0 -102.5 22t-73 61.5t-26.5 88.5h50q0 -36 21 -65t56 -45.5t75 -16.5q64 0 111.5 29t47.5 79q0 51 -50.5 80t-127.5 28v42q72 1 109 26t37 69
q0 38 -37 63.5t-91 25.5q-34 0 -64 -14t-48 -37.5t-18 -50.5h-50q0 39 24.5 73t65.5 54t90 20q48 0 89 -19z" />
    <glyph glyph-name="uni0438" unicode="&#x438;" horiz-adv-x="583" 
d="M508 0h-50v410l-375 -410h-8v520h50v-410l375 410h8v-520z" />
    <glyph glyph-name="uni0439" unicode="&#x439;" horiz-adv-x="583" 
d="M508 0h-50v410l-375 -410h-8v520h50v-410l375 410h8v-520zM416.5 699q-18.5 -33 -51 -53.5t-74.5 -20.5t-74.5 20.5t-50.5 53.5t-19 68h38q6 -41 33.5 -68t73.5 -27t73 27t33 68h38q-1 -35 -19.5 -68z" />
    <glyph glyph-name="uni043A" unicode="&#x43a;" horiz-adv-x="540" 
d="M439 0l-251 253l-63 -63v-190h-50v520h50v-267l267 267h63l-235 -235l285 -285h-66z" />
    <glyph glyph-name="uni043B" unicode="&#x43b;" horiz-adv-x="650" 
d="M575 0h-50v475h-335v-401q0 -42 -22.5 -61t-54.5 -19q-47 0 -83 18v45q19 -10 34 -14.5t34 -4.5q22 0 32 9.5t10 36.5v436h435v-520z" />
    <glyph glyph-name="uni043C" unicode="&#x43c;" horiz-adv-x="722" 
d="M637 0h-50v369l-221 -369h-10l-221 369v-369h-50v520h11l265 -441l265 441h11v-520z" />
    <glyph glyph-name="uni043D" unicode="&#x43d;" horiz-adv-x="588" 
d="M513 520v-520h-50v238h-338v-238h-50v520h50v-237h338v237h50z" />
    <glyph glyph-name="uni043E" unicode="&#x43e;" horiz-adv-x="580" 
d="M407 495.5q58 -30.5 95.5 -91t37.5 -144.5q0 -85 -37.5 -145.5t-95.5 -91t-117 -30.5t-117 30.5t-95.5 91t-37.5 145.5q0 84 37.5 144.5t95.5 91t117 30.5t117 -30.5zM196.5 456q-46.5 -25 -76.5 -75t-30 -121q0 -72 30 -122t76.5 -75t93.5 -25t93.5 25t76.5 75t30 122
q0 71 -30 121t-76.5 75t-93.5 25t-93.5 -25z" />
    <glyph glyph-name="uni043F" unicode="&#x43f;" horiz-adv-x="568" 
d="M493 0h-50v475h-318v-475h-50v520h418v-520z" />
    <glyph glyph-name="uni0440" unicode="&#x440;" 
d="M421 495.5q57 -30.5 94.5 -91t37.5 -145.5q0 -84 -37 -144.5t-94.5 -91t-116.5 -30.5q-63 0 -117.5 32t-82.5 92v-307h-50v710h50v-118q28 60 82.5 92t117.5 32q59 0 116 -30.5zM395.5 63q46.5 25 77 75t30.5 121q0 72 -30.5 122t-77 75t-93.5 25q-48 0 -94 -24.5
t-75.5 -74.5t-29.5 -123q0 -72 29.5 -122t75.5 -74.5t94 -24.5q47 0 93.5 25z" />
    <glyph glyph-name="uni0441" unicode="&#x441;" horiz-adv-x="536" 
d="M412 492.5q60 -33.5 94 -95.5l-47 -15q-28 48 -74.5 73.5t-94.5 25.5q-47 0 -93.5 -25t-76.5 -75t-30 -121q0 -72 30 -122t76.5 -75t93.5 -25q48 0 95 26t75 74l46 -16q-34 -62 -94 -95.5t-122 -33.5q-59 0 -117 30.5t-95.5 91t-37.5 145.5q0 84 37.5 144.5t95.5 91
t117 30.5q62 0 122 -33.5z" />
    <glyph glyph-name="uni0442" unicode="&#x442;" horiz-adv-x="498" 
d="M443 475h-169v-475h-50v475h-169v45h388v-45z" />
    <glyph glyph-name="uni0443" unicode="&#x443;" horiz-adv-x="524" 
d="M484 520l-288 -710h-50l83 206l-219 504h51l192 -444l180 444h51z" />
    <glyph glyph-name="uni0444" unicode="&#x444;" horiz-adv-x="1016" 
d="M844 495.5q57 -30.5 94.5 -91t37.5 -145.5q0 -84 -37 -144.5t-94.5 -91t-116.5 -30.5q-58 0 -108.5 27t-81.5 78v-98h-10v-190h-50v289q-31 -51 -81.5 -78t-108.5 -27q-59 0 -116 30.5t-94.5 91t-37.5 145.5q0 84 37 144.5t94.5 91t116.5 30.5q58 0 108.5 -27t81.5 -78
v98h10v190h50v-289q31 51 81.5 78t108.5 27q59 0 116 -30.5zM403 75q53 36 75 104v164q-22 67 -75 103t-112 36q-47 0 -93.5 -25t-77 -75t-30.5 -121q0 -72 30.5 -122t77 -75t93.5 -25q59 0 112 36zM818.5 63q46.5 25 77 75t30.5 121q0 72 -30.5 122t-77 75t-93.5 25
q-59 0 -112 -36t-75 -104v-164q22 -67 75 -103t112 -36q47 0 93.5 25z" />
    <glyph glyph-name="uni0445" unicode="&#x445;" horiz-adv-x="507" 
d="M254 228l-167 -228h-57l197 264l-191 256h58l160 -219l159 219h58l-191 -256l197 -264h-57z" />
    <glyph glyph-name="uni0446" unicode="&#x446;" horiz-adv-x="614" 
d="M554 -69h-49v69h-430v520h50v-475h318v475h50v-475h61v-114z" />
    <glyph glyph-name="uni0447" unicode="&#x447;" horiz-adv-x="551" 
d="M486 520v-520h-50v287q-6 -19 -30 -44.5t-62.5 -45t-85.5 -19.5q-81 0 -134.5 41t-53.5 138v163h50v-164q0 -133 139 -133q40 0 77.5 21t64 51.5t35.5 58.5v166h50z" />
    <glyph glyph-name="uni0448" unicode="&#x448;" horiz-adv-x="788" 
d="M713 0h-638v520h50v-475h244v475h50v-475h244v475h50v-520z" />
    <glyph glyph-name="uni0449" unicode="&#x449;" horiz-adv-x="834" 
d="M774 45v-114h-49v69h-650v520h50v-475h244v475h50v-475h244v475h50v-475h61z" />
    <glyph glyph-name="uni044A" unicode="&#x44a;" horiz-adv-x="664" 
d="M536.5 264.5q52.5 -41.5 52.5 -115.5q0 -71 -52.5 -110t-154.5 -39h-228v475h-94v45h144v-214h178q102 0 154.5 -41.5zM504.5 71.5q34.5 26.5 34.5 77.5q0 112 -155 112h-180v-216h180q86 0 120.5 26.5z" />
    <glyph glyph-name="uni044B" unicode="&#x44b;" horiz-adv-x="715" 
d="M452.5 264.5q52.5 -41.5 52.5 -115.5q0 -71 -52.5 -110t-154.5 -39h-228v520h50v-214h178q102 0 154.5 -41.5zM640 520v-520h-50v520h50zM420.5 71.5q34.5 26.5 34.5 77.5q0 112 -155 112h-180v-216h180q86 0 120.5 26.5z" />
    <glyph glyph-name="uni044C" unicode="&#x44c;" horiz-adv-x="555" 
d="M452.5 264.5q52.5 -41.5 52.5 -115.5q0 -71 -52.5 -110t-154.5 -39h-228v520h50v-214h178q102 0 154.5 -41.5zM420.5 71.5q34.5 26.5 34.5 77.5q0 112 -155 112h-180v-216h180q86 0 120.5 26.5z" />
    <glyph glyph-name="uni044D" unicode="&#x44d;" horiz-adv-x="530" 
d="M362 495.5q58 -30.5 95.5 -91t37.5 -144.5q0 -85 -37.5 -145.5t-95.5 -91t-117 -30.5q-62 0 -122 33.5t-94 95.5l46 16q28 -48 75 -74t95 -26q45 0 89 22.5t74.5 67.5t35.5 109h-170v45h170q-5 64 -35.5 109t-74.5 67.5t-89 22.5q-48 0 -94.5 -25.5t-74.5 -73.5l-47 15
q34 62 94 95.5t122 33.5q59 0 117 -30.5z" />
    <glyph glyph-name="uni044E" unicode="&#x44e;" horiz-adv-x="766" 
d="M605 495.5q58 -30.5 95.5 -91t37.5 -144.5q0 -85 -37.5 -145.5t-95.5 -91t-117 -30.5q-56 0 -111.5 28t-94 83t-43.5 133h-114v-237h-50v520h50v-238h114q5 77 43.5 132.5t94 83.5t111.5 28q59 0 117 -30.5zM581.5 63q46.5 25 76.5 75t30 122q0 71 -30 121t-76.5 75
t-93.5 25t-93.5 -25t-76.5 -75t-30 -121q0 -72 30 -122t76.5 -75t93.5 -25t93.5 25z" />
    <glyph glyph-name="uni044F" unicode="&#x44f;" horiz-adv-x="575" 
d="M505 0h-50v214h-141l-200 -214h-64l207 215q-87 4 -132 46.5t-45 109.5q0 68 50 108.5t147 40.5h228v-520zM455 475h-180q-145 0 -145 -104q0 -48 33 -80t112 -32h180v216z" />
    <glyph glyph-name="uni0451" unicode="&#x451;" horiz-adv-x="578" 
d="M406.5 495.5q57.5 -30.5 94.5 -91t37 -144.5q0 -9 -2 -21h-445q4 -65 34.5 -110.5t75 -68t89.5 -22.5q47 0 88 17.5t71 52.5l39 -26q-37 -44 -88.5 -66.5t-109.5 -22.5q-59 0 -117 30.5t-95.5 91t-37.5 145.5q0 84 37.5 144.5t95 91t116.5 30.5q60 0 117.5 -30.5z
M200.5 459q-43.5 -22 -74 -67.5t-35.5 -110.5h397q-5 65 -35.5 110.5t-74 67.5t-89.5 22q-45 0 -88.5 -22zM216 700h-62v62h62v-62zM442 700h-62v62h62v-62z" />
    <glyph glyph-name="uni0453" unicode="&#x453;" horiz-adv-x="518" 
d="M463 475h-338v-475h-50v520h388v-45zM281 622h-43l77 145h72z" />
    <glyph glyph-name="uni0454" unicode="&#x454;" horiz-adv-x="525" 
d="M385 64q47 26 75 74l46 -16q-34 -62 -94 -95.5t-122 -33.5q-59 0 -117 30.5t-95.5 91t-37.5 145.5q0 84 37.5 144.5t95.5 91t117 30.5q62 0 122 -33.5t94 -95.5l-47 -15q-28 48 -74.5 73.5t-94.5 25.5q-45 0 -89 -22.5t-74.5 -67.5t-35.5 -109h170v-45h-170
q5 -64 35.5 -109t74.5 -67.5t89 -22.5q48 0 95 26z" />
    <glyph glyph-name="uni0457" unicode="&#x457;" horiz-adv-x="200" 
d="M125 0h-50v520h50v-520zM18 700h-62v62h62v-62zM244 700h-62v62h62v-62z" />
    <glyph glyph-name="uni0490" unicode="&#x490;" horiz-adv-x="541" 
d="M491 655h-371v-655h-50v700h376v47h45v-92z" />
    <glyph glyph-name="uni0491" unicode="&#x491;" horiz-adv-x="534" 
d="M464 566v-91h-339v-475h-50v520h344v46h45z" />
    <glyph glyph-name="Wgrave" unicode="&#x1e80;" horiz-adv-x="1025" 
d="M751 0h-10l-228 591l-229 -591h-10l-234 700h53l190 -576l224 576h11l224 -576l190 576h53zM460 947l77 -145h-43l-106 145h72z" />
    <glyph glyph-name="wgrave" unicode="&#x1e81;" horiz-adv-x="851" 
d="M620 0h-9l-186 431l-185 -431h-9l-196 520h50l153 -419l183 419h9l183 -419l153 419h50zM373 767l77 -145h-43l-106 145h72z" />
    <glyph glyph-name="Wacute" unicode="&#x1e82;" horiz-adv-x="1025" 
d="M751 0h-10l-228 591l-229 -591h-10l-234 700h53l190 -576l224 576h11l224 -576l190 576h53zM535 802h-43l77 145h72z" />
    <glyph glyph-name="wacute" unicode="&#x1e83;" horiz-adv-x="851" 
d="M620 0h-9l-186 431l-185 -431h-9l-196 520h50l153 -419l183 419h9l183 -419l153 419h50zM448 622h-43l77 145h72z" />
    <glyph glyph-name="Wdieresis" unicode="&#x1e84;" horiz-adv-x="1025" 
d="M751 0h-10l-228 591l-229 -591h-10l-234 700h53l190 -576l224 576h11l224 -576l190 576h53zM431 880h-62v62h62v-62zM657 880h-62v62h62v-62z" />
    <glyph glyph-name="wdieresis" unicode="&#x1e85;" horiz-adv-x="851" 
d="M620 0h-9l-186 431l-185 -431h-9l-196 520h50l153 -419l183 419h9l183 -419l153 419h50zM344 700h-62v62h62v-62zM570 700h-62v62h62v-62z" />
    <glyph glyph-name="Ygrave" unicode="&#x1ef2;" horiz-adv-x="636" 
d="M343 343v-343h-50v343l-258 357h56l227 -316l227 316h56zM265 947l77 -145h-43l-106 145h72z" />
    <glyph glyph-name="ygrave" unicode="&#x1ef3;" horiz-adv-x="534" 
d="M504 520l-288 -710h-50l83 206l-219 504h51l192 -444l180 444h51zM222 767l77 -145h-43l-106 145h72z" />
    <glyph glyph-name="endash" unicode="&#x2013;" horiz-adv-x="600" 
d="M555 262h-510v40h510v-40z" />
    <glyph glyph-name="emdash" unicode="&#x2014;" horiz-adv-x="660" 
d="M615 262h-570v40h570v-40z" />
    <glyph glyph-name="quoteleft" unicode="&#x2018;" horiz-adv-x="219" 
d="M104 545h-69l97 155h42z" />
    <glyph glyph-name="quoteright" unicode="&#x2019;" horiz-adv-x="199" 
d="M100 700h69l-97 -155h-42z" />
    <glyph glyph-name="quotesinglbase" unicode="&#x201a;" horiz-adv-x="229" 
d="M90 20h69l-97 -155h-42z" />
    <glyph glyph-name="quotedblleft" unicode="&#x201c;" horiz-adv-x="351" 
d="M236 545h-69l97 155h42zM104 545h-69l97 155h42z" />
    <glyph glyph-name="quotedblright" unicode="&#x201d;" horiz-adv-x="330" 
d="M231 700h69l-97 -155h-42zM100 700h69l-97 -155h-42z" />
    <glyph glyph-name="quotedblbase" unicode="&#x201e;" horiz-adv-x="346" 
d="M207 20h69l-97 -155h-42zM90 20h69l-97 -155h-42z" />
    <glyph glyph-name="dagger" unicode="&#x2020;" horiz-adv-x="289" 
d="M244 520h-78l-9 -208h-24l-9 208h-79v45h77l-6 135h58l-6 -135h76v-45z" />
    <glyph glyph-name="daggerdbl" unicode="&#x2021;" horiz-adv-x="279" 
d="M239 565v-45h-83l-11 -146h-10l-11 146h-84v45h81l-10 135h58l-10 -135h80zM156 180h83v-45h-80l10 -135h-58l10 135h-81v45h84l11 146h10z" />
    <glyph glyph-name="bullet" unicode="&#x2022;" horiz-adv-x="196" 
d="M151 229h-106v106h106v-106z" />
    <glyph glyph-name="ellipsis" unicode="&#x2026;" horiz-adv-x="650" 
d="M356 0h-62v64h62v-64zM603 0h-62v64h62v-64zM109 0h-62v64h62v-64z" />
    <glyph glyph-name="perthousand" unicode="&#x2030;" horiz-adv-x="1023" 
d="M246.5 669q36.5 -36 36.5 -87t-36.5 -87t-87.5 -36t-87.5 36t-36.5 87t36.5 87t87.5 36t87.5 -36zM593 675l-453 -675l-38 26l454 675zM101 640q-24 -23 -24 -58t24 -58t58 -23t58 23t24 58t-24 58t-58 23t-58 -23zM626.5 205q36.5 -36 36.5 -87t-36.5 -87t-87.5 -36
t-87.5 36t-36.5 87t36.5 87t87.5 36t87.5 -36zM951.5 205q36.5 -36 36.5 -87t-36.5 -87t-87.5 -36t-87.5 36t-36.5 87t36.5 87t87.5 36t87.5 -36zM481 176q-24 -23 -24 -58t24 -58t58 -23t58 23t24 58t-24 58t-58 23t-58 -23zM806 176q-24 -23 -24 -58t24 -58t58 -23t58 23
t24 58t-24 58t-58 23t-58 -23z" />
    <glyph glyph-name="guilsinglleft" unicode="&#x2039;" horiz-adv-x="215" 
d="M176 458v-43l-117 -106l117 -107v-43l-148 109v81z" />
    <glyph glyph-name="guilsinglright" unicode="&#x203a;" horiz-adv-x="215" 
d="M187 268l-148 -109v43l117 107l-117 106v43l148 -109v-81z" />
    <glyph glyph-name="fraction" unicode="&#x2044;" horiz-adv-x="108" 
d="M-142 0h-48l436 700h42z" />
    <glyph glyph-name="Euro" unicode="&#x20ac;" horiz-adv-x="693" 
d="M539.5 60.5q49.5 19.5 85.5 55.5l32 -36q-46 -42 -103 -64.5t-119 -22.5q-76 0 -147.5 35t-123.5 98t-70 144h-59v40h52q-2 26 -2 40q0 18 1 27h-51v40h56q16 85 68 151t125 102.5t151 36.5q62 0 119 -22.5t103 -64.5l-32 -36q-36 36 -85.5 55.5t-104.5 19.5
q-63 0 -124 -30.5t-105.5 -86t-60.5 -125.5h168v-40h-174q-1 -9 -1 -27q0 -14 2 -40h173v-40h-165q18 -67 62.5 -119.5t103.5 -81t121 -28.5q55 0 104.5 19.5z" />
    <glyph glyph-name="uni20B4" unicode="&#x20b4;" horiz-adv-x="598" 
d="M255 325l-40 -15h333v-40h-402q-40 -37 -40 -93q0 -42 25.5 -74t68.5 -48.5t92 -16.5q76 0 131.5 38t77.5 99l43 -18q-24 -72 -94 -118t-158 -46q-62 0 -116 23t-87 65t-33 96q0 53 27 93h-33v40h72q44 34 126 61l17 6h-215v40h326q42 18 63.5 44.5t21.5 70.5
q0 58 -46 94t-119 36q-69 0 -117.5 -33t-70.5 -84l-43 17q26 62 87 103.5t144 41.5q59 0 108.5 -23t78 -63t28.5 -89q0 -71 -49 -115h86v-40h-149q-18 -8 -48 -19z" />
    <glyph glyph-name="trademark" unicode="&#x2122;" horiz-adv-x="547" 
d="M236 670h-69v-150h-33v150h-69v30h171v-30zM482 520h-33v99l-69 -99h-7l-69 99v-99h-33v180h11l94 -131l94 131h12v-180z" />
    <glyph glyph-name="oneeighth" unicode="&#x215b;" horiz-adv-x="556" 
d="M100 440h-37v221l-17 -11l-18 31l35 20h37v-261zM73 0h-48l436 700h42zM496.5 243q21.5 -20 21.5 -47q0 -34 -30 -53q43 -21 43 -66q0 -34 -27 -56.5t-65 -22.5q-37 0 -64 22.5t-27 56.5q0 22 11.5 39t31.5 27q-15 10 -22.5 24t-7.5 29q0 26 21.5 46.5t56.5 20.5
q36 0 57.5 -20zM408.5 221.5q-10.5 -10.5 -10.5 -25.5t12.5 -27t28.5 -12q18 0 29.5 12t11.5 27t-9.5 25.5t-31.5 10.5q-20 0 -30.5 -10.5zM401 112q-16 -14 -16 -35q0 -20 16 -34t38 -14q24 0 39 13t15 35t-15 35.5t-39 13.5q-22 0 -38 -14z" />
    <glyph glyph-name="threeeighths" unicode="&#x215c;" horiz-adv-x="574" 
d="M172 682.5q24 -20.5 24 -47.5q0 -32 -30 -53q19 -8 30.5 -25t11.5 -41q0 -34 -27.5 -57t-64.5 -23q-40 0 -66.5 27t-24.5 64h38q0 -24 14.5 -41.5t38.5 -17.5q22 0 38 13.5t16 34.5q0 27 -19 37.5t-55 10.5v29q32 0 47.5 11.5t15.5 30.5q0 16 -12.5 26.5t-30.5 10.5
q-22 0 -34.5 -14.5t-12.5 -40.5h-37q-1 38 23 62t61 24q32 0 56 -20.5zM93 0h-48l436 700h42zM514.5 243q21.5 -20 21.5 -47q0 -34 -30 -53q43 -21 43 -66q0 -34 -27 -56.5t-65 -22.5q-37 0 -64 22.5t-27 56.5q0 22 11.5 39t31.5 27q-15 10 -22.5 24t-7.5 29q0 26 21.5 46.5
t56.5 20.5q36 0 57.5 -20zM426.5 221.5q-10.5 -10.5 -10.5 -25.5t12.5 -27t28.5 -12q18 0 29.5 12t11.5 27t-9.5 25.5t-31.5 10.5q-20 0 -30.5 -10.5zM419 112q-16 -14 -16 -35q0 -20 16 -34t38 -14q24 0 39 13t15 35t-15 35.5t-39 13.5q-22 0 -38 -14z" />
    <glyph glyph-name="fiveeighths" unicode="&#x215d;" horiz-adv-x="576" 
d="M186 669h-104l-8 -58q22 10 45 10q35 0 63 -26.5t28 -65.5t-28 -66t-67 -27q-33 0 -58.5 18.5t-31.5 43.5l33 19q2 -20 17.5 -34.5t39.5 -14.5q23 0 40 17.5t17 43.5q0 25 -16.5 42.5t-36.5 17.5q-35 0 -57 -29l-32 8l18 133h138v-32zM93 0h-48l436 700h42zM516.5 243
q21.5 -20 21.5 -47q0 -34 -30 -53q43 -21 43 -66q0 -34 -27 -56.5t-65 -22.5q-37 0 -64 22.5t-27 56.5q0 22 11.5 39t31.5 27q-15 10 -22.5 24t-7.5 29q0 26 21.5 46.5t56.5 20.5q36 0 57.5 -20zM428.5 221.5q-10.5 -10.5 -10.5 -25.5t12.5 -27t28.5 -12q18 0 29.5 12
t11.5 27t-9.5 25.5t-31.5 10.5q-20 0 -30.5 -10.5zM421 112q-16 -14 -16 -35q0 -20 16 -34t38 -14q24 0 39 13t15 35t-15 35.5t-39 13.5q-22 0 -38 -14z" />
    <glyph glyph-name="seveneighths" unicode="&#x215e;" horiz-adv-x="556" 
d="M98 440h-39l89 229h-121v32h173zM73 0h-48l436 700h42zM496.5 243q21.5 -20 21.5 -47q0 -34 -30 -53q43 -21 43 -66q0 -34 -27 -56.5t-65 -22.5q-37 0 -64 22.5t-27 56.5q0 22 11.5 39t31.5 27q-15 10 -22.5 24t-7.5 29q0 26 21.5 46.5t56.5 20.5q36 0 57.5 -20z
M408.5 221.5q-10.5 -10.5 -10.5 -25.5t12.5 -27t28.5 -12q18 0 29.5 12t11.5 27t-9.5 25.5t-31.5 10.5q-20 0 -30.5 -10.5zM401 112q-16 -14 -16 -35q0 -20 16 -34t38 -14q24 0 39 13t15 35t-15 35.5t-39 13.5q-22 0 -38 -14z" />
    <glyph glyph-name="partialdiff" unicode="&#x2202;" horiz-adv-x="529" 
d="M200 700l168 -222q39 -52 60.5 -83.5t40.5 -80.5t19 -104q0 -62 -31 -112.5t-83 -79t-113 -28.5q-60 0 -112 28.5t-83 79t-31 112.5q0 61 31.5 111t84 78.5t110.5 28.5q64 0 116 -36l-235 308h58zM176.5 361q-40.5 -20 -66 -59t-25.5 -92q0 -51 25 -91t65.5 -62t85.5 -22
t86 22t66 62t25 91q0 81 -48.5 126t-128.5 45q-44 0 -84.5 -20z" />
    <glyph glyph-name="product" unicode="&#x220f;" horiz-adv-x="648" 
d="M603 800v-990h-45v940h-468v-940h-45v990h558z" />
    <glyph glyph-name="summation" unicode="&#x2211;" horiz-adv-x="648" 
d="M603 749h-472l249 -444l-249 -444h472v-51h-558l275 495l-275 495h558v-51z" />
    <glyph glyph-name="minus" unicode="&#x2212;" horiz-adv-x="425" 
d="M380 262h-335v40h335v-40z" />
    <glyph glyph-name="radical" unicode="&#x221a;" horiz-adv-x="656" 
d="M363 -190h-51l-161 472h-106v50h140l150 -448l228 916h48z" />
    <glyph glyph-name="infinity" unicode="&#x221e;" horiz-adv-x="806" 
d="M674.5 402q37.5 -22 59.5 -59t22 -81q0 -45 -22 -83t-59.5 -60t-81.5 -22q-54 0 -100 32.5t-90 90.5q-44 -58 -89.5 -90.5t-99.5 -32.5q-45 0 -82.5 22t-59.5 60t-22 83q0 44 22 81t59.5 59t82.5 22q53 0 99 -32t90 -89q44 57 90 89t100 32q44 0 81.5 -22zM298 176
q40 33 75 86q-35 52 -75 84t-82 32q-50 0 -84 -33.5t-34 -82.5q0 -50 34 -84.5t84 -34.5q42 0 82 33zM674 177.5q34 34.5 34 84.5q0 49 -34 82.5t-84 33.5q-42 0 -82 -32t-75 -84q35 -53 75 -86t82 -33q50 0 84 34.5z" />
    <glyph glyph-name="integral" unicode="&#x222b;" horiz-adv-x="275" 
d="M260 755q-46 0 -70.5 -24t-24.5 -86v-680q0 -155 -145 -155v45q46 0 70.5 24t24.5 86v680q0 155 145 155v-45z" />
    <glyph glyph-name="approxequal" unicode="&#x2248;" horiz-adv-x="463" 
d="M200.5 240q22.5 -10 47.5 -28q22 -15 37 -22t34 -7q36 0 52.5 14t16.5 33h30q0 -44 -27.5 -66.5t-71.5 -22.5q-31 0 -51.5 9.5t-45.5 28.5q-22 17 -39 25t-40 8q-36 0 -52.5 -17t-15.5 -36h-29q0 43 29.5 67t70.5 24q32 0 54.5 -10zM200.5 400q22.5 -10 47.5 -28
q22 -15 37 -22t34 -7q36 0 52.5 14t16.5 33h30q0 -44 -27.5 -66.5t-71.5 -22.5q-31 0 -51.5 9.5t-45.5 28.5q-22 17 -39 25t-40 8q-36 0 -52.5 -17t-15.5 -36h-29q0 43 29.5 67t70.5 24q32 0 54.5 -10z" />
    <glyph glyph-name="notequal" unicode="&#x2260;" horiz-adv-x="425" 
d="M258 342l-47 -120h169v-40h-184l-71 -182h-43l71 182h-108v40h123l47 120h-170v40h185l70 179h43l-70 -179h107v-40h-122z" />
    <glyph glyph-name="lessequal" unicode="&#x2264;" horiz-adv-x="434" 
d="M389 548l-288 -173l288 -172v-46l-343 208v21l343 207v-45zM389 0h-335v40h335v-40z" />
    <glyph glyph-name="greaterequal" unicode="&#x2265;" horiz-adv-x="434" 
d="M389 386v-21l-343 -208v46l288 172l-288 173v45zM381 40v-40h-335v40h335z" />
    <glyph glyph-name="lozenge" unicode="&#x25ca;" horiz-adv-x="462" 
d="M417 350l-155 -350h-62l-155 350l155 350h62zM365 350l-134 303l-134 -303l134 -303z" />
    <glyph glyph-name="i.loclTRK" horiz-adv-x="200" 
d="M125 0h-50v520h50v-520zM125 700h-51v52h51v-52z" />
    <glyph glyph-name="f_t" horiz-adv-x="654" 
d="M575 42.5q15 4.5 34 14.5v-45q-36 -18 -83 -18q-32 0 -54.5 19t-22.5 61v401h-329v-475h-50v475h-50v45h50v32q0 87 42 122t106 35q56 0 101 -28l-21 -38q-35 22 -80 22q-47 0 -72.5 -25.5t-25.5 -87.5v-32h329v90h50v-90h109v-45h-109v-391q0 -27 10 -36.5t32 -9.5
q19 0 34 4.5z" />
    <glyph glyph-name="t_t" horiz-adv-x="620" 
d="M551 42.5q15 4.5 34 14.5v-45q-36 -18 -83 -18q-32 0 -54.5 19t-22.5 61v403h-275v-392q0 -26 9.5 -36.5t31.5 -10.5q29 0 69 18v-44q-36 -18 -83 -18q-34 0 -55.5 18.5t-21.5 62.5v402h-70v43h70v90h50v-90h275v90h50v-90h109v-43h-109v-393q0 -27 10 -36.5t32 -9.5
q19 0 34 4.5z" />
    <glyph glyph-name="zero.tf" horiz-adv-x="700" 
d="M490.5 665.5q61.5 -41.5 96.5 -119.5t35 -183v-26q0 -105 -35 -183t-96.5 -119.5t-140.5 -41.5t-140.5 41.5t-96.5 119.5t-35 183v26q0 105 35 183t96.5 119.5t140.5 41.5t140.5 -41.5zM235 626q-50 -36 -78.5 -103.5t-28.5 -159.5v-26q0 -92 28.5 -159.5t78.5 -103.5
t115 -36t115 36t78.5 103.5t28.5 159.5v26q0 92 -28.5 159.5t-78.5 103.5t-115 36t-115 -36z" />
    <glyph glyph-name="one.tf" horiz-adv-x="700" 
d="M381 0h-50v655h-90v45h140v-700z" />
    <glyph glyph-name="two.tf" horiz-adv-x="700" 
d="M450 680q49 -27 77.5 -73t28.5 -101q0 -41 -19 -81t-50 -79.5t-95 -112.5l-23 -26l-143 -162h330v-45h-414v18l184 212l42 48q56 63 82 96t41 65t15 67q0 46 -22 81.5t-59 55t-81 19.5q-43 0 -80 -20t-59.5 -58t-22.5 -88v-16h-50v16q0 60 28.5 108t77 75.5t106.5 27.5
q57 0 106 -27z" />
    <glyph glyph-name="three.tf" horiz-adv-x="700" 
d="M373 410q55 2 103 -21.5t77 -69.5t29 -109q0 -66 -32 -116t-86 -77t-118 -27q-65 0 -117.5 28t-82 76.5t-29.5 106.5l50 1q0 -46 24 -84t65 -60.5t90 -22.5q51 0 93 20.5t67.5 60t25.5 94.5q0 79 -52.5 121t-136.5 42q-24 0 -48 -3l187 285h-344v45h429z" />
    <glyph glyph-name="four.tf" horiz-adv-x="700" 
d="M478 261h75v-45h-75v-216h-50v216h-338v17l368 467h20v-439zM169 261h259v332z" />
    <glyph glyph-name="five.tf" horiz-adv-x="700" 
d="M511 655h-296l-33 -247q63 63 166 63q59 0 112.5 -30.5t86 -85t32.5 -124.5q0 -68 -32.5 -123.5t-88 -86.5t-121.5 -31q-79 0 -140.5 41t-86.5 102l42 24q18 -50 68.5 -86t116.5 -36q52 0 96 25t70 69.5t26 101.5q0 55 -25 100t-66.5 70t-89.5 25q-51 0 -95.5 -20.5
t-78.5 -59.5l-46 10l44 344h339v-45z" />
    <glyph glyph-name="six.tf" horiz-adv-x="700" 
d="M233 392q52 36 116 36q58 0 110.5 -28.5t84 -78.5t31.5 -111q0 -62 -31 -112.5t-83 -79t-112 -28.5q-61 0 -113 28.5t-83 79t-31 112.5q0 55 19 104t40.5 80.5t60.5 83.5l168 222h58zM220.5 336q-48.5 -45 -48.5 -126q0 -51 25 -91t66 -62t86 -22t85.5 22t65.5 62t25 91
q0 53 -25.5 92t-66 59t-84.5 20q-80 0 -128.5 -45z" />
    <glyph glyph-name="seven.tf" horiz-adv-x="700" 
d="M282 0h-52l254 655h-356v45h424z" />
    <glyph glyph-name="eight.tf" horiz-adv-x="700" 
d="M535.5 314.5q35.5 -49.5 35.5 -114.5q0 -61 -30.5 -108t-81.5 -73t-110 -26t-110 26t-81.5 73t-30.5 108q0 65 35.5 114.5t94.5 74.5q-44 22 -68.5 62t-24.5 84q0 46 23 85.5t65 63t97 23.5t97 -23.5t65 -63t23 -85.5q0 -44 -24.5 -84t-68.5 -62q59 -25 94.5 -74.5z
M232 471q18 -29 49 -46.5t68 -17.5t68 17.5t49 46.5t18 64q0 32 -16 61.5t-47 47.5t-72 18t-72 -18t-47 -47.5t-16 -61.5q0 -35 18 -64zM434.5 58q39.5 20 63 57t23.5 85q0 47 -23 84t-62 58t-87 21t-87 -21t-62 -58t-23 -84q0 -48 23.5 -85t63 -57t85.5 -20t85.5 20z" />
    <glyph glyph-name="nine.tf" horiz-adv-x="700" 
d="M468 307q-52 -36 -116 -36q-58 0 -110.5 28.5t-84 78.5t-31.5 111q0 62 31 112.5t83 79t112 28.5q61 0 113 -28.5t83 -79t31 -112.5q0 -55 -19 -104t-40.5 -80.5t-60.5 -83.5l-168 -222h-58zM480.5 363q48.5 45 48.5 126q0 51 -25 91t-66 62t-86 22t-85.5 -22t-65.5 -62
t-25 -91q0 -53 25.5 -92t66 -59t84.5 -20q80 0 128.5 45z" />
    <glyph glyph-name="zero.dnom" horiz-adv-x="260" 
d="M206 228q29 -35 29 -91v-13q0 -56 -29 -91t-76 -35q-45 0 -75 35t-30 91v13q0 56 30 91t75 35q47 0 76 -35zM81.5 206.5q-19.5 -25.5 -19.5 -69.5v-13q0 -44 19.5 -69.5t48.5 -25.5q31 0 49.5 25t18.5 70v13q0 45 -18.5 70t-49.5 25q-29 0 -48.5 -25.5z" />
    <glyph glyph-name="one.dnom" horiz-adv-x="122" 
d="M97 0h-37v221l-17 -11l-18 31l35 20h37v-261z" />
    <glyph glyph-name="two.dnom" horiz-adv-x="221" 
d="M168 241.5q25 -22.5 25 -52.5q0 -26 -14.5 -47t-53.5 -61l-47 -49h118v-32h-168v32l68 69q38 40 48.5 54.5t10.5 33.5q0 18 -14 31t-32 13q-19 0 -33 -13t-14 -37v-14h-37v14q0 35 24.5 58t59.5 23q34 0 59 -22.5z" />
    <glyph glyph-name="three.dnom" horiz-adv-x="233" 
d="M172 242.5q24 -20.5 24 -47.5q0 -32 -30 -53q19 -8 30.5 -25t11.5 -41q0 -34 -27.5 -57t-64.5 -23q-40 0 -66.5 27t-24.5 64h38q0 -24 14.5 -41.5t38.5 -17.5q22 0 38 13.5t16 34.5q0 27 -19 37.5t-55 10.5v29q32 0 47.5 11.5t15.5 30.5q0 16 -12.5 26.5t-30.5 10.5
q-22 0 -34.5 -14.5t-12.5 -40.5h-37q-1 38 23 62t61 24q32 0 56 -20.5z" />
    <glyph glyph-name="four.dnom" horiz-adv-x="246" 
d="M194 107h27v-31h-27v-76h-37v76h-132l132 185h37v-154zM92 107h65v95z" />
    <glyph glyph-name="five.dnom" horiz-adv-x="235" 
d="M186 229h-104l-8 -58q22 10 45 10q35 0 63 -26.5t28 -65.5t-28 -66t-67 -27q-33 0 -58.5 18.5t-31.5 43.5l33 19q2 -20 17.5 -34.5t39.5 -14.5q23 0 40 17.5t17 43.5q0 25 -16.5 42.5t-36.5 17.5q-35 0 -57 -29l-32 8l18 133h138v-32z" />
    <glyph glyph-name="six.dnom" horiz-adv-x="223" 
d="M106 165h6q34 0 60 -25t26 -59q0 -35 -26 -60t-60 -25t-60.5 25t-26.5 60q0 24 9 41.5t28 41.5l13 18l57 79h42zM76 119q-14 -14 -14 -38q0 -23 15.5 -38t34.5 -15q18 0 33.5 15t15.5 38t-15 37.5t-34 14.5q-22 0 -36 -14z" />
    <glyph glyph-name="seven.dnom" horiz-adv-x="223" 
d="M96 0h-39l89 229h-121v32h173z" />
    <glyph glyph-name="eight.dnom" horiz-adv-x="233" 
d="M173.5 243q21.5 -20 21.5 -47q0 -34 -30 -53q43 -21 43 -66q0 -34 -27 -56.5t-65 -22.5q-37 0 -64 22.5t-27 56.5q0 22 11.5 39t31.5 27q-15 10 -22.5 24t-7.5 29q0 26 21.5 46.5t56.5 20.5q36 0 57.5 -20zM85.5 221.5q-10.5 -10.5 -10.5 -25.5t12.5 -27t28.5 -12
q18 0 29.5 12t11.5 27t-9.5 25.5t-31.5 10.5q-20 0 -30.5 -10.5zM78 112q-16 -14 -16 -35q0 -20 16 -34t38 -14q24 0 39 13t15 35t-15 35.5t-39 13.5q-22 0 -38 -14z" />
    <glyph glyph-name="nine.dnom" horiz-adv-x="224" 
d="M172.5 239.5q26.5 -24.5 26.5 -59.5q0 -25 -9.5 -43.5t-22.5 -34.5t-19 -24l-56 -78h-43l68 95h-5q-35 0 -61 25.5t-26 59.5q0 35 26.5 59.5t60.5 24.5t60.5 -24.5zM77.5 217q-15.5 -15 -15.5 -37q0 -23 15.5 -38t34.5 -15q22 0 35.5 14.5t13.5 38.5q0 22 -15.5 37
t-33.5 15q-19 0 -34.5 -15z" />
    <glyph glyph-name="zero.numr" horiz-adv-x="260" 
d="M206 668q29 -35 29 -91v-13q0 -56 -29 -91t-76 -35q-45 0 -75 35t-30 91v13q0 56 30 91t75 35q47 0 76 -35zM81.5 646.5q-19.5 -25.5 -19.5 -69.5v-13q0 -44 19.5 -69.5t48.5 -25.5q31 0 49.5 25t18.5 70v13q0 45 -18.5 70t-49.5 25q-29 0 -48.5 -25.5z" />
    <glyph glyph-name="one.numr" horiz-adv-x="122" 
d="M97 440h-37v221l-17 -11l-18 31l35 20h37v-261z" />
    <glyph glyph-name="two.numr" horiz-adv-x="221" 
d="M168 681.5q25 -22.5 25 -52.5q0 -26 -14.5 -47t-53.5 -61l-47 -49h118v-32h-168v32l68 69q38 40 48.5 54.5t10.5 33.5q0 18 -14 31t-32 13q-19 0 -33 -13t-14 -37v-14h-37v14q0 35 24.5 58t59.5 23q34 0 59 -22.5z" />
    <glyph glyph-name="three.numr" horiz-adv-x="233" 
d="M172 682.5q24 -20.5 24 -47.5q0 -32 -30 -53q19 -8 30.5 -25t11.5 -41q0 -34 -27.5 -57t-64.5 -23q-40 0 -66.5 27t-24.5 64h38q0 -24 14.5 -41.5t38.5 -17.5q22 0 38 13.5t16 34.5q0 27 -19 37.5t-55 10.5v29q32 0 47.5 11.5t15.5 30.5q0 16 -12.5 26.5t-30.5 10.5
q-22 0 -34.5 -14.5t-12.5 -40.5h-37q-1 38 23 62t61 24q32 0 56 -20.5z" />
    <glyph glyph-name="four.numr" horiz-adv-x="246" 
d="M194 547h27v-31h-27v-76h-37v76h-132l132 185h37v-154zM92 547h65v95z" />
    <glyph glyph-name="five.numr" horiz-adv-x="235" 
d="M186 669h-104l-8 -58q22 10 45 10q35 0 63 -26.5t28 -65.5t-28 -66t-67 -27q-33 0 -58.5 18.5t-31.5 43.5l33 19q2 -20 17.5 -34.5t39.5 -14.5q23 0 40 17.5t17 43.5q0 25 -16.5 42.5t-36.5 17.5q-35 0 -57 -29l-32 8l18 133h138v-32z" />
    <glyph glyph-name="six.numr" horiz-adv-x="223" 
d="M106 605h6q34 0 60 -25t26 -59q0 -35 -26 -60t-60 -25t-60.5 25t-26.5 60q0 24 9 41.5t28 41.5l13 18l57 79h42zM76 559q-14 -14 -14 -38q0 -23 15.5 -38t34.5 -15q18 0 33.5 15t15.5 38t-15 37.5t-34 14.5q-22 0 -36 -14z" />
    <glyph glyph-name="seven.numr" horiz-adv-x="223" 
d="M96 440h-39l89 229h-121v32h173z" />
    <glyph glyph-name="eight.numr" horiz-adv-x="233" 
d="M173.5 683q21.5 -20 21.5 -47q0 -34 -30 -53q43 -21 43 -66q0 -34 -27 -56.5t-65 -22.5q-37 0 -64 22.5t-27 56.5q0 22 11.5 39t31.5 27q-15 10 -22.5 24t-7.5 29q0 26 21.5 46.5t56.5 20.5q36 0 57.5 -20zM85.5 661.5q-10.5 -10.5 -10.5 -25.5t12.5 -27t28.5 -12
q18 0 29.5 12t11.5 27t-9.5 25.5t-31.5 10.5q-20 0 -30.5 -10.5zM78 552q-16 -14 -16 -35q0 -20 16 -34t38 -14q24 0 39 13t15 35t-15 35.5t-39 13.5q-22 0 -38 -14z" />
    <glyph glyph-name="nine.numr" horiz-adv-x="224" 
d="M172.5 679.5q26.5 -24.5 26.5 -59.5q0 -25 -9.5 -43.5t-22.5 -34.5t-19 -24l-56 -78h-43l68 95h-5q-35 0 -61 25.5t-26 59.5q0 35 26.5 59.5t60.5 24.5t60.5 -24.5zM77.5 657q-15.5 -15 -15.5 -37q0 -23 15.5 -38t34.5 -15q22 0 35.5 14.5t13.5 38.5q0 22 -15.5 37
t-33.5 15q-19 0 -34.5 -15z" />
    </font>
</defs>
</svg>
