<?xml version="1.0" standalone="no"?>
<!DOCTYPE svg PUBLIC "-//W3C//DTD SVG 1.1//EN" "http://www.w3.org/Graphics/SVG/1.1/DTD/svg11.dtd" >
<svg xmlns="http://www.w3.org/2000/svg" xmlns:xlink="http://www.w3.org/1999/xlink" version="1.1">
<metadata>
Created by FontForge 20161013 at Tue Jul  7 08:10:48 2015
 By ,,,
(c) 2015 Connary Fagen
</metadata>
<defs>
<font id="VisbyCF-Bold" horiz-adv-x="605" >
  <font-face 
    font-family="Visby CF Bold"
    font-weight="700"
    font-stretch="normal"
    units-per-em="1000"
    panose-1="0 0 8 0 0 0 0 0 0 0"
    ascent="800"
    descent="-200"
    x-height="520"
    cap-height="700"
    bbox="-201 -236 1193 977"
    underline-thickness="50"
    underline-position="-150"
    unicode-range="U+0020-FB02"
  />
<missing-glyph horiz-adv-x="495" 
d="M406 -190h-314v990h314v-990zM166 734v-33h65v-37h-66v-32h165v32h-66v37h66v33h-164zM165 606v-103h165v34h-66v69h-99zM231 537h-33v35h33v-35zM165 476v-32h66v-37h-66v-33h99v70h66v32h-165zM297 417v-65h-132v-34h165v99h-33zM231 296v-55h33v22h33v-46h-99v79h-33
v-112h165v112h-99zM165 125v-112h165v112h-165zM297 46h-99v46h99v-46zM165 -10v-32h70l-70 -47v-33h165v33h-101l69 47h32v32h-165z" />
    <glyph glyph-name="fi" unicode="fi" horiz-adv-x="598" 
d="M128.5 672.5q49.5 35.5 115.5 35.5t123 -32l-35 -71q-43 19 -84 19q-39 0 -53.5 -21t-14.5 -61v-22h125v-87h-125v-433h-101v433h-59v87h59v23q0 94 49.5 129.5zM531 520v-520h-101v520h101z" />
    <glyph glyph-name="fl" unicode="fl" horiz-adv-x="604" 
d="M528 700v-700h-103v577q-31 23 -62 33t-77 10q-53 0 -84 -22.5t-31 -64.5v-13h134v-87h-134v-433h-101v433h-50v87h50v13q0 64 34 103t83 55t99 16q75 0 139 -33v26h103z" />
    <glyph glyph-name="f_f" unicode="ff" horiz-adv-x="783" 
d="M566 541v-21h138v-88h-138v-432h-101v432h-59v1h-226v-433h-101v433h-59v87h59v23q0 94 49.5 129.5t115.5 35.5q62 0 118 -30l-34 -72q-37 18 -80 18q-39 0 -53.5 -21t-14.5 -61v-22h285v23q0 94 49.5 129.5t115.5 35.5q63 0 119 -30l-35 -72q-37 18 -79 18
q-69 0 -69 -83z" />
    <glyph glyph-name=".notdef" horiz-adv-x="495" 
d="M406 -190h-314v990h314v-990zM166 734v-33h65v-37h-66v-32h165v32h-66v37h66v33h-164zM165 606v-103h165v34h-66v69h-99zM231 537h-33v35h33v-35zM165 476v-32h66v-37h-66v-33h99v70h66v32h-165zM297 417v-65h-132v-34h165v99h-33zM231 296v-55h33v22h33v-46h-99v79h-33
v-112h165v112h-99zM165 125v-112h165v112h-165zM297 46h-99v46h99v-46zM165 -10v-32h70l-70 -47v-33h165v33h-101l69 47h32v32h-165z" />
    <glyph glyph-name=".null" horiz-adv-x="0" 
 />
    <glyph glyph-name="nonmarkingreturn" horiz-adv-x="333" 
 />
    <glyph glyph-name="space" unicode=" " horiz-adv-x="300" 
 />
    <glyph glyph-name="exclam" unicode="!" horiz-adv-x="262" 
d="M188 206h-113v494h113v-494zM188 0h-115v114h115v-114z" />
    <glyph glyph-name="quotedbl" unicode="&#x22;" horiz-adv-x="383" 
d="M338 525h-101v175h101v-175zM146 525h-101v175h101v-175z" />
    <glyph glyph-name="numbersign" unicode="#" horiz-adv-x="550" 
d="M434 433l-11 -165h82v-88h-89l-12 -180h-101l12 180h-111l-12 -180h-101l12 180h-58v88h65l11 165h-76v87h83l13 180h101l-13 -180h111l13 180h101l-13 -180h64v-87h-71zM333 433h-111l-11 -165h111z" />
    <glyph glyph-name="dollar" unicode="$" horiz-adv-x="582" 
d="M486 61.5q-57 -50.5 -139 -64.5v-87h-87v85q-80 9 -138.5 52.5t-81.5 109.5l86 38q18 -49 64 -80.5t107 -31.5q58 0 100.5 28t42.5 79q0 48 -31 73.5t-98 48.5l-58 21q-85 30 -131 75t-46 119q0 69 52.5 118t131.5 60v85h87v-87q65 -12 112 -50t70 -87l-90 -31
q-16 37 -52.5 59.5t-86.5 22.5q-53 0 -87 -25t-34 -65q0 -37 23.5 -61t77.5 -42l56 -19q104 -35 155.5 -87t51.5 -128q0 -78 -57 -128.5z" />
    <glyph glyph-name="percent" unicode="%" horiz-adv-x="698" 
d="M247 669.5q36 -35.5 36 -87.5t-36 -87.5t-88 -35.5t-88 35.5t-36 87.5t36 87.5t88 35.5t88 -35.5zM602 651l-436 -651l-80 51l438 651zM126.5 615q-13.5 -13 -13.5 -33t13.5 -33t32.5 -13t32.5 13t13.5 33t-13.5 33t-32.5 13t-32.5 -13zM627 205.5q36 -35.5 36 -87.5
t-36 -87.5t-88 -35.5t-88 35.5t-36 87.5t36 87.5t88 35.5t88 -35.5zM506.5 151q-13.5 -13 -13.5 -33t13.5 -33t32.5 -13t32.5 13t13.5 33t-13.5 33t-32.5 13t-32.5 -13z" />
    <glyph glyph-name="ampersand" unicode="&#x26;" horiz-adv-x="714" 
d="M682 105v-88q-16 -12 -32.5 -17.5t-42.5 -5.5q-50 0 -74.5 26.5t-24.5 76.5v18q-64 -125 -213 -125q-62 0 -117 26.5t-89 76.5t-34 116q0 87 49.5 141.5t125.5 67.5l-146 282h445v-87h-308l137 -266q-19 1 -46 1q-76 0 -116 -39.5t-40 -97.5q0 -57 41 -95t106 -38
q45 0 84 19.5t62 55t23 82.5v178h159v-88h-58v-188q0 -33 10.5 -44t31.5 -11q37 0 67 23z" />
    <glyph glyph-name="quotesingle" unicode="'" horiz-adv-x="191" 
d="M146 525h-101v175h101v-175z" />
    <glyph glyph-name="parenleft" unicode="(" horiz-adv-x="291" 
d="M171.5 549.5q-25.5 -104.5 -25.5 -229.5q0 -256 101 -450h-96q-53 95 -79.5 205.5t-26.5 244.5q0 127 26.5 231.5t79.5 193.5h96q-50 -91 -75.5 -195.5z" />
    <glyph glyph-name="parenright" unicode=")" horiz-adv-x="291" 
d="M141 745q53 -89 79.5 -193.5t26.5 -231.5q0 -134 -26.5 -244.5t-79.5 -205.5h-96q101 194 101 450q0 125 -25.5 229.5t-75.5 195.5h96z" />
    <glyph glyph-name="asterisk" unicode="*" horiz-adv-x="490" 
d="M311 530l69 -93l-72 -45l-63 89l-63 -89l-73 45l70 93l-104 28l20 84l110 -33l-3 115h84l-2 -115l110 33l21 -84zM245 545l8 8l-1 4h-15l-1 -4z" />
    <glyph glyph-name="plus" unicode="+" horiz-adv-x="425" 
d="M380 236h-130v-122h-83v122h-122v83h122v130h83v-130h130v-83z" />
    <glyph glyph-name="comma" unicode="," horiz-adv-x="238" 
d="M77 20h136l-86 -155h-90z" />
    <glyph glyph-name="hyphen" unicode="-" horiz-adv-x="400" 
d="M355 237h-310v82h310v-82z" />
    <glyph glyph-name="period" unicode="." horiz-adv-x="197" 
d="M156 0h-115v114h115v-114z" />
    <glyph glyph-name="slash" unicode="/" horiz-adv-x="533" 
d="M148 -130h-103l340 875h103z" />
    <glyph glyph-name="zero" unicode="0" horiz-adv-x="668" 
d="M480 667q66 -40 104.5 -118t38.5 -186v-26q0 -108 -38.5 -186t-104.5 -118t-146 -40t-146 40t-104.5 118t-38.5 186v26q0 108 38.5 186t104.5 118t146 40t146 -40zM229.5 585q-42.5 -35 -63 -93t-20.5 -129v-26q0 -110 48 -183t140 -73t140 73t48 183v26q0 71 -20.5 129
t-63 93t-104.5 35t-104.5 -35z" />
    <glyph glyph-name="one" unicode="1" horiz-adv-x="338" 
d="M262 0h-101v613h-105v87h206v-700z" />
    <glyph glyph-name="two" unicode="2" horiz-adv-x="544" 
d="M387.5 677q52.5 -30 82 -78.5t29.5 -103.5q0 -46 -17 -86.5t-52 -86t-105 -123.5l-100 -111h274v-88h-452v29l173 203l37 42q61 70 86.5 102.5t39 60.5t13.5 58q0 60 -38 91.5t-87 31.5q-30 0 -58 -14t-46 -42t-18 -69v-17h-103v17q0 56 28.5 105t80 79t116.5 30
q64 0 116.5 -30z" />
    <glyph glyph-name="three" unicode="3" horiz-adv-x="581" 
d="M367 422q46 -4 85 -29.5t62 -70t23 -100.5q0 -70 -34 -123t-91.5 -81t-124.5 -28q-70 0 -125 29t-86 79t-31 110h101q0 -40 20.5 -69.5t53 -45t67.5 -15.5t69.5 14.5t57 47t22.5 82.5q0 60 -45 99.5t-119 39.5q-21 0 -49 -5l156 257h-310v87h469z" />
    <glyph glyph-name="four" unicode="4" horiz-adv-x="569" 
d="M459 287h75v-88h-75v-199h-101v199h-322v20l386 481h37v-413zM209 287h149v201z" />
    <glyph glyph-name="five" unicode="5" horiz-adv-x="577" 
d="M465 613h-267l-22 -171q29 14 52 21.5t62 7.5q63 0 119 -30.5t89.5 -85t33.5 -124.5q0 -68 -33 -123.5t-89 -86.5t-122 -31q-88 0 -147 39t-91 104l81 42q17 -27 34.5 -46.5t48 -35t74.5 -15.5q33 0 66 17.5t55 52t22 83.5q0 50 -21.5 84.5t-54.5 51.5t-65 17
q-41 0 -69.5 -10t-62.5 -37l-90 19l44 344h353v-87z" />
    <glyph glyph-name="six" unicode="6" horiz-adv-x="552" 
d="M237 429q19 8 44 8q56 0 108.5 -31t85.5 -83t33 -111q0 -63 -32.5 -114t-85.5 -79.5t-113 -28.5t-113.5 28.5t-86.5 79.5t-33 114q0 49 14.5 91t34 73.5t50.5 72.5l19 26l163 225h112zM177.5 306.5q-37.5 -37.5 -37.5 -94.5q0 -39 18.5 -69.5t50 -47.5t68.5 -17
q36 0 66.5 17t49 47.5t18.5 69.5q0 37 -18.5 67t-49 47.5t-66.5 17.5q-62 0 -99.5 -37.5z" />
    <glyph glyph-name="seven" unicode="7" horiz-adv-x="520" 
d="M215 0h-107l237 613h-320v87h460z" />
    <glyph glyph-name="eight" unicode="8" horiz-adv-x="556" 
d="M483.5 322.5q32.5 -48.5 32.5 -111.5q0 -64 -34 -114t-89 -77t-115 -27t-115 27t-89 77t-34 114q0 63 32.5 111.5t86.5 72.5q-35 22 -55.5 58t-20.5 76q0 48 24 88.5t68.5 65t102.5 24.5t102.5 -24.5t68.5 -65t24 -88.5q0 -40 -20.5 -76t-55.5 -58q54 -24 86.5 -72.5z
M209.5 458q27.5 -28 68.5 -28t68.5 28t27.5 67q0 38 -27 65.5t-69 27.5t-69 -27.5t-27 -65.5q0 -39 27.5 -67zM371.5 119.5q38.5 35.5 38.5 91.5q0 40 -18.5 70t-49 46t-64.5 16t-64.5 -16t-49 -46t-18.5 -70q0 -56 38.5 -91.5t93.5 -35.5t93.5 35.5z" />
    <glyph glyph-name="nine" unicode="9" horiz-adv-x="552" 
d="M315 270q-19 -8 -44 -8q-56 0 -108.5 31t-85.5 83t-33 111q0 63 32.5 114t85.5 79.5t113 28.5t113.5 -28.5t86.5 -79.5t33 -114q0 -49 -14.5 -91t-34 -73.5t-50.5 -72.5l-19 -26l-163 -225h-112zM374.5 392.5q37.5 37.5 37.5 94.5q0 39 -18.5 69.5t-49.5 47.5t-68 17
q-36 0 -67 -17t-49.5 -47.5t-18.5 -69.5q0 -37 18.5 -67t49.5 -47.5t67 -17.5q61 0 98.5 37.5z" />
    <glyph glyph-name="colon" unicode=":" horiz-adv-x="225" 
d="M161 0h-115v114h115v-114zM161 403h-115v114h115v-114z" />
    <glyph glyph-name="semicolon" unicode=";" horiz-adv-x="258" 
d="M183 454h-115v114h115v-114zM50 20h136l-86 -155h-90z" />
    <glyph glyph-name="less" unicode="&#x3c;" horiz-adv-x="497" 
d="M462 386l-277 -146l277 -144v-96l-417 223v35l417 223v-95z" />
    <glyph glyph-name="equal" unicode="=" horiz-adv-x="426" 
d="M381 316h-335v83h335v-83zM381 156h-335v83h335v-83z" />
    <glyph glyph-name="greater" unicode="&#x3e;" horiz-adv-x="497" 
d="M452 258v-35l-417 -223v96l277 144l-277 146v95z" />
    <glyph glyph-name="question" unicode="?" horiz-adv-x="527" 
d="M376 681.5q51 -25.5 81 -71.5t30 -107q0 -37 -11 -64.5t-26.5 -45.5t-42.5 -43q-36 -32 -54.5 -60t-18.5 -71v-16h-105v16q0 40 12.5 69.5t29.5 49.5t46 47q36 34 52.5 58t16.5 60q0 49 -30 83t-89 34q-60 0 -93 -37.5t-33 -96.5h-101q0 67 31 117.5t83 77t112 26.5
q59 0 110 -25.5zM340 0h-115v114h115v-114z" />
    <glyph glyph-name="at" unicode="@" horiz-adv-x="802" 
d="M558 518v-204q0 -33 11.5 -48t35.5 -15q49 0 49 96q0 77 -35.5 138.5t-93 96t-121.5 34.5q-66 0 -125.5 -34.5t-96.5 -96.5t-37 -139q0 -74 36.5 -134t95.5 -94.5t123 -34.5q42 0 80.5 13.5t69.5 37.5l88 -38q-46 -49 -106.5 -76t-127.5 -27q-89 0 -171.5 46t-134 126.5
t-51.5 180.5q0 103 51.5 186t134 129t171.5 46q90 0 170 -46t129 -128.5t49 -186.5q0 -59 -19.5 -100.5t-52.5 -62.5t-73 -21q-45 0 -71.5 19.5t-31.5 51.5q-12 -32 -44 -52t-72 -20t-78.5 21t-63 63t-24.5 102q0 58 25 99t63 62t78 21q32 0 57.5 -11.5t33.5 -33.5v34h79z
M449.5 277.5q23.5 29.5 23.5 70.5q0 44 -23.5 72.5t-60.5 28.5q-36 0 -58.5 -28.5t-22.5 -72.5q0 -42 23 -71t58 -29q37 0 60.5 29.5z" />
    <glyph glyph-name="A" unicode="A" horiz-adv-x="726" 
d="M513 171h-299l-76 -171h-113l328 700h20l328 -700h-112zM474 257l-111 247l-110 -247h221z" />
    <glyph glyph-name="B" unicode="B" horiz-adv-x="620" 
d="M540 312q35 -47 35 -107q0 -97 -66.5 -151t-190.5 -54h-252v700h246q100 0 157 -46.5t57 -133.5q0 -46 -22.5 -81.5t-69.5 -53.5q71 -26 106 -73zM312 421q57 0 85 23.5t28 71.5q0 46 -29 71t-84 25h-143v-191h143zM437.5 120q36.5 32 36.5 90q0 53 -37.5 88t-109.5 35
h-158v-245h158q74 0 110.5 32z" />
    <glyph glyph-name="C" unicode="C" horiz-adv-x="655" 
d="M516 684.5q58 -22.5 104 -64.5l-65 -76q-31 30 -72.5 46.5t-89.5 16.5q-62 0 -117.5 -34t-89 -93t-33.5 -130q0 -72 33.5 -131t89 -92.5t117.5 -33.5q48 0 90 17.5t74 47.5l64 -76q-46 -42 -105 -65.5t-124 -23.5q-88 0 -169.5 46t-132 127.5t-50.5 182.5q0 102 50.5 184
t132 128t169.5 46q66 0 124 -22.5z" />
    <glyph glyph-name="D" unicode="D" horiz-adv-x="701" 
d="M478.5 653.5q80.5 -46.5 126.5 -126.5t46 -176q0 -97 -46 -177.5t-126.5 -127t-179.5 -46.5h-224v700h224q99 0 179.5 -46.5zM431 122.5q56 34.5 86 94.5t30 134t-30 133.5t-86 93.5t-132 34h-120v-524h120q76 0 132 34.5z" />
    <glyph glyph-name="E" unicode="E" horiz-adv-x="545" 
d="M500 91v-91h-445v700h435v-91h-329v-216h229v-91h-229v-211h339z" />
    <glyph glyph-name="F" unicode="F" horiz-adv-x="534" 
d="M161 609v-216h277v-92h-277v-301h-106v700h434v-91h-328z" />
    <glyph glyph-name="G" unicode="G" horiz-adv-x="741" 
d="M705 321q0 -101 -40.5 -175t-111 -113.5t-158.5 -39.5q-91 0 -173 46t-132 127.5t-50 183.5t50 183.5t131.5 127.5t173.5 46q76 0 139 -28.5t102 -73.5l-64 -71q-27 32 -74 52.5t-103 20.5q-64 0 -119.5 -33t-89.5 -91.5t-34 -131.5t34.5 -132t90.5 -92.5t118 -33.5
q87 0 142.5 48t65.5 136h-156v81h257q1 -13 1 -37z" />
    <glyph glyph-name="H" unicode="H" horiz-adv-x="681" 
d="M611 700v-700h-104v301h-333v-301h-104v700h104v-310h333v310h104z" />
    <glyph glyph-name="I" unicode="I" horiz-adv-x="247" 
d="M176 0h-105v700h105v-700z" />
    <glyph glyph-name="J" unicode="J" horiz-adv-x="539" 
d="M474 243q0 -88 -33 -144t-84.5 -81t-110.5 -25q-66 0 -116.5 22.5t-84.5 61.5l67 67q47 -59 130 -59q57 0 94 36t37 125v454h101v-457z" />
    <glyph glyph-name="K" unicode="K" horiz-adv-x="698" 
d="M353 351l315 -351h-118l-256 279l-119 -142v-137h-105v700h105v-427l352 427h119z" />
    <glyph glyph-name="L" unicode="L" horiz-adv-x="575" 
d="M524 88v-88h-453v700h103v-612h350z" />
    <glyph glyph-name="M" unicode="M" horiz-adv-x="860" 
d="M791 0h-104v467l-215 -467h-85l-213 466v-466h-104v700h100l260 -554l260 554h101v-700z" />
    <glyph glyph-name="N" unicode="N" horiz-adv-x="694" 
d="M624 0h-99l-351 524v-524h-104v700h99l351 -524v524h104v-700z" />
    <glyph glyph-name="O" unicode="O" horiz-adv-x="811" 
d="M576 661q81 -46 130.5 -127.5t49.5 -183.5t-49.5 -183.5t-130.5 -127.5t-170 -46q-87 0 -168 46t-132 128t-51 183t51 183t132 128t168 46q89 0 170 -46zM290 574.5q-55 -32.5 -88.5 -91.5t-33.5 -133t33.5 -133t88.5 -91.5t116 -32.5q65 0 119.5 32.5t86.5 91t32 133.5
t-32 133.5t-86.5 91t-119.5 32.5q-61 0 -116 -32.5z" />
    <glyph glyph-name="P" unicode="P" 
d="M438 672q56 -28 86.5 -77.5t30.5 -112.5t-30.5 -112.5t-86.5 -77.5t-132 -28h-132v-264h-104v700h236q76 0 132 -28zM410.5 389q40.5 33 40.5 93t-40.5 93t-110.5 33h-126v-252h126q70 0 110.5 33z" />
    <glyph glyph-name="Q" unicode="Q" horiz-adv-x="795" 
d="M726.5 206.5q-29.5 -66.5 -80.5 -115.5l89 -91h-119l-39 40q-83 -47 -171 -47q-87 0 -168 46t-132 128t-51 183t51 183t132 128t168 46q89 0 170 -46t130.5 -127.5t49.5 -183.5q0 -77 -29.5 -143.5zM504 114l-136 140h119l87 -89q33 34 51.5 81.5t18.5 103.5
q0 75 -32 133.5t-86.5 91t-119.5 32.5q-61 0 -116 -32.5t-88.5 -91.5t-33.5 -133t33.5 -133t88.5 -91.5t116 -32.5q53 0 98 21z" />
    <glyph glyph-name="R" unicode="R" horiz-adv-x="619" 
d="M464 0l-182 264h-108v-264h-104v700h236q76 0 132 -28t86.5 -77.5t30.5 -112.5q0 -77 -45 -133t-123 -76l192 -273h-115zM174 356h126q70 0 110.5 33t40.5 93t-40.5 93t-110.5 33h-126v-252z" />
    <glyph glyph-name="S" unicode="S" horiz-adv-x="583" 
d="M441 666q61 -41 88 -100l-90 -31q-16 37 -52.5 59.5t-86.5 22.5q-53 0 -87 -25t-34 -65q0 -37 23.5 -61t77.5 -42l56 -19q104 -35 155.5 -87t51.5 -128q0 -62 -36 -106.5t-93 -67.5t-117 -23q-93 0 -161.5 45t-95.5 119l86 38q18 -49 64 -80.5t107 -31.5q58 0 100.5 28
t42.5 79q0 48 -31 73.5t-98 48.5l-58 21q-85 30 -131 75t-46 119q0 51 30 92.5t80.5 64.5t110.5 23q83 0 144 -41z" />
    <glyph glyph-name="T" unicode="T" horiz-adv-x="576" 
d="M531 608h-188v-608h-109v608h-188v92h485v-92z" />
    <glyph glyph-name="U" unicode="U" horiz-adv-x="678" 
d="M613 259q0 -81 -36.5 -141t-99 -92.5t-138.5 -32.5t-138.5 32.5t-99 92.5t-36.5 141v441h101v-441q0 -87 49 -132.5t124 -45.5q74 0 123.5 46t49.5 132v441h101v-441z" />
    <glyph glyph-name="V" unicode="V" horiz-adv-x="726" 
d="M373 0h-20l-328 700h113l225 -504l226 504h112z" />
    <glyph glyph-name="W" unicode="W" horiz-adv-x="1056" 
d="M763 0h-25l-210 499l-211 -499h-24l-253 700h110l164 -475l200 475h28l200 -475l164 475h110z" />
    <glyph glyph-name="X" unicode="X" horiz-adv-x="702" 
d="M541 0l-191 273l-192 -273h-117l249 358l-240 342h120l180 -257l179 257h120l-239 -342l251 -358h-120z" />
    <glyph glyph-name="Y" unicode="Y" horiz-adv-x="695" 
d="M398 326v-326h-101v326l-262 374h115l198 -285l198 285h115z" />
    <glyph glyph-name="Z" unicode="Z" horiz-adv-x="657" 
d="M220 88h402v-88h-587l399 613h-373v87h557z" />
    <glyph glyph-name="bracketleft" unicode="[" horiz-adv-x="273" 
d="M228 658h-82v-701h82v-87h-183v875h183v-87z" />
    <glyph glyph-name="backslash" unicode="\" horiz-adv-x="533" 
d="M148 745l340 -875h-103l-340 875h103z" />
    <glyph glyph-name="bracketright" unicode="]" horiz-adv-x="273" 
d="M228 745v-875h-183v88h82v699h-82v88h183z" />
    <glyph glyph-name="asciicircum" unicode="^" horiz-adv-x="486" 
d="M441 475h-75l-122 132l-124 -132h-75l167 225h62z" />
    <glyph glyph-name="underscore" unicode="_" horiz-adv-x="590" 
d="M545 -88h-500v88h500v-88z" />
    <glyph glyph-name="grave" unicode="`" horiz-adv-x="200" 
d="M143 767l57 -145h-90l-110 145h143z" />
    <glyph glyph-name="a" unicode="a" 
d="M389.5 499q45.5 -27 59.5 -66v87h101v-520h-101v91q-15 -39 -60.5 -68.5t-103.5 -29.5t-114.5 30.5t-93.5 91t-37 145.5q0 84 37 144.5t93.5 91t114.5 30.5q59 0 104.5 -27zM224.5 418q-36.5 -21 -60 -61.5t-23.5 -96.5q0 -57 23.5 -97.5t60 -61t75.5 -20.5t74 19
t57 59.5t22 100.5q0 61 -22 101t-57 59t-74 19t-75.5 -21z" />
    <glyph glyph-name="b" unicode="b" 
d="M434.5 495.5q56.5 -30.5 93.5 -91t37 -144.5q0 -86 -37 -146t-93.5 -90.5t-115.5 -30.5q-58 0 -103 29.5t-60 68.5v-91h-101v700h101v-267q14 38 59 65.5t104 27.5t115.5 -30.5zM380.5 101q36.5 21 60 61.5t23.5 97.5q0 56 -23.5 96.5t-60 61t-75.5 20.5t-74 -19
t-57.5 -59t-22.5 -100t22.5 -100.5t57.5 -60t74 -19.5t75.5 21z" />
    <glyph glyph-name="c" unicode="c" horiz-adv-x="545" 
d="M419 494.5q60 -31.5 96 -91.5l-91 -32q-21 33 -55 50.5t-71 17.5q-39 0 -75 -21t-59 -61.5t-23 -97.5q0 -56 23 -96.5t59 -61t75 -20.5q37 0 71.5 17t54.5 50l91 -32q-36 -60 -96 -91.5t-121 -31.5q-58 0 -118 30t-100 90.5t-40 145.5t40 145.5t100 91t118 30.5
q61 0 121 -31.5z" />
    <glyph glyph-name="d" unicode="d" 
d="M555 700v-700h-101v91q-15 -39 -60 -68.5t-103 -29.5q-59 0 -115.5 30.5t-93.5 90.5t-37 146q0 84 37 144.5t93.5 91t115.5 30.5t104 -27.5t59 -65.5v267h101zM379 99.5q35 19.5 57.5 60t22.5 100.5t-22.5 100t-57.5 59t-74 19t-75.5 -20.5t-60 -61t-23.5 -96.5
q0 -57 23.5 -97.5t60 -61.5t75.5 -21t74 19.5z" />
    <glyph glyph-name="e" unicode="e" horiz-adv-x="592" 
d="M415 495.5q59 -30.5 98 -91t39 -145.5q0 -20 -3 -38h-405q6 -44 30 -76t57.5 -48t67.5 -16q78 0 122 49l82 -45q-39 -45 -92.5 -68.5t-111.5 -23.5q-59 0 -119 30t-100 90.5t-40 145.5t39 145.5t98.5 91t119.5 30.5q59 0 118 -30.5zM198.5 402q-44.5 -36 -53.5 -103h305
q-10 67 -55 103t-98 36q-54 0 -98.5 -36z" />
    <glyph glyph-name="f" unicode="f" horiz-adv-x="387" 
d="M180 541v-21h138v-87h-138v-433h-101v433h-59v87h59v23q0 94 49.5 129.5t115.5 35.5q62 0 118 -30l-34 -72q-37 18 -79 18q-69 0 -69 -83z" />
    <glyph glyph-name="g" unicode="g" 
d="M550 520v-520q0 -72 -37.5 -118t-92 -66.5t-107.5 -20.5q-93 0 -156 42v88q23 -16 64 -29.5t92 -13.5q60 0 98 32.5t38 85.5v91q-15 -39 -60.5 -68.5t-103.5 -29.5t-114.5 30.5t-93.5 91t-37 145.5q0 84 37 144.5t93.5 91t114.5 30.5q59 0 104.5 -27t59.5 -66v87h101z
M374 100q35 19 57 59.5t22 100.5q0 61 -22 101t-57 59t-74 19t-75.5 -21t-60 -61.5t-23.5 -96.5q0 -57 23.5 -97.5t60 -61t75.5 -20.5t74 19z" />
    <glyph glyph-name="h" unicode="h" horiz-adv-x="595" 
d="M440 502q45 -23 72.5 -73.5t27.5 -127.5v-301h-101v297q0 73 -31.5 107t-85.5 34q-43 0 -78 -23.5t-57 -56.5t-26 -59v-299h-101v700h101v-296q3 21 26.5 49.5t63.5 50t92 21.5t97 -23z" />
    <glyph glyph-name="i" unicode="i" horiz-adv-x="234" 
d="M169 608h-103v92h103v-92zM169 0h-103v520h103v-520z" />
    <glyph glyph-name="j" unicode="j" horiz-adv-x="248" 
d="M178 608h-101v92h101v-92zM178 -57q0 -148 -137 -148q-45 0 -100 25v99q8 -3 27.5 -10t34.5 -10.5t27 -3.5q24 0 35.5 21t11.5 53v551h101v-577z" />
    <glyph glyph-name="k" unicode="k" horiz-adv-x="585" 
d="M217 220l-59 -61v-159h-101v700h101v-417l222 237h126l-229 -238l277 -282h-124z" />
    <glyph glyph-name="l" unicode="l" horiz-adv-x="217" 
d="M160 0h-103v700h103v-700z" />
    <glyph glyph-name="m" unicode="m" horiz-adv-x="957" 
d="M798.5 502q45.5 -23 74 -75t28.5 -133v-294h-102v295q0 70 -34 106.5t-87 36.5q-57 0 -94.5 -38t-51.5 -97v-303h-102v295q0 70 -35 106.5t-89 36.5q-60 0 -95.5 -38.5t-47.5 -96.5v-303h-102v520h102v-117q3 24 22 52.5t55 49t85 20.5q61 0 112.5 -30t75.5 -94
q16 47 65 85.5t122 38.5q53 0 98.5 -23z" />
    <glyph glyph-name="n" unicode="n" horiz-adv-x="595" 
d="M440 502q45 -23 72.5 -73.5t27.5 -127.5v-301h-101v297q0 73 -31.5 107t-85.5 34q-43 0 -78 -23.5t-57 -56.5t-26 -59v-299h-101v520h101v-116q3 21 26.5 49.5t63.5 50t92 21.5t97 -23z" />
    <glyph glyph-name="o" unicode="o" horiz-adv-x="597" 
d="M417 495.5q60 -30.5 100 -91t40 -145.5t-40 -145.5t-100 -90.5t-118 -30q-59 0 -119 30t-100 90.5t-40 145.5t40 145.5t100 91t119 30.5q58 0 118 -30.5zM224.5 418.5q-36.5 -20.5 -60 -61.5t-23.5 -98t23.5 -97t60 -60.5t74.5 -20.5t74 20.5t59.5 60.5t23.5 97t-23.5 98
t-59.5 61.5t-74 20.5t-74.5 -20.5z" />
    <glyph glyph-name="p" unicode="p" 
d="M434.5 495.5q56.5 -30.5 93.5 -91t37 -144.5q0 -86 -37 -146t-93.5 -90.5t-115.5 -30.5q-58 0 -103 29.5t-60 68.5v-281h-101v710h101v-87q14 38 59 65.5t104 27.5t115.5 -30.5zM380.5 101q36.5 21 60 61.5t23.5 97.5q0 56 -23.5 96.5t-60 61t-75.5 20.5t-74 -19
t-57.5 -59t-22.5 -100t22.5 -100.5t57.5 -60t74 -19.5t75.5 21z" />
    <glyph glyph-name="q" unicode="q" horiz-adv-x="611" 
d="M551 520v-710h-101v281q-15 -39 -60 -68.5t-103 -29.5q-59 0 -115.5 30.5t-93.5 90.5t-37 146q0 84 37 144.5t93.5 91t115.5 30.5t104 -27.5t59 -65.5v87h101zM375 99.5q35 19.5 57.5 60t22.5 100.5t-22.5 100t-57.5 59t-74 19t-75.5 -20.5t-60 -61t-23.5 -96.5
q0 -57 23.5 -97.5t60 -61.5t75.5 -21t74 19.5z" />
    <glyph glyph-name="r" unicode="r" horiz-adv-x="403" 
d="M379 522v-93q-15 2 -43 2q-72 -1 -121 -49t-59 -131v-251h-101v520h101v-162q9 72 55.5 119.5t125.5 47.5q24 0 42 -3z" />
    <glyph glyph-name="s" unicode="s" horiz-adv-x="464" 
d="M232 440q-31 0 -50.5 -15.5t-19.5 -39.5q0 -22 13.5 -37t47.5 -27l59 -21q50 -17 81 -34t51 -46t20 -74q0 -48 -29.5 -82.5t-75.5 -52.5t-94 -18q-71 0 -129.5 37t-75.5 100l86 25q14 -35 47.5 -55t72.5 -20q36 0 64 18.5t28 48.5q0 25 -17 41.5t-52 28.5l-61 23
q-74 26 -107.5 59t-33.5 85q0 41 23.5 73.5t63.5 50.5t86 18q67 0 113.5 -31t72.5 -87l-91 -23q-32 55 -93 55z" />
    <glyph glyph-name="t" unicode="t" horiz-adv-x="340" 
d="M305 96v-84q-36 -18 -93 -18q-55 0 -86.5 28t-31.5 103v312h-60v83h60v90h101v-90h110v-83h-110v-307q0 -49 42 -49q31 0 68 15z" />
    <glyph glyph-name="u" unicode="u" horiz-adv-x="590" 
d="M535 520v-520h-101v119q-6 -24 -28.5 -53.5t-61.5 -51t-89 -21.5q-84 0 -139.5 54t-55.5 168v305h101v-301q0 -71 30 -104.5t80 -33.5q42 0 77 24t57.5 59t28.5 67v289h101z" />
    <glyph glyph-name="v" unicode="v" horiz-adv-x="570" 
d="M293 0h-17l-250 520h106l153 -348l152 348h107z" />
    <glyph glyph-name="w" unicode="w" horiz-adv-x="830" 
d="M596 0h-16l-165 349l-165 -349h-16l-207 520h100l124 -327l155 327h18l155 -327l124 327h100z" />
    <glyph glyph-name="x" unicode="x" horiz-adv-x="569" 
d="M285 196l-141 -196h-114l199 266l-185 254h112l129 -184l128 184h112l-185 -254l199 -266h-114z" />
    <glyph glyph-name="y" unicode="y" horiz-adv-x="576" 
d="M550 520l-288 -710h-99l82 205l-219 505h100l167 -386l157 386h100z" />
    <glyph glyph-name="z" unicode="z" horiz-adv-x="543" 
d="M199 88h290v-88h-454l302 433h-290v87h455z" />
    <glyph glyph-name="braceleft" unicode="{" horiz-adv-x="306" 
d="M261 658h-35q-16 0 -25.5 -8.5t-9.5 -24.5v-251l-48 -68l48 -66v-250q0 -16 9.5 -24.5t25.5 -8.5h35v-87h-77q-38 0 -66 23t-28 72v270l-45 71l45 73v271q0 49 28 72t66 23h77v-87z" />
    <glyph glyph-name="bar" unicode="|" horiz-adv-x="237" 
d="M163 -190h-88v990h88v-990z" />
    <glyph glyph-name="braceright" unicode="}" horiz-adv-x="306" 
d="M122 745q38 0 66 -23t28 -72v-271l45 -73l-45 -71v-270q0 -49 -28 -72t-66 -23h-77v88h35q16 0 25.5 8.5t9.5 23.5v250l48 66l-48 68v251q0 15 -9.5 23.5t-25.5 8.5h-35v88h77z" />
    <glyph glyph-name="asciitilde" unicode="~" horiz-adv-x="499" 
d="M217 351q24 -10 55 -29q28 -16 44 -23t35 -7q28 0 44.5 10t16.5 23h42q0 -50 -30.5 -81t-84.5 -31q-29 0 -53 10.5t-55 30.5q-26 17 -45 26t-41 9q-27 0 -43 -12.5t-15 -28.5h-42q0 51 31.5 82t85.5 31q31 0 55 -10z" />
    <glyph glyph-name="exclamdown" unicode="&#xa1;" horiz-adv-x="215" 
d="M73 406v114h115v-114h-115zM75 -180v495h113v-495h-113z" />
    <glyph glyph-name="cent" unicode="&#xa2;" horiz-adv-x="554" 
d="M436.5 109.5q-47.5 -29.5 -100.5 -38.5v-111h-83v112q-54 11 -102.5 43t-79.5 86.5t-31 127.5t31 127.5t79.5 86.5t102.5 43v114h83v-113q53 -9 100.5 -38.5t77.5 -78.5l-90 -31q-30 46 -88 61v-341q58 13 88 61l91 -31q-31 -50 -78.5 -79.5zM173 219.5
q32 -43.5 80 -58.5v337q-48 -15 -80 -59t-32 -110t32 -109.5z" />
    <glyph glyph-name="sterling" unicode="&#xa3;" horiz-adv-x="586" 
d="M440 480v18q0 54 -33.5 88t-94.5 34q-59 0 -92.5 -33.5t-33.5 -84.5q0 -37 11.5 -66.5t35.5 -74.5h135v-78h-103q5 -22 5 -41q0 -74 -60 -156h321v-88h-486v22q50 62 75 100t35 66t10 58q0 19 -5 39h-86v78h52q-21 40 -32 71t-11 70q0 62 32.5 108.5t85 71.5t111.5 25
t112 -26t85 -73.5t32 -109.5v-18h-101z" />
    <glyph glyph-name="currency" unicode="&#xa4;" horiz-adv-x="544" 
d="M443 363l46 -46l-67 -66l-42 43q-58 -42 -130 -42t-129 41l-42 -42l-66 66l44 44q-31 53 -31 115q0 65 32 117l-45 46l66 65l44 -43q56 39 127 39q70 0 128 -40l44 44l67 -65l-47 -48q32 -53 32 -115q0 -59 -31 -113zM324.5 358q31.5 21 48.5 53.5t17 64.5t-17 64.5
t-48.5 53.5t-74.5 21t-75 -21t-48.5 -53.5t-16.5 -64.5t16.5 -64.5t48.5 -53.5t75 -21t74.5 21z" />
    <glyph glyph-name="yen" unicode="&#xa5;" horiz-adv-x="725" 
d="M398 309h106v-78h-106v-50h106v-77h-106v-104h-101v104h-95v77h95v50h-95v78h95v17l-262 374h115l198 -285l198 285h115l-263 -374v-17z" />
    <glyph glyph-name="brokenbar" unicode="&#xa6;" horiz-adv-x="237" 
d="M163 520h-88v280h88v-280zM163 -190h-88v280h88v-280z" />
    <glyph glyph-name="section" unicode="&#xa7;" horiz-adv-x="595" 
d="M421.5 717.5q52.5 -26.5 86.5 -69.5t45 -93l-107 -31q1 29 -17 56.5t-50.5 45t-74.5 17.5q-53 0 -86 -25t-33 -66q0 -37 22.5 -59.5t68.5 -37.5l75 -25q91 -29 145.5 -79.5t54.5 -136.5q0 -53 -34 -100q34 -49 34 -109t-37 -105.5t-95 -70t-118 -24.5q-94 0 -163.5 56
t-91.5 146l101 32q12 -61 53.5 -97t100.5 -36t100.5 26.5t41.5 72.5q0 45 -28.5 71t-76.5 42l-91 31q-78 25 -123.5 70.5t-45.5 120.5q0 54 35 104q-35 48 -35 108q0 55 31 98.5t82.5 68.5t112.5 25q65 0 117.5 -26.5zM185 340q0 -37 22.5 -59.5t68.5 -36.5l75 -25
q53 -17 88 -37q4 22 4 32q0 45 -28.5 72t-76.5 44l-91 28q-18 7 -51 22q-11 -17 -11 -40z" />
    <glyph glyph-name="dieresis" unicode="&#xa8;" horiz-adv-x="356" 
d="M110 661h-110v110h110v-110zM356 661h-110v110h110v-110z" />
    <glyph glyph-name="copyright" unicode="&#xa9;" horiz-adv-x="823" 
d="M583.5 661q82.5 -46 133.5 -127.5t51 -183.5t-51 -183.5t-133.5 -127.5t-171.5 -46q-87 0 -170 46t-135 128t-52 183t52 183t135 128t170 46q89 0 171.5 -46zM292 578q-58 -33 -94.5 -93t-36.5 -135t36.5 -135t94.5 -93t120 -33q66 0 123.5 33t92 92.5t34.5 135.5
t-34.5 135.5t-92 92.5t-123.5 33q-62 0 -120 -33zM489.5 536.5q34.5 -15.5 58.5 -42.5l-58 -66q-28 30 -70 30q-25 0 -49 -14.5t-38.5 -39t-14.5 -54.5t14.5 -55t38 -39.5t49.5 -14.5q40 0 70 30l58 -64q-24 -28 -58 -43.5t-71 -15.5q-50 0 -96 26t-74 72.5t-28 103.5
t28.5 103.5t74 72.5t95.5 26q36 0 70.5 -15.5z" />
    <glyph glyph-name="ordfeminine" unicode="&#xaa;" horiz-adv-x="416" 
d="M330 558v-96q0 -30 5 -45t20 -36h-72q-12 12 -17 43q-17 -21 -41.5 -33t-54.5 -12q-58 0 -93 26t-35 76q0 47 37 72.5t93 30.5l84 8q0 29 -18.5 43.5t-47.5 14.5q-54 0 -95 -47l-44 43q20 30 56.5 47.5t82.5 17.5q140 0 140 -153zM173 522q-29 -2 -44.5 -13t-15.5 -28
q0 -18 14.5 -30t42.5 -12q32 0 54.5 18t31.5 40v35q-31 -5 -83 -10z" />
    <glyph glyph-name="guillemotleft" unicode="&#xab;" horiz-adv-x="407" 
d="M181 492v-84l-103 -99l103 -100v-84l-151 93v181zM363 492v-84l-103 -99l103 -100v-84l-151 93v181z" />
    <glyph glyph-name="logicalnot" unicode="&#xac;" horiz-adv-x="500" 
d="M456 131h-101v89h-310v82h411v-171z" />
    <glyph glyph-name="uni00AD" unicode="&#xad;" horiz-adv-x="400" 
d="M355 237h-310v82h310v-82z" />
    <glyph glyph-name="registered" unicode="&#xae;" horiz-adv-x="823" 
d="M583.5 661q82.5 -46 133.5 -127.5t51 -183.5t-51 -183.5t-133.5 -127.5t-171.5 -46q-87 0 -170 46t-135 128t-52 183t52 183t135 128t170 46q89 0 171.5 -46zM292 578q-58 -33 -94.5 -93t-36.5 -135t36.5 -135t94.5 -93t120 -33q66 0 123.5 33t92 92.5t34.5 135.5
t-34.5 135.5t-92 92.5t-123.5 33q-62 0 -120 -33zM505.5 504q39.5 -33 39.5 -82q0 -42 -22 -68t-68 -43l103 -140h-85l-95 137h-19v-137h-76v366h122q61 0 100.5 -33zM357 469v-91h52q27 0 41 11.5t14 33.5q0 21 -14.5 33.5t-40.5 12.5h-52z" />
    <glyph glyph-name="macron" unicode="&#xaf;" horiz-adv-x="370" 
d="M371 613h-371v87h371v-87z" />
    <glyph glyph-name="degree" unicode="&#xb0;" horiz-adv-x="385" 
d="M266.5 699q33.5 -20 53.5 -53.5t20 -72.5q0 -40 -20 -74t-53.5 -54t-73.5 -20t-74 20t-54 54t-20 74q0 39 20 72.5t54 53.5t74 20t73.5 -20zM140 622q-19 -23 -19 -49q0 -27 19 -50t53 -23q33 0 52 23t19 50q0 26 -19 49t-52 23q-34 0 -53 -23z" />
    <glyph glyph-name="plusminus" unicode="&#xb1;" horiz-adv-x="425" 
d="M380 244h-130v-122h-83v122h-122v83h122v130h83v-130h130v-83zM380 1h-335v83h335v-83z" />
    <glyph glyph-name="uni00B2" unicode="&#xb2;" horiz-adv-x="261" 
d="M188 681.5q25 -22.5 25 -52.5q0 -26 -14.5 -47t-53.5 -61l-47 -49h118v-32h-168v32l68 69q38 40 48.5 54.5t10.5 33.5q0 18 -14 31t-32 13q-19 0 -33 -13t-14 -37v-14h-37v14q0 35 24.5 58t59.5 23q34 0 59 -22.5z" />
    <glyph glyph-name="uni00B3" unicode="&#xb3;" horiz-adv-x="273" 
d="M192 682.5q24 -20.5 24 -47.5q0 -32 -30 -53q19 -8 30.5 -25t11.5 -41q0 -34 -27.5 -57t-64.5 -23q-41 0 -67.5 27t-23.5 64h38q-4 -23 12 -41t41 -18q22 0 38 13.5t16 34.5q0 46 -55 46q-12 0 -19 -1v31q63 3 63 43q0 15 -12.5 26t-30.5 11q-22 0 -35 -15.5t-11 -41.5
h-38q-3 38 22 63t62 25q32 0 56 -20.5z" />
    <glyph glyph-name="acute" unicode="&#xb4;" horiz-adv-x="200" 
d="M90 622h-90l57 145h143z" />
    <glyph glyph-name="uni00B5" unicode="&#xb5;" horiz-adv-x="601" 
d="M535 520v-520h-101v119q-6 -24 -28.5 -53.5t-61.5 -51t-89 -21.5q-53 0 -94 21v-204h-101v710h101v-301q0 -71 30 -104.5t80 -33.5q42 0 77 24t57.5 59t28.5 67v289h101z" />
    <glyph glyph-name="paragraph" unicode="&#xb6;" horiz-adv-x="821" 
d="M561 700v-700h-104v264h-132q-76 0 -132 28t-86.5 77.5t-30.5 112.5t30.5 112.5t86.5 77.5t132 28h236zM751 0h-101v700h101v-700zM457 356v252h-126q-70 0 -110.5 -33t-40.5 -93t40.5 -93t110.5 -33h126z" />
    <glyph glyph-name="periodcentered" unicode="&#xb7;" horiz-adv-x="215" 
d="M156 223h-115v115h115v-115z" />
    <glyph glyph-name="cedilla" unicode="&#xb8;" horiz-adv-x="200" 
d="M176 -81q26 -25 26 -60q0 -46 -39.5 -70t-102.5 -24q-22 0 -44 3l13 34q46 0 69 15t23 42q0 16 -11 28t-26 12q-17 0 -33 -16l-25 43l46 75h90l-48 -51q36 -6 62 -31z" />
    <glyph glyph-name="uni00B9" unicode="&#xb9;" horiz-adv-x="203" 
d="M128 440h-37v221l-17 -11l-18 31l35 20h37v-261z" />
    <glyph glyph-name="ordmasculine" unicode="&#xba;" horiz-adv-x="408" 
d="M275.5 685.5q35.5 -19.5 58.5 -56.5t23 -86t-23 -86t-58.5 -56.5t-71.5 -19.5t-71.5 19.5t-58.5 56.5t-23 86t23 86t58.5 56.5t71.5 19.5t71.5 -19.5zM145 610q-26 -26 -26 -66q0 -41 26 -67.5t59 -26.5q32 0 57.5 26.5t25.5 67.5q0 40 -25.5 66t-57.5 26q-33 0 -59 -26z
" />
    <glyph glyph-name="guillemotright" unicode="&#xbb;" horiz-adv-x="407" 
d="M195 218l-151 -93v84l103 100l-103 99v84l151 -93v-181zM377 218l-151 -93v84l103 100l-103 99v84l151 -93v-181z" />
    <glyph glyph-name="onequarter" unicode="&#xbc;" horiz-adv-x="569" 
d="M100 440h-37v221l-17 -11l-18 31l35 20h37v-261zM73 0h-48l436 700h42zM517 107h27v-31h-27v-76h-37v76h-132l132 185h37v-154zM415 107h65v95z" />
    <glyph glyph-name="onehalf" unicode="&#xbd;" horiz-adv-x="544" 
d="M100 440h-37v221l-17 -11l-18 31l35 20h37v-261zM73 0h-48l436 700h42zM491 241.5q25 -22.5 25 -52.5q0 -26 -14.5 -47t-53.5 -61l-47 -49h118v-32h-168v32l68 69q38 40 48.5 54.5t10.5 33.5q0 18 -14 31t-32 13q-19 0 -33 -13t-14 -37v-14h-37v14q0 35 24.5 58t59.5 23
q34 0 59 -22.5z" />
    <glyph glyph-name="threequarters" unicode="&#xbe;" horiz-adv-x="587" 
d="M172 682.5q24 -20.5 24 -47.5q0 -32 -30 -53q19 -8 30.5 -25t11.5 -41q0 -34 -27.5 -57t-64.5 -23q-41 0 -67.5 27t-23.5 64h38q-4 -23 12 -41t41 -18q22 0 38 13.5t16 34.5q0 46 -55 46q-12 0 -19 -1v31q63 3 63 43q0 15 -12.5 26t-30.5 11q-22 0 -35 -15.5t-11 -41.5
h-38q-3 38 22 63t62 25q32 0 56 -20.5zM101 0h-48l436 700h42zM535 107h27v-31h-27v-76h-37v76h-132l132 185h37v-154zM433 107h65v95z" />
    <glyph glyph-name="questiondown" unicode="&#xbf;" horiz-adv-x="527" 
d="M187 520h115v-114h-115v114zM152 -161.5q-51 25.5 -81.5 71.5t-30.5 107q0 37 11 64.5t27 46t43 42.5q36 32 54.5 60t18.5 71v16h104v-16q0 -40 -12.5 -69.5t-29.5 -49.5t-46 -47q-36 -34 -52.5 -58t-16.5 -60q0 -49 30.5 -82.5t89.5 -33.5t92 37t33 96h101
q0 -67 -31 -117.5t-82.5 -77t-111.5 -26.5q-59 0 -110 25.5z" />
    <glyph glyph-name="Agrave" unicode="&#xc0;" horiz-adv-x="726" 
d="M513 171h-299l-76 -171h-113l328 700h20l328 -700h-112zM474 257l-111 247l-110 -247h221zM355 947l57 -145h-90l-110 145h143z" />
    <glyph glyph-name="Aacute" unicode="&#xc1;" horiz-adv-x="726" 
d="M513 171h-299l-76 -171h-113l328 700h20l328 -700h-112zM474 257l-111 247l-110 -247h221zM404 802h-90l57 145h143z" />
    <glyph glyph-name="Acircumflex" unicode="&#xc2;" horiz-adv-x="726" 
d="M513 171h-299l-76 -171h-113l328 700h20l328 -700h-112zM474 257l-111 247l-110 -247h221zM546 796h-84l-99 103l-100 -103h-84l93 151h181z" />
    <glyph glyph-name="Atilde" unicode="&#xc3;" horiz-adv-x="726" 
d="M513 171h-299l-76 -171h-113l328 700h20l328 -700h-112zM474 257l-111 247l-110 -247h221zM335.5 905q22.5 -10 50.5 -29q25 -15 39 -22t30 -7q21 0 36 10t15 23h42q0 -50 -29 -81.5t-76 -31.5q-26 0 -47 10.5t-51 30.5q-24 18 -41 26.5t-35 8.5q-21 0 -35 -13t-13 -28
h-42q0 50 29.5 81.5t77.5 31.5q27 0 49.5 -10z" />
    <glyph glyph-name="Adieresis" unicode="&#xc4;" horiz-adv-x="726" 
d="M513 171h-299l-76 -171h-113l328 700h20l328 -700h-112zM474 257l-111 247l-110 -247h221zM295 841h-110v110h110v-110zM541 841h-110v110h110v-110z" />
    <glyph glyph-name="Aring" unicode="&#xc5;" horiz-adv-x="726" 
d="M513 171h-299l-76 -171h-113l328 700h20l328 -700h-112zM474 257l-111 247l-110 -247h221zM433 948q29 -29 29 -69q0 -39 -29 -68t-68 -29q-42 0 -71 29t-29 68q0 40 29 69t71 29q39 0 68 -29zM339.5 904q-9.5 -10 -9.5 -24q0 -13 10 -23t23 -10q14 0 23.5 10t9.5 23
q0 14 -9.5 24t-23.5 10t-23.5 -10z" />
    <glyph glyph-name="AE" unicode="&#xc6;" horiz-adv-x="1030" 
d="M953 91v-91h-446v206h-223l-140 -206h-113l476 696v4h436v-91h-329v-216h229v-91h-229v-211h339zM507 293v239l-163 -239h163z" />
    <glyph glyph-name="Ccedilla" unicode="&#xc7;" horiz-adv-x="655" 
d="M442.5 -80.5q25.5 -25.5 25.5 -60.5q0 -45 -39.5 -69.5t-101.5 -24.5q-21 0 -44 3l13 34q46 0 69 15t23 42q0 16 -11 28t-26 12q-17 0 -33 -16l-25 43l44 72q-79 13 -147 61t-109 123.5t-41 166.5q0 102 50.5 184t132 128t169.5 46q66 0 124 -22.5t104 -64.5l-65 -76
q-31 30 -72.5 46.5t-89.5 16.5q-62 0 -117.5 -34t-89 -93t-33.5 -130q0 -72 33.5 -131t89 -92.5t117.5 -33.5q48 0 90 17.5t74 47.5l64 -76q-40 -37 -91 -60t-107 -28l-42 -44q36 -5 61.5 -30.5z" />
    <glyph glyph-name="Egrave" unicode="&#xc8;" horiz-adv-x="545" 
d="M500 91v-91h-445v700h435v-91h-329v-216h229v-91h-229v-211h339zM284 947l57 -145h-90l-110 145h143z" />
    <glyph glyph-name="Eacute" unicode="&#xc9;" horiz-adv-x="545" 
d="M500 91v-91h-445v700h435v-91h-329v-216h229v-91h-229v-211h339zM333 802h-90l57 145h143z" />
    <glyph glyph-name="Ecircumflex" unicode="&#xca;" horiz-adv-x="545" 
d="M500 91v-91h-445v700h435v-91h-329v-216h229v-91h-229v-211h339zM475 796h-84l-99 103l-100 -103h-84l93 151h181z" />
    <glyph glyph-name="Edieresis" unicode="&#xcb;" horiz-adv-x="545" 
d="M500 91v-91h-445v700h435v-91h-329v-216h229v-91h-229v-211h339zM224 841h-110v110h110v-110zM470 841h-110v110h110v-110z" />
    <glyph glyph-name="Igrave" unicode="&#xcc;" horiz-adv-x="247" 
d="M176 0h-105v700h105v-700zM114 947l57 -145h-90l-110 145h143z" />
    <glyph glyph-name="Iacute" unicode="&#xcd;" horiz-adv-x="247" 
d="M176 0h-105v700h105v-700zM162 802h-90l57 145h143z" />
    <glyph glyph-name="Icircumflex" unicode="&#xce;" horiz-adv-x="247" 
d="M176 0h-105v700h105v-700zM305 796h-84l-99 103l-100 -103h-84l93 151h181z" />
    <glyph glyph-name="Idieresis" unicode="&#xcf;" horiz-adv-x="247" 
d="M176 0h-105v700h105v-700zM54 841h-110v110h110v-110zM300 841h-110v110h110v-110z" />
    <glyph glyph-name="Eth" unicode="&#xd0;" horiz-adv-x="784" 
d="M551.5 653.5q80.5 -46.5 126.5 -126.5t46 -176q0 -97 -46 -177.5t-126.5 -127t-179.5 -46.5h-224v304h-73v83h73v313h224q99 0 179.5 -46.5zM504 122.5q56 34.5 86 94t30 134.5q0 73 -30 132.5t-86 94t-132 34.5h-120v-225h133v-83h-133v-216h120q76 0 132 34.5z" />
    <glyph glyph-name="Ntilde" unicode="&#xd1;" horiz-adv-x="694" 
d="M624 0h-99l-351 524v-524h-104v700h99l351 -524v524h104v-700zM319.5 905q22.5 -10 50.5 -29q25 -15 39 -22t30 -7q21 0 36 10t15 23h42q0 -50 -29 -81.5t-76 -31.5q-26 0 -47 10.5t-51 30.5q-24 18 -41 26.5t-35 8.5q-21 0 -35 -13t-13 -28h-42q0 50 29.5 81.5
t77.5 31.5q27 0 49.5 -10z" />
    <glyph glyph-name="Ograve" unicode="&#xd2;" horiz-adv-x="811" 
d="M576 661q81 -46 130.5 -127.5t49.5 -183.5t-49.5 -183.5t-130.5 -127.5t-170 -46q-87 0 -168 46t-132 128t-51 183t51 183t132 128t168 46q89 0 170 -46zM290 574.5q-55 -32.5 -88.5 -91.5t-33.5 -133t33.5 -133t88.5 -91.5t116 -32.5q65 0 119.5 32.5t86.5 91t32 133.5
t-32 133.5t-86.5 91t-119.5 32.5q-61 0 -116 -32.5zM397 947l57 -145h-90l-110 145h143z" />
    <glyph glyph-name="Oacute" unicode="&#xd3;" horiz-adv-x="811" 
d="M576 661q81 -46 130.5 -127.5t49.5 -183.5t-49.5 -183.5t-130.5 -127.5t-170 -46q-87 0 -168 46t-132 128t-51 183t51 183t132 128t168 46q89 0 170 -46zM290 574.5q-55 -32.5 -88.5 -91.5t-33.5 -133t33.5 -133t88.5 -91.5t116 -32.5q65 0 119.5 32.5t86.5 91t32 133.5
t-32 133.5t-86.5 91t-119.5 32.5q-61 0 -116 -32.5zM446 802h-90l57 145h143z" />
    <glyph glyph-name="Ocircumflex" unicode="&#xd4;" horiz-adv-x="811" 
d="M576 661q81 -46 130.5 -127.5t49.5 -183.5t-49.5 -183.5t-130.5 -127.5t-170 -46q-87 0 -168 46t-132 128t-51 183t51 183t132 128t168 46q89 0 170 -46zM290 574.5q-55 -32.5 -88.5 -91.5t-33.5 -133t33.5 -133t88.5 -91.5t116 -32.5q65 0 119.5 32.5t86.5 91t32 133.5
t-32 133.5t-86.5 91t-119.5 32.5q-61 0 -116 -32.5zM589 796h-84l-99 103l-100 -103h-84l93 151h181z" />
    <glyph glyph-name="Otilde" unicode="&#xd5;" horiz-adv-x="811" 
d="M576 661q81 -46 130.5 -127.5t49.5 -183.5t-49.5 -183.5t-130.5 -127.5t-170 -46q-87 0 -168 46t-132 128t-51 183t51 183t132 128t168 46q89 0 170 -46zM290 574.5q-55 -32.5 -88.5 -91.5t-33.5 -133t33.5 -133t88.5 -91.5t116 -32.5q65 0 119.5 32.5t86.5 91t32 133.5
t-32 133.5t-86.5 91t-119.5 32.5q-61 0 -116 -32.5zM377.5 905q22.5 -10 50.5 -29q25 -15 39 -22t30 -7q21 0 36 10t15 23h42q0 -50 -29 -81.5t-76 -31.5q-26 0 -47 10.5t-51 30.5q-24 18 -41 26.5t-35 8.5q-21 0 -35 -13t-13 -28h-42q0 50 29.5 81.5t77.5 31.5
q27 0 49.5 -10z" />
    <glyph glyph-name="Odieresis" unicode="&#xd6;" horiz-adv-x="811" 
d="M576 661q81 -46 130.5 -127.5t49.5 -183.5t-49.5 -183.5t-130.5 -127.5t-170 -46q-87 0 -168 46t-132 128t-51 183t51 183t132 128t168 46q89 0 170 -46zM290 574.5q-55 -32.5 -88.5 -91.5t-33.5 -133t33.5 -133t88.5 -91.5t116 -32.5q65 0 119.5 32.5t86.5 91t32 133.5
t-32 133.5t-86.5 91t-119.5 32.5q-61 0 -116 -32.5zM338 841h-110v110h110v-110zM584 841h-110v110h110v-110z" />
    <glyph glyph-name="multiply" unicode="&#xd7;" horiz-adv-x="386" 
d="M248 282l92 -92l-58 -58l-92 92l-87 -87l-58 58l87 87l-87 87l58 58l87 -87l92 92l58 -58z" />
    <glyph glyph-name="Oslash" unicode="&#xd8;" horiz-adv-x="794" 
d="M710.5 526q45.5 -79 45.5 -176q0 -102 -49.5 -183.5t-130.5 -127.5t-170 -46q-62 0 -120 23l-32 -66h-111l55 115q-66 49 -104.5 123t-38.5 162q0 101 51 183t132 128t168 46q43 0 92 -13l25 51h111l-44 -92q75 -48 120.5 -127zM188 245q20 -48 56 -83l210 440
q-19 5 -48 5q-61 0 -116 -32.5t-88.5 -91.5t-33.5 -133q0 -57 20 -105zM525.5 125.5q54.5 32.5 86.5 91t32 133.5q0 67 -26 121.5t-72 89.5l-217 -454q39 -14 77 -14q65 0 119.5 32.5z" />
    <glyph glyph-name="Ugrave" unicode="&#xd9;" horiz-adv-x="678" 
d="M613 259q0 -81 -36.5 -141t-99 -92.5t-138.5 -32.5t-138.5 32.5t-99 92.5t-36.5 141v441h101v-441q0 -87 49 -132.5t124 -45.5q74 0 123.5 46t49.5 132v441h101v-441zM331 947l57 -145h-90l-110 145h143z" />
    <glyph glyph-name="Uacute" unicode="&#xda;" horiz-adv-x="678" 
d="M613 259q0 -81 -36.5 -141t-99 -92.5t-138.5 -32.5t-138.5 32.5t-99 92.5t-36.5 141v441h101v-441q0 -87 49 -132.5t124 -45.5q74 0 123.5 46t49.5 132v441h101v-441zM379 802h-90l57 145h143z" />
    <glyph glyph-name="Ucircumflex" unicode="&#xdb;" horiz-adv-x="678" 
d="M613 259q0 -81 -36.5 -141t-99 -92.5t-138.5 -32.5t-138.5 32.5t-99 92.5t-36.5 141v441h101v-441q0 -87 49 -132.5t124 -45.5q74 0 123.5 46t49.5 132v441h101v-441zM522 796h-84l-99 103l-100 -103h-84l93 151h181z" />
    <glyph glyph-name="Udieresis" unicode="&#xdc;" horiz-adv-x="678" 
d="M613 259q0 -81 -36.5 -141t-99 -92.5t-138.5 -32.5t-138.5 32.5t-99 92.5t-36.5 141v441h101v-441q0 -87 49 -132.5t124 -45.5q74 0 123.5 46t49.5 132v441h101v-441zM271 841h-110v110h110v-110zM517 841h-110v110h110v-110z" />
    <glyph glyph-name="Yacute" unicode="&#xdd;" horiz-adv-x="695" 
d="M398 326v-326h-101v326l-262 374h115l198 -285l198 285h115zM388 802h-90l57 145h143z" />
    <glyph glyph-name="Thorn" unicode="&#xde;" horiz-adv-x="664" 
d="M473 538q61 -27 94 -75t33 -111q0 -101 -72.5 -157t-196.5 -56h-155v-139h-101v700h101v-135h155q81 0 142 -27zM457 252q42 25 42 100q0 69 -44 97.5t-122 28.5h-157v-251h157q82 0 124 25z" />
    <glyph glyph-name="germandbls" unicode="&#xdf;" horiz-adv-x="636" 
d="M428 677.5q56 -22.5 89 -64t33 -96.5q0 -53 -31.5 -90t-77.5 -43q64 -10 106.5 -58.5t42.5 -113.5q0 -212 -275 -212h-68v88h70q82 0 127 28.5t45 95.5q0 62 -49.5 92.5t-131.5 30.5h-61v87h61q75 0 108 22t33 73q0 46 -40.5 71t-103.5 25q-73 0 -105.5 -29t-32.5 -93
v-491h-101v491q0 63 30.5 110.5t84.5 73t124 25.5q67 0 123 -22.5z" />
    <glyph glyph-name="agrave" unicode="&#xe0;" 
d="M389.5 499q45.5 -27 59.5 -66v87h101v-520h-101v91q-15 -39 -60.5 -68.5t-103.5 -29.5t-114.5 30.5t-93.5 91t-37 145.5q0 84 37 144.5t93.5 91t114.5 30.5q59 0 104.5 -27zM224.5 418q-36.5 -21 -60 -61.5t-23.5 -96.5q0 -57 23.5 -97.5t60 -61t75.5 -20.5t74 19
t57 59.5t22 100.5q0 61 -22 101t-57 59t-74 19t-75.5 -21zM304 767l57 -145h-90l-110 145h143z" />
    <glyph glyph-name="aacute" unicode="&#xe1;" 
d="M389.5 499q45.5 -27 59.5 -66v87h101v-520h-101v91q-15 -39 -60.5 -68.5t-103.5 -29.5t-114.5 30.5t-93.5 91t-37 145.5q0 84 37 144.5t93.5 91t114.5 30.5q59 0 104.5 -27zM224.5 418q-36.5 -21 -60 -61.5t-23.5 -96.5q0 -57 23.5 -97.5t60 -61t75.5 -20.5t74 19
t57 59.5t22 100.5q0 61 -22 101t-57 59t-74 19t-75.5 -21zM353 622h-90l57 145h143z" />
    <glyph glyph-name="acircumflex" unicode="&#xe2;" 
d="M389.5 499q45.5 -27 59.5 -66v87h101v-520h-101v91q-15 -39 -60.5 -68.5t-103.5 -29.5t-114.5 30.5t-93.5 91t-37 145.5q0 84 37 144.5t93.5 91t114.5 30.5q59 0 104.5 -27zM224.5 418q-36.5 -21 -60 -61.5t-23.5 -96.5q0 -57 23.5 -97.5t60 -61t75.5 -20.5t74 19
t57 59.5t22 100.5q0 61 -22 101t-57 59t-74 19t-75.5 -21zM496 616h-84l-99 103l-100 -103h-84l93 151h181z" />
    <glyph glyph-name="atilde" unicode="&#xe3;" 
d="M389.5 499q45.5 -27 59.5 -66v87h101v-520h-101v91q-15 -39 -60.5 -68.5t-103.5 -29.5t-114.5 30.5t-93.5 91t-37 145.5q0 84 37 144.5t93.5 91t114.5 30.5q59 0 104.5 -27zM224.5 418q-36.5 -21 -60 -61.5t-23.5 -96.5q0 -57 23.5 -97.5t60 -61t75.5 -20.5t74 19
t57 59.5t22 100.5q0 61 -22 101t-57 59t-74 19t-75.5 -21zM284.5 725q22.5 -10 50.5 -29q25 -15 39 -22t30 -7q21 0 36 10t15 23h42q0 -50 -29 -81.5t-76 -31.5q-26 0 -47 10.5t-51 30.5q-24 18 -41 26.5t-35 8.5q-21 0 -35 -13t-13 -28h-42q0 50 29.5 81.5t77.5 31.5
q27 0 49.5 -10z" />
    <glyph glyph-name="adieresis" unicode="&#xe4;" 
d="M389.5 499q45.5 -27 59.5 -66v87h101v-520h-101v91q-15 -39 -60.5 -68.5t-103.5 -29.5t-114.5 30.5t-93.5 91t-37 145.5q0 84 37 144.5t93.5 91t114.5 30.5q59 0 104.5 -27zM224.5 418q-36.5 -21 -60 -61.5t-23.5 -96.5q0 -57 23.5 -97.5t60 -61t75.5 -20.5t74 19
t57 59.5t22 100.5q0 61 -22 101t-57 59t-74 19t-75.5 -21zM245 661h-110v110h110v-110zM491 661h-110v110h110v-110z" />
    <glyph glyph-name="aring" unicode="&#xe5;" 
d="M389.5 499q45.5 -27 59.5 -66v87h101v-520h-101v91q-15 -39 -60.5 -68.5t-103.5 -29.5t-114.5 30.5t-93.5 91t-37 145.5q0 84 37 144.5t93.5 91t114.5 30.5q59 0 104.5 -27zM224.5 418q-36.5 -21 -60 -61.5t-23.5 -96.5q0 -57 23.5 -97.5t60 -61t75.5 -20.5t74 19
t57 59.5t22 100.5q0 61 -22 101t-57 59t-74 19t-75.5 -21zM382 768q29 -29 29 -69q0 -39 -29 -68t-68 -29q-42 0 -71 29t-29 68q0 40 29 69t71 29q39 0 68 -29zM288.5 724q-9.5 -10 -9.5 -24q0 -13 10 -23t23 -10q14 0 23.5 10t9.5 23q0 14 -9.5 24t-23.5 10t-23.5 -10z" />
    <glyph glyph-name="ae" unicode="&#xe6;" horiz-adv-x="1008" 
d="M962 221h-405q6 -45 30 -77t57.5 -48t67.5 -16q77 0 122 50l82 -45q-39 -45 -92.5 -68.5t-111.5 -23.5q-40 0 -83 15t-79 43v-51h-101v91q-15 -39 -60.5 -68.5t-103.5 -29.5t-114.5 30.5t-93.5 91t-37 145.5q0 84 37 144.5t93.5 91t114.5 30.5q59 0 104.5 -27t59.5 -66
v87h101v-51q35 28 77.5 42.5t82.5 14.5q59 0 118 -30.5t98 -91t39 -145.5q0 -20 -3 -38zM372 99q34 18 56.5 55.5t24.5 93.5v11v12q-2 57 -24.5 94.5t-56.5 55.5t-72 18q-39 0 -75.5 -21t-60 -61.5t-23.5 -96.5q0 -57 23.5 -97.5t60 -61t75.5 -20.5q38 0 72 18zM863 299
q-10 66 -55 102.5t-98 36.5q-54 0 -98.5 -36.5t-53.5 -102.5h305z" />
    <glyph glyph-name="ccedilla" unicode="&#xe7;" horiz-adv-x="545" 
d="M437.5 35.5q-47.5 -30.5 -99.5 -39.5l-44 -46q36 -5 61.5 -30.5t25.5 -60.5q0 -45 -39.5 -69.5t-101.5 -24.5q-22 0 -44 3l13 34q46 0 69 15t23 42q0 16 -11 28t-26 12q-17 0 -33 -16l-25 43l44 72q-53 11 -101 44t-78.5 88.5t-30.5 128.5q0 85 40 145.5t100 91t118 30.5
q61 0 121 -31.5t96 -91.5l-91 -32q-21 33 -55 50.5t-71 17.5q-39 0 -75 -21t-59 -61.5t-23 -97.5q0 -56 23 -96.5t59 -61t75 -20.5q37 0 71.5 17t54.5 50l91 -32q-30 -50 -77.5 -80.5z" />
    <glyph glyph-name="egrave" unicode="&#xe8;" horiz-adv-x="592" 
d="M415 495.5q59 -30.5 98 -91t39 -145.5q0 -20 -3 -38h-405q6 -44 30 -76t57.5 -48t67.5 -16q78 0 122 49l82 -45q-39 -45 -92.5 -68.5t-111.5 -23.5q-59 0 -119 30t-100 90.5t-40 145.5t39 145.5t98.5 91t119.5 30.5q59 0 118 -30.5zM198.5 402q-44.5 -36 -53.5 -103h305
q-10 67 -55 103t-98 36q-54 0 -98.5 -36zM287 767l57 -145h-90l-110 145h143z" />
    <glyph glyph-name="eacute" unicode="&#xe9;" horiz-adv-x="592" 
d="M415 495.5q59 -30.5 98 -91t39 -145.5q0 -20 -3 -38h-405q6 -44 30 -76t57.5 -48t67.5 -16q78 0 122 49l82 -45q-39 -45 -92.5 -68.5t-111.5 -23.5q-59 0 -119 30t-100 90.5t-40 145.5t39 145.5t98.5 91t119.5 30.5q59 0 118 -30.5zM198.5 402q-44.5 -36 -53.5 -103h305
q-10 67 -55 103t-98 36q-54 0 -98.5 -36zM336 622h-90l57 145h143z" />
    <glyph glyph-name="ecircumflex" unicode="&#xea;" horiz-adv-x="592" 
d="M415 495.5q59 -30.5 98 -91t39 -145.5q0 -20 -3 -38h-405q6 -44 30 -76t57.5 -48t67.5 -16q78 0 122 49l82 -45q-39 -45 -92.5 -68.5t-111.5 -23.5q-59 0 -119 30t-100 90.5t-40 145.5t39 145.5t98.5 91t119.5 30.5q59 0 118 -30.5zM198.5 402q-44.5 -36 -53.5 -103h305
q-10 67 -55 103t-98 36q-54 0 -98.5 -36zM479 616h-84l-99 103l-100 -103h-84l93 151h181z" />
    <glyph glyph-name="edieresis" unicode="&#xeb;" horiz-adv-x="592" 
d="M415 495.5q59 -30.5 98 -91t39 -145.5q0 -20 -3 -38h-405q6 -44 30 -76t57.5 -48t67.5 -16q78 0 122 49l82 -45q-39 -45 -92.5 -68.5t-111.5 -23.5q-59 0 -119 30t-100 90.5t-40 145.5t39 145.5t98.5 91t119.5 30.5q59 0 118 -30.5zM198.5 402q-44.5 -36 -53.5 -103h305
q-10 67 -55 103t-98 36q-54 0 -98.5 -36zM228 661h-110v110h110v-110zM474 661h-110v110h110v-110z" />
    <glyph glyph-name="igrave" unicode="&#xec;" horiz-adv-x="251" 
d="M176 0h-101v520h101v-520zM117 767l57 -145h-90l-110 145h143z" />
    <glyph glyph-name="iacute" unicode="&#xed;" horiz-adv-x="251" 
d="M176 0h-101v520h101v-520zM166 622h-90l57 145h143z" />
    <glyph glyph-name="icircumflex" unicode="&#xee;" horiz-adv-x="251" 
d="M176 0h-101v520h101v-520zM309 616h-84l-99 103l-100 -103h-84l93 151h181z" />
    <glyph glyph-name="idieresis" unicode="&#xef;" horiz-adv-x="251" 
d="M176 0h-101v520h101v-520zM58 661h-110v110h110v-110zM304 661h-110v110h110v-110z" />
    <glyph glyph-name="eth" unicode="&#xf0;" horiz-adv-x="596" 
d="M505 419.5q25 -75.5 25 -167.5q0 -84 -34 -143t-91.5 -89t-127.5 -30q-65 0 -120 30t-88.5 89t-33.5 143q0 129 65 198.5t177 69.5q34 0 56.5 -6.5t38.5 -20.5l-52 70l-90 -13v86l32 5l-44 59h112l34 -45l87 12v-86l-28 -4q57 -82 82 -157.5zM349.5 97q34.5 19 57 58
t22.5 97q0 93 -40.5 136.5t-111.5 43.5q-65 0 -103 -43.5t-38 -136.5q0 -57 21.5 -96.5t54.5 -58.5t65 -19q38 0 72.5 19z" />
    <glyph glyph-name="ntilde" unicode="&#xf1;" horiz-adv-x="595" 
d="M440 502q45 -23 72.5 -73.5t27.5 -127.5v-301h-101v297q0 73 -31.5 107t-85.5 34q-43 0 -78 -23.5t-57 -56.5t-26 -59v-299h-101v520h101v-116q3 21 26.5 49.5t63.5 50t92 21.5t97 -23zM270.5 725q22.5 -10 50.5 -29q25 -15 39 -22t30 -7q21 0 36 10t15 23h42
q0 -50 -29 -81.5t-76 -31.5q-26 0 -47 10.5t-51 30.5q-24 18 -41 26.5t-35 8.5q-21 0 -35 -13t-13 -28h-42q0 50 29.5 81.5t77.5 31.5q27 0 49.5 -10z" />
    <glyph glyph-name="ograve" unicode="&#xf2;" horiz-adv-x="597" 
d="M417 495.5q60 -30.5 100 -91t40 -145.5t-40 -145.5t-100 -90.5t-118 -30q-59 0 -119 30t-100 90.5t-40 145.5t40 145.5t100 91t119 30.5q58 0 118 -30.5zM224.5 418.5q-36.5 -20.5 -60 -61.5t-23.5 -98t23.5 -97t60 -60.5t74.5 -20.5t74 20.5t59.5 60.5t23.5 97t-23.5 98
t-59.5 61.5t-74 20.5t-74.5 -20.5zM290 767l57 -145h-90l-110 145h143z" />
    <glyph glyph-name="oacute" unicode="&#xf3;" horiz-adv-x="597" 
d="M417 495.5q60 -30.5 100 -91t40 -145.5t-40 -145.5t-100 -90.5t-118 -30q-59 0 -119 30t-100 90.5t-40 145.5t40 145.5t100 91t119 30.5q58 0 118 -30.5zM224.5 418.5q-36.5 -20.5 -60 -61.5t-23.5 -98t23.5 -97t60 -60.5t74.5 -20.5t74 20.5t59.5 60.5t23.5 97t-23.5 98
t-59.5 61.5t-74 20.5t-74.5 -20.5zM339 622h-90l57 145h143z" />
    <glyph glyph-name="ocircumflex" unicode="&#xf4;" horiz-adv-x="597" 
d="M417 495.5q60 -30.5 100 -91t40 -145.5t-40 -145.5t-100 -90.5t-118 -30q-59 0 -119 30t-100 90.5t-40 145.5t40 145.5t100 91t119 30.5q58 0 118 -30.5zM224.5 418.5q-36.5 -20.5 -60 -61.5t-23.5 -98t23.5 -97t60 -60.5t74.5 -20.5t74 20.5t59.5 60.5t23.5 97t-23.5 98
t-59.5 61.5t-74 20.5t-74.5 -20.5zM482 616h-84l-99 103l-100 -103h-84l93 151h181z" />
    <glyph glyph-name="otilde" unicode="&#xf5;" horiz-adv-x="597" 
d="M417 495.5q60 -30.5 100 -91t40 -145.5t-40 -145.5t-100 -90.5t-118 -30q-59 0 -119 30t-100 90.5t-40 145.5t40 145.5t100 91t119 30.5q58 0 118 -30.5zM224.5 418.5q-36.5 -20.5 -60 -61.5t-23.5 -98t23.5 -97t60 -60.5t74.5 -20.5t74 20.5t59.5 60.5t23.5 97t-23.5 98
t-59.5 61.5t-74 20.5t-74.5 -20.5zM270.5 725q22.5 -10 50.5 -29q25 -15 39 -22t30 -7q21 0 36 10t15 23h42q0 -50 -29 -81.5t-76 -31.5q-26 0 -47 10.5t-51 30.5q-24 18 -41 26.5t-35 8.5q-21 0 -35 -13t-13 -28h-42q0 50 29.5 81.5t77.5 31.5q27 0 49.5 -10z" />
    <glyph glyph-name="odieresis" unicode="&#xf6;" horiz-adv-x="597" 
d="M417 495.5q60 -30.5 100 -91t40 -145.5t-40 -145.5t-100 -90.5t-118 -30q-59 0 -119 30t-100 90.5t-40 145.5t40 145.5t100 91t119 30.5q58 0 118 -30.5zM224.5 418.5q-36.5 -20.5 -60 -61.5t-23.5 -98t23.5 -97t60 -60.5t74.5 -20.5t74 20.5t59.5 60.5t23.5 97t-23.5 98
t-59.5 61.5t-74 20.5t-74.5 -20.5zM231 661h-110v110h110v-110zM477 661h-110v110h110v-110z" />
    <glyph glyph-name="divide" unicode="&#xf7;" horiz-adv-x="425" 
d="M269 375h-114v114h114v-114zM380 236h-335v83h335v-83zM269 71h-114v114h114v-114z" />
    <glyph glyph-name="oslash" unicode="&#xf8;" horiz-adv-x="596" 
d="M527.5 385.5q29.5 -54.5 29.5 -126.5q0 -85 -40 -145.5t-100 -90.5t-118 -30q-36 0 -75 12l-26 -55h-103l47 98q-47 35 -74.5 88t-27.5 123q0 85 40 145.5t100 91t119 30.5q34 0 67 -10l30 62h103l-49 -103q48 -35 77.5 -89.5zM183 135l144 300q-18 4 -28 4
q-38 0 -74.5 -20.5t-60 -61.5t-23.5 -98q0 -75 42 -124zM373 101.5q36 20.5 59.5 60.5t23.5 97q0 81 -47 131l-146 -305q16 -4 36 -4q38 0 74 20.5z" />
    <glyph glyph-name="ugrave" unicode="&#xf9;" horiz-adv-x="590" 
d="M535 520v-520h-101v119q-6 -24 -28.5 -53.5t-61.5 -51t-89 -21.5q-84 0 -139.5 54t-55.5 168v305h101v-301q0 -71 30 -104.5t80 -33.5q42 0 77 24t57.5 59t28.5 67v289h101zM289 767l57 -145h-90l-110 145h143z" />
    <glyph glyph-name="uacute" unicode="&#xfa;" horiz-adv-x="590" 
d="M535 520v-520h-101v119q-6 -24 -28.5 -53.5t-61.5 -51t-89 -21.5q-84 0 -139.5 54t-55.5 168v305h101v-301q0 -71 30 -104.5t80 -33.5q42 0 77 24t57.5 59t28.5 67v289h101zM338 622h-90l57 145h143z" />
    <glyph glyph-name="ucircumflex" unicode="&#xfb;" horiz-adv-x="590" 
d="M535 520v-520h-101v119q-6 -24 -28.5 -53.5t-61.5 -51t-89 -21.5q-84 0 -139.5 54t-55.5 168v305h101v-301q0 -71 30 -104.5t80 -33.5q42 0 77 24t57.5 59t28.5 67v289h101zM481 616h-84l-99 103l-100 -103h-84l93 151h181z" />
    <glyph glyph-name="udieresis" unicode="&#xfc;" horiz-adv-x="590" 
d="M535 520v-520h-101v119q-6 -24 -28.5 -53.5t-61.5 -51t-89 -21.5q-84 0 -139.5 54t-55.5 168v305h101v-301q0 -71 30 -104.5t80 -33.5q42 0 77 24t57.5 59t28.5 67v289h101zM230 661h-110v110h110v-110zM476 661h-110v110h110v-110z" />
    <glyph glyph-name="yacute" unicode="&#xfd;" horiz-adv-x="576" 
d="M550 520l-288 -710h-99l82 205l-219 505h100l167 -386l157 386h100zM334 622h-90l57 145h143z" />
    <glyph glyph-name="thorn" unicode="&#xfe;" horiz-adv-x="598" 
d="M437.5 495.5q56.5 -30.5 93.5 -91t37 -144.5q0 -86 -37 -146t-93.5 -90.5t-115.5 -30.5h-1h-2q-55 0 -99 27t-61 64v-84h-3v-190h-101v710h3v180h101v-260q16 36 60 61t100 25h1h2q59 0 115.5 -30.5zM176 160q22 -40 57 -59.5t73 -20.5q39 1 75.5 22t59.5 61.5t23 96.5
t-23 96t-59.5 60.5t-75.5 21.5q-39 -1 -73.5 -20t-56.5 -58.5t-22 -99.5t22 -100z" />
    <glyph glyph-name="ydieresis" unicode="&#xff;" horiz-adv-x="576" 
d="M550 520l-288 -710h-99l82 205l-219 505h100l167 -386l157 386h100zM226 661h-110v110h110v-110zM472 661h-110v110h110v-110z" />
    <glyph glyph-name="Amacron" unicode="&#x100;" horiz-adv-x="726" 
d="M513 171h-299l-76 -171h-113l328 700h20l328 -700h-112zM474 257l-111 247l-110 -247h221zM549 793h-371v87h371v-87z" />
    <glyph glyph-name="amacron" unicode="&#x101;" 
d="M389.5 499q45.5 -27 59.5 -66v87h101v-520h-101v91q-15 -39 -60.5 -68.5t-103.5 -29.5t-114.5 30.5t-93.5 91t-37 145.5q0 84 37 144.5t93.5 91t114.5 30.5q59 0 104.5 -27zM224.5 418q-36.5 -21 -60 -61.5t-23.5 -96.5q0 -57 23.5 -97.5t60 -61t75.5 -20.5t74 19
t57 59.5t22 100.5q0 61 -22 101t-57 59t-74 19t-75.5 -21zM498 613h-371v87h371v-87z" />
    <glyph glyph-name="Abreve" unicode="&#x102;" horiz-adv-x="726" 
d="M513 171h-299l-76 -171h-113l328 700h20l328 -700h-112zM474 257l-111 247l-110 -247h221zM512 865q-20 -40 -58 -65.5t-91 -25.5q-50 0 -88.5 26t-59.5 66t-22 81h78q5 -34 29.5 -57.5t63.5 -23.5q38 0 62 23.5t29 57.5h78q-1 -42 -21 -82z" />
    <glyph glyph-name="abreve" unicode="&#x103;" 
d="M389.5 499q45.5 -27 59.5 -66v87h101v-520h-101v91q-15 -39 -60.5 -68.5t-103.5 -29.5t-114.5 30.5t-93.5 91t-37 145.5q0 84 37 144.5t93.5 91t114.5 30.5q59 0 104.5 -27zM224.5 418q-36.5 -21 -60 -61.5t-23.5 -96.5q0 -57 23.5 -97.5t60 -61t75.5 -20.5t74 19
t57 59.5t22 100.5q0 61 -22 101t-57 59t-74 19t-75.5 -21zM461 685q-20 -40 -58 -65.5t-91 -25.5q-50 0 -88.5 26t-59.5 66t-22 81h78q5 -34 29.5 -57.5t63.5 -23.5q38 0 62 23.5t29 57.5h78q-1 -42 -21 -82z" />
    <glyph glyph-name="Aogonek" unicode="&#x104;" horiz-adv-x="740" 
d="M600.5 -36q-31.5 -16 -44.5 -31.5t-13 -37.5q0 -24 17 -38.5t40 -14.5q12 0 25 5l22 -45q-23 -13 -65 -13q-53 0 -93.5 24.5t-40.5 72.5q0 44 36 73.5t95 40.5h10l-76 171h-299l-76 -171h-113l328 700h20l328 -700h-9q-60 -20 -91.5 -36zM474 257l-111 247l-110 -247h221
z" />
    <glyph glyph-name="aogonek" unicode="&#x105;" horiz-adv-x="612" 
d="M430.5 -143.5q16.5 -14.5 39.5 -14.5q12 0 25 5l23 -45q-25 -13 -66 -13q-53 0 -93.5 24.5t-40.5 72.5q0 44 36 73.5t96 40.5h-1v91q-15 -39 -60.5 -68.5t-103.5 -29.5t-114.5 30.5t-93.5 91t-37 145.5q0 84 37 144.5t93.5 91t114.5 30.5q59 0 104.5 -27t59.5 -66v87h101
v-520h1q-79 -29 -108 -52t-29 -53q0 -24 16.5 -38.5zM374 100q35 19 57 59.5t22 100.5q0 61 -22 101t-57 59t-74 19t-75.5 -21t-60 -61.5t-23.5 -96.5q0 -57 23.5 -97.5t60 -61t75.5 -20.5t74 19z" />
    <glyph glyph-name="Cacute" unicode="&#x106;" horiz-adv-x="655" 
d="M516 684.5q58 -22.5 104 -64.5l-65 -76q-31 30 -72.5 46.5t-89.5 16.5q-62 0 -117.5 -34t-89 -93t-33.5 -130q0 -72 33.5 -131t89 -92.5t117.5 -33.5q48 0 90 17.5t74 47.5l64 -76q-46 -42 -105 -65.5t-124 -23.5q-88 0 -169.5 46t-132 127.5t-50.5 182.5q0 102 50.5 184
t132 128t169.5 46q66 0 124 -22.5zM407 802h-90l57 145h143z" />
    <glyph glyph-name="cacute" unicode="&#x107;" horiz-adv-x="545" 
d="M419 494.5q60 -31.5 96 -91.5l-91 -32q-21 33 -55 50.5t-71 17.5q-39 0 -75 -21t-59 -61.5t-23 -97.5q0 -56 23 -96.5t59 -61t75 -20.5q37 0 71.5 17t54.5 50l91 -32q-36 -60 -96 -91.5t-121 -31.5q-58 0 -118 30t-100 90.5t-40 145.5t40 145.5t100 91t118 30.5
q61 0 121 -31.5zM316 622h-90l57 145h143z" />
    <glyph glyph-name="Cdotaccent" unicode="&#x10a;" horiz-adv-x="655" 
d="M516 684.5q58 -22.5 104 -64.5l-65 -76q-31 30 -72.5 46.5t-89.5 16.5q-62 0 -117.5 -34t-89 -93t-33.5 -130q0 -72 33.5 -131t89 -92.5t117.5 -33.5q48 0 90 17.5t74 47.5l64 -76q-46 -42 -105 -65.5t-124 -23.5q-88 0 -169.5 46t-132 127.5t-50.5 182.5q0 102 50.5 184
t132 128t169.5 46q66 0 124 -22.5zM418 833h-103v103h103v-103z" />
    <glyph glyph-name="cdotaccent" unicode="&#x10b;" horiz-adv-x="545" 
d="M419 494.5q60 -31.5 96 -91.5l-91 -32q-21 33 -55 50.5t-71 17.5q-39 0 -75 -21t-59 -61.5t-23 -97.5q0 -56 23 -96.5t59 -61t75 -20.5q37 0 71.5 17t54.5 50l91 -32q-36 -60 -96 -91.5t-121 -31.5q-58 0 -118 30t-100 90.5t-40 145.5t40 145.5t100 91t118 30.5
q61 0 121 -31.5zM327 653h-103v103h103v-103z" />
    <glyph glyph-name="Ccaron" unicode="&#x10c;" horiz-adv-x="655" 
d="M516 684.5q58 -22.5 104 -64.5l-65 -76q-31 30 -72.5 46.5t-89.5 16.5q-62 0 -117.5 -34t-89 -93t-33.5 -130q0 -72 33.5 -131t89 -92.5t117.5 -33.5q48 0 90 17.5t74 47.5l64 -76q-46 -42 -105 -65.5t-124 -23.5q-88 0 -169.5 46t-132 127.5t-50.5 182.5q0 102 50.5 184
t132 128t169.5 46q66 0 124 -22.5zM276 803l-93 151h84l100 -103l99 103h84l-93 -151h-181z" />
    <glyph glyph-name="ccaron" unicode="&#x10d;" horiz-adv-x="545" 
d="M419 494.5q60 -31.5 96 -91.5l-91 -32q-21 33 -55 50.5t-71 17.5q-39 0 -75 -21t-59 -61.5t-23 -97.5q0 -56 23 -96.5t59 -61t75 -20.5q37 0 71.5 17t54.5 50l91 -32q-36 -60 -96 -91.5t-121 -31.5q-58 0 -118 30t-100 90.5t-40 145.5t40 145.5t100 91t118 30.5
q61 0 121 -31.5zM185 623l-93 151h84l100 -103l99 103h84l-93 -151h-181z" />
    <glyph glyph-name="Dcaron" unicode="&#x10e;" horiz-adv-x="701" 
d="M478.5 653.5q80.5 -46.5 126.5 -126.5t46 -176q0 -97 -46 -177.5t-126.5 -127t-179.5 -46.5h-224v700h224q99 0 179.5 -46.5zM431 122.5q56 34.5 86 94.5t30 134t-30 133.5t-86 93.5t-132 34h-120v-524h120q76 0 132 34.5zM261 803l-93 151h84l100 -103l99 103h84
l-93 -151h-181z" />
    <glyph glyph-name="dcaron" unicode="&#x10f;" horiz-adv-x="859" 
d="M555 700v-700h-101v91q-15 -39 -60 -68.5t-103 -29.5q-59 0 -115.5 30.5t-93.5 90.5t-37 146q0 84 37 144.5t93.5 91t115.5 30.5t104 -27.5t59 -65.5v267h101zM379 99.5q35 19.5 57.5 60t22.5 100.5t-22.5 100t-57.5 59t-74 19t-75.5 -20.5t-60 -61t-23.5 -96.5
q0 -57 23.5 -97.5t60 -61.5t75.5 -21t74 19.5zM687 555h-90l57 145h143z" />
    <glyph glyph-name="Dcroat" unicode="&#x110;" horiz-adv-x="784" 
d="M551.5 653.5q80.5 -46.5 126.5 -126.5t46 -176q0 -97 -46 -177.5t-126.5 -127t-179.5 -46.5h-224v304h-73v83h73v313h224q99 0 179.5 -46.5zM504 122.5q56 34.5 86 94t30 134.5q0 73 -30 132.5t-86 94t-132 34.5h-120v-225h133v-83h-133v-216h120q76 0 132 34.5z" />
    <glyph glyph-name="dcroat" unicode="&#x111;" horiz-adv-x="679" 
d="M618 548h-63v-548h-101v91q-15 -39 -60 -68.5t-103 -29.5q-59 0 -115.5 30.5t-93.5 90.5t-37 146q0 84 37 144.5t93.5 91t115.5 30.5t104 -27.5t59 -65.5v115h-207v88h207v64h101v-64h63v-88zM379 99.5q35 19.5 57.5 60t22.5 100.5t-22.5 100t-57.5 59t-74 19
t-75.5 -20.5t-60 -61t-23.5 -96.5q0 -57 23.5 -97.5t60 -61.5t75.5 -21t74 19.5z" />
    <glyph glyph-name="Emacron" unicode="&#x112;" horiz-adv-x="545" 
d="M500 91v-91h-445v700h435v-91h-329v-216h229v-91h-229v-211h339zM478 793h-371v87h371v-87z" />
    <glyph glyph-name="emacron" unicode="&#x113;" horiz-adv-x="592" 
d="M415 495.5q59 -30.5 98 -91t39 -145.5q0 -20 -3 -38h-405q6 -44 30 -76t57.5 -48t67.5 -16q78 0 122 49l82 -45q-39 -45 -92.5 -68.5t-111.5 -23.5q-59 0 -119 30t-100 90.5t-40 145.5t39 145.5t98.5 91t119.5 30.5q59 0 118 -30.5zM198.5 402q-44.5 -36 -53.5 -103h305
q-10 67 -55 103t-98 36q-54 0 -98.5 -36zM481 613h-371v87h371v-87z" />
    <glyph glyph-name="Edotaccent" unicode="&#x116;" horiz-adv-x="545" 
d="M500 91v-91h-445v700h435v-91h-329v-216h229v-91h-229v-211h339zM343 833h-103v103h103v-103z" />
    <glyph glyph-name="edotaccent" unicode="&#x117;" horiz-adv-x="592" 
d="M415 495.5q59 -30.5 98 -91t39 -145.5q0 -20 -3 -38h-405q6 -44 30 -76t57.5 -48t67.5 -16q78 0 122 49l82 -45q-39 -45 -92.5 -68.5t-111.5 -23.5q-59 0 -119 30t-100 90.5t-40 145.5t39 145.5t98.5 91t119.5 30.5q59 0 118 -30.5zM198.5 402q-44.5 -36 -53.5 -103h305
q-10 67 -55 103t-98 36q-54 0 -98.5 -36zM347 653h-103v103h103v-103z" />
    <glyph glyph-name="Eogonek" unicode="&#x118;" horiz-adv-x="545" 
d="M500 91v-91h-445v700h435v-91h-329v-216h229v-91h-229v-211h339zM416.5 -53q-28.5 -23 -28.5 -52q0 -24 17 -38.5t40 -14.5q12 0 25 5l22 -45q-23 -13 -65 -13q-53 0 -93.5 24.5t-40.5 72.5q0 44 36 73.5t95 40.5h95q-74 -30 -102.5 -53z" />
    <glyph glyph-name="eogonek" unicode="&#x119;" horiz-adv-x="602" 
d="M549 221h-405q6 -44 30 -76t57.5 -48t67.5 -16q78 0 122 49l82 -45q-16 -19 -37 -35h7q-71 -52 -95.5 -85t-24.5 -66q0 -26 17 -41t41 -15q12 0 23 4l22 -45q-26 -13 -63 -13q-54 0 -95 27t-41 80q0 55 57 97h-15q-59 0 -119 30t-100 90.5t-40 145.5t39 145.5t98.5 91
t119.5 30.5q59 0 118 -30.5t98 -91t39 -145.5q0 -20 -3 -38zM450 299q-10 67 -55 103t-98 36q-54 0 -98.5 -36t-53.5 -103h305z" />
    <glyph glyph-name="Ecaron" unicode="&#x11a;" horiz-adv-x="545" 
d="M500 91v-91h-445v700h435v-91h-329v-216h229v-91h-229v-211h339zM201 803l-93 151h84l100 -103l99 103h84l-93 -151h-181z" />
    <glyph glyph-name="ecaron" unicode="&#x11b;" horiz-adv-x="592" 
d="M415 495.5q59 -30.5 98 -91t39 -145.5q0 -20 -3 -38h-405q6 -44 30 -76t57.5 -48t67.5 -16q78 0 122 49l82 -45q-39 -45 -92.5 -68.5t-111.5 -23.5q-59 0 -119 30t-100 90.5t-40 145.5t39 145.5t98.5 91t119.5 30.5q59 0 118 -30.5zM198.5 402q-44.5 -36 -53.5 -103h305
q-10 67 -55 103t-98 36q-54 0 -98.5 -36zM205 623l-93 151h84l100 -103l99 103h84l-93 -151h-181z" />
    <glyph glyph-name="Gbreve" unicode="&#x11e;" horiz-adv-x="741" 
d="M705 321q0 -101 -40.5 -175t-111 -113.5t-158.5 -39.5q-91 0 -173 46t-132 127.5t-50 183.5t50 183.5t131.5 127.5t173.5 46q76 0 139 -28.5t102 -73.5l-64 -71q-27 32 -74 52.5t-103 20.5q-64 0 -119.5 -33t-89.5 -91.5t-34 -131.5t34.5 -132t90.5 -92.5t118 -33.5
q87 0 142.5 48t65.5 136h-156v81h257q1 -13 1 -37zM545 865q-20 -40 -58 -65.5t-91 -25.5q-50 0 -88.5 26t-59.5 66t-22 81h78q5 -34 29.5 -57.5t63.5 -23.5q38 0 62 23.5t29 57.5h78q-1 -42 -21 -82z" />
    <glyph glyph-name="gbreve" unicode="&#x11f;" 
d="M550 520v-520q0 -72 -37.5 -118t-92 -66.5t-107.5 -20.5q-93 0 -156 42v88q23 -16 64 -29.5t92 -13.5q60 0 98 32.5t38 85.5v91q-15 -39 -60.5 -68.5t-103.5 -29.5t-114.5 30.5t-93.5 91t-37 145.5q0 84 37 144.5t93.5 91t114.5 30.5q59 0 104.5 -27t59.5 -66v87h101z
M374 100q35 19 57 59.5t22 100.5q0 61 -22 101t-57 59t-74 19t-75.5 -21t-60 -61.5t-23.5 -96.5q0 -57 23.5 -97.5t60 -61t75.5 -20.5t74 19zM449 685q-20 -40 -58 -65.5t-91 -25.5q-50 0 -88.5 26t-59.5 66t-22 81h78q5 -34 29.5 -57.5t63.5 -23.5q38 0 62 23.5t29 57.5h78
q-1 -42 -21 -82z" />
    <glyph glyph-name="Gdotaccent" unicode="&#x120;" horiz-adv-x="741" 
d="M705 321q0 -101 -40.5 -175t-111 -113.5t-158.5 -39.5q-91 0 -173 46t-132 127.5t-50 183.5t50 183.5t131.5 127.5t173.5 46q76 0 139 -28.5t102 -73.5l-64 -71q-27 32 -74 52.5t-103 20.5q-64 0 -119.5 -33t-89.5 -91.5t-34 -131.5t34.5 -132t90.5 -92.5t118 -33.5
q87 0 142.5 48t65.5 136h-156v81h257q1 -13 1 -37zM448 833h-103v103h103v-103z" />
    <glyph glyph-name="gdotaccent" unicode="&#x121;" 
d="M550 520v-520q0 -72 -37.5 -118t-92 -66.5t-107.5 -20.5q-93 0 -156 42v88q23 -16 64 -29.5t92 -13.5q60 0 98 32.5t38 85.5v91q-15 -39 -60.5 -68.5t-103.5 -29.5t-114.5 30.5t-93.5 91t-37 145.5q0 84 37 144.5t93.5 91t114.5 30.5q59 0 104.5 -27t59.5 -66v87h101z
M374 100q35 19 57 59.5t22 100.5q0 61 -22 101t-57 59t-74 19t-75.5 -21t-60 -61.5t-23.5 -96.5q0 -57 23.5 -97.5t60 -61t75.5 -20.5t74 19zM352 653h-103v103h103v-103z" />
    <glyph glyph-name="Gcommaaccent" unicode="&#x122;" horiz-adv-x="741" 
d="M705 321q0 -101 -40.5 -175t-111 -113.5t-158.5 -39.5q-91 0 -173 46t-132 127.5t-50 183.5t50 183.5t131.5 127.5t173.5 46q76 0 139 -28.5t102 -73.5l-64 -71q-27 32 -74 52.5t-103 20.5q-64 0 -119.5 -33t-89.5 -91.5t-34 -131.5t34.5 -132t90.5 -92.5t118 -33.5
q87 0 142.5 48t65.5 136h-156v81h257q1 -13 1 -37zM300 -60h136l-86 -155h-90z" />
    <glyph glyph-name="gcommaaccent" unicode="&#x123;" horiz-adv-x="608" 
d="M357 578h-136l86 155h90zM550 520v-520q0 -72 -37.5 -118t-92 -66.5t-107.5 -20.5q-93 0 -156 42v88q23 -16 64 -29.5t92 -13.5q60 0 98 32.5t38 85.5v91q-15 -39 -60.5 -68.5t-103.5 -29.5t-114.5 30.5t-93.5 91t-37 145.5q0 84 37 144.5t93.5 91t114.5 30.5
q59 0 104.5 -27t59.5 -66v87h101zM374 100q35 19 57 59.5t22 100.5q0 61 -22 101t-57 59t-74 19t-75.5 -21t-60 -61.5t-23.5 -96.5q0 -57 23.5 -97.5t60 -61t75.5 -20.5t74 19z" />
    <glyph glyph-name="Hbar" unicode="&#x126;" horiz-adv-x="709" 
d="M611 700v-700h-104v301h-333v-301h-104v700h104v-146h333v146h104zM507 390v82h-333v-82h333z" />
    <glyph glyph-name="hbar" unicode="&#x127;" horiz-adv-x="652" 
d="M486 502q45 -23 72.5 -73.5t27.5 -127.5v-301h-101v296q0 73 -31.5 107t-85.5 34q-43 0 -78 -23.5t-57 -56t-26 -58.5v-299h-101v532h-61v82h61v86h101v-86h101v-82h-101v-128q3 21 26 49.5t63.5 50t92.5 21.5t97 -23z" />
    <glyph glyph-name="Imacron" unicode="&#x12a;" horiz-adv-x="247" 
d="M176 0h-105v700h105v-700zM308 793h-371v87h371v-87z" />
    <glyph glyph-name="imacron" unicode="&#x12b;" horiz-adv-x="251" 
d="M176 0h-101v520h101v-520zM311 613h-371v87h371v-87z" />
    <glyph glyph-name="Iogonek" unicode="&#x12e;" horiz-adv-x="238" 
d="M176 700v-700h-5q-77 -30 -106 -52.5t-29 -52.5q0 -24 16.5 -38.5t40.5 -14.5q12 0 25 5l22 -45q-23 -13 -65 -13q-53 0 -93.5 24.5t-40.5 72.5q0 44 35 73.5t90 40.5h4v700h106z" />
    <glyph glyph-name="iogonek" unicode="&#x12f;" horiz-adv-x="251" 
d="M176 0h-101v520h101v-520zM177 653h-103v103h103v-103zM71.5 -53q-28.5 -23 -28.5 -52q0 -24 17 -38.5t40 -14.5q12 0 25 5l22 -45q-23 -13 -65 -13q-53 0 -93.5 24.5t-40.5 72.5q0 44 36 73.5t95 40.5h95q-74 -30 -102.5 -53z" />
    <glyph glyph-name="Idotaccent" unicode="&#x130;" horiz-adv-x="247" 
d="M176 0h-105v700h105v-700zM173 833h-103v103h103v-103z" />
    <glyph glyph-name="dotlessi" unicode="&#x131;" horiz-adv-x="251" 
d="M176 0h-101v520h101v-520z" />
    <glyph glyph-name="IJ" unicode="&#x132;" horiz-adv-x="786" 
d="M176 0h-105v700h105v-700zM721 243q0 -88 -33 -144t-84.5 -81t-110.5 -25q-66 0 -116.5 22.5t-84.5 61.5l67 67q47 -59 130 -59q57 0 94 36t37 125v454h101v-457z" />
    <glyph glyph-name="ij" unicode="&#x133;" horiz-adv-x="482" 
d="M169 608h-103v92h103v-92zM169 0h-103v520h103v-520zM412 608h-101v92h101v-92zM412 -57q0 -148 -137 -148q-45 0 -100 25v99q8 -3 27.5 -10t34.5 -10.5t27 -3.5q24 0 35.5 21t11.5 53v551h101v-577z" />
    <glyph glyph-name="Kcommaaccent" unicode="&#x136;" horiz-adv-x="698" 
d="M353 351l315 -351h-118l-256 279l-119 -142v-137h-105v700h105v-427l352 427h119zM269 -60h136l-86 -155h-90z" />
    <glyph glyph-name="kcommaaccent" unicode="&#x137;" horiz-adv-x="585" 
d="M217 220l-59 -61v-159h-101v700h101v-417l222 237h126l-229 -238l277 -282h-124zM205 -60h136l-86 -155h-90z" />
    <glyph glyph-name="Lacute" unicode="&#x139;" horiz-adv-x="618" 
d="M524 88v-88h-453v700h103v-612h350zM172 800h-90l57 145h143z" />
    <glyph glyph-name="lacute" unicode="&#x13a;" horiz-adv-x="217" 
d="M160 0h-103v700h103v-700zM149 802h-90l57 145h143z" />
    <glyph glyph-name="Lcommaaccent" unicode="&#x13b;" horiz-adv-x="575" 
d="M524 88v-88h-453v700h103v-612h350zM223 -60h136l-86 -155h-90z" />
    <glyph glyph-name="lcommaaccent" unicode="&#x13c;" horiz-adv-x="217" 
d="M160 0h-103v700h103v-700zM26 -60h136l-86 -155h-90z" />
    <glyph glyph-name="Lcaron" unicode="&#x13d;" horiz-adv-x="618" 
d="M524 88v-88h-453v700h103v-612h350zM321 700h136l-86 -155h-90z" />
    <glyph glyph-name="lcaron" unicode="&#x13e;" horiz-adv-x="416" 
d="M160 0h-103v700h103v-700zM270 700h136l-86 -155h-91z" />
    <glyph glyph-name="Ldot" unicode="&#x13f;" horiz-adv-x="575" 
d="M524 88v-88h-453v700h103v-612h350zM420 310h-115v115h115v-115z" />
    <glyph glyph-name="ldot" unicode="&#x140;" horiz-adv-x="408" 
d="M160 0h-103v700h103v-700zM347 308h-115v115h115v-115z" />
    <glyph glyph-name="Lslash" unicode="&#x141;" horiz-adv-x="674" 
d="M580 87v-87h-453v230l-72 -75v108l72 76v361h103v-253l99 105h1v-107l-100 -106v-252h350z" />
    <glyph glyph-name="lslash" unicode="&#x142;" horiz-adv-x="352" 
d="M307 438l-86 -90v-348h-103v239l-72 -76v109l72 76v352h103v-244l85 90h1v-108z" />
    <glyph glyph-name="Nacute" unicode="&#x143;" horiz-adv-x="694" 
d="M624 0h-99l-351 524v-524h-104v700h99l351 -524v524h104v-700zM388 802h-90l57 145h143z" />
    <glyph glyph-name="nacute" unicode="&#x144;" horiz-adv-x="595" 
d="M440 502q45 -23 72.5 -73.5t27.5 -127.5v-301h-101v297q0 73 -31.5 107t-85.5 34q-43 0 -78 -23.5t-57 -56.5t-26 -59v-299h-101v520h101v-116q3 21 26.5 49.5t63.5 50t92 21.5t97 -23zM338 622h-90l57 145h143z" />
    <glyph glyph-name="Ncommaaccent" unicode="&#x145;" horiz-adv-x="694" 
d="M624 0h-99l-351 524v-524h-104v700h99l351 -524v524h104v-700zM265 -60h136l-86 -155h-90z" />
    <glyph glyph-name="ncommaaccent" unicode="&#x146;" horiz-adv-x="595" 
d="M440 502q45 -23 72.5 -73.5t27.5 -127.5v-301h-101v297q0 73 -31.5 107t-85.5 34q-43 0 -78 -23.5t-57 -56.5t-26 -59v-299h-101v520h101v-116q3 21 26.5 49.5t63.5 50t92 21.5t97 -23zM216 -60h136l-86 -155h-90z" />
    <glyph glyph-name="Ncaron" unicode="&#x147;" horiz-adv-x="694" 
d="M624 0h-99l-351 524v-524h-104v700h99l351 -524v524h104v-700zM257 803l-93 151h84l100 -103l99 103h84l-93 -151h-181z" />
    <glyph glyph-name="ncaron" unicode="&#x148;" horiz-adv-x="595" 
d="M440 502q45 -23 72.5 -73.5t27.5 -127.5v-301h-101v297q0 73 -31.5 107t-85.5 34q-43 0 -78 -23.5t-57 -56.5t-26 -59v-299h-101v520h101v-116q3 21 26.5 49.5t63.5 50t92 21.5t97 -23zM207 623l-93 151h84l100 -103l99 103h84l-93 -151h-181z" />
    <glyph glyph-name="Eng" unicode="&#x14a;" horiz-adv-x="693" 
d="M590 -99q-33 -56 -85 -81t-110 -25q-66 0 -117 22.5t-85 61.5l68 67q47 -59 129 -59q57 0 94.5 36t37.5 124v46l-346 362v-455h-105v700h10l436 -456v456h106v-655q0 -88 -33 -144z" />
    <glyph glyph-name="eng" unicode="&#x14b;" horiz-adv-x="599" 
d="M543 173v-230q0 -77 -35.5 -112.5t-100.5 -35.5q-26 0 -49.5 6.5t-50.5 18.5v99q7 -2 26.5 -9.5t34.5 -11t28 -3.5q24 0 35 21t11 53v31h-3v297q0 73 -31.5 107t-85.5 34q-43 0 -78 -23.5t-57 -56.5t-26 -59v-299h-101v520h101v-116q3 21 26.5 49.5t63.5 50t92 21.5
t97 -23t72.5 -73.5t27.5 -127.5v-128h3z" />
    <glyph glyph-name="Omacron" unicode="&#x14c;" horiz-adv-x="811" 
d="M576 661q81 -46 130.5 -127.5t49.5 -183.5t-49.5 -183.5t-130.5 -127.5t-170 -46q-87 0 -168 46t-132 128t-51 183t51 183t132 128t168 46q89 0 170 -46zM290 574.5q-55 -32.5 -88.5 -91.5t-33.5 -133t33.5 -133t88.5 -91.5t116 -32.5q65 0 119.5 32.5t86.5 91t32 133.5
t-32 133.5t-86.5 91t-119.5 32.5q-61 0 -116 -32.5zM591 793h-371v87h371v-87z" />
    <glyph glyph-name="omacron" unicode="&#x14d;" horiz-adv-x="597" 
d="M417 495.5q60 -30.5 100 -91t40 -145.5t-40 -145.5t-100 -90.5t-118 -30q-59 0 -119 30t-100 90.5t-40 145.5t40 145.5t100 91t119 30.5q58 0 118 -30.5zM224.5 418.5q-36.5 -20.5 -60 -61.5t-23.5 -98t23.5 -97t60 -60.5t74.5 -20.5t74 20.5t59.5 60.5t23.5 97t-23.5 98
t-59.5 61.5t-74 20.5t-74.5 -20.5zM484 613h-371v87h371v-87z" />
    <glyph glyph-name="Ohungarumlaut" unicode="&#x150;" horiz-adv-x="811" 
d="M446 802h-90l57 145h143zM576 661q81 -46 130.5 -127.5t49.5 -183.5t-49.5 -183.5t-130.5 -127.5t-170 -46q-87 0 -168 46t-132 128t-51 183t51 183t132 128t168 46q89 0 170 -46zM525.5 125.5q54.5 32.5 86.5 91t32 133.5t-32 133.5t-86.5 91t-119.5 32.5
q-61 0 -116 -32.5t-88.5 -91.5t-33.5 -133t33.5 -133t88.5 -91.5t116 -32.5q65 0 119.5 32.5z" />
    <glyph glyph-name="ohungarumlaut" unicode="&#x151;" horiz-adv-x="597" 
d="M339 622h-90l57 145h143zM417 495.5q60 -30.5 100 -91t40 -145.5t-40 -145.5t-100 -90.5t-118 -30q-59 0 -119 30t-100 90.5t-40 145.5t40 145.5t100 91t119 30.5q58 0 118 -30.5zM373 101.5q36 20.5 59.5 60.5t23.5 97t-23.5 98t-59.5 61.5t-74 20.5t-74.5 -20.5
t-60 -61.5t-23.5 -98t23.5 -97t60 -60.5t74.5 -20.5t74 20.5z" />
    <glyph glyph-name="OE" unicode="&#x152;" horiz-adv-x="1156" 
d="M1079 91v-91h-446v79q-49 -41 -107.5 -63.5t-119.5 -22.5q-87 0 -168 46t-132 128t-51 183t51 183t132 128t168 46q61 0 119.5 -22.5t107.5 -63.5v79h436v-91h-329v-151q10 -36 14 -65h215v-91h-216q-5 -34 -13 -60v-151h339zM548.5 141q62.5 48 84.5 129v160
q-22 81 -84.5 129t-142.5 48q-61 0 -116 -32.5t-88.5 -91.5t-33.5 -133t33.5 -133t88.5 -91.5t116 -32.5q80 0 142.5 48z" />
    <glyph glyph-name="oe" unicode="&#x153;" horiz-adv-x="1011" 
d="M965 221h-405q6 -45 30 -77t57.5 -48t67.5 -16q77 0 122 50l82 -45q-39 -45 -93 -68.5t-112 -23.5q-55 0 -112.5 27.5t-95.5 78.5q-38 -51 -95 -78.5t-112 -27.5q-59 0 -119 30t-100 90.5t-40 145.5t40 145.5t100 91t119 30.5q55 0 112 -27.5t95 -78.5q37 51 94 78.5
t113 27.5q59 0 118 -30.5t98 -91t39 -145.5q0 -20 -3 -38zM373 101.5q36 20.5 59.5 60.5t23.5 97t-23.5 98t-59.5 61.5t-74 20.5t-74.5 -20.5t-60 -61.5t-23.5 -98t23.5 -97t60 -60.5t74.5 -20.5t74 20.5zM866 299q-7 45 -30.5 76.5t-56.5 47t-66 15.5q-54 0 -98.5 -36.5
t-53.5 -102.5h305z" />
    <glyph glyph-name="Racute" unicode="&#x154;" horiz-adv-x="619" 
d="M464 0l-182 264h-108v-264h-104v700h236q76 0 132 -28t86.5 -77.5t30.5 -112.5q0 -77 -45 -133t-123 -76l192 -273h-115zM174 356h126q70 0 110.5 33t40.5 93t-40.5 93t-110.5 33h-126v-252zM333 802h-90l57 145h143z" />
    <glyph glyph-name="racute" unicode="&#x155;" horiz-adv-x="403" 
d="M379 522v-93q-15 2 -43 2q-72 -1 -121 -49t-59 -131v-251h-101v520h101v-162q9 72 55.5 119.5t125.5 47.5q24 0 42 -3zM242 622h-90l57 145h143z" />
    <glyph glyph-name="Rcommaaccent" unicode="&#x156;" horiz-adv-x="619" 
d="M464 0l-182 264h-108v-264h-104v700h236q76 0 132 -28t86.5 -77.5t30.5 -112.5q0 -77 -45 -133t-123 -76l192 -273h-115zM174 356h126q70 0 110.5 33t40.5 93t-40.5 93t-110.5 33h-126v-252zM223 -60h136l-86 -155h-90z" />
    <glyph glyph-name="rcommaaccent" unicode="&#x157;" horiz-adv-x="403" 
d="M379 522v-93q-15 2 -43 2q-72 -1 -121 -49t-59 -131v-251h-101v520h101v-162q9 72 55.5 119.5t125.5 47.5q24 0 42 -3zM22 -60h136l-86 -155h-90z" />
    <glyph glyph-name="Rcaron" unicode="&#x158;" horiz-adv-x="619" 
d="M464 0l-182 264h-108v-264h-104v700h236q76 0 132 -28t86.5 -77.5t30.5 -112.5q0 -77 -45 -133t-123 -76l192 -273h-115zM174 356h126q70 0 110.5 33t40.5 93t-40.5 93t-110.5 33h-126v-252zM202 803l-93 151h84l100 -103l99 103h84l-93 -151h-181z" />
    <glyph glyph-name="rcaron" unicode="&#x159;" horiz-adv-x="403" 
d="M379 522v-93q-15 2 -43 2q-72 -1 -121 -49t-59 -131v-251h-101v520h101v-162q9 72 55.5 119.5t125.5 47.5q24 0 42 -3zM111 623l-93 151h84l100 -103l99 103h84l-93 -151h-181z" />
    <glyph glyph-name="Sacute" unicode="&#x15a;" horiz-adv-x="583" 
d="M441 666q61 -41 88 -100l-90 -31q-16 37 -52.5 59.5t-86.5 22.5q-53 0 -87 -25t-34 -65q0 -37 23.5 -61t77.5 -42l56 -19q104 -35 155.5 -87t51.5 -128q0 -62 -36 -106.5t-93 -67.5t-117 -23q-93 0 -161.5 45t-95.5 119l86 38q18 -49 64 -80.5t107 -31.5q58 0 100.5 28
t42.5 79q0 48 -31 73.5t-98 48.5l-58 21q-85 30 -131 75t-46 119q0 51 30 92.5t80.5 64.5t110.5 23q83 0 144 -41zM337 802h-90l57 145h143z" />
    <glyph glyph-name="sacute" unicode="&#x15b;" horiz-adv-x="464" 
d="M232 440q-31 0 -50.5 -15.5t-19.5 -39.5q0 -22 13.5 -37t47.5 -27l59 -21q50 -17 81 -34t51 -46t20 -74q0 -48 -29.5 -82.5t-75.5 -52.5t-94 -18q-71 0 -129.5 37t-75.5 100l86 25q14 -35 47.5 -55t72.5 -20q36 0 64 18.5t28 48.5q0 25 -17 41.5t-52 28.5l-61 23
q-74 26 -107.5 59t-33.5 85q0 41 23.5 73.5t63.5 50.5t86 18q67 0 113.5 -31t72.5 -87l-91 -23q-32 55 -93 55zM270 622h-90l57 145h143z" />
    <glyph glyph-name="Scedilla" unicode="&#x15e;" horiz-adv-x="583" 
d="M483.5 59q-59.5 -51 -143.5 -63l-43 -46q36 -5 61.5 -30.5t25.5 -60.5q0 -45 -39.5 -69.5t-101.5 -24.5q-21 0 -44 3l13 34q46 0 69 15t23 42q0 16 -11 28t-26 12q-17 0 -33 -16l-25 43l43 70q-77 10 -133 53.5t-79 107.5l86 38q18 -49 64 -80.5t107 -31.5q58 0 100.5 28
t42.5 79q0 48 -31 73.5t-98 48.5l-58 21q-85 30 -131 75t-46 119q0 51 30 92.5t80.5 64.5t110.5 23q83 0 144 -41t88 -100l-90 -31q-16 37 -52.5 59.5t-86.5 22.5q-53 0 -87 -25t-34 -65q0 -37 23.5 -61t77.5 -42l56 -19q104 -35 155.5 -87t51.5 -128q0 -80 -59.5 -131z" />
    <glyph glyph-name="scedilla" unicode="&#x15f;" horiz-adv-x="464" 
d="M390 48q-44 -39 -107 -50l-45 -48q36 -5 61.5 -30.5t25.5 -60.5q0 -45 -39.5 -69.5t-101.5 -24.5q-22 0 -44 3l13 34q46 0 69 15t23 42q0 16 -11 28t-26 12q-17 0 -33 -16l-25 43l43 71q-59 9 -104 44.5t-59 88.5l86 25q14 -35 47.5 -55t72.5 -20q36 0 64 18.5t28 48.5
q0 25 -17 41.5t-52 28.5l-61 23q-74 26 -107.5 59t-33.5 85q0 41 23.5 73.5t63.5 50.5t86 18q67 0 113.5 -31t72.5 -87l-91 -23q-32 55 -93 55q-31 0 -50.5 -15.5t-19.5 -39.5q0 -22 13.5 -37t47.5 -27l59 -21q50 -17 81 -34t51 -46t20 -74q0 -59 -44 -98z" />
    <glyph glyph-name="Scaron" unicode="&#x160;" horiz-adv-x="583" 
d="M441 666q61 -41 88 -100l-90 -31q-16 37 -52.5 59.5t-86.5 22.5q-53 0 -87 -25t-34 -65q0 -37 23.5 -61t77.5 -42l56 -19q104 -35 155.5 -87t51.5 -128q0 -62 -36 -106.5t-93 -67.5t-117 -23q-93 0 -161.5 45t-95.5 119l86 38q18 -49 64 -80.5t107 -31.5q58 0 100.5 28
t42.5 79q0 48 -31 73.5t-98 48.5l-58 21q-85 30 -131 75t-46 119q0 51 30 92.5t80.5 64.5t110.5 23q83 0 144 -41zM206 803l-93 151h84l100 -103l99 103h84l-93 -151h-181z" />
    <glyph glyph-name="scaron" unicode="&#x161;" horiz-adv-x="464" 
d="M232 440q-31 0 -50.5 -15.5t-19.5 -39.5q0 -22 13.5 -37t47.5 -27l59 -21q50 -17 81 -34t51 -46t20 -74q0 -48 -29.5 -82.5t-75.5 -52.5t-94 -18q-71 0 -129.5 37t-75.5 100l86 25q14 -35 47.5 -55t72.5 -20q36 0 64 18.5t28 48.5q0 25 -17 41.5t-52 28.5l-61 23
q-74 26 -107.5 59t-33.5 85q0 41 23.5 73.5t63.5 50.5t86 18q67 0 113.5 -31t72.5 -87l-91 -23q-32 55 -93 55zM139 623l-93 151h84l100 -103l99 103h84l-93 -151h-181z" />
    <glyph glyph-name="uni0162" unicode="&#x162;" horiz-adv-x="642" 
d="M343 608v-608h33l-52 -52q35 -6 60 -30.5t25 -59.5q0 -46 -39 -70t-102 -24q-22 0 -45 3l13 34q46 0 69 15t23 42q0 16 -10.5 27.5t-25.5 11.5q-18 0 -34 -15l-25 43l34 75h-33v608h-188v92h485v-92h-188z" />
    <glyph glyph-name="uni0163" unicode="&#x163;" horiz-adv-x="340" 
d="M259 -3l-45 -47q36 -5 61.5 -30.5t25.5 -60.5q0 -45 -39.5 -69.5t-101.5 -24.5q-21 0 -44 3l13 34q46 0 69 15t23 42q0 16 -11 28t-26 12q-17 0 -33 -16l-25 43l44 72q-76 19 -76 127v312h-60v83h60v90h101v-90h110v-83h-110v-307q0 -49 42 -49q31 0 68 15v-84
q-20 -9 -46 -15z" />
    <glyph glyph-name="Tcaron" unicode="&#x164;" horiz-adv-x="576" 
d="M531 608h-188v-608h-109v608h-188v92h485v-92zM197 803l-93 151h84l100 -103l99 103h84l-93 -151h-181z" />
    <glyph glyph-name="tcaron" unicode="&#x165;" horiz-adv-x="469" 
d="M305 96v-84q-36 -18 -93 -18q-55 0 -86.5 28t-31.5 103v312h-60v83h60v90h101v-90h110v-83h-110v-307q0 -49 42 -49q31 0 68 15zM329 555h-90l57 145h143z" />
    <glyph glyph-name="Tbar" unicode="&#x166;" horiz-adv-x="642" 
d="M343 608v-97h162v-87h-162v-424h-109v424h-99v87h99v97h-188v92h485v-92h-188z" />
    <glyph glyph-name="tbar" unicode="&#x167;" horiz-adv-x="340" 
d="M305 96v-84q-36 -18 -93 -18q-55 0 -86.5 28t-31.5 103v148h-60v87h60v77h-60v83h60v90h101v-90h110v-83h-110v-77h110v-87h-110v-143q0 -49 42 -49q31 0 68 15z" />
    <glyph glyph-name="Umacron" unicode="&#x16a;" horiz-adv-x="678" 
d="M613 259q0 -81 -36.5 -141t-99 -92.5t-138.5 -32.5t-138.5 32.5t-99 92.5t-36.5 141v441h101v-441q0 -87 49 -132.5t124 -45.5q74 0 123.5 46t49.5 132v441h101v-441zM525 793h-371v87h371v-87z" />
    <glyph glyph-name="umacron" unicode="&#x16b;" horiz-adv-x="590" 
d="M535 520v-520h-101v119q-6 -24 -28.5 -53.5t-61.5 -51t-89 -21.5q-84 0 -139.5 54t-55.5 168v305h101v-301q0 -71 30 -104.5t80 -33.5q42 0 77 24t57.5 59t28.5 67v289h101zM484 613h-371v87h371v-87z" />
    <glyph glyph-name="Ubreve" unicode="&#x16c;" horiz-adv-x="678" 
d="M613 259q0 -81 -36.5 -141t-99 -92.5t-138.5 -32.5t-138.5 32.5t-99 92.5t-36.5 141v441h101v-441q0 -87 49 -132.5t124 -45.5q74 0 123.5 46t49.5 132v441h101v-441zM487 865q-20 -40 -58 -65.5t-91 -25.5q-50 0 -88.5 26t-59.5 66t-22 81h78q5 -34 29.5 -57.5
t63.5 -23.5q38 0 62 23.5t29 57.5h78q-1 -42 -21 -82z" />
    <glyph glyph-name="ubreve" unicode="&#x16d;" horiz-adv-x="590" 
d="M535 520v-520h-101v119q-6 -24 -28.5 -53.5t-61.5 -51t-89 -21.5q-84 0 -139.5 54t-55.5 168v305h101v-301q0 -71 30 -104.5t80 -33.5q42 0 77 24t57.5 59t28.5 67v289h101zM446 685q-20 -40 -58 -65.5t-91 -25.5q-50 0 -88.5 26t-59.5 66t-22 81h78q5 -34 29.5 -57.5
t63.5 -23.5q38 0 62 23.5t29 57.5h78q-1 -42 -21 -82z" />
    <glyph glyph-name="Uring" unicode="&#x16e;" horiz-adv-x="678" 
d="M613 259q0 -81 -36.5 -141t-99 -92.5t-138.5 -32.5t-138.5 32.5t-99 92.5t-36.5 141v441h101v-441q0 -87 49 -132.5t124 -45.5q74 0 123.5 46t49.5 132v441h101v-441zM408 948q29 -29 29 -69q0 -39 -29 -68t-68 -29q-42 0 -71 29t-29 68q0 40 29 69t71 29q39 0 68 -29z
M314.5 904q-9.5 -10 -9.5 -24q0 -13 10 -23t23 -10q14 0 23.5 10t9.5 23q0 14 -9.5 24t-23.5 10t-23.5 -10z" />
    <glyph glyph-name="uring" unicode="&#x16f;" horiz-adv-x="590" 
d="M535 520v-520h-101v119q-6 -24 -28.5 -53.5t-61.5 -51t-89 -21.5q-84 0 -139.5 54t-55.5 168v305h101v-301q0 -71 30 -104.5t80 -33.5q42 0 77 24t57.5 59t28.5 67v289h101zM367 768q29 -29 29 -69q0 -39 -29 -68t-68 -29q-42 0 -71 29t-29 68q0 40 29 69t71 29
q39 0 68 -29zM273.5 724q-9.5 -10 -9.5 -24q0 -13 10 -23t23 -10q14 0 23.5 10t9.5 23q0 14 -9.5 24t-23.5 10t-23.5 -10z" />
    <glyph glyph-name="Uhungarumlaut" unicode="&#x170;" horiz-adv-x="678" 
d="M379 802h-90l57 145h143zM613 700v-441q0 -81 -36.5 -141t-99 -92.5t-138.5 -32.5t-138.5 32.5t-99 92.5t-36.5 141v441h101v-441q0 -87 49 -132.5t124 -45.5q74 0 123.5 46t49.5 132v441h101z" />
    <glyph glyph-name="uhungarumlaut" unicode="&#x171;" horiz-adv-x="590" 
d="M338 622h-90l57 145h143zM535 520v-520h-101v119q-6 -24 -28.5 -53.5t-61.5 -51t-89 -21.5q-84 0 -139.5 54t-55.5 168v305h101v-301q0 -71 30 -104.5t80 -33.5q42 0 77 24t57.5 59t28.5 67v289h101z" />
    <glyph glyph-name="Uogonek" unicode="&#x172;" horiz-adv-x="678" 
d="M613 700v-441q0 -102 -57.5 -171t-149.5 -88q-74 -30 -102.5 -53t-28.5 -52q0 -24 17 -38.5t40 -14.5q12 0 25 5l22 -45q-26 -13 -65 -13q-53 0 -93.5 24.5t-40.5 72.5q0 41 30.5 69.5t82.5 40.5q-66 9 -117.5 43.5t-81 90.5t-29.5 129v441h101v-441q0 -87 49 -132.5
t124 -45.5q74 0 123.5 46t49.5 132v441h101z" />
    <glyph glyph-name="uogonek" unicode="&#x173;" horiz-adv-x="601" 
d="M431.5 -52.5q-28.5 -22.5 -28.5 -52.5q0 -24 17 -38.5t40 -14.5q12 0 25 5l22 -45q-23 -13 -65 -13q-53 0 -93.5 24.5t-40.5 72.5q0 44 35 73.5t91 40.5v119q-6 -24 -28.5 -53.5t-61.5 -51t-89 -21.5q-84 0 -139.5 54t-55.5 168v305h101v-301q0 -71 30 -104.5t80 -33.5
q42 0 77 24t57.5 59t28.5 67v289h101v-520q-75 -30 -103.5 -52.5z" />
    <glyph glyph-name="Wcircumflex" unicode="&#x174;" horiz-adv-x="1056" 
d="M763 0h-25l-210 499l-211 -499h-24l-253 700h110l164 -475l200 475h28l200 -475l164 475h110zM711 796h-84l-99 103l-100 -103h-84l93 151h181z" />
    <glyph glyph-name="wcircumflex" unicode="&#x175;" horiz-adv-x="830" 
d="M596 0h-16l-165 349l-165 -349h-16l-207 520h100l124 -327l155 327h18l155 -327l124 327h100zM598 616h-84l-99 103l-100 -103h-84l93 151h181z" />
    <glyph glyph-name="Ycircumflex" unicode="&#x176;" horiz-adv-x="695" 
d="M398 326v-326h-101v326l-262 374h115l198 -285l198 285h115zM531 796h-84l-99 103l-100 -103h-84l93 151h181z" />
    <glyph glyph-name="ycircumflex" unicode="&#x177;" horiz-adv-x="576" 
d="M550 520l-288 -710h-99l82 205l-219 505h100l167 -386l157 386h100zM477 616h-84l-99 103l-100 -103h-84l93 151h181z" />
    <glyph glyph-name="Ydieresis" unicode="&#x178;" horiz-adv-x="695" 
d="M398 326v-326h-101v326l-262 374h115l198 -285l198 285h115zM280 841h-110v110h110v-110zM526 841h-110v110h110v-110z" />
    <glyph glyph-name="Zacute" unicode="&#x179;" horiz-adv-x="657" 
d="M220 88h402v-88h-587l399 613h-373v87h557zM369 802h-90l57 145h143z" />
    <glyph glyph-name="zacute" unicode="&#x17a;" horiz-adv-x="543" 
d="M199 88h290v-88h-454l302 433h-290v87h455zM315 622h-90l57 145h143z" />
    <glyph glyph-name="Zdotaccent" unicode="&#x17b;" horiz-adv-x="657" 
d="M220 88h402v-88h-587l399 613h-373v87h557zM380 833h-103v103h103v-103z" />
    <glyph glyph-name="zdotaccent" unicode="&#x17c;" horiz-adv-x="543" 
d="M199 88h290v-88h-454l302 433h-290v87h455zM326 653h-103v103h103v-103z" />
    <glyph glyph-name="Zcaron" unicode="&#x17d;" horiz-adv-x="657" 
d="M220 88h402v-88h-587l399 613h-373v87h557zM237 803l-93 151h84l100 -103l99 103h84l-93 -151h-181z" />
    <glyph glyph-name="zcaron" unicode="&#x17e;" horiz-adv-x="543" 
d="M199 88h290v-88h-454l302 433h-290v87h455zM184 623l-93 151h84l100 -103l99 103h84l-93 -151h-181z" />
    <glyph glyph-name="florin" unicode="&#x192;" horiz-adv-x="292" 
d="M216 592.5q-16 -21.5 -17 -72.5h78v-87h-78v-451q0 -172 -179 -172v87q47 0 62.5 23t15.5 79v434h-65v87h65v9q0 172 179 172v-87q-45 0 -61 -21.5z" />
    <glyph glyph-name="uni01CD" unicode="&#x1cd;" horiz-adv-x="726" 
d="M513 171h-299l-76 -171h-113l328 700h20l328 -700h-112zM474 257l-111 247l-110 -247h221zM272 803l-93 151h84l100 -103l99 103h84l-93 -151h-181z" />
    <glyph glyph-name="uni01CE" unicode="&#x1ce;" 
d="M389.5 499q45.5 -27 59.5 -66v87h101v-520h-101v91q-15 -39 -60.5 -68.5t-103.5 -29.5t-114.5 30.5t-93.5 91t-37 145.5q0 84 37 144.5t93.5 91t114.5 30.5q59 0 104.5 -27zM224.5 418q-36.5 -21 -60 -61.5t-23.5 -96.5q0 -57 23.5 -97.5t60 -61t75.5 -20.5t74 19
t57 59.5t22 100.5q0 61 -22 101t-57 59t-74 19t-75.5 -21zM222 623l-93 151h84l100 -103l99 103h84l-93 -151h-181z" />
    <glyph glyph-name="uni01CF" unicode="&#x1cf;" horiz-adv-x="247" 
d="M176 0h-105v700h105v-700zM31 803l-93 151h84l100 -103l99 103h84l-93 -151h-181z" />
    <glyph glyph-name="uni01D0" unicode="&#x1d0;" horiz-adv-x="251" 
d="M176 0h-101v520h101v-520zM35 623l-93 151h84l100 -103l99 103h84l-93 -151h-181z" />
    <glyph glyph-name="uni01D1" unicode="&#x1d1;" horiz-adv-x="811" 
d="M576 661q81 -46 130.5 -127.5t49.5 -183.5t-49.5 -183.5t-130.5 -127.5t-170 -46q-87 0 -168 46t-132 128t-51 183t51 183t132 128t168 46q89 0 170 -46zM290 574.5q-55 -32.5 -88.5 -91.5t-33.5 -133t33.5 -133t88.5 -91.5t116 -32.5q65 0 119.5 32.5t86.5 91t32 133.5
t-32 133.5t-86.5 91t-119.5 32.5q-61 0 -116 -32.5zM315 803l-93 151h84l100 -103l99 103h84l-93 -151h-181z" />
    <glyph glyph-name="uni01D2" unicode="&#x1d2;" horiz-adv-x="597" 
d="M417 495.5q60 -30.5 100 -91t40 -145.5t-40 -145.5t-100 -90.5t-118 -30q-59 0 -119 30t-100 90.5t-40 145.5t40 145.5t100 91t119 30.5q58 0 118 -30.5zM224.5 418.5q-36.5 -20.5 -60 -61.5t-23.5 -98t23.5 -97t60 -60.5t74.5 -20.5t74 20.5t59.5 60.5t23.5 97t-23.5 98
t-59.5 61.5t-74 20.5t-74.5 -20.5zM208 623l-93 151h84l100 -103l99 103h84l-93 -151h-181z" />
    <glyph glyph-name="uni01D3" unicode="&#x1d3;" horiz-adv-x="678" 
d="M613 259q0 -81 -36.5 -141t-99 -92.5t-138.5 -32.5t-138.5 32.5t-99 92.5t-36.5 141v441h101v-441q0 -87 49 -132.5t124 -45.5q74 0 123.5 46t49.5 132v441h101v-441zM248 803l-93 151h84l100 -103l99 103h84l-93 -151h-181z" />
    <glyph glyph-name="uni01D4" unicode="&#x1d4;" horiz-adv-x="590" 
d="M535 520v-520h-101v119q-6 -24 -28.5 -53.5t-61.5 -51t-89 -21.5q-84 0 -139.5 54t-55.5 168v305h101v-301q0 -71 30 -104.5t80 -33.5q42 0 77 24t57.5 59t28.5 67v289h101zM207 623l-93 151h84l100 -103l99 103h84l-93 -151h-181z" />
    <glyph glyph-name="uni01EA" unicode="&#x1ea;" horiz-adv-x="795" 
d="M361 -53.5q-27 -22.5 -27 -51.5q0 -24 16.5 -38.5t40.5 -14.5q12 0 25 5l22 -45q-26 -13 -65 -13q-53 0 -93.5 24.5t-40.5 72.5q0 42 31.5 70.5t84.5 40.5q-79 13 -147.5 61t-110.5 124t-42 168q0 101 51 183t132 128t168 46q89 0 170 -46t130.5 -127.5t49.5 -183.5
q0 -92 -41 -167.5t-109 -124t-148 -61.5q-70 -28 -97 -50.5zM201.5 217q33.5 -59 88.5 -91.5t116 -32.5q65 0 119.5 32.5t86.5 91t32 133.5t-32 133.5t-86.5 91t-119.5 32.5q-61 0 -116 -32.5t-88.5 -91.5t-33.5 -133t33.5 -133z" />
    <glyph glyph-name="uni01EB" unicode="&#x1eb;" horiz-adv-x="599" 
d="M528 133q-29 -54 -75 -87t-98 -46h1q-74 -30 -102.5 -53t-28.5 -52q0 -24 16.5 -38.5t40.5 -14.5q12 0 25 5l22 -45q-26 -13 -65 -13q-53 0 -93.5 24.5t-40.5 72.5q0 42 33 71t88 41q-54 11 -102 44t-78.5 88.5t-30.5 128.5q0 85 40 145.5t100 91t119 30.5
q58 0 118 -30.5t100 -91t40 -145.5q0 -72 -29 -126zM373 101.5q36 20.5 59.5 60.5t23.5 97t-23.5 98t-59.5 61.5t-74 20.5t-74.5 -20.5t-60 -61.5t-23.5 -98t23.5 -97t60 -60.5t74.5 -20.5t74 20.5z" />
    <glyph glyph-name="Scommaaccent" unicode="&#x218;" horiz-adv-x="583" 
d="M441 666q61 -41 88 -100l-90 -31q-16 37 -52.5 59.5t-86.5 22.5q-53 0 -87 -25t-34 -65q0 -37 23.5 -61t77.5 -42l56 -19q104 -35 155.5 -87t51.5 -128q0 -62 -36 -106.5t-93 -67.5t-117 -23q-93 0 -161.5 45t-95.5 119l86 38q18 -49 64 -80.5t107 -31.5q58 0 100.5 28
t42.5 79q0 48 -31 73.5t-98 48.5l-58 21q-85 30 -131 75t-46 119q0 51 30 92.5t80.5 64.5t110.5 23q83 0 144 -41zM214 -60h136l-86 -155h-90z" />
    <glyph glyph-name="scommaaccent" unicode="&#x219;" horiz-adv-x="464" 
d="M232 440q-31 0 -50.5 -15.5t-19.5 -39.5q0 -22 13.5 -37t47.5 -27l59 -21q50 -17 81 -34t51 -46t20 -74q0 -48 -29.5 -82.5t-75.5 -52.5t-94 -18q-71 0 -129.5 37t-75.5 100l86 25q14 -35 47.5 -55t72.5 -20q36 0 64 18.5t28 48.5q0 25 -17 41.5t-52 28.5l-61 23
q-74 26 -107.5 59t-33.5 85q0 41 23.5 73.5t63.5 50.5t86 18q67 0 113.5 -31t72.5 -87l-91 -23q-32 55 -93 55zM155 -60h136l-86 -155h-90z" />
    <glyph glyph-name="uni021A" unicode="&#x21a;" horiz-adv-x="576" 
d="M531 608h-188v-608h-109v608h-188v92h485v-92zM205 -61h136l-86 -155h-90z" />
    <glyph glyph-name="uni021B" unicode="&#x21b;" horiz-adv-x="340" 
d="M305 96v-84q-36 -18 -93 -18q-55 0 -86.5 28t-31.5 103v312h-60v83h60v90h101v-90h110v-83h-110v-307q0 -49 42 -49q31 0 68 15zM130 -60h136l-86 -155h-90z" />
    <glyph glyph-name="uni0237" unicode="&#x237;" horiz-adv-x="254" 
d="M175 -57q0 -76 -36 -112t-101 -36q-45 0 -100 25v99q7 -2 26.5 -9.5t34.5 -11t28 -3.5q24 0 35.5 21t11.5 53v551h101v-577z" />
    <glyph glyph-name="circumflex" unicode="&#x2c6;" horiz-adv-x="367" 
d="M367 616h-84l-99 103l-100 -103h-84l93 151h181z" />
    <glyph glyph-name="caron" unicode="&#x2c7;" horiz-adv-x="367" 
d="M93 623l-93 151h84l100 -103l99 103h84l-93 -151h-181z" />
    <glyph glyph-name="breve" unicode="&#x2d8;" horiz-adv-x="340" 
d="M319 685q-20 -40 -58 -65.5t-91 -25.5q-50 0 -88.5 26t-59.5 66t-22 81h78q5 -34 29.5 -57.5t63.5 -23.5q38 0 62 23.5t29 57.5h78q-1 -42 -21 -82z" />
    <glyph glyph-name="dotaccent" unicode="&#x2d9;" horiz-adv-x="114" 
d="M108 653h-103v103h103v-103z" />
    <glyph glyph-name="ring" unicode="&#x2da;" horiz-adv-x="197" 
d="M168 768q29 -29 29 -69q0 -39 -29 -68t-68 -29q-42 0 -71 29t-29 68q0 40 29 69t71 29q39 0 68 -29zM74.5 724q-9.5 -10 -9.5 -24q0 -13 10 -23t23 -10q14 0 23.5 10t9.5 23q0 14 -9.5 24t-23.5 10t-23.5 -10z" />
    <glyph glyph-name="ogonek" unicode="&#x2db;" horiz-adv-x="226" 
d="M123.5 -53q-28.5 -23 -28.5 -52q0 -24 17 -38.5t40 -14.5q12 0 25 5l22 -45q-23 -13 -65 -13q-53 0 -93.5 24.5t-40.5 72.5q0 44 36 73.5t95 40.5h95q-74 -30 -102.5 -53z" />
    <glyph glyph-name="tilde" unicode="&#x2dc;" horiz-adv-x="369" 
d="M156.5 725q22.5 -10 50.5 -29q25 -15 39 -22t30 -7q21 0 36 10t15 23h42q0 -50 -29 -81.5t-76 -31.5q-26 0 -47 10.5t-51 30.5q-24 18 -41 26.5t-35 8.5q-21 0 -35 -13t-13 -28h-42q0 50 29.5 81.5t77.5 31.5q27 0 49.5 -10z" />
    <glyph glyph-name="hungarumlaut" unicode="&#x2dd;" horiz-adv-x="379" 
d="M269 622h-90l57 145h143zM90 622h-90l57 145h143z" />
    <glyph glyph-name="uni0326" unicode="&#x326;" horiz-adv-x="0" 
d="M-161 -60h136l-86 -155h-90z" />
    <glyph glyph-name="uni0394" unicode="&#x394;" horiz-adv-x="733" 
d="M683 0h-633l304 700h25zM180 88h373l-186 446z" />
    <glyph glyph-name="uni03A9" unicode="&#x3a9;" horiz-adv-x="791" 
d="M709.5 212.5q-33.5 -65.5 -92.5 -116.5h101v-96h-216v129l37 29q46 37 73.5 88t27.5 110q0 75 -34.5 132.5t-90.5 88.5t-119 31t-119.5 -31t-90.5 -88.5t-34 -132.5q0 -59 27 -110t73 -88l37 -29v-129h-215v96h100q-59 51 -92 116.5t-33 143.5q0 99 50 179.5t130 126
t167 45.5t167 -45.5t130 -126t50 -179.5q0 -78 -33.5 -143.5z" />
    <glyph glyph-name="uni03BC" unicode="&#x3bc;" horiz-adv-x="601" 
d="M535 520v-520h-101v119q-6 -24 -28.5 -53.5t-61.5 -51t-89 -21.5q-53 0 -94 21v-204h-101v710h101v-301q0 -71 30 -104.5t80 -33.5q42 0 77 24t57.5 59t28.5 67v289h101z" />
    <glyph glyph-name="pi" unicode="&#x3c0;" horiz-adv-x="694" 
d="M615.5 86.5q15.5 4.5 33.5 13.5v-88q-17 -8 -42 -13t-51 -5q-48 0 -83 24t-35 76v339h-187v-433h-101v433h-100v87h588v-87h-99v-296q0 -33 9.5 -44t32.5 -11q19 0 34.5 4.5z" />
    <glyph glyph-name="uni0401" unicode="&#x401;" horiz-adv-x="545" 
d="M500 91v-91h-445v700h435v-91h-329v-216h229v-91h-229v-211h339zM224 841h-110v110h110v-110zM470 841h-110v110h110v-110z" />
    <glyph glyph-name="uni0403" unicode="&#x403;" horiz-adv-x="558" 
d="M512 613h-345v-613h-101v700h446v-87zM328 802h-90l57 145h143z" />
    <glyph glyph-name="uni0404" unicode="&#x404;" horiz-adv-x="648" 
d="M621 82q-46 -42 -105 -65.5t-124 -23.5q-88 0 -169.5 46t-132 127.5t-50.5 182.5q0 102 50.5 184t132 128t169.5 46q66 0 124 -22.5t104 -64.5l-65 -76q-31 30 -72.5 46.5t-89.5 16.5q-55 0 -106 -27.5t-86 -76t-45 -109.5h162v-87h-162q10 -62 45 -110.5t85.5 -76
t106.5 -27.5q48 0 90 17.5t74 47.5z" />
    <glyph glyph-name="uni0406" unicode="&#x406;" horiz-adv-x="247" 
d="M176 0h-105v700h105v-700z" />
    <glyph glyph-name="uni0407" unicode="&#x407;" horiz-adv-x="247" 
d="M176 0h-105v700h105v-700zM54 841h-110v110h110v-110zM300 841h-110v110h110v-110z" />
    <glyph glyph-name="uni0410" unicode="&#x410;" horiz-adv-x="726" 
d="M513 171h-299l-76 -171h-113l328 700h20l328 -700h-112zM474 257l-111 247l-110 -247h221z" />
    <glyph glyph-name="uni0411" unicode="&#x411;" horiz-adv-x="606" 
d="M434 408q56 -28 86.5 -77.5t30.5 -112.5t-30.5 -112.5t-86.5 -77.5t-132 -28h-236v700h421v-87h-318v-177h133q76 0 132 -28zM406.5 125.5q40.5 33.5 40.5 92.5t-40.5 92.5t-110.5 33.5h-127v-252h127q70 0 110.5 33.5z" />
    <glyph glyph-name="uni0412" unicode="&#x412;" horiz-adv-x="620" 
d="M540 312q35 -47 35 -107q0 -97 -66.5 -151t-190.5 -54h-252v700h246q100 0 157 -46.5t57 -133.5q0 -46 -22.5 -81.5t-69.5 -53.5q71 -26 106 -73zM312 421q57 0 85 23.5t28 71.5q0 46 -29 71t-84 25h-143v-191h143zM437.5 120q36.5 32 36.5 90q0 53 -37.5 88t-109.5 35
h-158v-245h158q74 0 110.5 32z" />
    <glyph glyph-name="uni0413" unicode="&#x413;" horiz-adv-x="558" 
d="M512 613h-345v-613h-101v700h446v-87z" />
    <glyph glyph-name="uni0414" unicode="&#x414;" horiz-adv-x="864" 
d="M819 -69h-101v69h-562v-69h-101v157h81q27 63 34 167t7 305v140h542v-612h100v-157zM618 88v525h-340v-53q0 -202 -7 -305.5t-36 -166.5h383z" />
    <glyph glyph-name="uni0415" unicode="&#x415;" horiz-adv-x="545" 
d="M500 91v-91h-445v700h435v-91h-329v-216h229v-91h-229v-211h339z" />
    <glyph glyph-name="uni0416" unicode="&#x416;" horiz-adv-x="1221" 
d="M1155 0h-118l-256 279l-118 -141v-138h-105v137l-119 142l-255 -279h-119l315 351l-293 349h119l352 -427v427h105v-426l351 426h119l-292 -349z" />
    <glyph glyph-name="uni0417" unicode="&#x417;" horiz-adv-x="598" 
d="M405.5 681q51.5 -26 82 -69t30.5 -92q0 -56 -36 -96.5t-93 -53.5q39 -4 77 -25.5t62.5 -58t24.5 -83.5q0 -62 -35 -110.5t-94.5 -75.5t-128.5 -27q-72 0 -130.5 28t-91.5 76.5t-33 106.5l107 1q0 -40 22 -68t56.5 -42t69.5 -14q60 0 105.5 30t45.5 95q0 54 -45 86
t-135 33v83q59 4 91 18.5t43.5 38t11.5 58.5q0 29 -18 52t-45 35.5t-54 12.5q-50 0 -88 -28.5t-38 -92.5l-107 1q0 61 31 108.5t84.5 73t117.5 25.5q59 0 110.5 -26z" />
    <glyph glyph-name="uni0418" unicode="&#x418;" horiz-adv-x="693" 
d="M173 700v-524l351 524h99v-700h-103v524l-351 -524h-100v700h104z" />
    <glyph glyph-name="uni0419" unicode="&#x419;" horiz-adv-x="693" 
d="M510 865q-20 -40 -58 -65.5t-91 -25.5q-50 0 -88.5 26t-59.5 66t-22 81h78q5 -33 30 -57t63 -24t62 23.5t29 57.5h78q-1 -42 -21 -82zM173 700v-524l351 524h99v-700h-103v524l-351 -524h-100v700h104z" />
    <glyph glyph-name="uni041A" unicode="&#x41a;" horiz-adv-x="698" 
d="M353 351l315 -351h-118l-256 279l-119 -142v-137h-105v700h105v-427l352 427h119z" />
    <glyph glyph-name="uni041B" unicode="&#x41b;" horiz-adv-x="736" 
d="M691 0h-101v613h-357v-488q0 -74 -32 -102.5t-86 -28.5q-57 0 -93 18v88q19 -10 34 -14.5t34 -4.5q21 0 31.5 14t10.5 35v570h559v-700z" />
    <glyph glyph-name="uni041C" unicode="&#x41c;" horiz-adv-x="860" 
d="M791 0h-104v467l-215 -467h-85l-213 466v-466h-104v700h100l260 -554l260 554h101v-700z" />
    <glyph glyph-name="uni041D" unicode="&#x41d;" horiz-adv-x="681" 
d="M611 700v-700h-104v301h-333v-301h-104v700h104v-310h333v310h104z" />
    <glyph glyph-name="uni041E" unicode="&#x41e;" horiz-adv-x="811" 
d="M576 661q81 -46 130.5 -127.5t49.5 -183.5t-49.5 -183.5t-130.5 -127.5t-170 -46q-87 0 -168 46t-132 128t-51 183t51 183t132 128t168 46q89 0 170 -46zM290 574.5q-55 -32.5 -88.5 -91.5t-33.5 -133t33.5 -133t88.5 -91.5t116 -32.5q65 0 119.5 32.5t86.5 91t32 133.5
t-32 133.5t-86.5 91t-119.5 32.5q-61 0 -116 -32.5z" />
    <glyph glyph-name="uni041F" unicode="&#x41f;" horiz-adv-x="701" 
d="M630 0h-101v613h-357v-613h-101v700h559v-700z" />
    <glyph glyph-name="uni0420" unicode="&#x420;" 
d="M438 672q56 -28 86.5 -77.5t30.5 -112.5t-30.5 -112.5t-86.5 -77.5t-132 -28h-132v-264h-104v700h236q76 0 132 -28zM410.5 389q40.5 33 40.5 93t-40.5 93t-110.5 33h-126v-252h126q70 0 110.5 33z" />
    <glyph glyph-name="uni0421" unicode="&#x421;" horiz-adv-x="655" 
d="M516 684.5q58 -22.5 104 -64.5l-65 -76q-31 30 -72.5 46.5t-89.5 16.5q-62 0 -117.5 -34t-89 -93t-33.5 -130q0 -72 33.5 -131t89 -92.5t117.5 -33.5q48 0 90 17.5t74 47.5l64 -76q-46 -42 -105 -65.5t-124 -23.5q-88 0 -169.5 46t-132 127.5t-50.5 182.5q0 102 50.5 184
t132 128t169.5 46q66 0 124 -22.5z" />
    <glyph glyph-name="uni0422" unicode="&#x422;" horiz-adv-x="576" 
d="M531 608h-188v-608h-109v608h-188v92h485v-92z" />
    <glyph glyph-name="uni0423" unicode="&#x423;" horiz-adv-x="691" 
d="M661 700l-384 -700h-110l128 234l-255 466h111l200 -365l199 365h111z" />
    <glyph glyph-name="uni0424" unicode="&#x424;" horiz-adv-x="905" 
d="M805 205q-45 -64 -125 -101t-183 -39v-65h-101v65q-102 2 -181.5 39t-124 101.5t-44.5 144.5t44.5 144.5t124 101.5t181.5 39v65h101v-65q103 -2 183 -39t125 -101t45 -145t-45 -145zM687.5 211.5q61.5 56.5 61.5 138.5t-61.5 138.5t-190.5 58.5v-394q129 2 190.5 58.5z
M172.5 254q25.5 -44 81 -72t142.5 -29v394q-87 -1 -142.5 -29t-81 -72t-25.5 -96t25.5 -96z" />
    <glyph glyph-name="uni0425" unicode="&#x425;" horiz-adv-x="702" 
d="M541 0l-191 273l-192 -273h-117l249 358l-240 342h120l180 -257l179 257h120l-239 -342l251 -358h-120z" />
    <glyph glyph-name="uni0426" unicode="&#x426;" horiz-adv-x="796" 
d="M736 -69h-100v69h-565v700h101v-612h357v612h101v-612h106v-157z" />
    <glyph glyph-name="uni0427" unicode="&#x427;" horiz-adv-x="636" 
d="M570 700v-700h-101v326q-8 -18 -31 -40.5t-61 -39t-86 -16.5q-99 0 -162 50t-63 158v262h101v-262q0 -61 39 -91t100 -30q60 0 102 35t61 78v270h101z" />
    <glyph glyph-name="uni0428" unicode="&#x428;" horiz-adv-x="1158" 
d="M1088 700v-700h-1017v700h101v-612h357v612h101v-612h357v612h101z" />
    <glyph glyph-name="uni0429" unicode="&#x429;" horiz-adv-x="1253" 
d="M1193 -69h-100v69h-1022v700h101v-612h357v612h101v-612h357v612h101v-612h105v-157z" />
    <glyph glyph-name="uni042A" unicode="&#x42a;" horiz-adv-x="787" 
d="M569 408q56 -28 86.5 -77.5t30.5 -112.5t-30.5 -112.5t-86.5 -77.5t-132 -28h-236v613h-151v87h255v-264h132q76 0 132 -28zM541.5 125q40.5 33 40.5 93t-40.5 93t-110.5 33h-126v-252h126q70 0 110.5 33z" />
    <glyph glyph-name="uni042B" unicode="&#x42b;" horiz-adv-x="870" 
d="M71 0v700h104v-264h132q76 0 132 -28t86.5 -77.5t30.5 -112.5t-30.5 -112.5t-86.5 -77.5t-132 -28h-236zM175 344v-252h126q70 0 110.5 33t40.5 93t-40.5 93t-110.5 33h-126zM799 0h-105v700h105v-700z" />
    <glyph glyph-name="uni042C" unicode="&#x42c;" horiz-adv-x="637" 
d="M70 0v700h104v-264h132q76 0 132 -28t86.5 -77.5t30.5 -112.5t-30.5 -112.5t-86.5 -77.5t-132 -28h-236zM174 344v-252h126q70 0 110.5 33t40.5 93t-40.5 93t-110.5 33h-126z" />
    <glyph glyph-name="uni042D" unicode="&#x42d;" horiz-adv-x="648" 
d="M425.5 661q81.5 -46 132 -128t50.5 -184q0 -101 -50.5 -182.5t-132 -127.5t-169.5 -46q-65 0 -123.5 23.5t-104.5 65.5l63 76q32 -30 74 -47.5t90 -17.5q56 0 106.5 27.5t86 76t45.5 110.5h-163v87h162q-10 61 -45 109.5t-86 76t-106 27.5q-48 0 -89.5 -16.5t-72.5 -46.5
l-65 76q46 42 104 64.5t124 22.5q88 0 169.5 -46z" />
    <glyph glyph-name="uni042E" unicode="&#x42e;" horiz-adv-x="991" 
d="M772 661q81 -46 130.5 -127.5t49.5 -183.5t-49.5 -183.5t-130.5 -127.5t-170 -46q-81 0 -157 40t-128 111.5t-63 162.5h-78v-307h-105v700h105v-306h78q11 90 63 161.5t128.5 111.5t156.5 40q89 0 170 -46zM721.5 125.5q54.5 32.5 86.5 91t32 133.5t-32 133.5t-86.5 91
t-119.5 32.5q-61 0 -116 -32.5t-88.5 -91.5t-33.5 -133t33.5 -133t88.5 -91.5t116 -32.5q65 0 119.5 32.5z" />
    <glyph glyph-name="uni042F" unicode="&#x42f;" horiz-adv-x="619" 
d="M549 700v-700h-104v264h-107l-183 -264h-115l193 273q-79 20 -124 76t-45 133q0 63 30.5 112.5t86.5 77.5t132 28h236zM445 608h-126q-70 0 -110.5 -33t-40.5 -93t40.5 -93t110.5 -33h126v252z" />
    <glyph glyph-name="uni0430" unicode="&#x430;" 
d="M389.5 499q45.5 -27 59.5 -66v87h101v-520h-101v91q-15 -39 -60.5 -68.5t-103.5 -29.5t-114.5 30.5t-93.5 91t-37 145.5q0 84 37 144.5t93.5 91t114.5 30.5q59 0 104.5 -27zM224.5 418q-36.5 -21 -60 -61.5t-23.5 -96.5q0 -57 23.5 -97.5t60 -61t75.5 -20.5t74 19
t57 59.5t22 100.5q0 61 -22 101t-57 59t-74 19t-75.5 -21z" />
    <glyph glyph-name="uni0431" unicode="&#x431;" horiz-adv-x="589" 
d="M433 495.5q57 -30.5 94 -91t37 -144.5q0 -86 -37 -146t-93.5 -90.5t-115.5 -30.5q-58 0 -103 29.5t-60 68.5v-91h-101v520q0 92 49 136t152 44h83q31 0 48 5.5t29 14.5h96q-29 -53 -67 -80t-99 -27h-90q-56 0 -78 -21t-22 -72v-87q14 39 59 66t104 27q58 0 115 -30.5z
M379.5 101q36.5 21 60 61.5t23.5 97.5q0 56 -23.5 96.5t-60 61t-75.5 20.5t-74.5 -19t-57.5 -59t-22 -100t22 -100.5t57.5 -60t74.5 -19.5t75.5 21z" />
    <glyph glyph-name="uni0432" unicode="&#x432;" horiz-adv-x="586" 
d="M514.5 233.5q26.5 -35.5 26.5 -80.5q0 -76 -58 -114.5t-165 -38.5h-252v520h252q84 0 133.5 -35.5t49.5 -99.5q0 -34 -16 -60t-52 -37q55 -19 81.5 -54.5zM167 325h151q48 0 65 16t17 42q0 23 -16.5 38.5t-65.5 15.5h-151v-112zM414 102.5q26 19.5 26 50.5q0 35 -25.5 60
t-96.5 25h-151v-155h151q70 0 96 19.5z" />
    <glyph glyph-name="uni0433" unicode="&#x433;" horiz-adv-x="539" 
d="M484 433h-312v-433h-101v520h413v-87z" />
    <glyph glyph-name="uni0434" unicode="&#x434;" horiz-adv-x="718" 
d="M662 88v-149h-101v61h-404v-61h-101v149h50q29 41 35.5 111.5t6.5 220.5v100h469v-432h45zM516 88v345h-267v-13q0 -104 -2 -159t-11.5 -99.5t-30.5 -73.5h311z" />
    <glyph glyph-name="uni0435" unicode="&#x435;" horiz-adv-x="592" 
d="M415 495.5q59 -30.5 98 -91t39 -145.5q0 -20 -3 -38h-405q6 -44 30 -76t57.5 -48t67.5 -16q78 0 122 49l82 -45q-39 -45 -92.5 -68.5t-111.5 -23.5q-59 0 -119 30t-100 90.5t-40 145.5t39 145.5t98.5 91t119.5 30.5q59 0 118 -30.5zM198.5 402q-44.5 -36 -53.5 -103h305
q-10 67 -55 103t-98 36q-54 0 -98.5 -36z" />
    <glyph glyph-name="uni0436" unicode="&#x436;" horiz-adv-x="925" 
d="M753 0l-200 206l-40 -42v-164h-101v164l-40 42l-200 -206h-131l266 272l-242 248h130l217 -222v222h101v-222l218 222h129l-242 -248l267 -272h-132z" />
    <glyph glyph-name="uni0437" unicode="&#x437;" horiz-adv-x="528" 
d="M361 505.5q45 -19.5 72 -51.5t27 -69q0 -79 -108 -107q56 -7 95.5 -35t39.5 -90q0 -48 -31.5 -84.5t-82.5 -56t-109 -19.5q-61 0 -110.5 22.5t-78 62.5t-28.5 91h101q0 -37 35 -63t82 -26q50 0 85.5 19t35.5 57t-36.5 59t-98.5 20v80q106 3 106 66q0 25 -27.5 41.5
t-65.5 16.5t-66 -19t-28 -46h-101q0 41 26 76t70.5 55t98.5 20q52 0 97 -19.5z" />
    <glyph glyph-name="uni0438" unicode="&#x438;" horiz-adv-x="617" 
d="M546 0h-101v327l-359 -327h-15v520h101v-327l359 327h15v-520z" />
    <glyph glyph-name="uni0439" unicode="&#x439;" horiz-adv-x="617" 
d="M546 0h-101v327l-359 -327h-15v520h101v-327l359 327h15v-520zM457 685q-20 -40 -58 -65.5t-91 -25.5q-50 0 -88.5 26t-59.5 66t-22 81h78q5 -34 29.5 -57.5t63.5 -23.5q38 0 62 23.5t29 57.5h78q-1 -42 -21 -82z" />
    <glyph glyph-name="uni043A" unicode="&#x43a;" horiz-adv-x="578" 
d="M412 0l-200 205l-40 -41v-164h-101v520h101v-222l217 222h130l-242 -248l266 -272h-131z" />
    <glyph glyph-name="uni043B" unicode="&#x43b;" horiz-adv-x="689" 
d="M618 0h-101v433h-284v-308q0 -74 -32 -102.5t-86 -28.5q-57 0 -93 18v88q19 -10 34 -14.5t34 -4.5q21 0 31.5 14t10.5 35v390h486v-520z" />
    <glyph glyph-name="uni043C" unicode="&#x43c;" horiz-adv-x="756" 
d="M680 0h-101v268l-189 -268h-24l-188 268v-268h-101v520h19l282 -376l282 376h20v-520z" />
    <glyph glyph-name="uni043D" unicode="&#x43d;" 
d="M534 520v-520h-101v217h-261v-217h-101v520h101v-216h261v216h101z" />
    <glyph glyph-name="uni043E" unicode="&#x43e;" horiz-adv-x="597" 
d="M417 495.5q60 -30.5 100 -91t40 -145.5t-40 -145.5t-100 -90.5t-118 -30q-59 0 -119 30t-100 90.5t-40 145.5t40 145.5t100 91t119 30.5q58 0 118 -30.5zM224.5 418.5q-36.5 -20.5 -60 -61.5t-23.5 -98t23.5 -97t60 -60.5t74.5 -20.5t74 20.5t59.5 60.5t23.5 97t-23.5 98
t-59.5 61.5t-74 20.5t-74.5 -20.5z" />
    <glyph glyph-name="uni043F" unicode="&#x43f;" horiz-adv-x="611" 
d="M540 0h-101v433h-267v-433h-101v520h469v-520z" />
    <glyph glyph-name="uni0440" unicode="&#x440;" 
d="M434.5 495.5q56.5 -30.5 93.5 -91t37 -144.5q0 -86 -37 -146t-93.5 -90.5t-115.5 -30.5q-58 0 -103 29.5t-60 68.5v-281h-101v710h101v-87q14 38 59 65.5t104 27.5t115.5 -30.5zM380.5 101q36.5 21 60 61.5t23.5 97.5q0 56 -23.5 96.5t-60 61t-75.5 20.5t-74 -19
t-57.5 -59t-22.5 -100t22.5 -100.5t57.5 -60t74 -19.5t75.5 21z" />
    <glyph glyph-name="uni0441" unicode="&#x441;" horiz-adv-x="545" 
d="M419 494.5q60 -31.5 96 -91.5l-91 -32q-21 33 -55 50.5t-71 17.5q-39 0 -75 -21t-59 -61.5t-23 -97.5q0 -56 23 -96.5t59 -61t75 -20.5q37 0 71.5 17t54.5 50l91 -32q-36 -60 -96 -91.5t-121 -31.5q-58 0 -118 30t-100 90.5t-40 145.5t40 145.5t100 91t118 30.5
q61 0 121 -31.5z" />
    <glyph glyph-name="uni0442" unicode="&#x442;" horiz-adv-x="515" 
d="M460 433h-152v-433h-101v433h-152v87h405v-87z" />
    <glyph glyph-name="uni0443" unicode="&#x443;" horiz-adv-x="566" 
d="M534 520l-288 -710h-99l82 205l-219 505h100l167 -386l157 386h100z" />
    <glyph glyph-name="uni0444" unicode="&#x444;" horiz-adv-x="985" 
d="M818.5 495.5q56.5 -30.5 93.5 -91t37 -144.5q0 -86 -37 -146t-93.5 -90.5t-115.5 -30.5q-50 0 -91 22.5t-62 55.5v-71h-10v-190h-101v257q-21 -32 -62 -52.5t-91 -20.5q-59 0 -115.5 30.5t-93.5 91t-37 144.5q0 86 37 146t93.5 90.5t115.5 30.5q50 0 91 -22.5t62 -55.5
v71h10v190h101v-257q21 32 62 52.5t91 20.5q59 0 115.5 -30.5zM382 105.5q38 23.5 57 70.5v169q-19 47 -57.5 71t-81.5 24q-39 0 -75.5 -21t-60 -61.5t-23.5 -97.5q0 -56 23.5 -96.5t60 -61t75.5 -20.5q44 0 82 23.5zM764.5 101q36.5 21 60 61.5t23.5 97.5q0 56 -23.5 96.5
t-60 61t-75.5 20.5q-44 0 -82 -23.5t-57 -70.5v-169q19 -47 57.5 -71t81.5 -24q39 0 75.5 21z" />
    <glyph glyph-name="uni0445" unicode="&#x445;" horiz-adv-x="569" 
d="M285 196l-141 -196h-114l199 266l-185 254h112l129 -184l128 184h112l-185 -254l199 -266h-114z" />
    <glyph glyph-name="uni0446" unicode="&#x446;" horiz-adv-x="655" 
d="M595 -69h-100v69h-424v520h101v-432h267v432h101v-432h55v-157z" />
    <glyph glyph-name="uni0447" unicode="&#x447;" horiz-adv-x="598" 
d="M533 520v-520h-101v253q-8 -17 -27.5 -40t-53 -41.5t-77.5 -18.5q-56 0 -103 23t-76 69.5t-29 113.5v161h101v-162q0 -54 26 -85t82 -31t97.5 35.5t59.5 86.5v156h101z" />
    <glyph glyph-name="uni0448" unicode="&#x448;" horiz-adv-x="830" 
d="M760 0h-689v520h101v-432h193v432h101v-432h193v432h101v-520z" />
    <glyph glyph-name="uni0449" unicode="&#x449;" horiz-adv-x="874" 
d="M814 88v-157h-100v69h-643v520h101v-432h193v432h101v-432h193v432h101v-432h54z" />
    <glyph glyph-name="uni044A" unicode="&#x44a;" horiz-adv-x="702" 
d="M572 263.5q55 -42.5 55 -114.5q0 -69 -54.5 -109t-150.5 -40h-272v433h-90v87h191v-214h171q95 0 150 -42.5zM505 102.5q21 15.5 21 46.5q0 32 -21.5 50.5t-82.5 18.5h-171v-131h171q62 0 83 15.5z" />
    <glyph glyph-name="uni044B" unicode="&#x44b;" horiz-adv-x="787" 
d="M488 263.5q55 -42.5 55 -114.5q0 -69 -54.5 -109t-150.5 -40h-272v520h101v-214h171q95 0 150 -42.5zM717 520v-520h-101v520h101zM421 103q21 15 21 46q0 32 -21.5 51t-82.5 19h-171v-131h171q62 0 83 15z" />
    <glyph glyph-name="uni044C" unicode="&#x44c;" horiz-adv-x="589" 
d="M488 263.5q55 -42.5 55 -114.5q0 -69 -54.5 -109t-150.5 -40h-272v520h101v-214h171q95 0 150 -42.5zM421 103q21 15 21 46q0 32 -21.5 51t-82.5 19h-171v-131h171q62 0 83 15z" />
    <glyph glyph-name="uni044D" unicode="&#x44d;" horiz-adv-x="535" 
d="M365.5 495.5q59.5 -30.5 99.5 -91t40 -145.5t-40 -145.5t-99.5 -90.5t-117.5 -30q-62 0 -122 31.5t-96 91.5l91 32q21 -33 55 -50.5t72 -17.5q50 0 93.5 35t57.5 97h-123v91h124q-13 64 -57 99.5t-95 35.5q-38 0 -72 -17t-55 -50l-90 32q35 60 95 91.5t122 31.5
q58 0 117.5 -30.5z" />
    <glyph glyph-name="uni044E" unicode="&#x44e;" horiz-adv-x="808" 
d="M636 495.5q60 -30.5 100 -91t40 -145.5t-40 -145.5t-100 -90.5t-118 -30q-53 0 -108 24.5t-95.5 74.5t-51.5 120h-91v-212h-101v520h101v-217h90q10 71 51 121.5t96.5 76t108.5 25.5q58 0 118 -30.5zM592.5 100.5q36.5 20.5 59.5 61t23 97.5t-23 97.5t-59.5 61
t-74.5 20.5t-74.5 -20.5t-60 -61t-23.5 -97.5t23.5 -97.5t60 -61t74.5 -20.5t74.5 20.5z" />
    <glyph glyph-name="uni044F" unicode="&#x44f;" horiz-adv-x="636" 
d="M566 0h-101v176h-120l-163 -176h-124l177 184q-66 16 -105.5 62.5t-39.5 107.5q0 48 26.5 86t75 59t111.5 21h263v-520zM465 433h-163q-57 0 -84 -21.5t-27 -57.5q0 -37 28 -64t83 -27h163v170z" />
    <glyph glyph-name="uni0451" unicode="&#x451;" horiz-adv-x="592" 
d="M415 495.5q59 -30.5 98 -91t39 -145.5q0 -20 -3 -38h-405q6 -44 30 -76t57.5 -48t67.5 -16q78 0 122 49l82 -45q-39 -45 -92.5 -68.5t-111.5 -23.5q-59 0 -119 30t-100 90.5t-40 145.5t39 145.5t98.5 91t119.5 30.5q59 0 118 -30.5zM198.5 402q-44.5 -36 -53.5 -103h305
q-10 67 -55 103t-98 36q-54 0 -98.5 -36zM230 661h-110v110h110v-110zM476 661h-110v110h110v-110z" />
    <glyph glyph-name="uni0453" unicode="&#x453;" horiz-adv-x="539" 
d="M484 433h-312v-433h-101v520h413v-87zM310 622h-90l57 145h143z" />
    <glyph glyph-name="uni0454" unicode="&#x454;" horiz-adv-x="534" 
d="M515 116q-36 -60 -96 -91.5t-121 -31.5q-58 0 -118 30t-100 90.5t-40 145.5t40 145.5t100 91t118 30.5q61 0 121 -31.5t96 -91.5l-91 -32q-21 33 -55 50.5t-71 17.5q-52 0 -96 -36t-57 -100h125v-92h-124q14 -61 57.5 -95.5t94.5 -34.5q37 0 71.5 17t54.5 50z" />
    <glyph glyph-name="uni0457" unicode="&#x457;" horiz-adv-x="251" 
d="M176 0h-101v520h101v-520zM58 661h-110v110h110v-110zM304 661h-110v110h110v-110z" />
    <glyph glyph-name="uni0490" unicode="&#x490;" horiz-adv-x="558" 
d="M512 613h-345v-613h-101v700h346v47h100v-134z" />
    <glyph glyph-name="uni0491" unicode="&#x491;" horiz-adv-x="590" 
d="M484 433h-312v-433h-101v520h313v46h100v-133z" />
    <glyph glyph-name="Wgrave" unicode="&#x1e80;" horiz-adv-x="1056" 
d="M763 0h-25l-210 499l-211 -499h-24l-253 700h110l164 -475l200 475h28l200 -475l164 475h110zM520 947l57 -145h-90l-110 145h143z" />
    <glyph glyph-name="wgrave" unicode="&#x1e81;" horiz-adv-x="830" 
d="M596 0h-16l-165 349l-165 -349h-16l-207 520h100l124 -327l155 327h18l155 -327l124 327h100zM407 767l57 -145h-90l-110 145h143z" />
    <glyph glyph-name="Wacute" unicode="&#x1e82;" horiz-adv-x="1056" 
d="M763 0h-25l-210 499l-211 -499h-24l-253 700h110l164 -475l200 475h28l200 -475l164 475h110zM568 802h-90l57 145h143z" />
    <glyph glyph-name="wacute" unicode="&#x1e83;" horiz-adv-x="830" 
d="M596 0h-16l-165 349l-165 -349h-16l-207 520h100l124 -327l155 327h18l155 -327l124 327h100zM455 622h-90l57 145h143z" />
    <glyph glyph-name="Wdieresis" unicode="&#x1e84;" horiz-adv-x="1056" 
d="M763 0h-25l-210 499l-211 -499h-24l-253 700h110l164 -475l200 475h28l200 -475l164 475h110zM460 841h-110v110h110v-110zM706 841h-110v110h110v-110z" />
    <glyph glyph-name="wdieresis" unicode="&#x1e85;" horiz-adv-x="830" 
d="M596 0h-16l-165 349l-165 -349h-16l-207 520h100l124 -327l155 327h18l155 -327l124 327h100zM347 661h-110v110h110v-110zM593 661h-110v110h110v-110z" />
    <glyph glyph-name="Ygrave" unicode="&#x1ef2;" horiz-adv-x="695" 
d="M398 326v-326h-101v326l-262 374h115l198 -285l198 285h115zM339 947l57 -145h-90l-110 145h143z" />
    <glyph glyph-name="ygrave" unicode="&#x1ef3;" horiz-adv-x="576" 
d="M550 520l-288 -710h-99l82 205l-219 505h100l167 -386l157 386h100zM285 767l57 -145h-90l-110 145h143z" />
    <glyph glyph-name="endash" unicode="&#x2013;" horiz-adv-x="600" 
d="M555 237h-510v82h510v-82z" />
    <glyph glyph-name="emdash" unicode="&#x2014;" horiz-adv-x="660" 
d="M615 237h-570v82h570v-82z" />
    <glyph glyph-name="quoteleft" unicode="&#x2018;" horiz-adv-x="256" 
d="M171 545h-136l86 155h90z" />
    <glyph glyph-name="quoteright" unicode="&#x2019;" horiz-adv-x="241" 
d="M75 700h136l-86 -155h-91z" />
    <glyph glyph-name="quotesinglbase" unicode="&#x201a;" horiz-adv-x="283" 
d="M77 20h136l-86 -155h-90z" />
    <glyph glyph-name="quotedblleft" unicode="&#x201c;" horiz-adv-x="456" 
d="M371 545h-136l86 155h90zM171 545h-136l86 155h90z" />
    <glyph glyph-name="quotedblright" unicode="&#x201d;" horiz-adv-x="452" 
d="M274 700h136l-86 -155h-91zM75 700h136l-86 -155h-91z" />
    <glyph glyph-name="quotedblbase" unicode="&#x201e;" horiz-adv-x="477" 
d="M270 20h136l-86 -155h-90zM77 20h136l-86 -155h-90z" />
    <glyph glyph-name="dagger" unicode="&#x2020;" horiz-adv-x="340" 
d="M295 478h-94l-18 -166h-24l-19 166h-95v87h86l-15 135h109l-15 -135h85v-87z" />
    <glyph glyph-name="daggerdbl" unicode="&#x2021;" horiz-adv-x="330" 
d="M290 565v-87h-98l-13 -104h-27l-13 104h-99v87h88l-17 135h109l-17 -135h87zM280 115h-62l13 -95h-131l13 95h-62l3 129h76l8 60h55l8 -60h75z" />
    <glyph glyph-name="bullet" unicode="&#x2022;" horiz-adv-x="221" 
d="M177 229h-132v132h132v-132z" />
    <glyph glyph-name="ellipsis" unicode="&#x2026;" horiz-adv-x="709" 
d="M403 0h-115v114h115v-114zM650 0h-115v114h115v-114zM156 0h-115v114h115v-114z" />
    <glyph glyph-name="perthousand" unicode="&#x2030;" horiz-adv-x="1023" 
d="M247 669.5q36 -35.5 36 -87.5t-36 -87.5t-88 -35.5t-88 35.5t-36 87.5t36 87.5t88 35.5t88 -35.5zM602 651l-436 -651l-80 51l438 651zM126.5 615q-13.5 -13 -13.5 -33t13.5 -33t32.5 -13t32.5 13t13.5 33t-13.5 33t-32.5 13t-32.5 -13zM627 205.5q36 -35.5 36 -87.5
t-36 -87.5t-88 -35.5t-88 35.5t-36 87.5t36 87.5t88 35.5t88 -35.5zM952 205.5q36 -35.5 36 -87.5t-36 -87.5t-88 -35.5t-88 35.5t-36 87.5t36 87.5t88 35.5t88 -35.5zM506.5 151q-13.5 -13 -13.5 -33t13.5 -33t32.5 -13t32.5 13t13.5 33t-13.5 33t-32.5 13t-32.5 -13z
M831.5 151q-13.5 -13 -13.5 -33t13.5 -33t32.5 -13t32.5 13t13.5 33t-13.5 33t-32.5 13t-32.5 -13z" />
    <glyph glyph-name="guilsinglleft" unicode="&#x2039;" horiz-adv-x="215" 
d="M176 491v-84l-103 -99l103 -100v-84l-151 93v181z" />
    <glyph glyph-name="guilsinglright" unicode="&#x203a;" horiz-adv-x="206" 
d="M190 252l-151 -93v84l103 100l-103 99v84l151 -93v-181z" />
    <glyph glyph-name="fraction" unicode="&#x2044;" horiz-adv-x="108" 
d="M-142 0h-48l436 700h42z" />
    <glyph glyph-name="Euro" unicode="&#x20ac;" horiz-adv-x="693" 
d="M528 110.5q42 17.5 74 47.5l63 -76q-46 -42 -104.5 -65.5t-123.5 -23.5q-70 0 -137 30t-119 84.5t-77 125.5h-69v77h52q-2 26 -2 39q0 19 1 28h-51v77h66q23 75 75 132.5t120.5 89t140.5 31.5q66 0 124 -22.5t104 -64.5l-65 -76q-31 30 -72.5 46.5t-89.5 16.5
q-69 0 -130 -42t-90 -111h121v-77h-141q-1 -9 -1 -27q0 -20 3 -40h139v-77h-115q32 -64 90 -102t124 -38q48 0 90 17.5z" />
    <glyph glyph-name="uni20B4" unicode="&#x20b4;" horiz-adv-x="615" 
d="M287 312l-6 -2h293v-77h-407q-8 -21 -8 -43q0 -51 42.5 -79t99.5 -28q62 0 107.5 31.5t64.5 80.5l85 -38q-26 -74 -95 -119t-162 -45q-60 0 -117 23t-93 67.5t-36 106.5q0 24 4 43h-17v77h57q34 39 94 67h-151v77h340q37 27 37 73q0 40 -34 65t-86 25q-50 0 -86.5 -22.5
t-53.5 -59.5l-90 31q28 60 88.5 100.5t144.5 40.5q60 0 110.5 -23t80.5 -64.5t30 -92.5q0 -40 -14 -73h65v-77h-134q-35 -23 -95 -45z" />
    <glyph glyph-name="trademark" unicode="&#x2122;" horiz-adv-x="567" 
d="M236 662h-63v-142h-45v142h-63v38h171v-38zM502 520h-43v85l-65 -85h-14l-66 85v-85h-43v180h21l94 -122l94 122h22v-180z" />
    <glyph glyph-name="oneeighth" unicode="&#x215b;" horiz-adv-x="556" 
d="M100 440h-37v221l-17 -11l-18 31l35 20h37v-261zM73 0h-48l436 700h42zM496.5 243q21.5 -20 21.5 -47q0 -34 -30 -53q43 -21 43 -66q0 -34 -27 -56.5t-65 -22.5q-37 0 -64 22.5t-27 56.5q0 22 11.5 39t31.5 27q-15 10 -22.5 24t-7.5 29q0 26 21.5 46.5t56.5 20.5
q36 0 57.5 -20zM408.5 221.5q-10.5 -10.5 -10.5 -25.5t12.5 -27t28.5 -12q18 0 29.5 12t11.5 27t-9.5 25.5t-31.5 10.5q-20 0 -30.5 -10.5zM401 112q-16 -14 -16 -35q0 -20 16 -34t38 -14q24 0 39 13t15 35t-15 35.5t-39 13.5q-22 0 -38 -14z" />
    <glyph glyph-name="threeeighths" unicode="&#x215c;" horiz-adv-x="574" 
d="M172 682.5q24 -20.5 24 -47.5q0 -32 -30 -53q19 -8 30.5 -25t11.5 -41q0 -34 -27.5 -57t-64.5 -23q-41 0 -67.5 27t-23.5 64h38q-4 -23 12 -41t41 -18q22 0 38 13.5t16 34.5q0 46 -55 46q-12 0 -19 -1v31q63 3 63 43q0 15 -12.5 26t-30.5 11q-22 0 -35 -15.5t-11 -41.5
h-38q-3 38 22 63t62 25q32 0 56 -20.5zM93 0h-48l436 700h42zM514.5 243q21.5 -20 21.5 -47q0 -34 -30 -53q43 -21 43 -66q0 -34 -27 -56.5t-65 -22.5q-37 0 -64 22.5t-27 56.5q0 22 11.5 39t31.5 27q-15 10 -22.5 24t-7.5 29q0 26 21.5 46.5t56.5 20.5q36 0 57.5 -20z
M426.5 221.5q-10.5 -10.5 -10.5 -25.5t12.5 -27t28.5 -12q18 0 29.5 12t11.5 27t-9.5 25.5t-31.5 10.5q-20 0 -30.5 -10.5zM419 112q-16 -14 -16 -35q0 -20 16 -34t38 -14q24 0 39 13t15 35t-15 35.5t-39 13.5q-22 0 -38 -14z" />
    <glyph glyph-name="fiveeighths" unicode="&#x215d;" horiz-adv-x="576" 
d="M186 669h-104l-8 -58q22 10 45 10q35 0 63 -26.5t28 -65.5t-28 -66t-67 -27q-33 0 -58.5 18.5t-31.5 43.5l33 19q2 -20 17.5 -34.5t39.5 -14.5q23 0 40 17.5t17 43.5q0 25 -16.5 42.5t-36.5 17.5q-35 0 -57 -29l-32 8l18 133h138v-32zM93 0h-48l436 700h42zM516.5 243
q21.5 -20 21.5 -47q0 -34 -30 -53q43 -21 43 -66q0 -34 -27 -56.5t-65 -22.5q-37 0 -64 22.5t-27 56.5q0 22 11.5 39t31.5 27q-15 10 -22.5 24t-7.5 29q0 26 21.5 46.5t56.5 20.5q36 0 57.5 -20zM428.5 221.5q-10.5 -10.5 -10.5 -25.5t12.5 -27t28.5 -12q18 0 29.5 12
t11.5 27t-9.5 25.5t-31.5 10.5q-20 0 -30.5 -10.5zM421 112q-16 -14 -16 -35q0 -20 16 -34t38 -14q24 0 39 13t15 35t-15 35.5t-39 13.5q-22 0 -38 -14z" />
    <glyph glyph-name="seveneighths" unicode="&#x215e;" horiz-adv-x="556" 
d="M98 440h-39l89 229h-121v32h173zM73 0h-48l436 700h42zM496.5 243q21.5 -20 21.5 -47q0 -34 -30 -53q43 -21 43 -66q0 -34 -27 -56.5t-65 -22.5q-37 0 -64 22.5t-27 56.5q0 22 11.5 39t31.5 27q-15 10 -22.5 24t-7.5 29q0 26 21.5 46.5t56.5 20.5q36 0 57.5 -20z
M408.5 221.5q-10.5 -10.5 -10.5 -25.5t12.5 -27t28.5 -12q18 0 29.5 12t11.5 27t-9.5 25.5t-31.5 10.5q-20 0 -30.5 -10.5zM401 112q-16 -14 -16 -35q0 -20 16 -34t38 -14q24 0 39 13t15 35t-15 35.5t-39 13.5q-22 0 -38 -14z" />
    <glyph glyph-name="partialdiff" unicode="&#x2202;" horiz-adv-x="548" 
d="M223 700l163 -225l18 -24q31 -43 50.5 -74t34 -73.5t14.5 -91.5q0 -63 -32.5 -114t-86.5 -79.5t-114 -28.5q-59 0 -112 28.5t-85.5 79.5t-32.5 114q0 59 33 111t85.5 83t108.5 31q25 0 44 -8l-200 271h112zM204.5 326.5q-30.5 -17.5 -49 -47.5t-18.5 -67q0 -59 39 -96.5
t95 -37.5q57 0 96.5 37.5t39.5 96.5q0 57 -37 94.5t-99 37.5q-36 0 -66.5 -17.5z" />
    <glyph glyph-name="product" unicode="&#x220f;" horiz-adv-x="699" 
d="M654 800v-990h-96v898h-417v-898h-96v990h609z" />
    <glyph glyph-name="summation" unicode="&#x2211;" horiz-adv-x="674" 
d="M629 707h-421l223 -402l-223 -402h421v-93h-584l275 495l-275 495h584v-93z" />
    <glyph glyph-name="minus" unicode="&#x2212;" horiz-adv-x="425" 
d="M380 236h-335v83h335v-83z" />
    <glyph glyph-name="radical" unicode="&#x221a;" horiz-adv-x="758" 
d="M450 -190h-114l-176 447h-115v109h183l159 -422l227 856h99z" />
    <glyph glyph-name="infinity" unicode="&#x221e;" horiz-adv-x="835" 
d="M695 404.5q41 -22.5 65.5 -60.5t24.5 -82q0 -45 -24.5 -83.5t-65.5 -61.5t-88 -23q-52 0 -100 26t-90 72q-41 -46 -89 -72t-100 -26q-47 0 -88 23t-65.5 61.5t-24.5 83.5q0 44 24.5 82t65.5 60.5t88 22.5q52 0 100 -25.5t89 -70.5q91 96 190 96q47 0 88 -22.5zM299 194
q29 20 63 68q-34 47 -63 66.5t-69 19.5q-37 0 -61.5 -25.5t-24.5 -60.5q0 -36 24.5 -62t61.5 -26q40 0 69 20zM666.5 200q24.5 26 24.5 62q0 35 -24.5 60.5t-62.5 25.5q-40 0 -68.5 -19.5t-62.5 -66.5q34 -48 63 -68t68 -20q38 0 62.5 26z" />
    <glyph glyph-name="integral" unicode="&#x222b;" horiz-adv-x="292" 
d="M277 713q-46 0 -62 -23t-16 -79v-629q0 -172 -179 -172v87q47 0 62.5 23t15.5 79v629q0 172 179 172v-87z" />
    <glyph glyph-name="approxequal" unicode="&#x2248;" horiz-adv-x="500" 
d="M218 259q24 -10 55 -29q28 -16 44 -23t35 -7q28 0 44.5 10t16.5 23h42q0 -50 -30.5 -81t-84.5 -31q-29 0 -53 10.5t-55 30.5q-26 17 -45 26t-41 9q-27 0 -43 -12.5t-15 -28.5h-42q0 51 31.5 82t85.5 31q31 0 55 -10zM218 419q24 -10 55 -29q28 -16 44 -23t35 -7
q28 0 44.5 10t16.5 23h42q0 -50 -30.5 -81t-84.5 -31q-29 0 -53 10.5t-55 30.5q-26 17 -45 26t-41 9q-27 0 -43 -12.5t-15 -28.5h-42q0 51 31.5 82t85.5 31q31 0 55 -10z" />
    <glyph glyph-name="notequal" unicode="&#x2260;" horiz-adv-x="425" 
d="M269 316l-30 -77h141v-83h-173l-61 -156h-85l60 156h-76v83h109l30 77h-139v83h171l63 162h85l-63 -162h79v-83h-111z" />
    <glyph glyph-name="lessequal" unicode="&#x2264;" horiz-adv-x="425" 
d="M388 507l-228 -132l228 -131v-87l-343 202v32l343 202v-86zM388 0h-335v83h335v-83z" />
    <glyph glyph-name="greaterequal" unicode="&#x2265;" horiz-adv-x="434" 
d="M389 391v-32l-343 -202v87l228 131l-228 132v86zM381 83v-83h-335v83h335z" />
    <glyph glyph-name="lozenge" unicode="&#x25ca;" horiz-adv-x="538" 
d="M494 350l-155 -350h-139l-155 350l155 350h139zM391 350l-122 274l-121 -274l121 -274z" />
    <glyph glyph-name="i.loclTRK" horiz-adv-x="251" 
d="M176 0h-101v520h101v-520zM177 653h-103v103h103v-103z" />
    <glyph glyph-name="f_t" horiz-adv-x="730" 
d="M653 85.5q16 4.5 36 14.5v-88q-36 -18 -102 -18q-109 0 -109 131v308h-298v-433h-101v433h-59v87h59v23q0 94 49.5 129.5t115.5 35.5q62 0 118 -30l-34 -72q-37 18 -79 18q-69 0 -69 -83v-21h298v90h101v-90h109v-87h-109v-303q0 -20 9 -34.5t24 -14.5q25 0 41 4.5z" />
    <glyph glyph-name="t_t" horiz-adv-x="709" 
d="M638 85.5q16 4.5 36 14.5v-88q-36 -18 -101 -18q-110 0 -110 131v312h-268v-307q0 -49 42 -49q31 0 68 15v-84q-36 -18 -93 -18q-55 0 -86.5 28t-31.5 103v312h-60v83h60v90h101v-90h268v90h101v-90h109v-83h-109v-307q0 -20 9.5 -34.5t24.5 -14.5q24 0 40 4.5z" />
    <glyph glyph-name="zero.tf" horiz-adv-x="700" 
d="M500 667q66 -40 104.5 -118t38.5 -186v-26q0 -108 -38.5 -186t-104.5 -118t-146 -40t-146 40t-104.5 118t-38.5 186v26q0 108 38.5 186t104.5 118t146 40t146 -40zM249.5 585q-42.5 -35 -63 -93t-20.5 -129v-26q0 -110 48 -183t140 -73t140 73t48 183v26q0 71 -20.5 129
t-63 93t-104.5 35t-104.5 -35z" />
    <glyph glyph-name="one.tf" horiz-adv-x="700" 
d="M401 0h-101v613h-105v87h206v-700z" />
    <glyph glyph-name="two.tf" horiz-adv-x="700" 
d="M460.5 677q52.5 -30 82 -78.5t29.5 -103.5q0 -46 -17 -86.5t-52 -86t-105 -123.5l-100 -111h274v-88h-452v29l173 203l37 42q61 70 86.5 102.5t39 60.5t13.5 58q0 60 -38 91.5t-87 31.5q-30 0 -58 -14t-46 -42t-18 -69v-17h-103v17q0 56 28.5 105t80 79t116.5 30
q64 0 116.5 -30z" />
    <glyph glyph-name="three.tf" horiz-adv-x="700" 
d="M425 422q46 -4 85 -29.5t62 -70t23 -100.5q0 -70 -34 -123t-91.5 -81t-124.5 -28q-70 0 -125 29t-86 79t-31 110h101q0 -40 20.5 -69.5t53 -45t67.5 -15.5t69.5 14.5t57 47t22.5 82.5q0 60 -45 99.5t-119 39.5q-21 0 -49 -5l156 257h-310v87h469z" />
    <glyph glyph-name="four.tf" horiz-adv-x="700" 
d="M509 287h75v-88h-75v-199h-101v199h-322v20l386 481h37v-413zM259 287h149v201z" />
    <glyph glyph-name="five.tf" horiz-adv-x="700" 
d="M517 613h-267l-22 -171q29 14 52 21.5t62 7.5q63 0 119 -30.5t89.5 -85t33.5 -124.5q0 -68 -33 -123.5t-89 -86.5t-122 -31q-88 0 -147 39t-91 104l81 42q17 -27 34.5 -46.5t48 -35t74.5 -15.5q33 0 66 17.5t55 52t22 83.5q0 50 -21.5 84.5t-54.5 51.5t-65 17
q-41 0 -69.5 -10t-62.5 -37l-90 19l44 344h353v-87z" />
    <glyph glyph-name="six.tf" horiz-adv-x="700" 
d="M309 429q19 8 44 8q56 0 108.5 -31t85.5 -83t33 -111q0 -63 -32.5 -114t-85.5 -79.5t-113 -28.5t-113.5 28.5t-86.5 79.5t-33 114q0 49 14.5 91t34 73.5t50.5 72.5l19 26l163 225h112zM249.5 306.5q-37.5 -37.5 -37.5 -94.5q0 -39 18.5 -69.5t50 -47.5t68.5 -17
q36 0 66.5 17t49 47.5t18.5 69.5q0 37 -18.5 67t-49 47.5t-66.5 17.5q-62 0 -99.5 -37.5z" />
    <glyph glyph-name="seven.tf" horiz-adv-x="700" 
d="M318 0h-107l237 613h-320v87h460z" />
    <glyph glyph-name="eight.tf" horiz-adv-x="700" 
d="M558.5 322.5q32.5 -48.5 32.5 -111.5q0 -64 -34 -114t-89 -77t-115 -27t-115 27t-89 77t-34 114q0 63 32.5 111.5t86.5 72.5q-35 22 -55.5 58t-20.5 76q0 48 24 88.5t68.5 65t102.5 24.5t102.5 -24.5t68.5 -65t24 -88.5q0 -40 -20.5 -76t-55.5 -58q54 -24 86.5 -72.5z
M284.5 458q27.5 -28 68.5 -28t68.5 28t27.5 67q0 38 -27 65.5t-69 27.5t-69 -27.5t-27 -65.5q0 -39 27.5 -67zM446.5 119.5q38.5 35.5 38.5 91.5q0 40 -18.5 70t-49 46t-64.5 16t-64.5 -16t-49 -46t-18.5 -70q0 -56 38.5 -91.5t93.5 -35.5t93.5 35.5z" />
    <glyph glyph-name="nine.tf" horiz-adv-x="700" 
d="M391 270q-19 -8 -44 -8q-56 0 -108.5 31t-85.5 83t-33 111q0 63 32.5 114t85.5 79.5t113 28.5t113.5 -28.5t86.5 -79.5t33 -114q0 -49 -14.5 -91t-34 -73.5t-50.5 -72.5l-19 -26l-163 -225h-112zM450.5 392.5q37.5 37.5 37.5 94.5q0 39 -18.5 69.5t-49.5 47.5t-68 17
q-36 0 -67 -17t-49.5 -47.5t-18.5 -69.5q0 -37 18.5 -67t49.5 -47.5t67 -17.5q61 0 98.5 37.5z" />
    <glyph glyph-name="zero.dnom" horiz-adv-x="260" 
d="M206 228q29 -35 29 -91v-13q0 -56 -29 -91t-76 -35q-45 0 -75 35t-30 91v13q0 56 30 91t75 35q47 0 76 -35zM81.5 206.5q-19.5 -25.5 -19.5 -69.5v-13q0 -44 19.5 -69.5t48.5 -25.5q31 0 49.5 25t18.5 70v13q0 45 -18.5 70t-49.5 25q-29 0 -48.5 -25.5z" />
    <glyph glyph-name="one.dnom" horiz-adv-x="122" 
d="M97 0h-37v221l-17 -11l-18 31l35 20h37v-261z" />
    <glyph glyph-name="two.dnom" horiz-adv-x="221" 
d="M168 241.5q25 -22.5 25 -52.5q0 -26 -14.5 -47t-53.5 -61l-47 -49h118v-32h-168v32l68 69q38 40 48.5 54.5t10.5 33.5q0 18 -14 31t-32 13q-19 0 -33 -13t-14 -37v-14h-37v14q0 35 24.5 58t59.5 23q34 0 59 -22.5z" />
    <glyph glyph-name="three.dnom" horiz-adv-x="233" 
d="M172 242.5q24 -20.5 24 -47.5q0 -32 -30 -53q19 -8 30.5 -25t11.5 -41q0 -34 -27.5 -57t-64.5 -23q-41 0 -67.5 27t-23.5 64h38q-4 -23 12 -41t41 -18q22 0 38 13.5t16 34.5q0 46 -55 46q-12 0 -19 -1v31q63 3 63 43q0 15 -12.5 26t-30.5 11q-22 0 -35 -15.5t-11 -41.5
h-38q-3 38 22 63t62 25q32 0 56 -20.5z" />
    <glyph glyph-name="four.dnom" horiz-adv-x="246" 
d="M194 107h27v-31h-27v-76h-37v76h-132l132 185h37v-154zM92 107h65v95z" />
    <glyph glyph-name="five.dnom" horiz-adv-x="235" 
d="M186 229h-104l-8 -58q22 10 45 10q35 0 63 -26.5t28 -65.5t-28 -66t-67 -27q-33 0 -58.5 18.5t-31.5 43.5l33 19q2 -20 17.5 -34.5t39.5 -14.5q23 0 40 17.5t17 43.5q0 25 -16.5 42.5t-36.5 17.5q-35 0 -57 -29l-32 8l18 133h138v-32z" />
    <glyph glyph-name="six.dnom" horiz-adv-x="223" 
d="M106 165h6q34 0 60 -25t26 -59q0 -35 -26 -60t-60 -25t-60.5 25t-26.5 60q0 24 9 41.5t28 41.5l13 18l57 79h42zM76 119q-14 -14 -14 -38q0 -23 15.5 -38t34.5 -15q18 0 33.5 15t15.5 38t-15 37.5t-34 14.5q-22 0 -36 -14z" />
    <glyph glyph-name="seven.dnom" horiz-adv-x="223" 
d="M96 0h-39l89 229h-121v32h173z" />
    <glyph glyph-name="eight.dnom" horiz-adv-x="233" 
d="M173.5 243q21.5 -20 21.5 -47q0 -34 -30 -53q43 -21 43 -66q0 -34 -27 -56.5t-65 -22.5q-37 0 -64 22.5t-27 56.5q0 22 11.5 39t31.5 27q-15 10 -22.5 24t-7.5 29q0 26 21.5 46.5t56.5 20.5q36 0 57.5 -20zM85.5 221.5q-10.5 -10.5 -10.5 -25.5t12.5 -27t28.5 -12
q18 0 29.5 12t11.5 27t-9.5 25.5t-31.5 10.5q-20 0 -30.5 -10.5zM78 112q-16 -14 -16 -35q0 -20 16 -34t38 -14q24 0 39 13t15 35t-15 35.5t-39 13.5q-22 0 -38 -14z" />
    <glyph glyph-name="nine.dnom" horiz-adv-x="224" 
d="M172.5 239.5q26.5 -24.5 26.5 -59.5q0 -25 -9.5 -43.5t-22.5 -34.5t-19 -24l-56 -78h-43l68 95h-5q-35 0 -61 25.5t-26 59.5q0 35 26.5 59.5t60.5 24.5t60.5 -24.5zM77.5 217q-15.5 -15 -15.5 -37q0 -23 15.5 -38t34.5 -15q22 0 35.5 14.5t13.5 38.5q0 22 -15.5 37
t-33.5 15q-19 0 -34.5 -15z" />
    <glyph glyph-name="zero.numr" horiz-adv-x="260" 
d="M206 668q29 -35 29 -91v-13q0 -56 -29 -91t-76 -35q-45 0 -75 35t-30 91v13q0 56 30 91t75 35q47 0 76 -35zM81.5 646.5q-19.5 -25.5 -19.5 -69.5v-13q0 -44 19.5 -69.5t48.5 -25.5q31 0 49.5 25t18.5 70v13q0 45 -18.5 70t-49.5 25q-29 0 -48.5 -25.5z" />
    <glyph glyph-name="one.numr" horiz-adv-x="122" 
d="M97 440h-37v221l-17 -11l-18 31l35 20h37v-261z" />
    <glyph glyph-name="two.numr" horiz-adv-x="221" 
d="M168 681.5q25 -22.5 25 -52.5q0 -26 -14.5 -47t-53.5 -61l-47 -49h118v-32h-168v32l68 69q38 40 48.5 54.5t10.5 33.5q0 18 -14 31t-32 13q-19 0 -33 -13t-14 -37v-14h-37v14q0 35 24.5 58t59.5 23q34 0 59 -22.5z" />
    <glyph glyph-name="three.numr" horiz-adv-x="233" 
d="M172 682.5q24 -20.5 24 -47.5q0 -32 -30 -53q19 -8 30.5 -25t11.5 -41q0 -34 -27.5 -57t-64.5 -23q-41 0 -67.5 27t-23.5 64h38q-4 -23 12 -41t41 -18q22 0 38 13.5t16 34.5q0 46 -55 46q-12 0 -19 -1v31q63 3 63 43q0 15 -12.5 26t-30.5 11q-22 0 -35 -15.5t-11 -41.5
h-38q-3 38 22 63t62 25q32 0 56 -20.5z" />
    <glyph glyph-name="four.numr" horiz-adv-x="246" 
d="M194 547h27v-31h-27v-76h-37v76h-132l132 185h37v-154zM92 547h65v95z" />
    <glyph glyph-name="five.numr" horiz-adv-x="235" 
d="M186 669h-104l-8 -58q22 10 45 10q35 0 63 -26.5t28 -65.5t-28 -66t-67 -27q-33 0 -58.5 18.5t-31.5 43.5l33 19q2 -20 17.5 -34.5t39.5 -14.5q23 0 40 17.5t17 43.5q0 25 -16.5 42.5t-36.5 17.5q-35 0 -57 -29l-32 8l18 133h138v-32z" />
    <glyph glyph-name="six.numr" horiz-adv-x="223" 
d="M106 605h6q34 0 60 -25t26 -59q0 -35 -26 -60t-60 -25t-60.5 25t-26.5 60q0 24 9 41.5t28 41.5l13 18l57 79h42zM76 559q-14 -14 -14 -38q0 -23 15.5 -38t34.5 -15q18 0 33.5 15t15.5 38t-15 37.5t-34 14.5q-22 0 -36 -14z" />
    <glyph glyph-name="seven.numr" horiz-adv-x="223" 
d="M96 440h-39l89 229h-121v32h173z" />
    <glyph glyph-name="eight.numr" horiz-adv-x="233" 
d="M173.5 683q21.5 -20 21.5 -47q0 -34 -30 -53q43 -21 43 -66q0 -34 -27 -56.5t-65 -22.5q-37 0 -64 22.5t-27 56.5q0 22 11.5 39t31.5 27q-15 10 -22.5 24t-7.5 29q0 26 21.5 46.5t56.5 20.5q36 0 57.5 -20zM85.5 661.5q-10.5 -10.5 -10.5 -25.5t12.5 -27t28.5 -12
q18 0 29.5 12t11.5 27t-9.5 25.5t-31.5 10.5q-20 0 -30.5 -10.5zM78 552q-16 -14 -16 -35q0 -20 16 -34t38 -14q24 0 39 13t15 35t-15 35.5t-39 13.5q-22 0 -38 -14z" />
    <glyph glyph-name="nine.numr" horiz-adv-x="224" 
d="M172.5 679.5q26.5 -24.5 26.5 -59.5q0 -25 -9.5 -43.5t-22.5 -34.5t-19 -24l-56 -78h-43l68 95h-5q-35 0 -61 25.5t-26 59.5q0 35 26.5 59.5t60.5 24.5t60.5 -24.5zM77.5 657q-15.5 -15 -15.5 -37q0 -23 15.5 -38t34.5 -15q22 0 35.5 14.5t13.5 38.5q0 22 -15.5 37
t-33.5 15q-19 0 -34.5 -15z" />
    </font>
</defs>
</svg>
