<?xml version="1.0" encoding="utf-8"?>
<!-- Generator: Adobe Illustrator 18.1.1, SVG Export Plug-In . SVG Version: 6.00 Build 0)  -->
<svg version="1.1" id="Layer_1" xmlns="http://www.w3.org/2000/svg" xmlns:xlink="http://www.w3.org/1999/xlink" x="0px" y="0px"
	 viewBox="0 0 100.5 98.4" enable-background="new 0 0 100.5 98.4" xml:space="preserve">
<path fill="none" stroke="#222222" stroke-width="4" stroke-linecap="round" stroke-linejoin="round" stroke-miterlimit="10" d="
	M55.9,62.8c2,1.3,7.8,4.1,13,4"/>
<path fill="none" stroke="#222222" stroke-width="4" stroke-linecap="round" stroke-linejoin="round" stroke-miterlimit="10" d="
	M45.9,62.8c-2,1.3-7.8,2.1-13,2"/>
<path fill="none" stroke="#222222" stroke-width="4" stroke-linecap="round" stroke-miterlimit="10" d="M7.3,78.5
	c3.8,2,6.5-4.6,12.8-3.7"/>
<path fill="none" stroke="#222222" stroke-width="4" stroke-linecap="round" stroke-linejoin="round" stroke-miterlimit="10" d="
	M45.9,67.8v-5.3c0-2.8,2.2-4.8,5-4.8c2.8,0,5,2,5,4.8v5.3"/>
<circle fill="none" stroke="#222222" stroke-width="4" stroke-linecap="round" stroke-linejoin="round" stroke-miterlimit="10" cx="67.9" cy="84.8" r="3"/>
<line fill="none" stroke="#222222" stroke-width="4" stroke-linecap="round" stroke-linejoin="round" stroke-miterlimit="10" x1="40.9" y1="84.8" x2="64.9" y2="84.8"/>
<line fill="none" stroke="#222222" stroke-width="4" stroke-linecap="round" stroke-linejoin="round" stroke-miterlimit="10" x1="32.7" y1="84" x2="41.9" y2="71.8"/>
<line fill="none" stroke="#222222" stroke-width="4" stroke-linecap="round" stroke-linejoin="round" stroke-miterlimit="10" x1="66.1" y1="82" x2="55.9" y2="66.8"/>
<line fill="none" stroke="#222222" stroke-width="4" stroke-linecap="round" stroke-linejoin="round" stroke-miterlimit="10" x1="51.9" y1="74.8" x2="50.9" y2="84.8"/>
<line fill="none" stroke="#222222" stroke-width="4" stroke-linecap="round" stroke-linejoin="round" stroke-miterlimit="10" x1="43.9" y1="78.8" x2="44.9" y2="83.8"/>
<line fill="none" stroke="#222222" stroke-width="4" stroke-linecap="round" stroke-linejoin="round" stroke-miterlimit="10" x1="56.9" y1="79.8" x2="56.9" y2="84.8"/>
<line fill="none" stroke="#222222" stroke-width="4" stroke-linecap="round" stroke-linejoin="round" stroke-miterlimit="10" x1="62.9" y1="77.8" x2="62.9" y2="84.8"/>
<path fill="none" stroke="#222222" stroke-width="4" stroke-linecap="round" stroke-linejoin="round" stroke-miterlimit="10" d="
	M38.9,84.8"/>
<path fill="none" stroke="#222222" stroke-width="4" stroke-linecap="round" stroke-linejoin="round" stroke-miterlimit="10" d="
	M38.9,77.8"/>
<path fill="none" stroke="#222222" stroke-width="4" stroke-linecap="round" stroke-linejoin="round" stroke-miterlimit="10" d="
	M44.9,46.1c1.1,1.2,1.1,5.3,1.1,5.3s-0.7,5.2-10.6,5.2c-4,0-9.7,2.7-11.5,0.9c-3.2-3.2,0.2-8.7,4.1-11.5
	C32.2,43.1,41.9,42.8,44.9,46.1z"/>
<path fill="none" stroke="#222222" stroke-width="4" stroke-linecap="round" stroke-linejoin="round" stroke-miterlimit="10" d="
	M56.9,42c-1.1,1.2-1,5.4-1,5.4s-0.1,5.4,1,6.2c3.7,2.5,17.6,8.3,20.7,5c3.1-3.2-0.2-13.8-4-16.7C69.5,39,59.9,38.7,56.9,42z"/>
<line fill="none" stroke="#222222" stroke-width="4" stroke-linecap="round" stroke-miterlimit="10" x1="70" y1="82.7" x2="77.8" y2="69.4"/>
<line fill="none" stroke="#222222" stroke-width="4" stroke-linecap="round" stroke-miterlimit="10" x1="28.8" y1="79.7" x2="27.1" y2="75.4"/>
<path fill="none" stroke="#222222" stroke-width="4" stroke-linecap="round" stroke-miterlimit="10" d="M79,82.8
	c4-0.6,7.7-1.4,10.9-2.4c1.7-0.6,3.3-1.2,4.6-1.9"/>
<path fill="none" stroke="#222222" stroke-width="4" stroke-linecap="round" stroke-miterlimit="10" d="M55.1,4.2
	c7.8,1.4,14.8,6.3,20.2,11.5c6.5,6.4,10.7,13.3,10.7,23.1v6l9.6,31.3c1.8,4.8,2.3,9.6-1,11.3c-9.8,5.1-32.5,6.3-43.6,6.3
	c-11.1,0-33.8-1.3-43.6-6.3c-3.3-1.7-2.8-6.5-1-11.3l9.6-31.3v-6c0-17.9,13.5-32.7,30.9-34.8"/>
<path fill="none" stroke="#222222" stroke-width="4" stroke-linecap="round" stroke-miterlimit="10" d="M85.9,44.8
	c0,0-2.2-4.8-7.5-8.4"/>
<path fill="none" stroke="#222222" stroke-width="4" stroke-linecap="round" stroke-miterlimit="10" d="M15.9,44.8
	c0,0,8.3-18.2,31-10"/>
</svg>
