<?xml version="1.0" encoding="utf-8"?>
<!-- Generator: Adobe Illustrator 18.1.1, SVG Export Plug-In . SVG Version: 6.00 Build 0)  -->
<svg version="1.1" id="Layer_1" xmlns="http://www.w3.org/2000/svg" xmlns:xlink="http://www.w3.org/1999/xlink" x="0px" y="0px"
	 viewBox="0 0 98.4 100" enable-background="new 0 0 98.4 100" xml:space="preserve">
<path fill="none" stroke="#222222" stroke-width="4" stroke-linecap="round" stroke-linejoin="round" stroke-miterlimit="10" d="
	M54,65.3c2,1.3,7.8,2.1,13,2"/>
<path fill="none" stroke="#222222" stroke-width="4" stroke-linecap="round" stroke-linejoin="round" stroke-miterlimit="10" d="
	M44,65.3c-2,1.3-7.8,2.1-13,2"/>
<polyline fill="none" stroke="#222222" stroke-width="4" stroke-linecap="round" stroke-linejoin="round" stroke-miterlimit="10" points="
	45,22.3 45,4.3 53,4.3 53,37.3 45,37.3 45,32.3 "/>
<path fill="none" stroke="#222222" stroke-width="4" stroke-linecap="round" stroke-linejoin="round" stroke-miterlimit="10" d="
	M44,65c0-2.8,2.2-4.7,5-4.7s5,2,5,4.7v5.3H44V65z"/>
<circle fill="none" stroke="#222222" stroke-width="4" stroke-linecap="round" stroke-linejoin="round" stroke-miterlimit="10" cx="32" cy="87.3" r="3"/>
<circle fill="none" stroke="#222222" stroke-width="4" stroke-linecap="round" stroke-linejoin="round" stroke-miterlimit="10" cx="66" cy="87.3" r="3"/>
<line fill="none" stroke="#222222" stroke-width="4" stroke-linecap="round" stroke-linejoin="round" stroke-miterlimit="10" x1="35" y1="87.3" x2="63" y2="87.3"/>
<line fill="none" stroke="#222222" stroke-width="4" stroke-linecap="round" stroke-linejoin="round" stroke-miterlimit="10" x1="33.9" y1="84.5" x2="44" y2="69.3"/>
<line fill="none" stroke="#222222" stroke-width="4" stroke-linecap="round" stroke-linejoin="round" stroke-miterlimit="10" x1="64.2" y1="84.5" x2="54" y2="69.3"/>
<line fill="none" stroke="#222222" stroke-width="4" stroke-linecap="round" stroke-linejoin="round" stroke-miterlimit="10" x1="49" y1="70.3" x2="49" y2="87.3"/>
<line fill="none" stroke="#222222" stroke-width="4" stroke-linecap="round" stroke-linejoin="round" stroke-miterlimit="10" x1="43" y1="71.3" x2="43" y2="86.3"/>
<line fill="none" stroke="#222222" stroke-width="4" stroke-linecap="round" stroke-linejoin="round" stroke-miterlimit="10" x1="55" y1="71.3" x2="55" y2="87.3"/>
<line fill="none" stroke="#222222" stroke-width="4" stroke-linecap="round" stroke-linejoin="round" stroke-miterlimit="10" x1="61" y1="80.3" x2="61" y2="87.3"/>
<line fill="none" stroke="#222222" stroke-width="4" stroke-linecap="round" stroke-linejoin="round" stroke-miterlimit="10" x1="37" y1="80.3" x2="37" y2="87.3"/>
<path fill="none" stroke="#222222" stroke-width="4" stroke-linecap="round" stroke-linejoin="round" stroke-miterlimit="10" d="
	M42.9,45.6c1.1,1.2,1,5.3,1,5.3s0.1,5.4-1,6.2c-3.7,2.5-17.6,3.2-20.7,0s0.2-8.7,4-11.5C30.3,42.6,39.9,42.3,42.9,45.6z"/>
<path fill="none" stroke="#222222" stroke-width="4" stroke-linecap="round" stroke-linejoin="round" stroke-miterlimit="10" d="
	M55,45.6c-1.1,1.2-1,5.3-1,5.3s-0.1,5.4,1,6.2c3.7,2.5,17.6,3.2,20.7,0c3.1-3.2-0.2-8.7-4-11.5C67.6,42.6,58,42.3,55,45.6z"/>
<line fill="none" stroke="#222222" stroke-width="4" stroke-linecap="round" stroke-miterlimit="10" x1="68.2" y1="85.2" x2="75.9" y2="71.9"/>
<path fill="none" stroke="#222222" stroke-width="4" stroke-linecap="round" stroke-miterlimit="10" d="M27.9,21.7
	c4.3-4.7,10.4-7.8,17.1-8.8"/>
<path fill="none" stroke="#222222" stroke-width="4" stroke-linecap="round" stroke-miterlimit="10" d="M22.9,29.5
	c0.4-0.9,0.9-1.9,1.3-2.7"/>
<line fill="none" stroke="#222222" stroke-width="4" stroke-linecap="round" stroke-miterlimit="10" x1="29.9" y1="85.2" x2="22.2" y2="71.9"/>
<path fill="none" stroke="#222222" stroke-width="4" stroke-linecap="round" stroke-miterlimit="10" d="M77.1,85.3
	c6.9-1,15.8-4.1,17.1-4.8"/>
<path fill="none" stroke="#222222" stroke-width="4" stroke-linecap="round" stroke-miterlimit="10" d="M21.3,85.3
	c-6.9-1-16.1-4.2-17.4-4.9"/>
<path fill="none" stroke="#222222" stroke-width="4" stroke-linecap="round" stroke-miterlimit="10" d="M84,47.3c0,0-8.3-18.2-31-10
	"/>
<path fill="none" stroke="#222222" stroke-width="4" stroke-linecap="round" stroke-miterlimit="10" d="M14,47.3c0,0,8.3-18.2,31-10
	"/>
<path fill="none" stroke="#222222" stroke-width="4" stroke-linecap="round" stroke-miterlimit="10" d="M45,6.5
	c-17.4,2-31,16.8-31,34.8v6L4.4,78.6C2.6,83.4,2,88.2,5.4,90c9.8,5.1,32.5,6.3,43.6,6.3S82.9,95,92.6,90c3.3-1.7,2.8-6.5,1-11.3
	L84,47.3l0-5l0-1c0-18-13.5-32.8-31-34.8"/>
</svg>
