<?xml version="1.0" encoding="utf-8"?>
<!-- Generator: Adobe Illustrator 18.1.1, SVG Export Plug-In . SVG Version: 6.00 Build 0)  -->
<svg version="1.1" id="Layer_1" xmlns="http://www.w3.org/2000/svg" xmlns:xlink="http://www.w3.org/1999/xlink" x="0px" y="0px"
	 viewBox="0 0 98.4 100" enable-background="new 0 0 98.4 100" xml:space="preserve">
<g>
	
		<circle fill="none" stroke="#222222" stroke-width="4" stroke-linecap="round" stroke-linejoin="round" stroke-miterlimit="10" cx="-144" cy="252" r="1"/>
</g>
<g>
	
		<circle fill="none" stroke="#222222" stroke-width="4" stroke-linecap="round" stroke-linejoin="round" stroke-miterlimit="10" cx="-133" cy="180" r="1"/>
</g>
<g>
	
		<circle fill="none" stroke="#222222" stroke-width="4" stroke-linecap="round" stroke-linejoin="round" stroke-miterlimit="10" cx="-65" cy="180" r="1"/>
</g>
<g>
	
		<line fill="none" stroke="#222222" stroke-width="4" stroke-linecap="round" stroke-linejoin="round" stroke-miterlimit="10" x1="-124.2" y1="212.5" x2="-80.8" y2="187.5"/>
	
		<polyline fill="none" stroke="#222222" stroke-width="4" stroke-linecap="round" stroke-linejoin="round" stroke-miterlimit="10" points="
		-67.6,228.4 -67.1,237.3 -87.9,249.3 -95.4,244.4 	"/>
	<path fill="none" stroke="#222222" stroke-width="4" stroke-linecap="round" stroke-miterlimit="10" d="M-70.1,239.1
		c0.7,3.6-1,7.5-4.4,9.4c-3.4,2-7.5,1.5-10.4-1"/>
	<path fill="none" stroke="#222222" stroke-width="4" stroke-linecap="round" stroke-miterlimit="10" d="M-107.5,175.5
		c0.1,3.2-1.5,6.3-4.5,8c-3,1.7-6.5,1.5-9.2-0.1"/>
	
		<rect x="-108.5" y="187.2" transform="matrix(0.866 -0.5 0.5 0.866 -108.9795 -26.2839)" fill="none" stroke="#222222" stroke-width="4" stroke-linecap="round" stroke-linejoin="round" stroke-miterlimit="10" width="10" height="6"/>
	
		<polyline fill="none" stroke="#222222" stroke-width="4" stroke-linecap="round" stroke-linejoin="round" stroke-miterlimit="10" points="
		-127.5,200.6 -116.3,194.1 -113.3,199.3 -126.5,207 	"/>
	<path fill="none" stroke="#222222" stroke-width="4" stroke-linecap="round" stroke-linejoin="round" stroke-miterlimit="10" d="
		M-113.6,230.8l-10.5-18.2c-6.9-12-2.8-27.2,9.2-34.2c12-6.9,27.2-2.8,34.2,9.2l21,36.4l-43.3,25l-4.8-8"/>
</g>
<polygon fill="none" stroke="#222222" stroke-width="4" stroke-linecap="round" stroke-linejoin="round" stroke-miterlimit="10" points="
	-62,267 -90,267 -86,255 -66,255 "/>
<polygon fill="none" stroke="#222222" stroke-width="4" stroke-linecap="round" stroke-linejoin="round" stroke-miterlimit="10" points="
	-108,267 -136,267 -132,255 -112,255 "/>
<line fill="none" stroke="#222222" stroke-width="4" stroke-linecap="round" stroke-linejoin="round" stroke-miterlimit="10" x1="-72" y1="255" x2="-72" y2="246.4"/>
<line fill="none" stroke="#222222" stroke-width="4" stroke-linecap="round" stroke-linejoin="round" stroke-miterlimit="10" x1="-80" y1="255" x2="-80" y2="249.7"/>
<g>
	
		<circle fill="none" stroke="#222222" stroke-width="4" stroke-linecap="round" stroke-linejoin="round" stroke-miterlimit="10" cx="-97" cy="211" r="5"/>
</g>
<g>
	
		<circle fill="none" stroke="#222222" stroke-width="4" stroke-linecap="round" stroke-linejoin="round" stroke-miterlimit="10" cx="-147" cy="208" r="5"/>
</g>
<g>
	<path fill="none" stroke="#222222" stroke-width="4" stroke-linecap="round" stroke-linejoin="round" stroke-miterlimit="10" d="
		M-131,226c0,2.8-2.2,5-5,5"/>
</g>
<g>
	<path fill="none" stroke="#222222" stroke-width="4" stroke-linecap="round" stroke-linejoin="round" stroke-miterlimit="10" d="
		M-126,231c-2.8,0-5-2.2-5-5"/>
</g>
<g>
	<path fill="none" stroke="#222222" stroke-width="4" stroke-linecap="round" stroke-linejoin="round" stroke-miterlimit="10" d="
		M-136,231c2.8,0,5,2.2,5,5"/>
</g>
<g>
	<path fill="none" stroke="#222222" stroke-width="4" stroke-linecap="round" stroke-linejoin="round" stroke-miterlimit="10" d="
		M-131,236c0-2.8,2.2-5,5-5"/>
</g>
<line fill="none" stroke="#222222" stroke-width="4" stroke-linecap="round" stroke-linejoin="round" stroke-miterlimit="10" x1="-127" y1="255" x2="-101.3" y2="208.4"/>
<line fill="none" stroke="#222222" stroke-width="4" stroke-linecap="round" stroke-linejoin="round" stroke-miterlimit="10" x1="-116" y1="255" x2="-92.8" y2="213.8"/>
<path fill="none" stroke="#222222" stroke-width="4" stroke-linecap="round" stroke-linejoin="round" stroke-miterlimit="10" d="
	M-86.6,205.1c3.3,5.8,1.2,13.1-4.5,16.4c-2.2,1.2-4.5,1.7-6.8,1.5"/>
<path fill="none" stroke="#222222" stroke-width="4" stroke-linecap="round" stroke-linejoin="round" stroke-miterlimit="10" d="
	M43,86.3c0-2.9,3.2-5.3,6-5.3c2.8,0,6,2.4,6,5.3V89H43V86.3z"/>
<g>
	
		<circle fill="none" stroke="#222222" stroke-width="4" stroke-linecap="round" stroke-linejoin="round" stroke-miterlimit="10" cx="38" cy="34" r="1"/>
</g>
<g>
	
		<circle fill="none" stroke="#222222" stroke-width="4" stroke-linecap="round" stroke-linejoin="round" stroke-miterlimit="10" cx="60" cy="34" r="1"/>
</g>
<line fill="none" stroke="#222222" stroke-width="4" stroke-linecap="round" stroke-linejoin="round" stroke-miterlimit="10" x1="25" y1="96.3" x2="73" y2="96.3"/>
<rect x="73" y="88" fill="none" stroke="#222222" stroke-width="4" stroke-linecap="round" stroke-linejoin="round" stroke-miterlimit="10" width="18" height="8"/>
<rect x="7" y="88" fill="none" stroke="#222222" stroke-width="4" stroke-linecap="round" stroke-linejoin="round" stroke-miterlimit="10" width="18" height="8"/>
<line fill="none" stroke="#222222" stroke-width="4" stroke-linecap="round" stroke-linejoin="round" stroke-miterlimit="10" x1="7" y1="96.3" x2="3" y2="96.3"/>
<line fill="none" stroke="#222222" stroke-width="4" stroke-linecap="round" stroke-linejoin="round" stroke-miterlimit="10" x1="95" y1="96.3" x2="91" y2="96.3"/>
<path fill="none" stroke="#222222" stroke-width="4" stroke-linecap="round" stroke-linejoin="round" stroke-miterlimit="10" d="
	M33.5,85c2.7-5.9,8.6-10,15.5-10c6.9,0,12.8,4.1,15.5,10"/>
<line fill="none" stroke="#222222" stroke-width="4" stroke-linecap="round" stroke-linejoin="round" stroke-miterlimit="10" x1="54.8" y1="85" x2="64" y2="85"/>
<line fill="none" stroke="#222222" stroke-width="4" stroke-linecap="round" stroke-linejoin="round" stroke-miterlimit="10" x1="34" y1="85" x2="43.2" y2="85"/>
<line fill="none" stroke="#222222" stroke-width="4" stroke-linecap="round" stroke-linejoin="round" stroke-miterlimit="10" x1="53" y1="89.3" x2="53" y2="96.3"/>
<line fill="none" stroke="#222222" stroke-width="4" stroke-linecap="round" stroke-linejoin="round" stroke-miterlimit="10" x1="45" y1="89.3" x2="45" y2="96.3"/>
<line fill="none" stroke="#222222" stroke-width="4" stroke-linecap="round" stroke-linejoin="round" stroke-miterlimit="10" x1="39" y1="85" x2="35" y2="96"/>
<line fill="none" stroke="#222222" stroke-width="4" stroke-linecap="round" stroke-linejoin="round" stroke-miterlimit="10" x1="59" y1="85" x2="63" y2="96"/>
<path fill="none" stroke="#222222" stroke-width="4" stroke-linecap="round" stroke-linejoin="round" stroke-miterlimit="10" d="
	M25,30C25,16.7,35.7,6,49,6s24,10.7,24,24c0,0-1.8,24.9-3.1,33.2C69,68.6,64.5,85,64.5,85"/>
<path fill="none" stroke="#222222" stroke-width="4" stroke-linecap="round" stroke-linejoin="round" stroke-miterlimit="10" d="
	M25,30c0,0,1.7,25,3,33.4c0.8,5.3,5.2,21.3,5.2,21.3"/>
<path fill="none" stroke="#222222" stroke-width="4" stroke-linecap="round" stroke-linejoin="round" stroke-miterlimit="10" d="
	M68.5,16C64.1,22.1,57,26,49,26c-8,0-15.1-3.9-19.5-10"/>
<path fill="none" stroke="#222222" stroke-width="4" stroke-linecap="round" stroke-linejoin="round" stroke-miterlimit="10" d="
	M28.4,65.7C32.6,58.7,40.3,54,49,54c8.6,0,16.2,4.6,20.4,11.4"/>
<polyline fill="none" stroke="#222222" stroke-width="4" stroke-linecap="round" stroke-linejoin="round" stroke-miterlimit="10" points="
	72.5,25 80,25 80,43 72,43 "/>
<line fill="none" stroke="#222222" stroke-width="4" stroke-linecap="round" stroke-linejoin="round" stroke-miterlimit="10" x1="76" y1="25.3" x2="76" y2="4.3"/>
<polyline fill="none" stroke="#222222" stroke-width="4" stroke-linecap="round" stroke-linejoin="round" stroke-miterlimit="10" points="
	26,43 20,43 20,25 25.5,25 "/>
</svg>
