<?xml version="1.0" encoding="utf-8"?>
<!-- Generator: Adobe Illustrator 18.1.1, SVG Export Plug-In . SVG Version: 6.00 Build 0)  -->
<svg version="1.1" id="Layer_1" xmlns="http://www.w3.org/2000/svg" xmlns:xlink="http://www.w3.org/1999/xlink" x="0px" y="0px"
	 viewBox="0 0 98.4 100" enable-background="new 0 0 98.4 100" xml:space="preserve">
<polyline fill="none" stroke="#222222" stroke-width="4" stroke-linecap="round" stroke-linejoin="round" stroke-miterlimit="10" points="
	17.8,28 9,28 9,73 13.4,73 "/>
<line fill="none" stroke="#222222" stroke-width="4" stroke-linecap="round" stroke-linejoin="round" stroke-miterlimit="10" x1="13" y1="28.3" x2="13" y2="4.3"/>
<path fill="none" stroke="#222222" stroke-width="4" stroke-linecap="round" stroke-miterlimit="10" d="M16,39.1
	C16,19.8,31.7,4.3,51,4.3H51c19.3,0,35,15.6,35,34.9"/>
<polyline fill="none" stroke="#222222" stroke-width="4" stroke-linecap="round" stroke-linejoin="round" stroke-miterlimit="10" points="
	16,39 13,79.1 42,96.3 60,96.3 89.4,79.1 86,39.1 "/>
<line fill="none" stroke="#222222" stroke-width="4" stroke-linecap="round" stroke-miterlimit="10" x1="16.3" y1="35" x2="85.7" y2="35"/>
<path fill="none" stroke="#222222" stroke-width="4" stroke-linecap="round" stroke-linejoin="round" stroke-miterlimit="10" d="
	M60,96.3V54c0,0,12.3-3.9,20.2-7l-0.7-5.7h-1.1H51H23.1H22L21.5,47c7.9,3.1,20.5,7,20.5,7v42.3"/>
<path fill="none" stroke="#222222" stroke-width="4" stroke-linecap="round" stroke-miterlimit="10" d="M15,52.4
	C27.5,58.9,36,72,36,87v5.5"/>
<path fill="none" stroke="#222222" stroke-width="4" stroke-linecap="round" stroke-miterlimit="10" d="M87,53.1
	C74.5,59.6,66,72,66,87v5.5"/>
<line fill="none" stroke="#222222" stroke-width="4" stroke-linecap="round" stroke-linejoin="round" stroke-miterlimit="10" x1="61.3" y1="17.3" x2="66.6" y2="23.6"/>
<line fill="none" stroke="#222222" stroke-width="4" stroke-linecap="round" stroke-linejoin="round" stroke-miterlimit="10" x1="57" y1="21.3" x2="57" y2="26.3"/>
<g>
	
		<circle fill="none" stroke="#222222" stroke-width="4" stroke-linecap="round" stroke-linejoin="round" stroke-miterlimit="10" cx="-144" cy="252" r="1"/>
</g>
<g>
	
		<circle fill="none" stroke="#222222" stroke-width="4" stroke-linecap="round" stroke-linejoin="round" stroke-miterlimit="10" cx="-133" cy="180" r="1"/>
</g>
<g>
	
		<circle fill="none" stroke="#222222" stroke-width="4" stroke-linecap="round" stroke-linejoin="round" stroke-miterlimit="10" cx="-65" cy="180" r="1"/>
</g>
<g>
	
		<line fill="none" stroke="#222222" stroke-width="4" stroke-linecap="round" stroke-linejoin="round" stroke-miterlimit="10" x1="-124.2" y1="212.5" x2="-80.8" y2="187.5"/>
	
		<polyline fill="none" stroke="#222222" stroke-width="4" stroke-linecap="round" stroke-linejoin="round" stroke-miterlimit="10" points="
		-67.6,228.4 -67.1,237.3 -87.9,249.3 -95.4,244.4 	"/>
	<path fill="none" stroke="#222222" stroke-width="4" stroke-linecap="round" stroke-miterlimit="10" d="M-70.1,239.1
		c0.7,3.6-1,7.5-4.4,9.4c-3.4,2-7.5,1.5-10.4-1"/>
	<path fill="none" stroke="#222222" stroke-width="4" stroke-linecap="round" stroke-miterlimit="10" d="M-107.5,175.5
		c0.1,3.2-1.5,6.3-4.5,8c-3,1.7-6.5,1.5-9.2-0.1"/>
	
		<rect x="-108.5" y="187.2" transform="matrix(0.866 -0.5 0.5 0.866 -108.9795 -26.2839)" fill="none" stroke="#222222" stroke-width="4" stroke-linecap="round" stroke-linejoin="round" stroke-miterlimit="10" width="10" height="6"/>
	
		<polyline fill="none" stroke="#222222" stroke-width="4" stroke-linecap="round" stroke-linejoin="round" stroke-miterlimit="10" points="
		-127.5,200.6 -116.3,194.1 -113.3,199.3 -126.5,207 	"/>
	<path fill="none" stroke="#222222" stroke-width="4" stroke-linecap="round" stroke-linejoin="round" stroke-miterlimit="10" d="
		M-113.6,230.8l-10.5-18.2c-6.9-12-2.8-27.2,9.2-34.2c12-6.9,27.2-2.8,34.2,9.2l21,36.4l-43.3,25l-4.8-8"/>
</g>
<polygon fill="none" stroke="#222222" stroke-width="4" stroke-linecap="round" stroke-linejoin="round" stroke-miterlimit="10" points="
	-62,267 -90,267 -86,255 -66,255 "/>
<polygon fill="none" stroke="#222222" stroke-width="4" stroke-linecap="round" stroke-linejoin="round" stroke-miterlimit="10" points="
	-108,267 -136,267 -132,255 -112,255 "/>
<line fill="none" stroke="#222222" stroke-width="4" stroke-linecap="round" stroke-linejoin="round" stroke-miterlimit="10" x1="-72" y1="255" x2="-72" y2="246.4"/>
<line fill="none" stroke="#222222" stroke-width="4" stroke-linecap="round" stroke-linejoin="round" stroke-miterlimit="10" x1="-80" y1="255" x2="-80" y2="249.7"/>
<g>
	
		<circle fill="none" stroke="#222222" stroke-width="4" stroke-linecap="round" stroke-linejoin="round" stroke-miterlimit="10" cx="-97" cy="211" r="5"/>
</g>
<g>
	
		<circle fill="none" stroke="#222222" stroke-width="4" stroke-linecap="round" stroke-linejoin="round" stroke-miterlimit="10" cx="-147" cy="208" r="5"/>
</g>
<g>
	<path fill="none" stroke="#222222" stroke-width="4" stroke-linecap="round" stroke-linejoin="round" stroke-miterlimit="10" d="
		M-131,226c0,2.8-2.2,5-5,5"/>
</g>
<g>
	<path fill="none" stroke="#222222" stroke-width="4" stroke-linecap="round" stroke-linejoin="round" stroke-miterlimit="10" d="
		M-126,231c-2.8,0-5-2.2-5-5"/>
</g>
<g>
	<path fill="none" stroke="#222222" stroke-width="4" stroke-linecap="round" stroke-linejoin="round" stroke-miterlimit="10" d="
		M-136,231c2.8,0,5,2.2,5,5"/>
</g>
<g>
	<path fill="none" stroke="#222222" stroke-width="4" stroke-linecap="round" stroke-linejoin="round" stroke-miterlimit="10" d="
		M-131,236c0-2.8,2.2-5,5-5"/>
</g>
<line fill="none" stroke="#222222" stroke-width="4" stroke-linecap="round" stroke-linejoin="round" stroke-miterlimit="10" x1="-127" y1="255" x2="-101.3" y2="208.4"/>
<line fill="none" stroke="#222222" stroke-width="4" stroke-linecap="round" stroke-linejoin="round" stroke-miterlimit="10" x1="-116" y1="255" x2="-92.8" y2="213.8"/>
<path fill="none" stroke="#222222" stroke-width="4" stroke-linecap="round" stroke-linejoin="round" stroke-miterlimit="10" d="
	M-86.6,205.1c3.3,5.8,1.2,13.1-4.5,16.4c-2.2,1.2-4.5,1.7-6.8,1.5"/>
<path fill="none" stroke="#222222" stroke-width="4" stroke-linecap="round" stroke-linejoin="round" stroke-miterlimit="10" d="
	M4,257.3c0-2.9,3.2-5.3,6-5.3c2.8,0,6,2.4,6,5.3v2.7H4V257.3z"/>
<g>
	
		<circle fill="none" stroke="#222222" stroke-width="4" stroke-linecap="round" stroke-linejoin="round" stroke-miterlimit="10" cx="-1" cy="205" r="1"/>
</g>
<g>
	
		<circle fill="none" stroke="#222222" stroke-width="4" stroke-linecap="round" stroke-linejoin="round" stroke-miterlimit="10" cx="21" cy="205" r="1"/>
</g>
<line fill="none" stroke="#222222" stroke-width="4" stroke-linecap="round" stroke-linejoin="round" stroke-miterlimit="10" x1="-14" y1="267.3" x2="34" y2="267.3"/>
<rect x="34" y="259" fill="none" stroke="#222222" stroke-width="4" stroke-linecap="round" stroke-linejoin="round" stroke-miterlimit="10" width="18" height="8"/>
<rect x="-32" y="259" fill="none" stroke="#222222" stroke-width="4" stroke-linecap="round" stroke-linejoin="round" stroke-miterlimit="10" width="18" height="8"/>
<line fill="none" stroke="#222222" stroke-width="4" stroke-linecap="round" stroke-linejoin="round" stroke-miterlimit="10" x1="-32" y1="267.3" x2="-36" y2="267.3"/>
<line fill="none" stroke="#222222" stroke-width="4" stroke-linecap="round" stroke-linejoin="round" stroke-miterlimit="10" x1="56" y1="267.3" x2="52" y2="267.3"/>
<path fill="none" stroke="#222222" stroke-width="4" stroke-linecap="round" stroke-linejoin="round" stroke-miterlimit="10" d="
	M-5.5,256c2.7-5.9,8.6-10,15.5-10c6.9,0,12.8,4.1,15.5,10"/>
<line fill="none" stroke="#222222" stroke-width="4" stroke-linecap="round" stroke-linejoin="round" stroke-miterlimit="10" x1="15.8" y1="256" x2="25" y2="256"/>
<line fill="none" stroke="#222222" stroke-width="4" stroke-linecap="round" stroke-linejoin="round" stroke-miterlimit="10" x1="-5" y1="256" x2="4.2" y2="256"/>
<line fill="none" stroke="#222222" stroke-width="4" stroke-linecap="round" stroke-linejoin="round" stroke-miterlimit="10" x1="14" y1="260.3" x2="14" y2="267.3"/>
<line fill="none" stroke="#222222" stroke-width="4" stroke-linecap="round" stroke-linejoin="round" stroke-miterlimit="10" x1="6" y1="260.3" x2="6" y2="267.3"/>
<line fill="none" stroke="#222222" stroke-width="4" stroke-linecap="round" stroke-linejoin="round" stroke-miterlimit="10" x1="0" y1="256" x2="-4" y2="267"/>
<line fill="none" stroke="#222222" stroke-width="4" stroke-linecap="round" stroke-linejoin="round" stroke-miterlimit="10" x1="20" y1="256" x2="24" y2="267"/>
<path fill="none" stroke="#222222" stroke-width="4" stroke-linecap="round" stroke-linejoin="round" stroke-miterlimit="10" d="
	M-14,201c0-13.3,10.7-24,24-24s24,10.7,24,24c0,0-1.8,24.9-3.1,33.2c-0.8,5.5-5.4,21.8-5.4,21.8"/>
<path fill="none" stroke="#222222" stroke-width="4" stroke-linecap="round" stroke-linejoin="round" stroke-miterlimit="10" d="
	M-14,201c0,0,1.7,25,3,33.4c0.8,5.3,5.2,21.3,5.2,21.3"/>
<path fill="none" stroke="#222222" stroke-width="4" stroke-linecap="round" stroke-linejoin="round" stroke-miterlimit="10" d="
	M29.5,187c-4.4,6.1-11.5,10-19.5,10c-8,0-15.1-3.9-19.5-10"/>
<path fill="none" stroke="#222222" stroke-width="4" stroke-linecap="round" stroke-linejoin="round" stroke-miterlimit="10" d="
	M-10.6,236.7c4.2-7,11.8-11.7,20.6-11.7c8.6,0,16.2,4.6,20.4,11.4"/>
<polyline fill="none" stroke="#222222" stroke-width="4" stroke-linecap="round" stroke-linejoin="round" stroke-miterlimit="10" points="
	33.5,196 41,196 41,214 33,214 "/>
<line fill="none" stroke="#222222" stroke-width="4" stroke-linecap="round" stroke-linejoin="round" stroke-miterlimit="10" x1="37" y1="196.3" x2="37" y2="175.3"/>
<polyline fill="none" stroke="#222222" stroke-width="4" stroke-linecap="round" stroke-linejoin="round" stroke-miterlimit="10" points="
	-13,214 -19,214 -19,196 -13.5,196 "/>
<g>
	<path fill="none" stroke="#222222" stroke-width="4" stroke-linecap="round" stroke-linejoin="round" stroke-miterlimit="10" d="
		M89.7,215c-7.4-12.8-3-29.1,9.8-36.5c12.8-7.4,29.1-3,36.5,9.8"/>
	
		<polyline fill="none" stroke="#222222" stroke-width="4" stroke-linecap="round" stroke-linejoin="round" stroke-miterlimit="10" points="
		135.9,188.4 134,195.6 97,217 89.7,215 	"/>
	<circle fill="none" stroke="#222222" stroke-width="4" stroke-linecap="round" stroke-miterlimit="10" cx="108" cy="193" r="8"/>
	<g>
		
			<circle fill="none" stroke="#222222" stroke-width="4" stroke-linecap="round" stroke-linejoin="round" stroke-miterlimit="10" cx="125" cy="190" r="1"/>
	</g>
</g>
<g>
	
		<circle fill="none" stroke="#222222" stroke-width="4" stroke-linecap="round" stroke-linejoin="round" stroke-miterlimit="10" cx="139" cy="224" r="1"/>
</g>
<g>
	
		<circle fill="none" stroke="#222222" stroke-width="4" stroke-linecap="round" stroke-linejoin="round" stroke-miterlimit="10" cx="112" cy="247" r="1"/>
</g>
<path fill="none" stroke="#222222" stroke-width="4" stroke-linecap="round" stroke-linejoin="round" stroke-miterlimit="10" d="
	M131.7,197c18.6,0.9,33.3,16.2,33.3,35c0,19.3-15.7,35-35,35s-35-15.7-35-35c0-5.3,1.1-11.2,3.2-15.7"/>
<path fill="none" stroke="#222222" stroke-width="4" stroke-linecap="round" stroke-linejoin="round" stroke-miterlimit="10" d="
	M164.8,228c-12.6-7-22.8-17.7-29.3-30.6"/>
<path fill="none" stroke="#222222" stroke-width="4" stroke-linecap="round" stroke-linejoin="round" stroke-miterlimit="10" d="
	M127.9,266.9c-2.8-1.5-5-3.7-6.1-6.5c-3.1-7.8,3.1-17.5,13.7-21.6c10.6-4.1,21.7-1.1,24.7,6.7c0.4,0.9,0.6,1.9,0.7,2.8"/>
<path fill="none" stroke="#222222" stroke-width="4" stroke-linecap="round" stroke-linejoin="round" stroke-miterlimit="10" d="
	M95.3,236.3c2.7,1.1,5.6,1.7,8.7,1.7c12.7,0,23-10.3,23-23c0-4.8-1.5-9.3-4-13"/>
<line fill="none" stroke="#222222" stroke-width="4" stroke-linecap="round" stroke-linejoin="round" stroke-miterlimit="10" x1="118.8" y1="232.6" x2="128.1" y2="243.1"/>
<line fill="none" stroke="#222222" stroke-width="4" stroke-linecap="round" stroke-linejoin="round" stroke-miterlimit="10" x1="157.7" y1="223.5" x2="154.1" y2="239.1"/>
<line fill="none" stroke="#222222" stroke-width="4" stroke-linecap="round" stroke-linejoin="round" stroke-miterlimit="10" x1="125.4" y1="206.6" x2="139.2" y2="203.9"/>
<line fill="none" stroke="#222222" stroke-width="4" stroke-linecap="round" stroke-linejoin="round" stroke-miterlimit="10" x1="85" y1="267.3" x2="80" y2="267.3"/>
<line fill="none" stroke="#222222" stroke-width="4" stroke-linecap="round" stroke-linejoin="round" stroke-miterlimit="10" x1="157" y1="267.3" x2="93" y2="267.3"/>
<line fill="none" stroke="#222222" stroke-width="4" stroke-linecap="round" stroke-linejoin="round" stroke-miterlimit="10" x1="172" y1="267.3" x2="165" y2="267.3"/>
<path fill="none" stroke="#222222" stroke-width="4" stroke-linecap="round" stroke-linejoin="round" stroke-miterlimit="10" d="
	M111.4,208.7c2.2,1.6,3.6,4.1,3.6,7c0,4.8-3.9,8.7-8.7,8.7c-4.5,0-8.2-3.4-8.6-7.8"/>
<path fill="none" stroke="#222222" stroke-width="4" stroke-linecap="round" stroke-linejoin="round" stroke-miterlimit="10" d="
	M149.9,253.8c0.6,3.6-2.5,7.6-6.9,8.8c-4.4,1.2-8.4-0.7-8.9-4.4c-0.6-3.6,2.5-7.6,6.9-8.8C145.4,248.2,149.4,250.1,149.9,253.8z"/>
</svg>
