<?xml version="1.0" encoding="utf-8"?>
<!-- Generator: Adobe Illustrator 18.1.1, SVG Export Plug-In . SVG Version: 6.00 Build 0)  -->
<svg version="1.1" id="Layer_1" xmlns="http://www.w3.org/2000/svg" xmlns:xlink="http://www.w3.org/1999/xlink" x="0px" y="0px"
	 viewBox="0 0 98.4 100" enable-background="new 0 0 98.4 100" xml:space="preserve">
<g>
	
		<circle fill="none" stroke="#222222" stroke-width="4" stroke-linecap="round" stroke-linejoin="round" stroke-miterlimit="10" cx="11" cy="81" r="1"/>
</g>
<g>
	
		<circle fill="none" stroke="#222222" stroke-width="4" stroke-linecap="round" stroke-linejoin="round" stroke-miterlimit="10" cx="22" cy="9" r="1"/>
</g>
<g>
	
		<circle fill="none" stroke="#222222" stroke-width="4" stroke-linecap="round" stroke-linejoin="round" stroke-miterlimit="10" cx="90" cy="9" r="1"/>
</g>
<g>
	
		<line fill="none" stroke="#222222" stroke-width="4" stroke-linecap="round" stroke-linejoin="round" stroke-miterlimit="10" x1="30.8" y1="41.5" x2="74.2" y2="16.5"/>
	
		<polyline fill="none" stroke="#222222" stroke-width="4" stroke-linecap="round" stroke-linejoin="round" stroke-miterlimit="10" points="
		87.4,57.4 87.9,66.3 67.1,78.3 59.6,73.4 	"/>
	<path fill="none" stroke="#222222" stroke-width="4" stroke-linecap="round" stroke-miterlimit="10" d="M84.9,68.1
		c0.7,3.6-1,7.5-4.4,9.4c-3.4,2-7.5,1.5-10.4-1"/>
	<path fill="none" stroke="#222222" stroke-width="4" stroke-linecap="round" stroke-miterlimit="10" d="M47.5,4.5
		c0.1,3.2-1.5,6.3-4.5,8c-3,1.7-6.5,1.5-9.2-0.1"/>
	
		<rect x="46.5" y="16.2" transform="matrix(0.866 -0.5 0.5 0.866 -2.7128 28.3066)" fill="none" stroke="#222222" stroke-width="4" stroke-linecap="round" stroke-linejoin="round" stroke-miterlimit="10" width="10" height="6"/>
	
		<polyline fill="none" stroke="#222222" stroke-width="4" stroke-linecap="round" stroke-linejoin="round" stroke-miterlimit="10" points="
		27.5,29.6 38.7,23.1 41.7,28.3 28.5,36 	"/>
	<path fill="none" stroke="#222222" stroke-width="4" stroke-linecap="round" stroke-linejoin="round" stroke-miterlimit="10" d="
		M41.4,59.8L30.8,41.5C23.9,29.6,28,14.3,40,7.4c12-6.9,27.2-2.8,34.2,9.2l21,36.4l-43.3,25l-4.8-8"/>
</g>
<polygon fill="none" stroke="#222222" stroke-width="4" stroke-linecap="round" stroke-linejoin="round" stroke-miterlimit="10" points="
	93,96 65,96 69,84 89,84 "/>
<polygon fill="none" stroke="#222222" stroke-width="4" stroke-linecap="round" stroke-linejoin="round" stroke-miterlimit="10" points="
	47,96 19,96 23,84 43,84 "/>
<line fill="none" stroke="#222222" stroke-width="4" stroke-linecap="round" stroke-linejoin="round" stroke-miterlimit="10" x1="83" y1="84" x2="83" y2="75.4"/>
<line fill="none" stroke="#222222" stroke-width="4" stroke-linecap="round" stroke-linejoin="round" stroke-miterlimit="10" x1="75" y1="84" x2="75" y2="78.7"/>
<g>
	
		<circle fill="none" stroke="#222222" stroke-width="4" stroke-linecap="round" stroke-linejoin="round" stroke-miterlimit="10" cx="58" cy="40" r="5"/>
</g>
<g>
	
		<circle fill="none" stroke="#222222" stroke-width="4" stroke-linecap="round" stroke-linejoin="round" stroke-miterlimit="10" cx="8" cy="37" r="5"/>
</g>
<g>
	<path fill="none" stroke="#222222" stroke-width="4" stroke-linecap="round" stroke-linejoin="round" stroke-miterlimit="10" d="
		M24,55c0,2.8-2.2,5-5,5"/>
</g>
<g>
	<path fill="none" stroke="#222222" stroke-width="4" stroke-linecap="round" stroke-linejoin="round" stroke-miterlimit="10" d="
		M29,60c-2.8,0-5-2.2-5-5"/>
</g>
<g>
	<path fill="none" stroke="#222222" stroke-width="4" stroke-linecap="round" stroke-linejoin="round" stroke-miterlimit="10" d="
		M19,60c2.8,0,5,2.2,5,5"/>
</g>
<g>
	<path fill="none" stroke="#222222" stroke-width="4" stroke-linecap="round" stroke-linejoin="round" stroke-miterlimit="10" d="
		M24,65c0-2.8,2.2-5,5-5"/>
</g>
<line fill="none" stroke="#222222" stroke-width="4" stroke-linecap="round" stroke-linejoin="round" stroke-miterlimit="10" x1="28" y1="84" x2="53.7" y2="37.4"/>
<line fill="none" stroke="#222222" stroke-width="4" stroke-linecap="round" stroke-linejoin="round" stroke-miterlimit="10" x1="39" y1="84" x2="62.2" y2="42.8"/>
<path fill="none" stroke="#222222" stroke-width="4" stroke-linecap="round" stroke-linejoin="round" stroke-miterlimit="10" d="
	M68.4,34.1c3.3,5.8,1.2,13.1-4.5,16.4c-2.2,1.2-4.5,1.7-6.8,1.5"/>
</svg>
