<?xml version="1.0" encoding="utf-8"?>
<!-- Generator: Adobe Illustrator 18.1.1, SVG Export Plug-In . SVG Version: 6.00 Build 0)  -->
<svg version="1.1" id="Layer_1" xmlns="http://www.w3.org/2000/svg" xmlns:xlink="http://www.w3.org/1999/xlink" x="0px" y="0px"
	 viewBox="0 0 98.4 100" enable-background="new 0 0 98.4 100" xml:space="preserve">
<line fill="none" stroke="#222222" stroke-width="4" stroke-linecap="round" stroke-linejoin="round" stroke-miterlimit="10" x1="34.2" y1="47.8" x2="16.8" y2="30.4"/>
<line fill="none" stroke="#222222" stroke-width="4" stroke-linecap="round" stroke-linejoin="round" stroke-miterlimit="10" x1="41.9" y1="41.4" x2="24" y2="23.5"/>
<g>
	
		<circle fill="none" stroke="#222222" stroke-width="4" stroke-linecap="round" stroke-linejoin="round" stroke-miterlimit="10" cx="23.6" cy="75.4" r="1"/>
</g>
<g>
	
		<circle fill="none" stroke="#222222" stroke-width="4" stroke-linecap="round" stroke-linejoin="round" stroke-miterlimit="10" cx="30.6" cy="68.3" r="1"/>
</g>
<g>
	
		<circle fill="none" stroke="#222222" stroke-width="4" stroke-linecap="round" stroke-linejoin="round" stroke-miterlimit="10" cx="16.6" cy="63.8" r="1"/>
</g>
<g>
	
		<circle fill="none" stroke="#222222" stroke-width="4" stroke-linecap="round" stroke-linejoin="round" stroke-miterlimit="10" cx="25.6" cy="59.5" r="1"/>
</g>
<g>
	
		<circle fill="none" stroke="#222222" stroke-width="4" stroke-linecap="round" stroke-linejoin="round" stroke-miterlimit="10" cx="35.2" cy="82.4" r="1"/>
</g>
<g>
	
		<circle fill="none" stroke="#222222" stroke-width="4" stroke-linecap="round" stroke-linejoin="round" stroke-miterlimit="10" cx="39.5" cy="73.4" r="1"/>
</g>
<polyline fill="none" stroke="#222222" stroke-width="4" stroke-linecap="round" stroke-linejoin="round" stroke-miterlimit="10" points="
	50.8,42.5 85.1,8.2 80.8,4 33.7,18.5 "/>
<line fill="none" stroke="#222222" stroke-width="4" stroke-linecap="round" stroke-linejoin="round" stroke-miterlimit="10" x1="75.2" y1="18.1" x2="80.8" y2="23.8"/>
<path fill="none" stroke="#222222" stroke-width="4" stroke-linecap="round" stroke-linejoin="round" stroke-miterlimit="10" d="
	M74.3,30.3c5.7,7,8.3,15.9,8,24.4"/>
<path fill="none" stroke="#222222" stroke-width="4" stroke-linecap="round" stroke-linejoin="round" stroke-miterlimit="10" d="
	M76.6,67.6"/>
<polyline fill="none" stroke="#222222" stroke-width="4" stroke-linecap="round" stroke-linejoin="round" stroke-miterlimit="10" points="
	56.1,48.5 90.7,13.9 95,18.1 83.9,53.2 "/>
<path fill="none" stroke="#222222" stroke-width="4" stroke-linecap="round" stroke-linejoin="round" stroke-miterlimit="10" d="
	M60,59.5l25.8,6l7.8-7.8c1.9-1.9,1.9-5.1,0-7.1l0,0c-1.9-1.9-5.1-1.9-7.1,0l-4.2,4.1l-26.2-6.3"/>
<line fill="none" stroke="#222222" stroke-width="4" stroke-linecap="round" stroke-linejoin="round" stroke-miterlimit="10" x1="75.5" y1="75.1" x2="56.6" y2="56.2"/>
<line fill="none" stroke="#222222" stroke-width="4" stroke-linecap="round" stroke-linejoin="round" stroke-miterlimit="10" x1="68.7" y1="82.3" x2="50.3" y2="63.8"/>
<circle fill="none" stroke="#222222" stroke-width="4" stroke-linecap="round" stroke-miterlimit="10" cx="45" cy="53" r="12"/>
<line fill="none" stroke="#222222" stroke-width="4" stroke-linecap="round" stroke-linejoin="round" stroke-miterlimit="10" x1="9" y1="48" x2="34.2" y2="47.8"/>
<line fill="none" stroke="#222222" stroke-width="4" stroke-linecap="round" stroke-linejoin="round" stroke-miterlimit="10" x1="51" y1="90.1" x2="50.3" y2="63.8"/>
<path fill="none" stroke="#222222" stroke-width="4" stroke-linecap="round" stroke-linejoin="round" stroke-miterlimit="10" d="
	M81,64.4c-1.7,5.6-4.8,10.8-9.2,15.2C66,85.5,58.7,89,51.2,90.1l-6,5.9l0,0c-10,0-21.5-4.1-29.8-12.4C7.1,75.3,3,64.4,2.9,53.6l0,0
	L9,48c1.2-7.5,4.8-14.9,10.6-20.7C33,13.9,54.2,13,68.8,24.6"/>
<polyline fill="none" stroke="#222222" stroke-width="4" stroke-linecap="round" stroke-linejoin="round" stroke-miterlimit="10" points="
	81.8,-127 73,-127 73,-82 77.4,-82 "/>
<line fill="none" stroke="#222222" stroke-width="4" stroke-linecap="round" stroke-linejoin="round" stroke-miterlimit="10" x1="77" y1="-126.7" x2="77" y2="-150.7"/>
<path fill="none" stroke="#222222" stroke-width="4" stroke-linecap="round" stroke-miterlimit="10" d="M80-115.9
	c0-19.3,15.7-34.9,35-34.9H115c19.3,0,35,15.6,35,34.9"/>
<polyline fill="none" stroke="#222222" stroke-width="4" stroke-linecap="round" stroke-linejoin="round" stroke-miterlimit="10" points="
	80,-116 77,-75.9 106,-58.7 124,-58.7 153.4,-75.9 150,-115.9 "/>
<line fill="none" stroke="#222222" stroke-width="4" stroke-linecap="round" stroke-miterlimit="10" x1="80.3" y1="-120" x2="149.7" y2="-120"/>
<path fill="none" stroke="#222222" stroke-width="4" stroke-linecap="round" stroke-linejoin="round" stroke-miterlimit="10" d="
	M124-58.7V-101c0,0,12.3-3.9,20.2-7l-0.7-5.7h-1.1H115H87.1H86l-0.5,5.7c7.9,3.1,20.5,7,20.5,7v42.3"/>
<path fill="none" stroke="#222222" stroke-width="4" stroke-linecap="round" stroke-miterlimit="10" d="M79-102.6
	C91.5-96.1,100-83,100-68v5.5"/>
<path fill="none" stroke="#222222" stroke-width="4" stroke-linecap="round" stroke-miterlimit="10" d="M151-101.9
	C138.5-95.4,130-83,130-68v5.5"/>
<line fill="none" stroke="#222222" stroke-width="4" stroke-linecap="round" stroke-linejoin="round" stroke-miterlimit="10" x1="125.3" y1="-137.7" x2="130.6" y2="-131.4"/>
<line fill="none" stroke="#222222" stroke-width="4" stroke-linecap="round" stroke-linejoin="round" stroke-miterlimit="10" x1="121" y1="-133.7" x2="121" y2="-128.7"/>
<g>
	
		<circle fill="none" stroke="#222222" stroke-width="4" stroke-linecap="round" stroke-linejoin="round" stroke-miterlimit="10" cx="-144" cy="252" r="1"/>
</g>
<g>
	
		<circle fill="none" stroke="#222222" stroke-width="4" stroke-linecap="round" stroke-linejoin="round" stroke-miterlimit="10" cx="-133" cy="180" r="1"/>
</g>
<g>
	
		<circle fill="none" stroke="#222222" stroke-width="4" stroke-linecap="round" stroke-linejoin="round" stroke-miterlimit="10" cx="-65" cy="180" r="1"/>
</g>
<g>
	
		<line fill="none" stroke="#222222" stroke-width="4" stroke-linecap="round" stroke-linejoin="round" stroke-miterlimit="10" x1="-124.2" y1="212.5" x2="-80.8" y2="187.5"/>
	
		<polyline fill="none" stroke="#222222" stroke-width="4" stroke-linecap="round" stroke-linejoin="round" stroke-miterlimit="10" points="
		-67.6,228.4 -67.1,237.3 -87.9,249.3 -95.4,244.4 	"/>
	<path fill="none" stroke="#222222" stroke-width="4" stroke-linecap="round" stroke-miterlimit="10" d="M-70.1,239.1
		c0.7,3.6-1,7.5-4.4,9.4c-3.4,2-7.5,1.5-10.4-1"/>
	<path fill="none" stroke="#222222" stroke-width="4" stroke-linecap="round" stroke-miterlimit="10" d="M-107.5,175.5
		c0.1,3.2-1.5,6.3-4.5,8c-3,1.7-6.5,1.5-9.2-0.1"/>
	
		<rect x="-108.5" y="187.2" transform="matrix(0.866 -0.5 0.5 0.866 -108.9795 -26.2839)" fill="none" stroke="#222222" stroke-width="4" stroke-linecap="round" stroke-linejoin="round" stroke-miterlimit="10" width="10" height="6"/>
	
		<polyline fill="none" stroke="#222222" stroke-width="4" stroke-linecap="round" stroke-linejoin="round" stroke-miterlimit="10" points="
		-127.5,200.6 -116.3,194.1 -113.3,199.3 -126.5,207 	"/>
	<path fill="none" stroke="#222222" stroke-width="4" stroke-linecap="round" stroke-linejoin="round" stroke-miterlimit="10" d="
		M-113.6,230.8l-10.5-18.2c-6.9-12-2.8-27.2,9.2-34.2c12-6.9,27.2-2.8,34.2,9.2l21,36.4l-43.3,25l-4.8-8"/>
</g>
<polygon fill="none" stroke="#222222" stroke-width="4" stroke-linecap="round" stroke-linejoin="round" stroke-miterlimit="10" points="
	-62,267 -90,267 -86,255 -66,255 "/>
<polygon fill="none" stroke="#222222" stroke-width="4" stroke-linecap="round" stroke-linejoin="round" stroke-miterlimit="10" points="
	-108,267 -136,267 -132,255 -112,255 "/>
<line fill="none" stroke="#222222" stroke-width="4" stroke-linecap="round" stroke-linejoin="round" stroke-miterlimit="10" x1="-72" y1="255" x2="-72" y2="246.4"/>
<line fill="none" stroke="#222222" stroke-width="4" stroke-linecap="round" stroke-linejoin="round" stroke-miterlimit="10" x1="-80" y1="255" x2="-80" y2="249.7"/>
<g>
	
		<circle fill="none" stroke="#222222" stroke-width="4" stroke-linecap="round" stroke-linejoin="round" stroke-miterlimit="10" cx="-97" cy="211" r="5"/>
</g>
<g>
	
		<circle fill="none" stroke="#222222" stroke-width="4" stroke-linecap="round" stroke-linejoin="round" stroke-miterlimit="10" cx="-147" cy="208" r="5"/>
</g>
<g>
	<path fill="none" stroke="#222222" stroke-width="4" stroke-linecap="round" stroke-linejoin="round" stroke-miterlimit="10" d="
		M-131,226c0,2.8-2.2,5-5,5"/>
</g>
<g>
	<path fill="none" stroke="#222222" stroke-width="4" stroke-linecap="round" stroke-linejoin="round" stroke-miterlimit="10" d="
		M-126,231c-2.8,0-5-2.2-5-5"/>
</g>
<g>
	<path fill="none" stroke="#222222" stroke-width="4" stroke-linecap="round" stroke-linejoin="round" stroke-miterlimit="10" d="
		M-136,231c2.8,0,5,2.2,5,5"/>
</g>
<g>
	<path fill="none" stroke="#222222" stroke-width="4" stroke-linecap="round" stroke-linejoin="round" stroke-miterlimit="10" d="
		M-131,236c0-2.8,2.2-5,5-5"/>
</g>
<line fill="none" stroke="#222222" stroke-width="4" stroke-linecap="round" stroke-linejoin="round" stroke-miterlimit="10" x1="-127" y1="255" x2="-101.3" y2="208.4"/>
<line fill="none" stroke="#222222" stroke-width="4" stroke-linecap="round" stroke-linejoin="round" stroke-miterlimit="10" x1="-116" y1="255" x2="-92.8" y2="213.8"/>
<path fill="none" stroke="#222222" stroke-width="4" stroke-linecap="round" stroke-linejoin="round" stroke-miterlimit="10" d="
	M-86.6,205.1c3.3,5.8,1.2,13.1-4.5,16.4c-2.2,1.2-4.5,1.7-6.8,1.5"/>
<path fill="none" stroke="#222222" stroke-width="4" stroke-linecap="round" stroke-linejoin="round" stroke-miterlimit="10" d="
	M4,257.3c0-2.9,3.2-5.3,6-5.3c2.8,0,6,2.4,6,5.3v2.7H4V257.3z"/>
<g>
	
		<circle fill="none" stroke="#222222" stroke-width="4" stroke-linecap="round" stroke-linejoin="round" stroke-miterlimit="10" cx="-1" cy="205" r="1"/>
</g>
<g>
	
		<circle fill="none" stroke="#222222" stroke-width="4" stroke-linecap="round" stroke-linejoin="round" stroke-miterlimit="10" cx="21" cy="205" r="1"/>
</g>
<line fill="none" stroke="#222222" stroke-width="4" stroke-linecap="round" stroke-linejoin="round" stroke-miterlimit="10" x1="-14" y1="267.3" x2="34" y2="267.3"/>
<rect x="34" y="259" fill="none" stroke="#222222" stroke-width="4" stroke-linecap="round" stroke-linejoin="round" stroke-miterlimit="10" width="18" height="8"/>
<rect x="-32" y="259" fill="none" stroke="#222222" stroke-width="4" stroke-linecap="round" stroke-linejoin="round" stroke-miterlimit="10" width="18" height="8"/>
<line fill="none" stroke="#222222" stroke-width="4" stroke-linecap="round" stroke-linejoin="round" stroke-miterlimit="10" x1="-32" y1="267.3" x2="-36" y2="267.3"/>
<line fill="none" stroke="#222222" stroke-width="4" stroke-linecap="round" stroke-linejoin="round" stroke-miterlimit="10" x1="56" y1="267.3" x2="52" y2="267.3"/>
<path fill="none" stroke="#222222" stroke-width="4" stroke-linecap="round" stroke-linejoin="round" stroke-miterlimit="10" d="
	M-5.5,256c2.7-5.9,8.6-10,15.5-10c6.9,0,12.8,4.1,15.5,10"/>
<line fill="none" stroke="#222222" stroke-width="4" stroke-linecap="round" stroke-linejoin="round" stroke-miterlimit="10" x1="15.8" y1="256" x2="25" y2="256"/>
<line fill="none" stroke="#222222" stroke-width="4" stroke-linecap="round" stroke-linejoin="round" stroke-miterlimit="10" x1="-5" y1="256" x2="4.2" y2="256"/>
<line fill="none" stroke="#222222" stroke-width="4" stroke-linecap="round" stroke-linejoin="round" stroke-miterlimit="10" x1="14" y1="260.3" x2="14" y2="267.3"/>
<line fill="none" stroke="#222222" stroke-width="4" stroke-linecap="round" stroke-linejoin="round" stroke-miterlimit="10" x1="6" y1="260.3" x2="6" y2="267.3"/>
<line fill="none" stroke="#222222" stroke-width="4" stroke-linecap="round" stroke-linejoin="round" stroke-miterlimit="10" x1="0" y1="256" x2="-4" y2="267"/>
<line fill="none" stroke="#222222" stroke-width="4" stroke-linecap="round" stroke-linejoin="round" stroke-miterlimit="10" x1="20" y1="256" x2="24" y2="267"/>
<path fill="none" stroke="#222222" stroke-width="4" stroke-linecap="round" stroke-linejoin="round" stroke-miterlimit="10" d="
	M-14,201c0-13.3,10.7-24,24-24s24,10.7,24,24c0,0-1.8,24.9-3.1,33.2c-0.8,5.5-5.4,21.8-5.4,21.8"/>
<path fill="none" stroke="#222222" stroke-width="4" stroke-linecap="round" stroke-linejoin="round" stroke-miterlimit="10" d="
	M-14,201c0,0,1.7,25,3,33.4c0.8,5.3,5.2,21.3,5.2,21.3"/>
<path fill="none" stroke="#222222" stroke-width="4" stroke-linecap="round" stroke-linejoin="round" stroke-miterlimit="10" d="
	M29.5,187c-4.4,6.1-11.5,10-19.5,10c-8,0-15.1-3.9-19.5-10"/>
<path fill="none" stroke="#222222" stroke-width="4" stroke-linecap="round" stroke-linejoin="round" stroke-miterlimit="10" d="
	M-10.6,236.7c4.2-7,11.8-11.7,20.6-11.7c8.6,0,16.2,4.6,20.4,11.4"/>
<polyline fill="none" stroke="#222222" stroke-width="4" stroke-linecap="round" stroke-linejoin="round" stroke-miterlimit="10" points="
	33.5,196 41,196 41,214 33,214 "/>
<line fill="none" stroke="#222222" stroke-width="4" stroke-linecap="round" stroke-linejoin="round" stroke-miterlimit="10" x1="37" y1="196.3" x2="37" y2="175.3"/>
<polyline fill="none" stroke="#222222" stroke-width="4" stroke-linecap="round" stroke-linejoin="round" stroke-miterlimit="10" points="
	-13,214 -19,214 -19,196 -13.5,196 "/>
<g>
	<path fill="none" stroke="#222222" stroke-width="4" stroke-linecap="round" stroke-linejoin="round" stroke-miterlimit="10" d="
		M89.7,215c-7.4-12.8-3-29.1,9.8-36.5c12.8-7.4,29.1-3,36.5,9.8"/>
	
		<polyline fill="none" stroke="#222222" stroke-width="4" stroke-linecap="round" stroke-linejoin="round" stroke-miterlimit="10" points="
		135.9,188.4 134,195.6 97,217 89.7,215 	"/>
	<circle fill="none" stroke="#222222" stroke-width="4" stroke-linecap="round" stroke-miterlimit="10" cx="108" cy="193" r="8"/>
	<g>
		
			<circle fill="none" stroke="#222222" stroke-width="4" stroke-linecap="round" stroke-linejoin="round" stroke-miterlimit="10" cx="125" cy="190" r="1"/>
	</g>
</g>
<g>
	
		<circle fill="none" stroke="#222222" stroke-width="4" stroke-linecap="round" stroke-linejoin="round" stroke-miterlimit="10" cx="139" cy="224" r="1"/>
</g>
<g>
	
		<circle fill="none" stroke="#222222" stroke-width="4" stroke-linecap="round" stroke-linejoin="round" stroke-miterlimit="10" cx="112" cy="247" r="1"/>
</g>
<path fill="none" stroke="#222222" stroke-width="4" stroke-linecap="round" stroke-linejoin="round" stroke-miterlimit="10" d="
	M131.7,197c18.6,0.9,33.3,16.2,33.3,35c0,19.3-15.7,35-35,35s-35-15.7-35-35c0-5.3,1.1-11.2,3.2-15.7"/>
<path fill="none" stroke="#222222" stroke-width="4" stroke-linecap="round" stroke-linejoin="round" stroke-miterlimit="10" d="
	M164.8,228c-12.6-7-22.8-17.7-29.3-30.6"/>
<path fill="none" stroke="#222222" stroke-width="4" stroke-linecap="round" stroke-linejoin="round" stroke-miterlimit="10" d="
	M127.9,266.9c-2.8-1.5-5-3.7-6.1-6.5c-3.1-7.8,3.1-17.5,13.7-21.6c10.6-4.1,21.7-1.1,24.7,6.7c0.4,0.9,0.6,1.9,0.7,2.8"/>
<path fill="none" stroke="#222222" stroke-width="4" stroke-linecap="round" stroke-linejoin="round" stroke-miterlimit="10" d="
	M95.3,236.3c2.7,1.1,5.6,1.7,8.7,1.7c12.7,0,23-10.3,23-23c0-4.8-1.5-9.3-4-13"/>
<line fill="none" stroke="#222222" stroke-width="4" stroke-linecap="round" stroke-linejoin="round" stroke-miterlimit="10" x1="118.8" y1="232.6" x2="128.1" y2="243.1"/>
<line fill="none" stroke="#222222" stroke-width="4" stroke-linecap="round" stroke-linejoin="round" stroke-miterlimit="10" x1="157.7" y1="223.5" x2="154.1" y2="239.1"/>
<line fill="none" stroke="#222222" stroke-width="4" stroke-linecap="round" stroke-linejoin="round" stroke-miterlimit="10" x1="125.4" y1="206.6" x2="139.2" y2="203.9"/>
<line fill="none" stroke="#222222" stroke-width="4" stroke-linecap="round" stroke-linejoin="round" stroke-miterlimit="10" x1="85" y1="267.3" x2="80" y2="267.3"/>
<line fill="none" stroke="#222222" stroke-width="4" stroke-linecap="round" stroke-linejoin="round" stroke-miterlimit="10" x1="157" y1="267.3" x2="93" y2="267.3"/>
<line fill="none" stroke="#222222" stroke-width="4" stroke-linecap="round" stroke-linejoin="round" stroke-miterlimit="10" x1="172" y1="267.3" x2="165" y2="267.3"/>
<path fill="none" stroke="#222222" stroke-width="4" stroke-linecap="round" stroke-linejoin="round" stroke-miterlimit="10" d="
	M111.4,208.7c2.2,1.6,3.6,4.1,3.6,7c0,4.8-3.9,8.7-8.7,8.7c-4.5,0-8.2-3.4-8.6-7.8"/>
<path fill="none" stroke="#222222" stroke-width="4" stroke-linecap="round" stroke-linejoin="round" stroke-miterlimit="10" d="
	M149.9,253.8c0.6,3.6-2.5,7.6-6.9,8.8c-4.4,1.2-8.4-0.7-8.9-4.4c-0.6-3.6,2.5-7.6,6.9-8.8C145.4,248.2,149.4,250.1,149.9,253.8z"/>
<path fill="none" stroke="#222222" stroke-width="4" stroke-linecap="round" stroke-linejoin="round" stroke-miterlimit="10" d="
	M-83,123.3c0,4.4-3.6,8-8,8c-4.4,0-8-3.6-8-8c0-4.4,3.6-12.6,8-12.6C-86.6,110.7-83,118.9-83,123.3z"/>
<g>
	
		<circle fill="none" stroke="#222222" stroke-width="4" stroke-linecap="round" stroke-linejoin="round" stroke-miterlimit="10" cx="-70" cy="118" r="5"/>
</g>
<g>
	
		<circle fill="none" stroke="#222222" stroke-width="4" stroke-linecap="round" stroke-linejoin="round" stroke-miterlimit="10" cx="-112" cy="118" r="5"/>
</g>
<path fill="none" stroke="#222222" stroke-width="4" stroke-linecap="round" stroke-linejoin="round" stroke-miterlimit="10" d="
	M-98.1,127.1c-0.6,1.1-1.6,2.5-2.5,3.4c-4.7,4.7-12.3,4.7-17,0l-5-5c-2.7-2.7-3.8-6.3-3.4-9.9c0,0-7.1-9.6-7.1-13.5
	c0-4.4,3.6-7.9,8-7.9h-4l2-16h2V66l0,0c0-13.2,10.8-23.7,24-23.7h10h10c13.2,0,24,10.5,24,23.7l0,0v12.3h2l2,16h-4
	c4.4,0,8,3.4,8,7.9c0,3.9-7.1,13.6-7.1,13.6c0.4,3.5-0.7,7.1-3.4,9.8l-5,5c-4.7,4.7-12.3,4.7-17,0c-0.9-0.9-1.9-2.4-2.5-3.4"/>
<path fill="none" stroke="#222222" stroke-width="4" stroke-linecap="round" stroke-linejoin="round" stroke-miterlimit="10" d="
	M-65,85c0,2.8-2.2,5.1-5,5.1c-5.6,0-15-4.9-15-11.9h20V85z"/>
<path fill="none" stroke="#222222" stroke-width="4" stroke-linecap="round" stroke-linejoin="round" stroke-miterlimit="10" d="
	M-117,85c0,2.8,2.3,5.1,5,5.1c5.6,0,15-4.9,15-11.9h-20V85z"/>
<path fill="none" stroke="#222222" stroke-width="4" stroke-linecap="round" stroke-linejoin="round" stroke-miterlimit="10" d="
	M-71,105c-3,0-6.4-2.5-11.8-5.5c-2.4-1.3-5-2.5-8.3-2.5c-3.3,0-5.8,1.2-8.3,2.5c-5.4,3-8.8,5.5-11.8,5.5"/>
<line fill="none" stroke="#222222" stroke-width="4" stroke-linecap="round" stroke-miterlimit="10" x1="-125" y1="70.3" x2="-57" y2="70.3"/>
<line fill="none" stroke="#222222" stroke-width="4" stroke-linecap="round" stroke-miterlimit="10" x1="-124.9" y1="64" x2="-57.1" y2="64"/>
</svg>
