<?xml version="1.0" encoding="utf-8"?>
<!-- Generator: Adobe Illustrator 18.1.1, SVG Export Plug-In . SVG Version: 6.00 Build 0)  -->
<svg version="1.1" id="Layer_1" xmlns="http://www.w3.org/2000/svg" xmlns:xlink="http://www.w3.org/1999/xlink" x="0px" y="0px"
	 viewBox="0 0 98.4 100" enable-background="new 0 0 98.4 100" xml:space="preserve">
<g>
	<circle fill="none" stroke="#222222" stroke-width="4" stroke-linecap="round" stroke-miterlimit="10" cx="36" cy="29" r="1"/>
</g>
<circle fill="none" stroke="#222222" stroke-width="4" stroke-linecap="round" stroke-miterlimit="10" cx="36" cy="29" r="13"/>
<g>
	
		<circle fill="none" stroke="#222222" stroke-width="4" stroke-linecap="round" stroke-linejoin="round" stroke-miterlimit="10" cx="94" cy="26" r="1"/>
</g>
<g>
	
		<circle fill="none" stroke="#222222" stroke-width="4" stroke-linecap="round" stroke-linejoin="round" stroke-miterlimit="10" cx="85" cy="93" r="1"/>
</g>
<g>
	
		<circle fill="none" stroke="#222222" stroke-width="4" stroke-linecap="round" stroke-linejoin="round" stroke-miterlimit="10" cx="87" cy="9" r="5"/>
</g>
<line fill="none" stroke="#222222" stroke-width="4" stroke-linecap="round" stroke-miterlimit="10" x1="3" y1="50.3" x2="95" y2="50.3"/>
<line fill="none" stroke="#222222" stroke-width="4" stroke-linecap="round" stroke-miterlimit="10" x1="62" y1="11.3" x2="75" y2="11.3"/>
<line fill="none" stroke="#222222" stroke-width="4" stroke-linecap="round" stroke-miterlimit="10" x1="72" y1="26.3" x2="87" y2="26.3"/>
<line fill="none" stroke="#222222" stroke-width="4" stroke-linecap="round" stroke-miterlimit="10" x1="69" y1="32.3" x2="85" y2="32.3"/>
<line fill="none" stroke="#222222" stroke-width="4" stroke-linecap="round" stroke-miterlimit="10" x1="69" y1="18.3" x2="79" y2="18.3"/>
<line fill="none" stroke="#222222" stroke-width="4" stroke-linecap="round" stroke-miterlimit="10" x1="72" y1="96.3" x2="49" y2="96.3"/>
<line fill="none" stroke="#222222" stroke-width="4" stroke-linecap="round" stroke-miterlimit="10" x1="91" y1="77.3" x2="76" y2="77.3"/>
<line fill="none" stroke="#222222" stroke-width="4" stroke-linecap="round" stroke-miterlimit="10" x1="88" y1="71.3" x2="67" y2="71.3"/>
<line fill="none" stroke="#222222" stroke-width="4" stroke-linecap="round" stroke-miterlimit="10" x1="83" y1="84.3" x2="73" y2="84.3"/>
<line fill="none" stroke="#222222" stroke-width="4" stroke-linecap="round" stroke-miterlimit="10" x1="84" y1="44" x2="94.6" y2="44"/>
<line fill="none" stroke="#222222" stroke-width="4" stroke-linecap="round" stroke-miterlimit="10" x1="87" y1="61" x2="93.6" y2="61"/>
<line fill="none" stroke="#222222" stroke-width="4" stroke-linecap="round" stroke-miterlimit="10" x1="90" y1="56" x2="94.6" y2="56"/>
<path fill="none" stroke="#222222" stroke-width="4" stroke-linecap="round" stroke-miterlimit="10" d="M53,85.8
	c-0.6,0.1-1.2,0.1-1.8,0.2"/>
<path fill="none" stroke="#222222" stroke-width="4" stroke-linecap="round" stroke-miterlimit="10" d="M44,86
	c-9.9-1.5-18.9-7.4-24.4-15.3"/>
<line fill="none" stroke="#222222" stroke-width="4" stroke-linecap="round" stroke-miterlimit="10" x1="84" y1="56.3" x2="82" y2="56.3"/>
<line fill="none" stroke="#222222" stroke-width="4" stroke-linecap="round" stroke-miterlimit="10" x1="79" y1="61.3" x2="77" y2="61.3"/>
<line fill="none" stroke="#222222" stroke-width="4" stroke-linecap="round" stroke-miterlimit="10" x1="61" y1="71.3" x2="59" y2="71.3"/>
<line fill="none" stroke="#222222" stroke-width="4" stroke-linecap="round" stroke-miterlimit="10" x1="65" y1="26.3" x2="63" y2="26.3"/>
<path fill="none" stroke="#222222" stroke-width="4" stroke-linecap="round" stroke-linejoin="round" stroke-miterlimit="10" d="
	M70.2,90.9c0,0,8.5-3.5,12.2-22.4c0,0,0.1-3.1,9.7-2.1h0c1.9-5,3-10.6,3-16.3c0-4.1-0.5-8-1.5-11.8l-0.1-0.4c-9.2,0.8-13-1.8-13-1.8
	c-4-21.3-14.2-28.7-14.2-28.7l0,0C60.8,5.2,55.1,4,49,4C23.6,4,3,24.6,3,50s20.6,46,46,46C56.6,96,63.8,94.2,70.2,90.9L70.2,90.9z"
	/>
</svg>
